<svg width="217" height="12" viewBox="0 0 217 12" fill="none" xmlns="http://www.w3.org/2000/svg">
<path d="M214.579 9.14406C214.003 9.14406 213.519 9.03606 213.127 8.82006C212.743 8.59606 212.411 8.30006 212.131 7.93206L212.815 7.38006C213.055 7.68406 213.323 7.92006 213.619 8.08806C213.915 8.24806 214.259 8.32806 214.651 8.32806C215.059 8.32806 215.375 8.24006 215.599 8.06406C215.831 7.88806 215.947 7.64006 215.947 7.32006C215.947 7.08006 215.867 6.87606 215.707 6.70806C215.555 6.53206 215.275 6.41206 214.867 6.34806L214.375 6.27606C214.087 6.23606 213.823 6.17606 213.583 6.09606C213.343 6.00806 213.131 5.89606 212.947 5.76006C212.771 5.61606 212.631 5.44006 212.527 5.23206C212.431 5.02406 212.383 4.77606 212.383 4.48806C212.383 4.18406 212.439 3.92006 212.551 3.69606C212.663 3.46406 212.815 3.27206 213.007 3.12006C213.207 2.96806 213.443 2.85606 213.715 2.78406C213.987 2.70406 214.279 2.66406 214.591 2.66406C215.095 2.66406 215.515 2.75206 215.851 2.92806C216.195 3.10406 216.495 3.34806 216.751 3.66006L216.115 4.23606C215.979 4.04406 215.779 3.87206 215.515 3.72006C215.251 3.56006 214.919 3.48006 214.519 3.48006C214.119 3.48006 213.815 3.56806 213.607 3.74406C213.407 3.91206 213.307 4.14406 213.307 4.44006C213.307 4.74406 213.407 4.96406 213.607 5.10006C213.815 5.23606 214.111 5.33606 214.495 5.40006L214.975 5.47206C215.663 5.57606 216.151 5.77606 216.439 6.07206C216.727 6.36006 216.871 6.74006 216.871 7.21206C216.871 7.81206 216.667 8.28406 216.259 8.62806C215.851 8.97206 215.291 9.14406 214.579 9.14406Z" fill="white"/>
<path d="M210.199 1.356C209.991 1.356 209.839 1.30799 209.743 1.21199C209.655 1.10799 209.611 0.975995 209.611 0.815995V0.659995C209.611 0.499995 209.655 0.371994 209.743 0.275994C209.839 0.171995 209.991 0.119995 210.199 0.119995C210.407 0.119995 210.555 0.171995 210.643 0.275994C210.739 0.371994 210.787 0.499995 210.787 0.659995V0.815995C210.787 0.975995 210.739 1.10799 210.643 1.21199C210.555 1.30799 210.407 1.356 210.199 1.356ZM209.719 2.80799H210.679V9H209.719V2.80799Z" fill="white"/>
<path d="M202.899 0.119995H203.859V3.816H203.907C204.059 3.464 204.271 3.184 204.543 2.976C204.823 2.768 205.195 2.664 205.659 2.664C206.299 2.664 206.803 2.872 207.171 3.288C207.547 3.696 207.735 4.276 207.735 5.028V9H206.775V5.196C206.775 4.084 206.307 3.528 205.371 3.528C205.179 3.528 204.991 3.552 204.807 3.6C204.631 3.64799 204.471 3.72 204.327 3.816C204.183 3.912 204.067 4.036 203.979 4.18799C203.899 4.332 203.859 4.50399 203.859 4.70399V9H202.899V0.119995Z" fill="white"/>
<path d="M200.06 9.00004C199.724 9.00004 199.468 8.90804 199.292 8.72404C199.124 8.53204 199.04 8.28404 199.04 7.98004V3.64804H198.02V2.80804H198.596C198.804 2.80804 198.944 2.76804 199.016 2.68804C199.096 2.60004 199.136 2.45204 199.136 2.24404V1.09204H200V2.80804H201.356V3.64804H200V8.16004H201.26V9.00004H200.06Z" fill="white"/>
<path d="M185.997 2.80798H186.933L187.593 5.48398L188.253 8.19598H188.277L189.033 5.48398L189.813 2.80798H190.665L191.469 5.48398L192.237 8.19598H192.261L192.897 5.48398L193.569 2.80798H194.469L192.825 8.99998H191.637L190.773 6.02398L190.233 4.13998H190.209L189.681 6.02398L188.817 8.99998H187.653L185.997 2.80798Z" fill="white"/>
<path d="M182.329 9.14406C181.913 9.14406 181.533 9.06806 181.189 8.91606C180.845 8.76406 180.549 8.54806 180.301 8.26806C180.061 7.98006 179.873 7.64006 179.737 7.24806C179.601 6.84806 179.533 6.40006 179.533 5.90406C179.533 5.41606 179.601 4.97206 179.737 4.57206C179.873 4.17206 180.061 3.83206 180.301 3.55206C180.549 3.26406 180.845 3.04406 181.189 2.89206C181.533 2.74006 181.913 2.66406 182.329 2.66406C182.745 2.66406 183.121 2.74006 183.457 2.89206C183.801 3.04406 184.097 3.26406 184.345 3.55206C184.593 3.83206 184.785 4.17206 184.921 4.57206C185.057 4.97206 185.125 5.41606 185.125 5.90406C185.125 6.40006 185.057 6.84806 184.921 7.24806C184.785 7.64006 184.593 7.98006 184.345 8.26806C184.097 8.54806 183.801 8.76406 183.457 8.91606C183.121 9.06806 182.745 9.14406 182.329 9.14406ZM182.329 8.29206C182.849 8.29206 183.273 8.13206 183.601 7.81206C183.929 7.49206 184.093 7.00406 184.093 6.34806V5.46006C184.093 4.80406 183.929 4.31606 183.601 3.99606C183.273 3.67606 182.849 3.51606 182.329 3.51606C181.809 3.51606 181.385 3.67606 181.057 3.99606C180.729 4.31606 180.565 4.80406 180.565 5.46006V6.34806C180.565 7.00406 180.729 7.49206 181.057 7.81206C181.385 8.13206 181.809 8.29206 182.329 8.29206Z" fill="white"/>
<path d="M177.739 9C177.403 9 177.147 8.908 176.971 8.724C176.803 8.53199 176.719 8.292 176.719 8.00399V0.119995H177.679V8.16H178.591V9H177.739Z" fill="white"/>
<path d="M174.528 9C174.192 9 173.936 8.908 173.76 8.724C173.592 8.53199 173.508 8.292 173.508 8.00399V0.119995H174.468V8.16H175.38V9H174.528Z" fill="white"/>
<path d="M169.133 9.14406C168.717 9.14406 168.337 9.06806 167.993 8.91606C167.649 8.76406 167.353 8.54806 167.105 8.26806C166.865 7.98006 166.677 7.64006 166.541 7.24806C166.405 6.84806 166.337 6.40006 166.337 5.90406C166.337 5.41606 166.405 4.97206 166.541 4.57206C166.677 4.17206 166.865 3.83206 167.105 3.55206C167.353 3.26406 167.649 3.04406 167.993 2.89206C168.337 2.74006 168.717 2.66406 169.133 2.66406C169.549 2.66406 169.925 2.74006 170.261 2.89206C170.605 3.04406 170.901 3.26406 171.149 3.55206C171.397 3.83206 171.589 4.17206 171.725 4.57206C171.861 4.97206 171.929 5.41606 171.929 5.90406C171.929 6.40006 171.861 6.84806 171.725 7.24806C171.589 7.64006 171.397 7.98006 171.149 8.26806C170.901 8.54806 170.605 8.76406 170.261 8.91606C169.925 9.06806 169.549 9.14406 169.133 9.14406ZM169.133 8.29206C169.653 8.29206 170.077 8.13206 170.405 7.81206C170.733 7.49206 170.897 7.00406 170.897 6.34806V5.46006C170.897 4.80406 170.733 4.31606 170.405 3.99606C170.077 3.67606 169.653 3.51606 169.133 3.51606C168.613 3.51606 168.189 3.67606 167.861 3.99606C167.533 4.31606 167.369 4.80406 167.369 5.46006V6.34806C167.369 7.00406 167.533 7.49206 167.861 7.81206C168.189 8.13206 168.613 8.29206 169.133 8.29206Z" fill="white"/>
<path d="M163.286 3.64799H162.278V2.80799H163.286V1.56C163.286 1.128 163.398 0.779995 163.622 0.515995C163.846 0.251995 164.186 0.119995 164.642 0.119995H165.578V0.959995H164.246V2.80799H165.578V3.64799H164.246V9H163.286V3.64799Z" fill="white"/>
<path d="M156.126 9.14406C155.55 9.14406 155.066 9.03606 154.674 8.82006C154.29 8.59606 153.958 8.30006 153.678 7.93206L154.362 7.38006C154.602 7.68406 154.87 7.92006 155.166 8.08806C155.462 8.24806 155.806 8.32806 156.198 8.32806C156.606 8.32806 156.922 8.24006 157.146 8.06406C157.378 7.88806 157.494 7.64006 157.494 7.32006C157.494 7.08006 157.414 6.87606 157.254 6.70806C157.102 6.53206 156.822 6.41206 156.414 6.34806L155.922 6.27606C155.634 6.23606 155.37 6.17606 155.13 6.09606C154.89 6.00806 154.678 5.89606 154.494 5.76006C154.318 5.61606 154.178 5.44006 154.074 5.23206C153.978 5.02406 153.93 4.77606 153.93 4.48806C153.93 4.18406 153.986 3.92006 154.098 3.69606C154.21 3.46406 154.362 3.27206 154.554 3.12006C154.754 2.96806 154.99 2.85606 155.262 2.78406C155.534 2.70406 155.826 2.66406 156.138 2.66406C156.642 2.66406 157.062 2.75206 157.398 2.92806C157.742 3.10406 158.042 3.34806 158.298 3.66006L157.662 4.23606C157.526 4.04406 157.326 3.87206 157.062 3.72006C156.798 3.56006 156.466 3.48006 156.066 3.48006C155.666 3.48006 155.362 3.56806 155.154 3.74406C154.954 3.91206 154.854 4.14406 154.854 4.44006C154.854 4.74406 154.954 4.96406 155.154 5.10006C155.362 5.23606 155.658 5.33606 156.042 5.40006L156.522 5.47206C157.21 5.57606 157.698 5.77606 157.986 6.07206C158.274 6.36006 158.418 6.74006 158.418 7.21206C158.418 7.81206 158.214 8.28406 157.806 8.62806C157.398 8.97206 156.838 9.14406 156.126 9.14406Z" fill="white"/>
<path d="M149.86 8.99998V2.80798H150.82V3.94798H150.88C150.992 3.65198 151.192 3.38798 151.48 3.15598C151.768 2.92398 152.164 2.80798 152.668 2.80798H153.04V3.76798H152.476C151.956 3.76798 151.548 3.86798 151.252 4.06798C150.964 4.25998 150.82 4.50398 150.82 4.79998V8.99998H149.86Z" fill="white"/>
<path d="M145.602 9.14406C145.178 9.14406 144.794 9.06806 144.45 8.91606C144.114 8.76406 143.822 8.54806 143.574 8.26806C143.334 7.98006 143.146 7.64006 143.01 7.24806C142.882 6.84806 142.818 6.40006 142.818 5.90406C142.818 5.41606 142.882 4.97206 143.01 4.57206C143.146 4.17206 143.334 3.83206 143.574 3.55206C143.822 3.26406 144.114 3.04406 144.45 2.89206C144.794 2.74006 145.178 2.66406 145.602 2.66406C146.018 2.66406 146.39 2.74006 146.718 2.89206C147.046 3.04406 147.326 3.25606 147.558 3.52806C147.79 3.79206 147.966 4.10806 148.086 4.47606C148.214 4.84406 148.278 5.24806 148.278 5.68806V6.14406H143.826V6.43206C143.826 6.69606 143.866 6.94406 143.946 7.17606C144.034 7.40006 144.154 7.59606 144.306 7.76406C144.466 7.93206 144.658 8.06406 144.882 8.16006C145.114 8.25606 145.374 8.30406 145.662 8.30406C146.054 8.30406 146.394 8.21206 146.682 8.02806C146.978 7.84406 147.206 7.58006 147.366 7.23606L148.05 7.72806C147.85 8.15206 147.538 8.49606 147.114 8.76006C146.69 9.01606 146.186 9.14406 145.602 9.14406ZM145.602 3.46806C145.338 3.46806 145.098 3.51606 144.882 3.61206C144.666 3.70006 144.478 3.82806 144.318 3.99606C144.166 4.16406 144.046 4.36406 143.958 4.59606C143.87 4.82006 143.826 5.06806 143.826 5.34006V5.42406H147.246V5.29206C147.246 4.74006 147.094 4.30006 146.79 3.97206C146.494 3.63606 146.098 3.46806 145.602 3.46806Z" fill="white"/>
<path d="M139.016 9.14406C138.592 9.14406 138.208 9.06806 137.864 8.91606C137.528 8.76406 137.236 8.54806 136.988 8.26806C136.748 7.98006 136.56 7.64006 136.424 7.24806C136.296 6.84806 136.232 6.40006 136.232 5.90406C136.232 5.41606 136.296 4.97206 136.424 4.57206C136.56 4.17206 136.748 3.83206 136.988 3.55206C137.236 3.26406 137.528 3.04406 137.864 2.89206C138.208 2.74006 138.592 2.66406 139.016 2.66406C139.432 2.66406 139.804 2.74006 140.132 2.89206C140.46 3.04406 140.74 3.25606 140.972 3.52806C141.204 3.79206 141.38 4.10806 141.5 4.47606C141.628 4.84406 141.692 5.24806 141.692 5.68806V6.14406H137.24V6.43206C137.24 6.69606 137.28 6.94406 137.36 7.17606C137.448 7.40006 137.568 7.59606 137.72 7.76406C137.88 7.93206 138.072 8.06406 138.296 8.16006C138.528 8.25606 138.788 8.30406 139.076 8.30406C139.468 8.30406 139.808 8.21206 140.096 8.02806C140.392 7.84406 140.62 7.58006 140.78 7.23606L141.464 7.72806C141.264 8.15206 140.952 8.49606 140.528 8.76006C140.104 9.01606 139.6 9.14406 139.016 9.14406ZM139.016 3.46806C138.752 3.46806 138.512 3.51606 138.296 3.61206C138.08 3.70006 137.892 3.82806 137.732 3.99606C137.58 4.16406 137.46 4.36406 137.372 4.59606C137.284 4.82006 137.24 5.06806 137.24 5.34006V5.42406H140.66V5.29206C140.66 4.74006 140.508 4.30006 140.204 3.97206C139.908 3.63606 139.512 3.46806 139.016 3.46806Z" fill="white"/>
<path d="M129.868 9.00006V2.80806H130.828V3.81606H130.876C131.028 3.46406 131.24 3.18406 131.512 2.97606C131.792 2.76806 132.164 2.66406 132.628 2.66406C133.268 2.66406 133.772 2.87206 134.14 3.28806C134.516 3.69606 134.704 4.27606 134.704 5.02806V9.00006H133.744V5.19606C133.744 4.08406 133.276 3.52806 132.34 3.52806C132.148 3.52806 131.96 3.55206 131.776 3.60006C131.6 3.64806 131.44 3.72006 131.296 3.81606C131.152 3.91206 131.036 4.03606 130.948 4.18806C130.868 4.33206 130.828 4.50406 130.828 4.70406V9.00006H129.868Z" fill="white"/>
<path d="M127.348 1.356C127.14 1.356 126.988 1.30799 126.892 1.21199C126.804 1.10799 126.76 0.975995 126.76 0.815995V0.659995C126.76 0.499995 126.804 0.371994 126.892 0.275994C126.988 0.171995 127.14 0.119995 127.348 0.119995C127.556 0.119995 127.704 0.171995 127.792 0.275994C127.888 0.371994 127.936 0.499995 127.936 0.659995V0.815995C127.936 0.975995 127.888 1.10799 127.792 1.21199C127.704 1.30799 127.556 1.356 127.348 1.356ZM126.868 2.80799H127.828V9H126.868V2.80799Z" fill="white"/>
<path d="M125.748 9.68402C125.748 10.324 125.496 10.792 124.992 11.088C124.496 11.392 123.748 11.544 122.748 11.544C121.78 11.544 121.084 11.412 120.66 11.148C120.236 10.884 120.024 10.508 120.024 10.02C120.024 9.68402 120.112 9.42002 120.288 9.22802C120.464 9.04402 120.704 8.90802 121.008 8.82002V8.68802C120.64 8.51202 120.456 8.22402 120.456 7.82402C120.456 7.51202 120.556 7.27602 120.756 7.11602C120.956 6.94802 121.212 6.82402 121.524 6.74402V6.69602C121.156 6.52002 120.868 6.26802 120.66 5.94002C120.46 5.61202 120.36 5.23202 120.36 4.80002C120.36 4.48802 120.416 4.20002 120.528 3.93602C120.64 3.67202 120.796 3.44802 120.996 3.26402C121.204 3.07202 121.448 2.92402 121.728 2.82002C122.016 2.71602 122.336 2.66402 122.688 2.66402C123.128 2.66402 123.52 2.74402 123.864 2.90402V2.79602C123.864 2.55602 123.92 2.36002 124.032 2.20802C124.144 2.04802 124.328 1.96802 124.584 1.96802H125.508V2.80802H124.332V3.20402C124.556 3.39602 124.728 3.62802 124.848 3.90002C124.976 4.16402 125.04 4.46402 125.04 4.80002C125.04 5.11202 124.984 5.40002 124.872 5.66402C124.76 5.92802 124.6 6.15602 124.392 6.34802C124.192 6.53202 123.948 6.67602 123.66 6.78002C123.372 6.88402 123.052 6.93602 122.7 6.93602C122.5 6.93602 122.3 6.91602 122.1 6.87602C121.892 6.93202 121.704 7.01602 121.536 7.12802C121.368 7.23202 121.284 7.38002 121.284 7.57202C121.284 7.75602 121.372 7.88002 121.548 7.94402C121.724 8.00802 121.952 8.04002 122.232 8.04002H123.552C124.32 8.04002 124.876 8.18802 125.22 8.48402C125.572 8.77202 125.748 9.17202 125.748 9.68402ZM124.848 9.75602C124.848 9.50802 124.752 9.30802 124.56 9.15602C124.376 9.01202 124.044 8.94002 123.564 8.94002H121.5C121.116 9.11602 120.924 9.39602 120.924 9.78002C120.924 10.052 121.024 10.284 121.224 10.476C121.432 10.668 121.78 10.764 122.268 10.764H123.156C123.692 10.764 124.108 10.68 124.404 10.512C124.7 10.344 124.848 10.092 124.848 9.75602ZM122.7 6.16802C123.108 6.16802 123.432 6.07202 123.672 5.88002C123.912 5.68002 124.032 5.37602 124.032 4.96802V4.63202C124.032 4.22402 123.912 3.92402 123.672 3.73202C123.432 3.53202 123.108 3.43202 122.7 3.43202C122.292 3.43202 121.968 3.53202 121.728 3.73202C121.488 3.92402 121.368 4.22402 121.368 4.63202V4.96802C121.368 5.37602 121.488 5.68002 121.728 5.88002C121.968 6.07202 122.292 6.16802 122.7 6.16802Z" fill="white"/>
<path d="M113.708 9.00006V2.80806H114.668V3.81606H114.716C114.868 3.46406 115.08 3.18406 115.352 2.97606C115.632 2.76806 116.004 2.66406 116.468 2.66406C117.108 2.66406 117.612 2.87206 117.98 3.28806C118.356 3.69606 118.544 4.27606 118.544 5.02806V9.00006H117.584V5.19606C117.584 4.08406 117.116 3.52806 116.18 3.52806C115.988 3.52806 115.8 3.55206 115.616 3.60006C115.44 3.64806 115.28 3.72006 115.136 3.81606C114.992 3.91206 114.876 4.03606 114.788 4.18806C114.708 4.33206 114.668 4.50406 114.668 4.70406V9.00006H113.708Z" fill="white"/>
<path d="M106.807 9.00002V0.624023H111.919V1.51202H107.815V4.32002H111.679V5.20802H107.815V8.11202H111.919V9.00002H106.807Z" fill="white"/>
<path d="M99.4692 8.99998V2.80798H100.429V3.94798H100.489C100.601 3.65198 100.801 3.38798 101.089 3.15598C101.377 2.92398 101.773 2.80798 102.277 2.80798H102.649V3.76798H102.085C101.565 3.76798 101.157 3.86798 100.861 4.06798C100.573 4.25998 100.429 4.50398 100.429 4.79998V8.99998H99.4692Z" fill="white"/>
<path d="M95.2112 9.14406C94.7872 9.14406 94.4032 9.06806 94.0592 8.91606C93.7232 8.76406 93.4312 8.54806 93.1832 8.26806C92.9432 7.98006 92.7552 7.64006 92.6192 7.24806C92.4912 6.84806 92.4272 6.40006 92.4272 5.90406C92.4272 5.41606 92.4912 4.97206 92.6192 4.57206C92.7552 4.17206 92.9432 3.83206 93.1832 3.55206C93.4312 3.26406 93.7232 3.04406 94.0592 2.89206C94.4032 2.74006 94.7872 2.66406 95.2112 2.66406C95.6272 2.66406 95.9992 2.74006 96.3272 2.89206C96.6552 3.04406 96.9352 3.25606 97.1672 3.52806C97.3992 3.79206 97.5752 4.10806 97.6952 4.47606C97.8232 4.84406 97.8872 5.24806 97.8872 5.68806V6.14406H93.4352V6.43206C93.4352 6.69606 93.4752 6.94406 93.5552 7.17606C93.6432 7.40006 93.7632 7.59606 93.9152 7.76406C94.0752 7.93206 94.2672 8.06406 94.4912 8.16006C94.7232 8.25606 94.9832 8.30406 95.2712 8.30406C95.6632 8.30406 96.0032 8.21206 96.2912 8.02806C96.5872 7.84406 96.8152 7.58006 96.9752 7.23606L97.6592 7.72806C97.4592 8.15206 97.1472 8.49606 96.7232 8.76006C96.2992 9.01606 95.7952 9.14406 95.2112 9.14406ZM95.2112 3.46806C94.9472 3.46806 94.7072 3.51606 94.4912 3.61206C94.2752 3.70006 94.0872 3.82806 93.9272 3.99606C93.7752 4.16406 93.6552 4.36406 93.5672 4.59606C93.4792 4.82006 93.4352 5.06806 93.4352 5.34006V5.42406H96.8552V5.29206C96.8552 4.74006 96.7032 4.30006 96.3992 3.97206C96.1032 3.63606 95.7072 3.46806 95.2112 3.46806Z" fill="white"/>
<path d="M90.0913 9.00004C89.7553 9.00004 89.4993 8.90804 89.3233 8.72404C89.1553 8.53204 89.0713 8.28404 89.0713 7.98004V3.64804H88.0513V2.80804H88.6273C88.8353 2.80804 88.9753 2.76804 89.0473 2.68804C89.1273 2.60004 89.1673 2.45204 89.1673 2.24404V1.09204H90.0313V2.80804H91.3873V3.64804H90.0313V8.16004H91.2913V9.00004H90.0913Z" fill="white"/>
<path d="M85.7188 7.99198H85.6708C85.6068 8.13598 85.5268 8.27998 85.4308 8.42398C85.3428 8.55998 85.2308 8.68398 85.0948 8.79598C84.9588 8.89998 84.7948 8.98398 84.6028 9.04798C84.4108 9.11198 84.1868 9.14398 83.9308 9.14398C83.2908 9.14398 82.7828 8.93998 82.4068 8.53198C82.0308 8.11598 81.8428 7.53198 81.8428 6.77998V2.80798H82.8028V6.61198C82.8028 7.72398 83.2748 8.27998 84.2188 8.27998C84.4108 8.27998 84.5948 8.25598 84.7708 8.20798C84.9548 8.15998 85.1148 8.08798 85.2508 7.99198C85.3948 7.89598 85.5068 7.77598 85.5868 7.63198C85.6748 7.47998 85.7188 7.29998 85.7188 7.09198V2.80798H86.6788V8.99998H85.7188V7.99198Z" fill="white"/>
<path d="M74.9419 2.80806H75.9019V3.81606H75.9499C76.1099 3.42406 76.3419 3.13606 76.6459 2.95206C76.9579 2.76006 77.3299 2.66406 77.7619 2.66406C78.1459 2.66406 78.4939 2.74006 78.8059 2.89206C79.1179 3.04406 79.3819 3.26006 79.5979 3.54006C79.8219 3.82006 79.9899 4.16006 80.1019 4.56006C80.2219 4.96006 80.2819 5.40806 80.2819 5.90406C80.2819 6.40006 80.2219 6.84806 80.1019 7.24806C79.9899 7.64806 79.8219 7.98806 79.5979 8.26806C79.3819 8.54806 79.1179 8.76406 78.8059 8.91606C78.4939 9.06806 78.1459 9.14406 77.7619 9.14406C76.9219 9.14406 76.3179 8.76006 75.9499 7.99206H75.9019V11.4001H74.9419V2.80806ZM77.4979 8.28006C78.0419 8.28006 78.4699 8.11206 78.7819 7.77606C79.0939 7.43206 79.2499 6.98406 79.2499 6.43206V5.37606C79.2499 4.82406 79.0939 4.38006 78.7819 4.04406C78.4699 3.70006 78.0419 3.52806 77.4979 3.52806C77.2819 3.52806 77.0739 3.56006 76.8739 3.62406C76.6819 3.68006 76.5139 3.76006 76.3699 3.86406C76.2259 3.96806 76.1099 4.09606 76.0219 4.24806C75.9419 4.39206 75.9019 4.54806 75.9019 4.71606V7.02006C75.9019 7.22006 75.9419 7.40006 76.0219 7.56006C76.1099 7.71206 76.2259 7.84406 76.3699 7.95606C76.5139 8.06006 76.6819 8.14006 76.8739 8.19606C77.0739 8.25206 77.2819 8.28006 77.4979 8.28006Z" fill="white"/>
<path d="M64.4653 9.00006V2.80806H65.4253V3.81606H65.4733C65.5453 3.65606 65.6253 3.50806 65.7133 3.37206C65.8093 3.22806 65.9213 3.10406 66.0493 3.00006C66.1853 2.89606 66.3413 2.81606 66.5173 2.76006C66.6933 2.69606 66.9013 2.66406 67.1413 2.66406C67.5493 2.66406 67.9253 2.76406 68.2693 2.96406C68.6133 3.15606 68.8693 3.47606 69.0373 3.92406H69.0613C69.1733 3.58806 69.3813 3.29606 69.6853 3.04806C69.9973 2.79206 70.4173 2.66406 70.9453 2.66406C71.5773 2.66406 72.0693 2.87206 72.4213 3.28806C72.7813 3.69606 72.9613 4.27606 72.9613 5.02806V9.00006H72.0013V5.19606C72.0013 4.64406 71.8933 4.22806 71.6773 3.94806C71.4613 3.66806 71.1173 3.52806 70.6453 3.52806C70.4533 3.52806 70.2693 3.55206 70.0933 3.60006C69.9253 3.64806 69.7733 3.72006 69.6373 3.81606C69.5013 3.91206 69.3933 4.03606 69.3133 4.18806C69.2333 4.33206 69.1933 4.50406 69.1933 4.70406V9.00006H68.2333V5.19606C68.2333 4.64406 68.1253 4.22806 67.9093 3.94806C67.6933 3.66806 67.3573 3.52806 66.9013 3.52806C66.7093 3.52806 66.5253 3.55206 66.3493 3.60006C66.1733 3.64806 66.0173 3.72006 65.8813 3.81606C65.7453 3.91206 65.6333 4.03606 65.5453 4.18806C65.4653 4.33206 65.4253 4.50406 65.4253 4.70406V9.00006H64.4653Z" fill="white"/>
<path d="M60.0904 9.14406C59.6744 9.14406 59.2944 9.06806 58.9504 8.91606C58.6064 8.76406 58.3104 8.54806 58.0624 8.26806C57.8224 7.98006 57.6344 7.64006 57.4984 7.24806C57.3624 6.84806 57.2944 6.40006 57.2944 5.90406C57.2944 5.41606 57.3624 4.97206 57.4984 4.57206C57.6344 4.17206 57.8224 3.83206 58.0624 3.55206C58.3104 3.26406 58.6064 3.04406 58.9504 2.89206C59.2944 2.74006 59.6744 2.66406 60.0904 2.66406C60.5064 2.66406 60.8824 2.74006 61.2184 2.89206C61.5624 3.04406 61.8584 3.26406 62.1064 3.55206C62.3544 3.83206 62.5464 4.17206 62.6824 4.57206C62.8184 4.97206 62.8864 5.41606 62.8864 5.90406C62.8864 6.40006 62.8184 6.84806 62.6824 7.24806C62.5464 7.64006 62.3544 7.98006 62.1064 8.26806C61.8584 8.54806 61.5624 8.76406 61.2184 8.91606C60.8824 9.06806 60.5064 9.14406 60.0904 9.14406ZM60.0904 8.29206C60.6104 8.29206 61.0344 8.13206 61.3624 7.81206C61.6904 7.49206 61.8544 7.00406 61.8544 6.34806V5.46006C61.8544 4.80406 61.6904 4.31606 61.3624 3.99606C61.0344 3.67606 60.6104 3.51606 60.0904 3.51606C59.5704 3.51606 59.1464 3.67606 58.8184 3.99606C58.4904 4.31606 58.3264 4.80406 58.3264 5.46006V6.34806C58.3264 7.00406 58.4904 7.49206 58.8184 7.81206C59.1464 8.13206 59.5704 8.29206 60.0904 8.29206Z" fill="white"/>
<path d="M53.3454 9.14398C52.2814 9.14398 51.4534 8.78398 50.8614 8.06398C50.2694 7.33598 49.9734 6.26798 49.9734 4.85998C49.9734 3.45198 50.2694 2.37198 50.8614 1.61998C51.4534 0.859981 52.2814 0.47998 53.3454 0.47998C54.0494 0.47998 54.6374 0.639981 55.1094 0.959981C55.5894 1.27998 55.9614 1.73198 56.2254 2.31598L55.4094 2.80798C55.2414 2.37598 54.9854 2.03198 54.6414 1.77598C54.2974 1.51198 53.8654 1.37998 53.3454 1.37998C52.9854 1.37998 52.6614 1.44798 52.3734 1.58398C52.0934 1.71998 51.8534 1.91598 51.6534 2.17198C51.4614 2.41998 51.3134 2.71998 51.2094 3.07198C51.1054 3.41598 51.0534 3.80398 51.0534 4.23598V5.48398C51.0534 6.34798 51.2534 7.02398 51.6534 7.51198C52.0534 7.99998 52.6174 8.24398 53.3454 8.24398C53.8814 8.24398 54.3294 8.10798 54.6894 7.83598C55.0494 7.55598 55.3134 7.18798 55.4814 6.73198L56.2854 7.23598C56.0214 7.82798 55.6414 8.29598 55.1454 8.63998C54.6494 8.97598 54.0494 9.14398 53.3454 9.14398Z" fill="white"/>
<path d="M45.2222 1.51202H41.5502L41.3102 4.70402H41.3942C41.5942 4.42402 41.8182 4.20002 42.0662 4.03202C42.3222 3.86402 42.6702 3.78002 43.1102 3.78002C43.4702 3.78002 43.8022 3.84002 44.1062 3.96002C44.4102 4.08002 44.6742 4.25202 44.8982 4.47602C45.1222 4.69202 45.2942 4.96002 45.4142 5.28002C45.5422 5.60002 45.6062 5.96402 45.6062 6.37202C45.6062 6.78002 45.5422 7.15602 45.4142 7.50002C45.2862 7.83602 45.0982 8.12802 44.8502 8.37602C44.6102 8.61602 44.3142 8.80402 43.9622 8.94002C43.6182 9.07602 43.2262 9.14402 42.7862 9.14402C42.4342 9.14402 42.1222 9.10402 41.8502 9.02402C41.5862 8.94402 41.3502 8.83602 41.1422 8.70002C40.9342 8.56402 40.7502 8.41202 40.5902 8.24402C40.4382 8.07602 40.2982 7.90002 40.1702 7.71602L40.9262 7.14002C41.0302 7.30802 41.1382 7.46002 41.2502 7.59602C41.3702 7.73202 41.4982 7.84802 41.6342 7.94402C41.7782 8.04002 41.9422 8.11602 42.1262 8.17202C42.3102 8.22002 42.5302 8.24402 42.7862 8.24402C43.3622 8.24402 43.7982 8.09202 44.0942 7.78802C44.3902 7.48402 44.5382 7.05602 44.5382 6.50402V6.38402C44.5382 5.83202 44.3902 5.40402 44.0942 5.10002C43.7982 4.79602 43.3622 4.64402 42.7862 4.64402C42.4022 4.64402 42.0982 4.71602 41.8742 4.86002C41.6582 4.99602 41.4622 5.16002 41.2862 5.35202L40.4342 5.23202L40.7342 0.624023H45.2222V1.51202Z" fill="white"/>
<path d="M35.6627 9.14402C35.2307 9.14402 34.8387 9.07202 34.4867 8.92802C34.1427 8.77602 33.8467 8.56402 33.5987 8.29202C33.3587 8.01202 33.1747 7.67202 33.0467 7.27202C32.9187 6.87202 32.8547 6.42402 32.8547 5.92802C32.8547 5.30402 32.9467 4.72002 33.1307 4.17602C33.3147 3.62402 33.5507 3.12402 33.8387 2.67602C34.1347 2.22002 34.4587 1.82002 34.8107 1.47602C35.1627 1.12402 35.5067 0.840024 35.8427 0.624023H37.1387C36.6907 0.952024 36.2907 1.27202 35.9387 1.58402C35.5867 1.89602 35.2787 2.22402 35.0147 2.56802C34.7507 2.90402 34.5267 3.26802 34.3427 3.66002C34.1587 4.04402 34.0107 4.48002 33.8987 4.96802L33.9587 4.99202C34.1587 4.64802 34.4147 4.36402 34.7267 4.14002C35.0467 3.90802 35.4627 3.79202 35.9747 3.79202C36.3347 3.79202 36.6667 3.85202 36.9707 3.97202C37.2747 4.09202 37.5347 4.26402 37.7507 4.48802C37.9667 4.71202 38.1347 4.98402 38.2547 5.30402C38.3827 5.62402 38.4467 5.98002 38.4467 6.37202C38.4467 6.78002 38.3787 7.15602 38.2427 7.50002C38.1147 7.83602 37.9267 8.12802 37.6787 8.37602C37.4387 8.61602 37.1467 8.80402 36.8027 8.94002C36.4587 9.07602 36.0787 9.14402 35.6627 9.14402ZM35.6507 8.26802C36.2027 8.26802 36.6307 8.11602 36.9347 7.81202C37.2467 7.50802 37.4027 7.07202 37.4027 6.50402V6.40802C37.4027 5.84002 37.2467 5.40402 36.9347 5.10002C36.6307 4.79602 36.2027 4.64402 35.6507 4.64402C35.0987 4.64402 34.6667 4.79602 34.3547 5.10002C34.0507 5.40402 33.8987 5.84002 33.8987 6.40802V6.50402C33.8987 7.07202 34.0507 7.50802 34.3547 7.81202C34.6667 8.11602 35.0987 8.26802 35.6507 8.26802Z" fill="white"/>
<path d="M26.9556 9.00002L30.1596 1.48802H26.5836V3.04802H25.6836V0.624023H31.1796V1.51202L28.0356 9.00002H26.9556Z" fill="white"/>
<path d="M23.218 7.59595C23.474 7.59595 23.658 7.66395 23.77 7.79995C23.89 7.92795 23.95 8.09595 23.95 8.30395V8.47195C23.95 8.79995 23.854 9.15995 23.662 9.55195C23.47 9.95195 23.202 10.2999 22.858 10.5959H22.054C22.294 10.3399 22.486 10.0959 22.63 9.86395C22.782 9.63995 22.89 9.38795 22.954 9.10795C22.794 9.06795 22.674 8.99195 22.594 8.87995C22.522 8.76795 22.486 8.63195 22.486 8.47195V8.30395C22.486 8.09595 22.542 7.92795 22.654 7.79995C22.774 7.66395 22.962 7.59595 23.218 7.59595Z" fill="white"/>
<path d="M20.7867 8.99998H15.2907V7.96798L18.0267 5.44798C18.4187 5.08798 18.7468 4.70798 19.0108 4.30798C19.2748 3.89998 19.4068 3.49198 19.4068 3.08398V2.93998C19.4068 2.47598 19.2787 2.09998 19.0227 1.81198C18.7667 1.52398 18.3788 1.37998 17.8588 1.37998C17.6028 1.37998 17.3787 1.41598 17.1867 1.48798C16.9947 1.55998 16.8267 1.65998 16.6827 1.78798C16.5467 1.91598 16.4308 2.06798 16.3348 2.24398C16.2468 2.41198 16.1748 2.59598 16.1188 2.79598L15.2188 2.44798C15.2987 2.19998 15.4068 1.95998 15.5428 1.72798C15.6868 1.48798 15.8628 1.27598 16.0708 1.09198C16.2868 0.90798 16.5427 0.759981 16.8387 0.647981C17.1427 0.535981 17.4988 0.47998 17.9068 0.47998C18.3148 0.47998 18.6787 0.53998 18.9987 0.65998C19.3187 0.779981 19.5868 0.947981 19.8028 1.16398C20.0188 1.37998 20.1827 1.63598 20.2947 1.93198C20.4147 2.22798 20.4747 2.55598 20.4747 2.91598C20.4747 3.24398 20.4268 3.54798 20.3308 3.82798C20.2428 4.10798 20.1188 4.37598 19.9588 4.63198C19.7988 4.87998 19.6027 5.12398 19.3707 5.36398C19.1467 5.60398 18.9027 5.84398 18.6387 6.08398L16.3828 8.11198H20.7867V8.99998Z" fill="white"/>
<path d="M11.6954 9.00002V7.35602H7.65137V6.46802L11.1554 0.624023H12.6554V6.51602H13.8674V7.35602H12.6554V9.00002H11.6954ZM8.59937 6.51602H11.6954V1.40402H11.6354L8.59937 6.51602Z" fill="white"/>
<path d="M1.05606 9.00002V8.11202H3.39606V1.36802H3.31206L1.20006 3.33602L0.612061 2.70002L2.83206 0.624023H4.40406V8.11202H6.56406V9.00002H1.05606Z" fill="white"/>
</svg>
