<svg width="59" height="10" viewBox="0 0 59 10" fill="none" xmlns="http://www.w3.org/2000/svg">
<path d="M55.6621 9.14403C55.0701 9.14403 54.5741 9.04003 54.1741 8.83203C53.7741 8.62403 53.4261 8.33603 53.1301 7.96803L53.9701 7.20003C54.2021 7.48003 54.4581 7.70003 54.7381 7.86003C55.0261 8.01203 55.3581 8.08803 55.7341 8.08803C56.1181 8.08803 56.4021 8.01603 56.5861 7.87203C56.7781 7.72003 56.8741 7.51203 56.8741 7.24803C56.8741 7.04803 56.8061 6.88003 56.6701 6.74403C56.5421 6.60003 56.3141 6.50803 55.9861 6.46803L55.4101 6.39603C54.7701 6.31603 54.2661 6.13203 53.8981 5.84403C53.5381 5.54803 53.3581 5.11203 53.3581 4.53603C53.3581 4.23203 53.4141 3.96403 53.5261 3.73203C53.6381 3.49203 53.7941 3.29203 53.9941 3.13203C54.2021 2.96403 54.4461 2.83603 54.7261 2.74803C55.0141 2.66003 55.3301 2.61603 55.6741 2.61603C56.2341 2.61603 56.6901 2.70403 57.0421 2.88003C57.4021 3.05603 57.7221 3.30003 58.0021 3.61203L57.1981 4.38003C57.0381 4.18803 56.8261 4.02403 56.5621 3.88803C56.3061 3.74403 56.0101 3.67203 55.6741 3.67203C55.3141 3.67203 55.0461 3.74403 54.8701 3.88803C54.7021 4.03203 54.6181 4.22003 54.6181 4.45203C54.6181 4.69203 54.6941 4.87203 54.8461 4.99203C54.9981 5.11203 55.2421 5.20003 55.5781 5.25603L56.1541 5.32803C56.8421 5.43203 57.3421 5.63603 57.6541 5.94003C57.9741 6.23603 58.1341 6.63603 58.1341 7.14003C58.1341 7.44403 58.0741 7.72003 57.9541 7.96803C57.8421 8.20803 57.6781 8.41603 57.4621 8.59203C57.2461 8.76803 56.9861 8.90403 56.6821 9.00003C56.3781 9.09603 56.0381 9.14403 55.6621 9.14403Z" fill="#495057"/>
<path d="M43.5073 2.76001H44.7793L45.4153 5.37601L45.9793 7.74001H46.0153L46.6633 5.37601L47.4193 2.76001H48.5953L49.3633 5.37601L50.0233 7.74001H50.0593L50.6113 5.37601L51.2593 2.76001H52.4713L50.7913 9.00001H49.3153L48.4993 6.15601L47.9953 4.40401H47.9713L47.4793 6.15601L46.6513 9.00001H45.2113L43.5073 2.76001Z" fill="#495057"/>
<path d="M39.9701 9.14403C39.5221 9.14403 39.1221 9.06803 38.7701 8.91603C38.4181 8.76403 38.1181 8.54803 37.8701 8.26803C37.6221 7.98003 37.4301 7.63603 37.2941 7.23603C37.1661 6.82803 37.1021 6.37603 37.1021 5.88003C37.1021 5.38403 37.1661 4.93603 37.2941 4.53603C37.4301 4.12803 37.6221 3.78403 37.8701 3.50403C38.1181 3.21603 38.4181 2.99603 38.7701 2.84403C39.1221 2.69203 39.5221 2.61603 39.9701 2.61603C40.4261 2.61603 40.8261 2.69603 41.1701 2.85603C41.5221 3.01603 41.8141 3.24003 42.0461 3.52803C42.2781 3.80803 42.4501 4.13603 42.5621 4.51203C42.6821 4.88803 42.7421 5.29203 42.7421 5.72403V6.21603H38.4581V6.42003C38.4581 6.90003 38.5981 7.29603 38.8781 7.60803C39.1661 7.91203 39.5741 8.06403 40.1021 8.06403C40.4861 8.06403 40.8101 7.98003 41.0741 7.81203C41.3381 7.64403 41.5621 7.41603 41.7461 7.12803L42.5141 7.88403C42.2821 8.26803 41.9461 8.57603 41.5061 8.80803C41.0661 9.03203 40.5541 9.14403 39.9701 9.14403ZM39.9701 3.63603C39.7461 3.63603 39.5381 3.67603 39.3461 3.75603C39.1621 3.83603 39.0021 3.94803 38.8661 4.09203C38.7381 4.23603 38.6381 4.40803 38.5661 4.60803C38.4941 4.80803 38.4581 5.02803 38.4581 5.26803V5.35203H41.3621V5.23203C41.3621 4.75203 41.2381 4.36803 40.9901 4.08003C40.7421 3.78403 40.4021 3.63603 39.9701 3.63603Z" fill="#495057"/>
<path d="M35.0061 1.64402C34.7341 1.64402 34.5341 1.58002 34.4061 1.45202C34.2861 1.32402 34.2261 1.16002 34.2261 0.960022V0.756021C34.2261 0.556022 34.2861 0.392022 34.4061 0.264021C34.5341 0.136022 34.7341 0.0720215 35.0061 0.0720215C35.2781 0.0720215 35.4741 0.136022 35.5941 0.264021C35.7141 0.392022 35.7741 0.556022 35.7741 0.756021V0.960022C35.7741 1.16002 35.7141 1.32402 35.5941 1.45202C35.4741 1.58002 35.2781 1.64402 35.0061 1.64402ZM34.3461 2.76002H35.6541V9.00002H34.3461V2.76002Z" fill="#495057"/>
<path d="M29.5615 9.00001L27.4375 2.76001H28.7335L29.6815 5.60401L30.3175 7.78801H30.3895L31.0255 5.60401L31.9975 2.76001H33.2455L31.0975 9.00001H29.5615Z" fill="#495057"/>
<path d="M18.8071 0.119995H20.1151V5.568H20.1751L21.0391 4.45199L22.5391 2.75999H24.0631L21.8791 5.172L24.3271 9H22.7671L20.9791 6.024L20.1151 6.96V9H18.8071V0.119995Z" fill="#495057"/>
<path d="M14.9837 9.00002V7.36802H11.0957V6.20402L14.4917 0.624023H16.2677V6.30002H17.4077V7.36802H16.2677V9.00002H14.9837ZM12.2477 6.30002H14.9837V1.86002H14.8997L12.2477 6.30002Z" fill="#495057"/>
<path d="M8.93533 9.14403C8.63933 9.14403 8.41933 9.06803 8.27533 8.91603C8.13133 8.75603 8.05933 8.56003 8.05933 8.32803V8.14803C8.05933 7.91603 8.13133 7.72403 8.27533 7.57203C8.41933 7.41203 8.63933 7.33203 8.93533 7.33203C9.23133 7.33203 9.45133 7.41203 9.59533 7.57203C9.73933 7.72403 9.81133 7.91603 9.81133 8.14803V8.32803C9.81133 8.56003 9.73933 8.75603 9.59533 8.91603C9.45133 9.06803 9.23133 9.14403 8.93533 9.14403Z" fill="#495057"/>
<path d="M1.05604 9.00002V7.87202H3.40804V1.60802H3.31204L1.36804 3.68402L0.540039 2.94002L2.67604 0.624023H4.74004V7.87202H6.78004V9.00002H1.05604Z" fill="#495057"/>
</svg>
