<svg width="59" height="10" viewBox="0 0 59 10" fill="none" xmlns="http://www.w3.org/2000/svg">
<path d="M55.6619 9.14401C55.0699 9.14401 54.5739 9.04001 54.1739 8.83201C53.7739 8.62401 53.4259 8.33601 53.1299 7.96801L53.9699 7.20001C54.2019 7.48001 54.4579 7.70001 54.7379 7.86001C55.0259 8.01201 55.3579 8.08801 55.7339 8.08801C56.1179 8.08801 56.4019 8.01601 56.5859 7.87201C56.7779 7.72001 56.8739 7.51201 56.8739 7.24801C56.8739 7.04801 56.8059 6.88001 56.6699 6.74401C56.5419 6.60001 56.3139 6.50801 55.9859 6.46801L55.4099 6.39601C54.7699 6.31601 54.2659 6.13201 53.8979 5.84401C53.5379 5.54801 53.3579 5.11201 53.3579 4.53601C53.3579 4.23201 53.4139 3.96401 53.5259 3.73201C53.6379 3.49201 53.7939 3.29201 53.9939 3.13201C54.2019 2.96401 54.4459 2.83601 54.7259 2.74801C55.0139 2.66001 55.3299 2.61601 55.6739 2.61601C56.2339 2.61601 56.6899 2.70401 57.0419 2.88001C57.4019 3.05601 57.7219 3.30001 58.0019 3.61201L57.1979 4.38001C57.0379 4.18801 56.8259 4.02401 56.5619 3.88801C56.3059 3.74401 56.0099 3.67201 55.6739 3.67201C55.3139 3.67201 55.0459 3.74401 54.8699 3.88801C54.7019 4.03201 54.6179 4.22001 54.6179 4.45201C54.6179 4.69201 54.6939 4.87201 54.8459 4.99201C54.9979 5.11201 55.2419 5.20001 55.5779 5.25601L56.1539 5.32801C56.8419 5.43201 57.3419 5.63601 57.6539 5.94001C57.9739 6.23601 58.1339 6.63601 58.1339 7.14001C58.1339 7.44401 58.0739 7.72001 57.9539 7.96801C57.8419 8.20801 57.6779 8.41601 57.4619 8.59201C57.2459 8.76801 56.9859 8.90401 56.6819 9.00001C56.3779 9.09601 56.0379 9.14401 55.6619 9.14401Z" fill="#495057"/>
<path d="M43.5071 2.76001H44.7791L45.4151 5.37601L45.9791 7.74001H46.0151L46.6631 5.37601L47.4191 2.76001H48.5951L49.3631 5.37601L50.0231 7.74001H50.0591L50.6111 5.37601L51.2591 2.76001H52.4711L50.7911 9.00001H49.3151L48.4991 6.15601L47.9951 4.40401H47.9711L47.4791 6.15601L46.6511 9.00001H45.2111L43.5071 2.76001Z" fill="#495057"/>
<path d="M39.9698 9.14401C39.5218 9.14401 39.1218 9.06801 38.7698 8.91601C38.4178 8.76401 38.1178 8.54801 37.8698 8.26801C37.6218 7.98001 37.4298 7.63601 37.2938 7.23601C37.1658 6.82801 37.1018 6.37601 37.1018 5.88001C37.1018 5.38401 37.1658 4.93601 37.2938 4.53601C37.4298 4.12801 37.6218 3.78401 37.8698 3.50401C38.1178 3.21601 38.4178 2.99601 38.7698 2.84401C39.1218 2.69201 39.5218 2.61601 39.9698 2.61601C40.4258 2.61601 40.8258 2.69601 41.1698 2.85601C41.5218 3.01601 41.8138 3.24001 42.0458 3.52801C42.2778 3.80801 42.4498 4.13601 42.5618 4.51201C42.6818 4.88801 42.7418 5.29201 42.7418 5.72401V6.21601H38.4578V6.42001C38.4578 6.90001 38.5978 7.29601 38.8778 7.60801C39.1658 7.91201 39.5738 8.06401 40.1018 8.06401C40.4858 8.06401 40.8098 7.98001 41.0738 7.81201C41.3378 7.64401 41.5618 7.41601 41.7458 7.12801L42.5138 7.88401C42.2818 8.26801 41.9458 8.57601 41.5058 8.80801C41.0658 9.03201 40.5538 9.14401 39.9698 9.14401ZM39.9698 3.63601C39.7458 3.63601 39.5378 3.67601 39.3458 3.75601C39.1618 3.83601 39.0018 3.94801 38.8658 4.09201C38.7378 4.23601 38.6378 4.40801 38.5658 4.60801C38.4938 4.80801 38.4578 5.02801 38.4578 5.26801V5.35201H41.3618V5.23201C41.3618 4.75201 41.2378 4.36801 40.9898 4.08001C40.7418 3.78401 40.4018 3.63601 39.9698 3.63601Z" fill="#495057"/>
<path d="M35.0061 1.64401C34.7341 1.64401 34.5341 1.58001 34.4061 1.45201C34.2861 1.32401 34.2261 1.16001 34.2261 0.960007V0.756006C34.2261 0.556006 34.2861 0.392006 34.4061 0.264006C34.5341 0.136006 34.7341 0.0720062 35.0061 0.0720062C35.2781 0.0720062 35.4741 0.136006 35.5941 0.264006C35.7141 0.392006 35.7741 0.556006 35.7741 0.756006V0.960007C35.7741 1.16001 35.7141 1.32401 35.5941 1.45201C35.4741 1.58001 35.2781 1.64401 35.0061 1.64401ZM34.3461 2.76001H35.6541V9.00001H34.3461V2.76001Z" fill="#495057"/>
<path d="M29.5613 9.00001L27.4373 2.76001H28.7333L29.6813 5.60401L30.3173 7.78801H30.3893L31.0253 5.60401L31.9973 2.76001H33.2453L31.0973 9.00001H29.5613Z" fill="#495057"/>
<path d="M18.8069 0.12001H20.1149V5.56801H20.1749L21.0389 4.45201L22.5389 2.76001H24.0629L21.8789 5.17201L24.3269 9.00001H22.7669L20.9789 6.02401L20.1149 6.96001V9.00001H18.8069V0.12001Z" fill="#495057"/>
<path d="M12.7276 9.00001L15.7636 1.74001H12.5956V3.28801H11.4316V0.624008H17.1076V1.80001L14.1556 9.00001H12.7276Z" fill="#495057"/>
<path d="M8.93508 9.144C8.63908 9.144 8.41908 9.068 8.27508 8.916C8.13108 8.756 8.05908 8.56 8.05908 8.328V8.148C8.05908 7.916 8.13108 7.724 8.27508 7.572C8.41908 7.412 8.63908 7.332 8.93508 7.332C9.23108 7.332 9.45108 7.412 9.59508 7.572C9.73908 7.724 9.81108 7.916 9.81108 8.148V8.328C9.81108 8.56 9.73908 8.756 9.59508 8.916C9.45108 9.068 9.23108 9.144 8.93508 9.144Z" fill="#495057"/>
<path d="M1.0558 9.00001V7.87201H3.40779V1.60801H3.3118L1.36779 3.68401L0.539795 2.94001L2.6758 0.624008H4.7398V7.87201H6.77979V9.00001H1.0558Z" fill="#495057"/>
</svg>
