<svg width="59" height="10" viewBox="0 0 59 10" fill="none" xmlns="http://www.w3.org/2000/svg">
<path d="M55.6621 9.144C55.0701 9.144 54.5741 9.04 54.1741 8.832C53.7741 8.624 53.4261 8.336 53.1301 7.968L53.9701 7.2C54.2021 7.48 54.4581 7.7 54.7381 7.86C55.0261 8.012 55.3581 8.088 55.7341 8.088C56.1181 8.088 56.4021 8.016 56.5861 7.872C56.7781 7.72 56.8741 7.512 56.8741 7.248C56.8741 7.048 56.8061 6.88 56.6701 6.744C56.5421 6.6 56.3141 6.508 55.9861 6.468L55.4101 6.396C54.7701 6.316 54.2661 6.132 53.8981 5.844C53.5381 5.548 53.3581 5.112 53.3581 4.536C53.3581 4.232 53.4141 3.964 53.5261 3.732C53.6381 3.492 53.7941 3.292 53.9941 3.132C54.2021 2.964 54.4461 2.836 54.7261 2.748C55.0141 2.66 55.3301 2.616 55.6741 2.616C56.2341 2.616 56.6901 2.704 57.0421 2.88C57.4021 3.056 57.7221 3.3 58.0021 3.612L57.1981 4.38C57.0381 4.188 56.8261 4.024 56.5621 3.888C56.3061 3.744 56.0101 3.672 55.6741 3.672C55.3141 3.672 55.0461 3.744 54.8701 3.888C54.7021 4.032 54.6181 4.22 54.6181 4.452C54.6181 4.692 54.6941 4.872 54.8461 4.992C54.9981 5.112 55.2421 5.2 55.5781 5.256L56.1541 5.328C56.8421 5.432 57.3421 5.636 57.6541 5.94C57.9741 6.236 58.1341 6.636 58.1341 7.14C58.1341 7.444 58.0741 7.72 57.9541 7.968C57.8421 8.208 57.6781 8.416 57.4621 8.592C57.2461 8.768 56.9861 8.904 56.6821 9C56.3781 9.096 56.0381 9.144 55.6621 9.144Z" fill="#495057"/>
<path d="M43.5073 2.75998H44.7793L45.4153 5.37598L45.9793 7.73998H46.0153L46.6633 5.37598L47.4193 2.75998H48.5953L49.3633 5.37598L50.0233 7.73998H50.0593L50.6113 5.37598L51.2593 2.75998H52.4713L50.7913 8.99998H49.3153L48.4993 6.15598L47.9953 4.40398H47.9713L47.4793 6.15598L46.6513 8.99998H45.2113L43.5073 2.75998Z" fill="#495057"/>
<path d="M39.9698 9.144C39.5218 9.144 39.1218 9.068 38.7698 8.916C38.4178 8.764 38.1178 8.548 37.8698 8.268C37.6218 7.98 37.4298 7.636 37.2938 7.236C37.1658 6.828 37.1018 6.376 37.1018 5.88C37.1018 5.384 37.1658 4.936 37.2938 4.536C37.4298 4.128 37.6218 3.784 37.8698 3.504C38.1178 3.216 38.4178 2.996 38.7698 2.844C39.1218 2.692 39.5218 2.616 39.9698 2.616C40.4258 2.616 40.8258 2.696 41.1698 2.856C41.5218 3.016 41.8138 3.24 42.0458 3.528C42.2778 3.808 42.4498 4.136 42.5618 4.512C42.6818 4.888 42.7418 5.292 42.7418 5.724V6.216H38.4578V6.42C38.4578 6.9 38.5978 7.296 38.8778 7.608C39.1658 7.912 39.5738 8.064 40.1018 8.064C40.4858 8.064 40.8098 7.98 41.0738 7.812C41.3378 7.644 41.5618 7.416 41.7458 7.128L42.5138 7.884C42.2818 8.268 41.9458 8.576 41.5058 8.808C41.0658 9.032 40.5538 9.144 39.9698 9.144ZM39.9698 3.636C39.7458 3.636 39.5378 3.676 39.3458 3.756C39.1618 3.836 39.0018 3.948 38.8658 4.092C38.7378 4.236 38.6378 4.408 38.5658 4.608C38.4938 4.808 38.4578 5.028 38.4578 5.268V5.352H41.3618V5.232C41.3618 4.752 41.2378 4.368 40.9898 4.08C40.7418 3.784 40.4018 3.636 39.9698 3.636Z" fill="#495057"/>
<path d="M35.0061 1.64399C34.7341 1.64399 34.5341 1.57999 34.4061 1.45199C34.2861 1.32399 34.2261 1.15999 34.2261 0.959991V0.755991C34.2261 0.555991 34.2861 0.391991 34.4061 0.263991C34.5341 0.135991 34.7341 0.071991 35.0061 0.071991C35.2781 0.071991 35.4741 0.135991 35.5941 0.263991C35.7141 0.391991 35.7741 0.555991 35.7741 0.755991V0.959991C35.7741 1.15999 35.7141 1.32399 35.5941 1.45199C35.4741 1.57999 35.2781 1.64399 35.0061 1.64399ZM34.3461 2.75999H35.6541V8.99999H34.3461V2.75999Z" fill="#495057"/>
<path d="M29.5615 8.99998L27.4375 2.75998H28.7335L29.6815 5.60398L30.3175 7.78798H30.3895L31.0255 5.60398L31.9975 2.75998H33.2455L31.0975 8.99998H29.5615Z" fill="#495057"/>
<path d="M18.8071 0.119995H20.1151V5.568H20.1751L21.0391 4.45199L22.5391 2.75999H24.0631L21.8791 5.172L24.3271 9H22.7671L20.9791 6.024L20.1151 6.96V9H18.8071V0.119995Z" fill="#495057"/>
<path d="M14.2756 9.14398C13.7876 9.14398 13.3556 9.08398 12.9796 8.96398C12.6116 8.83598 12.2996 8.66398 12.0436 8.44798C11.7956 8.23198 11.6036 7.97598 11.4676 7.67998C11.3396 7.38398 11.2756 7.06398 11.2756 6.71998C11.2756 6.15998 11.4276 5.71198 11.7316 5.37598C12.0436 5.03198 12.4516 4.79198 12.9556 4.65598V4.55998C12.5236 4.40798 12.1756 4.16798 11.9116 3.83998C11.6556 3.51198 11.5276 3.10798 11.5276 2.62798C11.5276 2.30798 11.5876 2.01598 11.7076 1.75198C11.8356 1.48798 12.0156 1.26398 12.2476 1.07998C12.4796 0.887981 12.7676 0.739981 13.1116 0.635981C13.4556 0.531981 13.8436 0.47998 14.2756 0.47998C14.7076 0.47998 15.0956 0.531981 15.4396 0.635981C15.7836 0.739981 16.0716 0.887981 16.3036 1.07998C16.5356 1.26398 16.7116 1.48798 16.8316 1.75198C16.9596 2.01598 17.0236 2.30798 17.0236 2.62798C17.0236 3.10798 16.8916 3.51198 16.6276 3.83998C16.3716 4.16798 16.0276 4.40798 15.5956 4.55998V4.65598C16.0996 4.79198 16.5036 5.03198 16.8076 5.37598C17.1196 5.71198 17.2756 6.15998 17.2756 6.71998C17.2756 7.06398 17.2076 7.38398 17.0716 7.67998C16.9436 7.97598 16.7516 8.23198 16.4956 8.44798C16.2476 8.66398 15.9356 8.83598 15.5596 8.96398C15.1916 9.08398 14.7636 9.14398 14.2756 9.14398ZM14.2756 8.05198C14.7796 8.05198 15.1676 7.93598 15.4396 7.70398C15.7196 7.47198 15.8596 7.14798 15.8596 6.73198V6.49198C15.8596 6.07598 15.7196 5.75198 15.4396 5.51998C15.1676 5.28798 14.7796 5.17198 14.2756 5.17198C13.7716 5.17198 13.3796 5.28798 13.0996 5.51998C12.8276 5.75198 12.6916 6.07598 12.6916 6.49198V6.73198C12.6916 7.14798 12.8276 7.47198 13.0996 7.70398C13.3796 7.93598 13.7716 8.05198 14.2756 8.05198ZM14.2756 4.12798C14.7396 4.12798 15.0916 4.02798 15.3316 3.82798C15.5796 3.62798 15.7036 3.33598 15.7036 2.95198V2.74798C15.7036 2.36398 15.5796 2.07198 15.3316 1.87198C15.0916 1.67198 14.7396 1.57198 14.2756 1.57198C13.8116 1.57198 13.4556 1.67198 13.2076 1.87198C12.9676 2.07198 12.8476 2.36398 12.8476 2.74798V2.95198C12.8476 3.33598 12.9676 3.62798 13.2076 3.82798C13.4556 4.02798 13.8116 4.12798 14.2756 4.12798Z" fill="#495057"/>
<path d="M8.93533 9.144C8.63933 9.144 8.41933 9.068 8.27533 8.916C8.13133 8.756 8.05933 8.56 8.05933 8.328V8.148C8.05933 7.916 8.13133 7.724 8.27533 7.572C8.41933 7.412 8.63933 7.332 8.93533 7.332C9.23133 7.332 9.45133 7.412 9.59533 7.572C9.73933 7.724 9.81133 7.916 9.81133 8.148V8.328C9.81133 8.56 9.73933 8.756 9.59533 8.916C9.45133 9.068 9.23133 9.144 8.93533 9.144Z" fill="#495057"/>
<path d="M4.30792 8.99999V7.36799H0.419922V6.20399L3.81592 0.623993H5.59192V6.29999H6.73192V7.36799H5.59192V8.99999H4.30792ZM1.57192 6.29999H4.30792V1.85999H4.22392L1.57192 6.29999Z" fill="#495057"/>
</svg>
