<svg width="56" height="10" viewBox="0 0 56 10" fill="none" xmlns="http://www.w3.org/2000/svg">
<path d="M52.8145 9.14401C52.2225 9.14401 51.7265 9.04001 51.3265 8.83201C50.9265 8.62401 50.5785 8.33601 50.2825 7.96801L51.1225 7.20001C51.3545 7.48001 51.6105 7.70001 51.8905 7.86001C52.1785 8.01201 52.5105 8.08801 52.8865 8.08801C53.2705 8.08801 53.5545 8.01601 53.7385 7.87201C53.9305 7.72001 54.0265 7.51201 54.0265 7.24801C54.0265 7.04801 53.9585 6.88001 53.8225 6.74401C53.6945 6.60001 53.4665 6.50801 53.1385 6.46801L52.5625 6.39601C51.9225 6.31601 51.4185 6.13201 51.0505 5.84401C50.6905 5.54801 50.5105 5.11201 50.5105 4.53601C50.5105 4.23201 50.5665 3.96401 50.6785 3.73201C50.7905 3.49201 50.9465 3.29201 51.1465 3.13201C51.3545 2.96401 51.5985 2.83601 51.8785 2.74801C52.1665 2.66001 52.4825 2.61601 52.8265 2.61601C53.3865 2.61601 53.8425 2.70401 54.1945 2.88001C54.5545 3.05601 54.8745 3.30001 55.1545 3.61201L54.3505 4.38001C54.1905 4.18801 53.9785 4.02401 53.7145 3.88801C53.4585 3.74401 53.1625 3.67201 52.8265 3.67201C52.4665 3.67201 52.1985 3.74401 52.0225 3.88801C51.8545 4.03201 51.7705 4.22001 51.7705 4.45201C51.7705 4.69201 51.8465 4.87201 51.9985 4.99201C52.1505 5.11201 52.3945 5.20001 52.7305 5.25601L53.3065 5.32801C53.9945 5.43201 54.4945 5.63601 54.8065 5.94001C55.1265 6.23601 55.2865 6.63601 55.2865 7.14001C55.2865 7.44401 55.2265 7.72001 55.1065 7.96801C54.9945 8.20801 54.8305 8.41601 54.6145 8.59201C54.3985 8.76801 54.1385 8.90401 53.8345 9.00001C53.5305 9.09601 53.1905 9.14401 52.8145 9.14401Z" fill="#495057"/>
<path d="M40.6597 2.76001H41.9317L42.5677 5.37601L43.1317 7.74001H43.1677L43.8157 5.37601L44.5717 2.76001H45.7477L46.5157 5.37601L47.1757 7.74001H47.2117L47.7637 5.37601L48.4117 2.76001H49.6237L47.9437 9.00001H46.4677L45.6517 6.15601L45.1477 4.40401H45.1237L44.6317 6.15601L43.8037 9.00001H42.3637L40.6597 2.76001Z" fill="#495057"/>
<path d="M37.1224 9.14401C36.6744 9.14401 36.2744 9.06801 35.9224 8.91601C35.5704 8.76401 35.2704 8.54801 35.0224 8.26801C34.7744 7.98001 34.5824 7.63601 34.4464 7.23601C34.3184 6.82801 34.2544 6.37601 34.2544 5.88001C34.2544 5.38401 34.3184 4.93601 34.4464 4.53601C34.5824 4.12801 34.7744 3.78401 35.0224 3.50401C35.2704 3.21601 35.5704 2.99601 35.9224 2.84401C36.2744 2.69201 36.6744 2.61601 37.1224 2.61601C37.5784 2.61601 37.9784 2.69601 38.3224 2.85601C38.6744 3.01601 38.9664 3.24001 39.1984 3.52801C39.4304 3.80801 39.6024 4.13601 39.7144 4.51201C39.8344 4.88801 39.8944 5.29201 39.8944 5.72401V6.21601H35.6104V6.42001C35.6104 6.90001 35.7504 7.29601 36.0304 7.60801C36.3184 7.91201 36.7264 8.06401 37.2544 8.06401C37.6384 8.06401 37.9624 7.98001 38.2264 7.81201C38.4904 7.64401 38.7144 7.41601 38.8984 7.12801L39.6664 7.88401C39.4344 8.26801 39.0984 8.57601 38.6584 8.80801C38.2184 9.03201 37.7064 9.14401 37.1224 9.14401ZM37.1224 3.63601C36.8984 3.63601 36.6904 3.67601 36.4984 3.75601C36.3144 3.83601 36.1544 3.94801 36.0184 4.09201C35.8904 4.23601 35.7904 4.40801 35.7184 4.60801C35.6464 4.80801 35.6104 5.02801 35.6104 5.26801V5.35201H38.5144V5.23201C38.5144 4.75201 38.3904 4.36801 38.1424 4.08001C37.8944 3.78401 37.5544 3.63601 37.1224 3.63601Z" fill="#495057"/>
<path d="M32.1587 1.64401C31.8867 1.64401 31.6867 1.58001 31.5587 1.45201C31.4387 1.32401 31.3787 1.16001 31.3787 0.960007V0.756006C31.3787 0.556006 31.4387 0.392006 31.5587 0.264006C31.6867 0.136006 31.8867 0.0720062 32.1587 0.0720062C32.4307 0.0720062 32.6267 0.136006 32.7467 0.264006C32.8667 0.392006 32.9267 0.556006 32.9267 0.756006V0.960007C32.9267 1.16001 32.8667 1.32401 32.7467 1.45201C32.6267 1.58001 32.4307 1.64401 32.1587 1.64401ZM31.4987 2.76001H32.8067V9.00001H31.4987V2.76001Z" fill="#495057"/>
<path d="M26.7141 9.00001L24.5901 2.76001H25.8861L26.8341 5.60401L27.4701 7.78801H27.5421L28.1781 5.60401L29.1501 2.76001H30.3981L28.2501 9.00001H26.7141Z" fill="#495057"/>
<path d="M17.9908 9.14401C17.4708 9.14401 17.0188 9.04801 16.6348 8.85601C16.2508 8.65601 15.9348 8.37201 15.6868 8.00401C15.4388 7.63601 15.2548 7.18401 15.1348 6.64801C15.0148 6.11201 14.9548 5.50001 14.9548 4.81201C14.9548 4.13201 15.0148 3.52401 15.1348 2.98801C15.2548 2.44401 15.4388 1.98801 15.6868 1.62001C15.9348 1.25201 16.2508 0.972011 16.6348 0.780011C17.0188 0.580011 17.4708 0.480011 17.9908 0.480011C19.0308 0.480011 19.7948 0.860011 20.2828 1.62001C20.7788 2.38001 21.0268 3.44401 21.0268 4.81201C21.0268 6.18001 20.7788 7.24401 20.2828 8.00401C19.7948 8.76401 19.0308 9.14401 17.9908 9.14401ZM17.9908 7.99201C18.2788 7.99201 18.5228 7.93601 18.7228 7.82401C18.9308 7.70401 19.0988 7.53601 19.2268 7.32001C19.3548 7.10401 19.4468 6.84801 19.5028 6.55201C19.5588 6.24801 19.5868 5.91201 19.5868 5.54401V4.08001C19.5868 3.71201 19.5588 3.38001 19.5028 3.08401C19.4468 2.78001 19.3548 2.52001 19.2268 2.30401C19.0988 2.08801 18.9308 1.92401 18.7228 1.81201C18.5228 1.69201 18.2788 1.63201 17.9908 1.63201C17.7028 1.63201 17.4548 1.69201 17.2468 1.81201C17.0468 1.92401 16.8828 2.08801 16.7548 2.30401C16.6268 2.52001 16.5348 2.78001 16.4788 3.08401C16.4228 3.38001 16.3948 3.71201 16.3948 4.08001V5.54401C16.3948 5.91201 16.4228 6.24801 16.4788 6.55201C16.5348 6.84801 16.6268 7.10401 16.7548 7.32001C16.8828 7.53601 17.0468 7.70401 17.2468 7.82401C17.4548 7.93601 17.7028 7.99201 17.9908 7.99201Z" fill="#495057"/>
<path d="M10.7955 9.14401C10.2755 9.14401 9.82352 9.04801 9.43952 8.85601C9.05552 8.65601 8.73952 8.37201 8.49152 8.00401C8.24352 7.63601 8.05952 7.18401 7.93952 6.64801C7.81952 6.11201 7.75952 5.50001 7.75952 4.81201C7.75952 4.13201 7.81952 3.52401 7.93952 2.98801C8.05952 2.44401 8.24352 1.98801 8.49152 1.62001C8.73952 1.25201 9.05552 0.972011 9.43952 0.780011C9.82352 0.580011 10.2755 0.480011 10.7955 0.480011C11.8355 0.480011 12.5995 0.860011 13.0875 1.62001C13.5835 2.38001 13.8315 3.44401 13.8315 4.81201C13.8315 6.18001 13.5835 7.24401 13.0875 8.00401C12.5995 8.76401 11.8355 9.14401 10.7955 9.14401ZM10.7955 7.99201C11.0835 7.99201 11.3275 7.93601 11.5275 7.82401C11.7355 7.70401 11.9035 7.53601 12.0315 7.32001C12.1595 7.10401 12.2515 6.84801 12.3075 6.55201C12.3635 6.24801 12.3915 5.91201 12.3915 5.54401V4.08001C12.3915 3.71201 12.3635 3.38001 12.3075 3.08401C12.2515 2.78001 12.1595 2.52001 12.0315 2.30401C11.9035 2.08801 11.7355 1.92401 11.5275 1.81201C11.3275 1.69201 11.0835 1.63201 10.7955 1.63201C10.5075 1.63201 10.2595 1.69201 10.0515 1.81201C9.85152 1.92401 9.68752 2.08801 9.55952 2.30401C9.43152 2.52001 9.33952 2.78001 9.28352 3.08401C9.22752 3.38001 9.19952 3.71201 9.19952 4.08001V5.54401C9.19952 5.91201 9.22752 6.24801 9.28352 6.55201C9.33952 6.84801 9.43152 7.10401 9.55952 7.32001C9.68752 7.53601 9.85152 7.70401 10.0515 7.82401C10.2595 7.93601 10.5075 7.99201 10.7955 7.99201Z" fill="#495057"/>
<path d="M3.6001 9.14401C3.1121 9.14401 2.6801 9.08401 2.3041 8.96401C1.9361 8.83601 1.6241 8.66401 1.3681 8.44801C1.1201 8.23201 0.928098 7.97601 0.792098 7.68001C0.664098 7.38401 0.600098 7.06401 0.600098 6.72001C0.600098 6.16001 0.752098 5.71201 1.0561 5.37601C1.3681 5.03201 1.7761 4.79201 2.2801 4.65601V4.56001C1.8481 4.40801 1.5001 4.16801 1.2361 3.84001C0.980098 3.51201 0.852098 3.10801 0.852098 2.62801C0.852098 2.30801 0.912098 2.01601 1.0321 1.75201C1.1601 1.48801 1.3401 1.26401 1.5721 1.08001C1.8041 0.888011 2.0921 0.740011 2.4361 0.636011C2.7801 0.532011 3.1681 0.480011 3.6001 0.480011C4.0321 0.480011 4.4201 0.532011 4.7641 0.636011C5.1081 0.740011 5.3961 0.888011 5.6281 1.08001C5.8601 1.26401 6.0361 1.48801 6.1561 1.75201C6.2841 2.01601 6.3481 2.30801 6.3481 2.62801C6.3481 3.10801 6.2161 3.51201 5.9521 3.84001C5.6961 4.16801 5.3521 4.40801 4.9201 4.56001V4.65601C5.4241 4.79201 5.8281 5.03201 6.1321 5.37601C6.4441 5.71201 6.6001 6.16001 6.6001 6.72001C6.6001 7.06401 6.5321 7.38401 6.3961 7.68001C6.2681 7.97601 6.0761 8.23201 5.8201 8.44801C5.5721 8.66401 5.2601 8.83601 4.8841 8.96401C4.5161 9.08401 4.0881 9.14401 3.6001 9.14401ZM3.6001 8.05201C4.1041 8.05201 4.4921 7.93601 4.7641 7.70401C5.0441 7.47201 5.1841 7.14801 5.1841 6.73201V6.49201C5.1841 6.07601 5.0441 5.75201 4.7641 5.52001C4.4921 5.28801 4.1041 5.17201 3.6001 5.17201C3.0961 5.17201 2.7041 5.28801 2.4241 5.52001C2.1521 5.75201 2.0161 6.07601 2.0161 6.49201V6.73201C2.0161 7.14801 2.1521 7.47201 2.4241 7.70401C2.7041 7.93601 3.0961 8.05201 3.6001 8.05201ZM3.6001 4.12801C4.0641 4.12801 4.4161 4.02801 4.6561 3.82801C4.9041 3.62801 5.0281 3.33601 5.0281 2.95201V2.74801C5.0281 2.36401 4.9041 2.07201 4.6561 1.87201C4.4161 1.67201 4.0641 1.57201 3.6001 1.57201C3.1361 1.57201 2.7801 1.67201 2.5321 1.87201C2.2921 2.07201 2.1721 2.36401 2.1721 2.74801V2.95201C2.1721 3.33601 2.2921 3.62801 2.5321 3.82801C2.7801 4.02801 3.1361 4.12801 3.6001 4.12801Z" fill="#495057"/>
</svg>
