<svg width="16" height="16" viewBox="0 0 16 16" fill="none" xmlns="http://www.w3.org/2000/svg">
<g opacity="0.5" clip-path="url(#clip0_1_1239)">
<path d="M7.33333 9.99998H8.66667V11.3333H7.33333V9.99998ZM7.33333 4.66665H8.66667V8.66665H7.33333V4.66665ZM7.99333 1.33331C4.31333 1.33331 1.33333 4.31998 1.33333 7.99998C1.33333 11.68 4.31333 14.6666 7.99333 14.6666C11.68 14.6666 14.6667 11.68 14.6667 7.99998C14.6667 4.31998 11.68 1.33331 7.99333 1.33331ZM8 13.3333C5.05333 13.3333 2.66667 10.9466 2.66667 7.99998C2.66667 5.05331 5.05333 2.66665 8 2.66665C10.9467 2.66665 13.3333 5.05331 13.3333 7.99998C13.3333 10.9466 10.9467 13.3333 8 13.3333Z" fill="black"/>
</g>
<defs>
<clipPath id="clip0_1_1239">
<rect width="16" height="16" fill="white"/>
</clipPath>
</defs>
</svg>
