<svg width="179" height="17" viewBox="0 0 179 17" fill="none" xmlns="http://www.w3.org/2000/svg">
<path d="M178.422 13.6459C178.422 14.1219 178.337 14.5412 178.167 14.9039C178.009 15.2666 177.742 15.5726 177.368 15.8219C176.994 16.0826 176.496 16.2752 175.872 16.3999C175.26 16.5359 174.501 16.6039 173.594 16.6039C172.824 16.6039 172.166 16.5529 171.622 16.4509C171.09 16.3602 170.653 16.2242 170.313 16.0429C169.985 15.8729 169.741 15.6576 169.582 15.3969C169.435 15.1476 169.361 14.8586 169.361 14.5299C169.361 14.0312 169.509 13.6402 169.803 13.3569C170.098 13.0736 170.506 12.8979 171.027 12.8299V12.6429C170.597 12.5636 170.274 12.3822 170.058 12.0989C169.843 11.8042 169.735 11.4642 169.735 11.0789C169.735 10.8409 169.781 10.6369 169.871 10.4669C169.973 10.2856 170.098 10.1326 170.245 10.0079C170.404 9.87191 170.585 9.76424 170.789 9.68491C170.993 9.60558 171.197 9.54324 171.401 9.49791V9.42991C170.857 9.18058 170.455 8.84058 170.194 8.40991C169.934 7.96791 169.803 7.45791 169.803 6.87991C169.803 5.97324 170.115 5.24791 170.738 4.70391C171.373 4.14858 172.336 3.87091 173.628 3.87091C174.218 3.87091 174.722 3.92758 175.141 4.04091V3.70091C175.141 3.22491 175.255 2.88491 175.481 2.68091C175.719 2.46558 176.054 2.35791 176.484 2.35791H177.895V4.22791H175.923V4.32991C176.445 4.57924 176.83 4.92491 177.079 5.36691C177.329 5.79758 177.453 6.30191 177.453 6.87991C177.453 7.77524 177.136 8.49491 176.501 9.03891C175.878 9.57158 174.92 9.83791 173.628 9.83791C173.05 9.83791 172.523 9.77558 172.047 9.65091C171.787 9.82091 171.656 10.0589 171.656 10.3649C171.656 10.5802 171.736 10.7502 171.894 10.8749C172.064 10.9882 172.342 11.0449 172.727 11.0449H175.311C176.399 11.0449 177.187 11.2716 177.674 11.7249C178.173 12.1782 178.422 12.8186 178.422 13.6459ZM176.059 13.9859C176.059 13.7252 175.957 13.5269 175.753 13.3909C175.549 13.2549 175.192 13.1869 174.682 13.1869H171.622C171.509 13.3002 171.424 13.4249 171.367 13.5609C171.322 13.7082 171.299 13.8499 171.299 13.9859C171.299 14.3146 171.441 14.5526 171.724 14.6999C172.008 14.8586 172.489 14.9379 173.169 14.9379H174.189C174.869 14.9379 175.351 14.8586 175.634 14.6999C175.918 14.5526 176.059 14.3146 176.059 13.9859ZM173.628 8.18891C174.127 8.18891 174.495 8.08691 174.733 7.88291C174.983 7.66758 175.107 7.36158 175.107 6.96491V6.76091C175.107 6.36424 174.983 6.06391 174.733 5.85991C174.495 5.64458 174.127 5.53691 173.628 5.53691C173.13 5.53691 172.756 5.64458 172.506 5.85991C172.268 6.06391 172.149 6.36424 172.149 6.76091V6.96491C172.149 7.36158 172.268 7.66758 172.506 7.88291C172.756 8.08691 173.13 8.18891 173.628 8.18891Z" fill="white"/>
<path d="M160.033 13V4.07497H162.549V5.58797H162.651C162.81 5.1233 163.088 4.72097 163.484 4.38097C163.881 4.04097 164.431 3.87097 165.133 3.87097C166.051 3.87097 166.743 4.17697 167.207 4.78897C167.683 5.40097 167.921 6.27364 167.921 7.40697V13H165.405V7.61097C165.405 7.03297 165.315 6.60797 165.133 6.33597C164.952 6.05264 164.629 5.91097 164.164 5.91097C163.96 5.91097 163.762 5.9393 163.569 5.99597C163.377 6.0413 163.201 6.12064 163.042 6.23397C162.895 6.3473 162.776 6.48897 162.685 6.65897C162.595 6.81764 162.549 7.00464 162.549 7.21997V13H160.033Z" fill="white"/>
<path d="M156.427 3.12297C155.917 3.12297 155.543 3.00963 155.305 2.78297C155.078 2.54497 154.965 2.24463 154.965 1.88197V1.50797C154.965 1.1453 155.078 0.850634 155.305 0.623967C155.543 0.385968 155.917 0.266968 156.427 0.266968C156.937 0.266968 157.305 0.385968 157.532 0.623967C157.77 0.850634 157.889 1.1453 157.889 1.50797V1.88197C157.889 2.24463 157.77 2.54497 157.532 2.78297C157.305 3.00963 156.937 3.12297 156.427 3.12297ZM155.169 4.07497H157.685V13H155.169V4.07497Z" fill="white"/>
<path d="M148.296 13V4.07495H150.812V6.01295H150.897C150.942 5.76362 151.022 5.52562 151.135 5.29895C151.248 5.06095 151.396 4.85128 151.577 4.66995C151.77 4.48862 151.996 4.34695 152.257 4.24495C152.518 4.13162 152.824 4.07495 153.175 4.07495H153.617V6.42095H152.988C152.251 6.42095 151.702 6.51728 151.339 6.70995C150.988 6.90262 150.812 7.25962 150.812 7.78095V13H148.296Z" fill="white"/>
<path d="M142.473 13.204C141.793 13.204 141.187 13.0963 140.654 12.881C140.122 12.6543 139.668 12.3426 139.294 11.946C138.932 11.538 138.654 11.045 138.461 10.467C138.28 9.88897 138.189 9.24297 138.189 8.52897C138.189 7.8263 138.28 7.19164 138.461 6.62497C138.643 6.04697 138.909 5.55397 139.26 5.14597C139.623 4.73797 140.065 4.4263 140.586 4.21097C141.108 3.9843 141.703 3.87097 142.371 3.87097C143.108 3.87097 143.737 3.99564 144.258 4.24497C144.791 4.4943 145.222 4.82864 145.55 5.24797C145.89 5.6673 146.134 6.15464 146.281 6.70997C146.44 7.25397 146.519 7.82631 146.519 8.42697V9.17497H140.79V9.31097C140.79 9.90031 140.949 10.3706 141.266 10.722C141.584 11.062 142.082 11.232 142.762 11.232C143.284 11.232 143.709 11.13 144.037 10.926C144.366 10.7106 144.672 10.4556 144.955 10.161L146.213 11.725C145.817 12.1896 145.295 12.5523 144.649 12.813C144.015 13.0736 143.289 13.204 142.473 13.204ZM142.422 5.72397C141.912 5.72397 141.51 5.89397 141.215 6.23397C140.932 6.56264 140.79 7.00464 140.79 7.55997V7.69597H143.918V7.54297C143.918 6.99897 143.794 6.56264 143.544 6.23397C143.306 5.89397 142.932 5.72397 142.422 5.72397Z" fill="white"/>
<path d="M132.927 13.204C132.247 13.204 131.641 13.0963 131.108 12.881C130.576 12.6543 130.122 12.3426 129.748 11.946C129.386 11.538 129.108 11.045 128.915 10.467C128.734 9.88897 128.643 9.24297 128.643 8.52897C128.643 7.8263 128.734 7.19164 128.915 6.62497C129.097 6.04697 129.363 5.55397 129.714 5.14597C130.077 4.73797 130.519 4.4263 131.04 4.21097C131.562 3.9843 132.157 3.87097 132.825 3.87097C133.562 3.87097 134.191 3.99564 134.712 4.24497C135.245 4.4943 135.676 4.82864 136.004 5.24797C136.344 5.6673 136.588 6.15464 136.735 6.70997C136.894 7.25397 136.973 7.82631 136.973 8.42697V9.17497H131.244V9.31097C131.244 9.90031 131.403 10.3706 131.72 10.722C132.038 11.062 132.536 11.232 133.216 11.232C133.738 11.232 134.163 11.13 134.491 10.926C134.82 10.7106 135.126 10.4556 135.409 10.161L136.667 11.725C136.271 12.1896 135.749 12.5523 135.103 12.813C134.469 13.0736 133.743 13.204 132.927 13.204ZM132.876 5.72397C132.366 5.72397 131.964 5.89397 131.669 6.23397C131.386 6.56264 131.244 7.00464 131.244 7.55997V7.69597H134.372V7.54297C134.372 6.99897 134.248 6.56264 133.998 6.23397C133.76 5.89397 133.386 5.72397 132.876 5.72397Z" fill="white"/>
<path d="M119.077 13V4.07497H121.593V5.58797H121.695C121.854 5.1233 122.132 4.72097 122.528 4.38097C122.925 4.04097 123.475 3.87097 124.177 3.87097C125.095 3.87097 125.787 4.17697 126.251 4.78897C126.727 5.40097 126.965 6.27364 126.965 7.40697V13H124.449V7.61097C124.449 7.03297 124.359 6.60797 124.177 6.33597C123.996 6.05264 123.673 5.91097 123.208 5.91097C123.004 5.91097 122.806 5.9393 122.613 5.99597C122.421 6.0413 122.245 6.12064 122.086 6.23397C121.939 6.3473 121.82 6.48897 121.729 6.65897C121.639 6.81764 121.593 7.00464 121.593 7.21997V13H119.077Z" fill="white"/>
<path d="M115.471 3.12297C114.961 3.12297 114.587 3.00963 114.349 2.78297C114.122 2.54497 114.009 2.24463 114.009 1.88197V1.50797C114.009 1.1453 114.122 0.850634 114.349 0.623967C114.587 0.385968 114.961 0.266968 115.471 0.266968C115.981 0.266968 116.349 0.385968 116.576 0.623967C116.814 0.850634 116.933 1.1453 116.933 1.50797V1.88197C116.933 2.24463 116.814 2.54497 116.576 2.78297C116.349 3.00963 115.981 3.12297 115.471 3.12297ZM114.213 4.07497H116.729V13H114.213V4.07497Z" fill="white"/>
<path d="M113.095 13.6459C113.095 14.1219 113.01 14.5412 112.84 14.9039C112.682 15.2666 112.415 15.5726 112.041 15.8219C111.667 16.0826 111.169 16.2752 110.545 16.3999C109.933 16.5359 109.174 16.6039 108.267 16.6039C107.497 16.6039 106.839 16.5529 106.295 16.4509C105.763 16.3602 105.326 16.2242 104.986 16.0429C104.658 15.8729 104.414 15.6576 104.255 15.3969C104.108 15.1476 104.034 14.8586 104.034 14.5299C104.034 14.0312 104.182 13.6402 104.476 13.3569C104.771 13.0736 105.179 12.8979 105.7 12.8299V12.6429C105.27 12.5636 104.947 12.3822 104.731 12.0989C104.516 11.8042 104.408 11.4642 104.408 11.0789C104.408 10.8409 104.454 10.6369 104.544 10.4669C104.646 10.2856 104.771 10.1326 104.918 10.0079C105.077 9.87191 105.258 9.76424 105.462 9.68491C105.666 9.60558 105.87 9.54324 106.074 9.49791V9.42991C105.53 9.18058 105.128 8.84058 104.867 8.40991C104.607 7.96791 104.476 7.45791 104.476 6.87991C104.476 5.97324 104.788 5.24791 105.411 4.70391C106.046 4.14858 107.009 3.87091 108.301 3.87091C108.891 3.87091 109.395 3.92758 109.814 4.04091V3.70091C109.814 3.22491 109.928 2.88491 110.154 2.68091C110.392 2.46558 110.727 2.35791 111.157 2.35791H112.568V4.22791H110.596V4.32991C111.118 4.57924 111.503 4.92491 111.752 5.36691C112.002 5.79758 112.126 6.30191 112.126 6.87991C112.126 7.77524 111.809 8.49491 111.174 9.03891C110.551 9.57158 109.593 9.83791 108.301 9.83791C107.723 9.83791 107.196 9.77558 106.72 9.65091C106.46 9.82091 106.329 10.0589 106.329 10.3649C106.329 10.5802 106.409 10.7502 106.567 10.8749C106.737 10.9882 107.015 11.0449 107.4 11.0449H109.984C111.072 11.0449 111.86 11.2716 112.347 11.7249C112.846 12.1782 113.095 12.8186 113.095 13.6459ZM110.732 13.9859C110.732 13.7252 110.63 13.5269 110.426 13.3909C110.222 13.2549 109.865 13.1869 109.355 13.1869H106.295C106.182 13.3002 106.097 13.4249 106.04 13.5609C105.995 13.7082 105.972 13.8499 105.972 13.9859C105.972 14.3146 106.114 14.5526 106.397 14.6999C106.681 14.8586 107.162 14.9379 107.842 14.9379H108.862C109.542 14.9379 110.024 14.8586 110.307 14.6999C110.591 14.5526 110.732 14.3146 110.732 13.9859ZM108.301 8.18891C108.8 8.18891 109.168 8.08691 109.406 7.88291C109.656 7.66758 109.78 7.36158 109.78 6.96491V6.76091C109.78 6.36424 109.656 6.06391 109.406 5.85991C109.168 5.64458 108.8 5.53691 108.301 5.53691C107.803 5.53691 107.429 5.64458 107.179 5.85991C106.941 6.06391 106.822 6.36424 106.822 6.76091V6.96491C106.822 7.36158 106.941 7.66758 107.179 7.88291C107.429 8.08691 107.803 8.18891 108.301 8.18891Z" fill="white"/>
<path d="M94.7063 13V4.07497H97.2223V5.58797H97.3243C97.483 5.1233 97.7606 4.72097 98.1573 4.38097C98.554 4.04097 99.1036 3.87097 99.8063 3.87097C100.724 3.87097 101.416 4.17697 101.88 4.78897C102.356 5.40097 102.594 6.27364 102.594 7.40697V13H100.078V7.61097C100.078 7.03297 99.9876 6.60797 99.8063 6.33597C99.625 6.05264 99.302 5.91097 98.8373 5.91097C98.6333 5.91097 98.435 5.9393 98.2423 5.99597C98.0496 6.0413 97.874 6.12064 97.7153 6.23397C97.568 6.3473 97.449 6.48897 97.3583 6.65897C97.2676 6.81764 97.2223 7.00464 97.2223 7.21997V13H94.7063Z" fill="white"/>
<path d="M84.5161 13V1.13403H92.5911V3.42903H87.1001V5.86003H91.8091V8.13803H87.1001V10.705H92.5911V13H84.5161Z" fill="white"/>
<path d="M73.4895 13V4.07495H76.0055V6.01295H76.0905C76.1358 5.76362 76.2152 5.52562 76.3285 5.29895C76.4418 5.06095 76.5892 4.85128 76.7705 4.66995C76.9632 4.48862 77.1898 4.34695 77.4505 4.24495C77.7112 4.13162 78.0172 4.07495 78.3685 4.07495H78.8105V6.42095H78.1815C77.4448 6.42095 76.8952 6.51728 76.5325 6.70995C76.1812 6.90262 76.0055 7.25962 76.0055 7.78095V13H73.4895Z" fill="white"/>
<path d="M67.6666 13.204C66.9866 13.204 66.3802 13.0963 65.8476 12.881C65.3149 12.6543 64.8616 12.3426 64.4876 11.946C64.1249 11.538 63.8472 11.045 63.6546 10.467C63.4732 9.88897 63.3826 9.24297 63.3826 8.52897C63.3826 7.8263 63.4732 7.19164 63.6546 6.62497C63.8359 6.04697 64.1022 5.55397 64.4536 5.14597C64.8162 4.73797 65.2582 4.4263 65.7796 4.21097C66.3009 3.9843 66.8959 3.87097 67.5646 3.87097C68.3012 3.87097 68.9302 3.99564 69.4516 4.24497C69.9842 4.4943 70.4149 4.82864 70.7436 5.24797C71.0836 5.6673 71.3272 6.15464 71.4746 6.70997C71.6332 7.25397 71.7126 7.82631 71.7126 8.42697V9.17497H65.9836V9.31097C65.9836 9.90031 66.1422 10.3706 66.4596 10.722C66.7769 11.062 67.2756 11.232 67.9556 11.232C68.4769 11.232 68.9019 11.13 69.2306 10.926C69.5592 10.7106 69.8652 10.4556 70.1486 10.161L71.4066 11.725C71.0099 12.1896 70.4886 12.5523 69.8426 12.813C69.2079 13.0736 68.4826 13.204 67.6666 13.204ZM67.6156 5.72397C67.1056 5.72397 66.7032 5.89397 66.4086 6.23397C66.1252 6.56264 65.9836 7.00464 65.9836 7.55997V7.69597H69.1116V7.54297C69.1116 6.99897 68.9869 6.56264 68.7376 6.23397C68.4996 5.89397 68.1256 5.72397 67.6156 5.72397Z" fill="white"/>
<path d="M60.6302 13C59.7575 13 59.0945 12.779 58.6412 12.337C58.1992 11.895 57.9782 11.249 57.9782 10.399V6.03001H56.7202V4.07501H57.3492C57.6892 4.07501 57.9215 3.99568 58.0462 3.83701C58.1709 3.66701 58.2332 3.42901 58.2332 3.12301V1.66101H60.4942V4.07501H62.2622V6.03001H60.4942V11.045H62.1262V13H60.6302Z" fill="white"/>
<path d="M52.6452 11.504H52.5602C52.4809 11.7306 52.3732 11.946 52.2372 12.15C52.1125 12.354 51.9482 12.5353 51.7442 12.694C51.5402 12.8526 51.2965 12.9773 51.0132 13.068C50.7412 13.1586 50.4239 13.204 50.0612 13.204C49.1432 13.204 48.4462 12.9036 47.9702 12.303C47.5055 11.691 47.2732 10.8183 47.2732 9.68495V4.07495H49.7892V9.46395C49.7892 10.008 49.8855 10.4273 50.0782 10.722C50.2709 11.0166 50.5995 11.164 51.0642 11.164C51.2569 11.164 51.4495 11.1356 51.6422 11.079C51.8349 11.0223 52.0049 10.943 52.1522 10.841C52.2995 10.7276 52.4185 10.5916 52.5092 10.433C52.5999 10.2743 52.6452 10.0873 52.6452 9.87195V4.07495H55.1612V13H52.6452V11.504Z" fill="white"/>
<path d="M37.0325 4.07497H39.5485V5.57097H39.6335C39.7581 5.0723 40.0415 4.6643 40.4835 4.34697C40.9368 4.02964 41.4525 3.87097 42.0305 3.87097C43.1638 3.87097 44.0195 4.26764 44.5975 5.06097C45.1755 5.85431 45.4645 7.0103 45.4645 8.52897C45.4645 10.0476 45.1755 11.2093 44.5975 12.014C44.0195 12.8073 43.1638 13.204 42.0305 13.204C41.7358 13.204 41.4581 13.1586 41.1975 13.068C40.9368 12.9886 40.6988 12.8753 40.4835 12.728C40.2795 12.5693 40.1038 12.388 39.9565 12.184C39.8091 11.9686 39.7015 11.742 39.6335 11.504H39.5485V16.4H37.0325V4.07497ZM41.1975 11.164C41.6735 11.164 42.0645 10.9996 42.3705 10.671C42.6878 10.331 42.8465 9.87764 42.8465 9.31097V7.76397C42.8465 7.19731 42.6878 6.74964 42.3705 6.42097C42.0645 6.08097 41.6735 5.91097 41.1975 5.91097C40.7215 5.91097 40.3248 6.02997 40.0075 6.26797C39.7015 6.49464 39.5485 6.81197 39.5485 7.21997V9.85497C39.5485 10.263 39.7015 10.586 40.0075 10.824C40.3248 11.0506 40.7215 11.164 41.1975 11.164Z" fill="white"/>
<path d="M21.842 13V4.07497H24.358V5.58797H24.46C24.6187 5.11197 24.8907 4.70964 25.276 4.38097C25.6614 4.04097 26.1884 3.87097 26.857 3.87097C27.469 3.87097 27.9904 4.02397 28.421 4.32997C28.8517 4.63597 29.1634 5.08364 29.356 5.67297H29.407C29.4864 5.42364 29.6054 5.19131 29.764 4.97597C29.934 4.74931 30.138 4.55664 30.376 4.39797C30.614 4.2393 30.8804 4.11464 31.175 4.02397C31.4697 3.92197 31.787 3.87097 32.127 3.87097C32.9884 3.87097 33.6457 4.17697 34.099 4.78897C34.5637 5.40097 34.796 6.27364 34.796 7.40697V13H32.28V7.61097C32.28 6.47764 31.872 5.91097 31.056 5.91097C30.682 5.91097 30.342 6.01864 30.036 6.23397C29.73 6.4493 29.577 6.77797 29.577 7.21997V13H27.061V7.61097C27.061 6.47764 26.653 5.91097 25.837 5.91097C25.6557 5.91097 25.4744 5.9393 25.293 5.99597C25.123 6.0413 24.9644 6.12064 24.817 6.23397C24.681 6.3473 24.5677 6.48897 24.477 6.65897C24.3977 6.81764 24.358 7.00464 24.358 7.21997V13H21.842Z" fill="white"/>
<path d="M15.8673 13.204C15.21 13.204 14.6206 13.0963 14.0993 12.881C13.5893 12.6656 13.153 12.354 12.7903 11.946C12.439 11.538 12.167 11.045 11.9743 10.467C11.7816 9.88897 11.6853 9.24297 11.6853 8.52897C11.6853 7.81497 11.7816 7.16897 11.9743 6.59097C12.167 6.01297 12.439 5.52564 12.7903 5.12897C13.153 4.72097 13.5893 4.40931 14.0993 4.19397C14.6206 3.97864 15.21 3.87097 15.8673 3.87097C16.5246 3.87097 17.1083 3.97864 17.6183 4.19397C18.1396 4.40931 18.576 4.72097 18.9273 5.12897C19.29 5.52564 19.5676 6.01297 19.7603 6.59097C19.953 7.16897 20.0493 7.81497 20.0493 8.52897C20.0493 9.24297 19.953 9.88897 19.7603 10.467C19.5676 11.045 19.29 11.538 18.9273 11.946C18.576 12.354 18.1396 12.6656 17.6183 12.881C17.1083 13.0963 16.5246 13.204 15.8673 13.204ZM15.8673 11.215C16.366 11.215 16.7513 11.062 17.0233 10.756C17.2953 10.45 17.4313 10.0136 17.4313 9.44697V7.62797C17.4313 7.0613 17.2953 6.62497 17.0233 6.31897C16.7513 6.01297 16.366 5.85997 15.8673 5.85997C15.3686 5.85997 14.9833 6.01297 14.7113 6.31897C14.4393 6.62497 14.3033 7.0613 14.3033 7.62797V9.44697C14.3033 10.0136 14.4393 10.45 14.7113 10.756C14.9833 11.062 15.3686 11.215 15.8673 11.215Z" fill="white"/>
<path d="M6.1031 13.2039C5.29843 13.2039 4.5731 13.0793 3.9271 12.8299C3.2811 12.5693 2.73143 12.1896 2.2781 11.6909C1.82476 11.1809 1.47343 10.5519 1.2241 9.80393C0.974764 9.0446 0.850098 8.1606 0.850098 7.15193C0.850098 6.1546 0.974764 5.2706 1.2241 4.49993C1.47343 3.71793 1.82476 3.06627 2.2781 2.54493C2.73143 2.01227 3.2811 1.60993 3.9271 1.33793C4.5731 1.06593 5.29843 0.929932 6.1031 0.929932C7.20243 0.929932 8.1091 1.1566 8.8231 1.60993C9.5371 2.05193 10.1094 2.7546 10.5401 3.71793L8.3131 4.87393C8.15443 4.37527 7.9051 3.9786 7.5651 3.68393C7.23643 3.37793 6.7491 3.22493 6.1031 3.22493C5.34377 3.22493 4.73176 3.47426 4.2671 3.97293C3.81376 4.46026 3.5871 5.17427 3.5871 6.11493V8.01893C3.5871 8.9596 3.81376 9.67927 4.2671 10.1779C4.73176 10.6653 5.34377 10.9089 6.1031 10.9089C6.73776 10.9089 7.2421 10.7389 7.6161 10.3989C8.00143 10.0476 8.28476 9.62827 8.4661 9.14093L10.5741 10.3649C10.1321 11.2716 9.54843 11.9743 8.8231 12.4729C8.1091 12.9603 7.20243 13.2039 6.1031 13.2039Z" fill="white"/>
</svg>
