<svg width="248" height="37" viewBox="0 0 248 37" fill="none" xmlns="http://www.w3.org/2000/svg">
<path d="M113.411 23.432C112.985 23.432 112.675 23.336 112.483 23.144C112.302 22.952 112.211 22.7066 112.211 22.408V22.088C112.211 21.7893 112.302 21.544 112.483 21.352C112.675 21.16 112.985 21.064 113.411 21.064C113.827 21.064 114.131 21.16 114.323 21.352C114.515 21.544 114.611 21.7893 114.611 22.088V22.408C114.611 22.7066 114.515 22.952 114.323 23.144C114.131 23.336 113.827 23.432 113.411 23.432ZM112.387 24.648H114.435V33H112.387V24.648Z" fill="black"/>
<path d="M107.973 31.608H107.893C107.818 31.8213 107.717 32.024 107.589 32.216C107.471 32.3973 107.317 32.5626 107.125 32.712C106.943 32.8613 106.719 32.9786 106.453 33.0639C106.197 33.1493 105.898 33.192 105.557 33.192C104.693 33.192 104.031 32.9093 103.573 32.344C103.114 31.7786 102.885 30.9733 102.885 29.928V24.6479H104.933V29.72C104.933 30.296 105.045 30.7386 105.269 31.048C105.493 31.3466 105.85 31.4959 106.341 31.4959C106.543 31.4959 106.741 31.4693 106.933 31.416C107.135 31.3626 107.311 31.2826 107.461 31.1759C107.61 31.0586 107.733 30.9199 107.829 30.7599C107.925 30.5893 107.973 30.3919 107.973 30.1679V24.6479H110.021V33H107.973V31.608Z" fill="black"/>
<path d="M94.3577 33V31.368L98.6937 26.264H94.5017V24.6479H101.094V26.232L96.7257 31.368H101.206V33H94.3577Z" fill="black"/>
<path d="M92.1562 33.0001C91.7082 33.0001 91.3508 32.8721 91.0842 32.6161C90.8282 32.3494 90.6682 31.9974 90.6042 31.5601H90.5082C90.3695 32.1041 90.0868 32.5147 89.6602 32.7921C89.2335 33.0587 88.7055 33.1921 88.0762 33.1921C87.2228 33.1921 86.5668 32.9681 86.1082 32.5201C85.6495 32.0721 85.4202 31.4747 85.4202 30.7281C85.4202 29.8641 85.7295 29.2241 86.3482 28.8081C86.9668 28.3814 87.8468 28.1681 88.9882 28.1681H90.4122V27.5601C90.4122 27.0907 90.2895 26.7281 90.0442 26.4721C89.7988 26.2161 89.4042 26.0881 88.8602 26.0881C88.3802 26.0881 87.9908 26.1947 87.6922 26.4081C87.4042 26.6107 87.1588 26.8561 86.9562 27.1441L85.7402 26.0561C86.0495 25.5761 86.4602 25.1921 86.9722 24.9041C87.4842 24.6054 88.1615 24.4561 89.0042 24.4561C90.1348 24.4561 90.9935 24.7121 91.5802 25.2241C92.1668 25.7361 92.4602 26.4721 92.4602 27.4321V31.3681H93.2922V33.0001H92.1562ZM88.7642 31.7041C89.2228 31.7041 89.6122 31.6027 89.9322 31.4001C90.2522 31.1974 90.4122 30.8987 90.4122 30.5041V29.4001H89.1002C88.0335 29.4001 87.5002 29.7414 87.5002 30.4241V30.6961C87.5002 31.0374 87.6068 31.2934 87.8202 31.4641C88.0442 31.6241 88.3588 31.7041 88.7642 31.7041Z" fill="black"/>
<path d="M82.6143 23.432C82.1876 23.432 81.8783 23.336 81.6863 23.144C81.505 22.952 81.4143 22.7066 81.4143 22.408V22.088C81.4143 21.7893 81.505 21.544 81.6863 21.352C81.8783 21.16 82.1876 21.064 82.6143 21.064C83.0303 21.064 83.3343 21.16 83.5263 21.352C83.7183 21.544 83.8143 21.7893 83.8143 22.088V22.408C83.8143 22.7066 83.7183 22.952 83.5263 23.144C83.3343 23.336 83.0303 23.432 82.6143 23.432ZM81.5903 24.648H83.6383V33H81.5903V24.648Z" fill="black"/>
<path d="M77.1684 24.648H79.2164V34.008C79.2164 34.712 79.0404 35.2506 78.6884 35.624C78.3364 36.008 77.7764 36.2 77.0084 36.2H75.8884V34.568H77.1684V24.648ZM78.1924 23.432C77.7658 23.432 77.4564 23.336 77.2644 23.144C77.0831 22.952 76.9924 22.7066 76.9924 22.408V22.088C76.9924 21.7893 77.0831 21.544 77.2644 21.352C77.4564 21.16 77.7658 21.064 78.1924 21.064C78.6084 21.064 78.9124 21.16 79.1044 21.352C79.2964 21.544 79.3924 21.7893 79.3924 22.088V22.408C79.3924 22.7066 79.2964 22.952 79.1044 23.144C78.9124 23.336 78.6084 23.432 78.1924 23.432Z" fill="black"/>
<path d="M72.754 31.608H72.674C72.5994 31.8213 72.498 32.024 72.37 32.216C72.2527 32.3973 72.098 32.5626 71.906 32.712C71.7247 32.8613 71.5007 32.9786 71.234 33.0639C70.978 33.1493 70.6794 33.192 70.338 33.192C69.474 33.192 68.8127 32.9093 68.354 32.344C67.8954 31.7786 67.666 30.9733 67.666 29.928V24.6479H69.714V29.72C69.714 30.296 69.826 30.7386 70.05 31.048C70.274 31.3466 70.6314 31.4959 71.122 31.4959C71.3247 31.4959 71.522 31.4693 71.714 31.416C71.9167 31.3626 72.0927 31.2826 72.242 31.1759C72.3914 31.0586 72.514 30.9199 72.61 30.7599C72.706 30.5893 72.754 30.3919 72.754 30.1679V24.6479H74.802V33H72.754V31.608Z" fill="black"/>
<path d="M59.6401 33V21.832H61.7521V31.128H66.1521V33H59.6401Z" fill="black"/>
<path d="M54.7214 34.936H51.2654C50.2734 34.936 49.3828 34.776 48.5934 34.456C47.8148 34.136 47.1534 33.688 46.6094 33.112C46.0654 32.536 45.6494 31.848 45.3614 31.048C45.0734 30.2373 44.9294 29.3413 44.9294 28.36C44.9294 27.3787 45.0788 26.4773 45.3774 25.656C45.6761 24.8347 46.0974 24.1307 46.6414 23.544C47.1961 22.9467 47.8628 22.4827 48.6414 22.152C49.4308 21.8213 50.3161 21.656 51.2974 21.656C52.1721 21.656 52.9774 21.7893 53.7134 22.056C54.4601 22.3227 55.1054 22.712 55.6494 23.224C56.1934 23.736 56.6148 24.3707 56.9134 25.128C57.2228 25.8747 57.3774 26.7333 57.3774 27.704C57.3774 28.312 57.3134 28.8667 57.1854 29.368C57.0574 29.8587 56.8654 30.2853 56.6094 30.648C56.3641 31 56.0601 31.272 55.6974 31.464C55.3348 31.656 54.9188 31.752 54.4494 31.752C53.8948 31.752 53.4521 31.6187 53.1214 31.352C52.7908 31.0853 52.6041 30.728 52.5614 30.28H52.4814C52.3428 30.728 52.1241 31.08 51.8254 31.336C51.5268 31.592 51.1214 31.72 50.6094 31.72C50.2468 31.72 49.9108 31.6507 49.6014 31.512C49.2921 31.3627 49.0201 31.1493 48.7854 30.872C48.5614 30.5947 48.3801 30.248 48.2414 29.832C48.1134 29.4053 48.0494 28.9147 48.0494 28.36C48.0494 27.8053 48.1134 27.3147 48.2414 26.888C48.3801 26.4613 48.5614 26.1093 48.7854 25.832C49.0201 25.5547 49.2921 25.3467 49.6014 25.208C49.9108 25.0587 50.2468 24.984 50.6094 24.984C51.0574 24.984 51.4201 25.1067 51.6974 25.352C51.9854 25.5867 52.1881 25.8747 52.3054 26.216H52.3854V25.128H53.9534V29.592C53.9534 29.9013 54.0174 30.1253 54.1454 30.264C54.2734 30.4027 54.4601 30.472 54.7054 30.472C55.1108 30.472 55.4308 30.2587 55.6654 29.832C55.9001 29.4053 56.0174 28.7707 56.0174 27.928V27.4C56.0174 26.7067 55.9001 26.0827 55.6654 25.528C55.4308 24.9733 55.1001 24.504 54.6734 24.12C54.2574 23.736 53.7614 23.4427 53.1854 23.24C52.6094 23.0267 51.9801 22.92 51.2974 22.92C50.5401 22.92 49.8521 23.048 49.2334 23.304C48.6254 23.56 48.1028 23.912 47.6654 24.36C47.2281 24.808 46.8921 25.3413 46.6574 25.96C46.4228 26.5787 46.3054 27.256 46.3054 27.992V28.696C46.3054 29.432 46.4228 30.104 46.6574 30.712C46.8921 31.32 47.2228 31.8427 47.6494 32.28C48.0868 32.7173 48.6094 33.0533 49.2174 33.288C49.8254 33.5333 50.5081 33.656 51.2654 33.656H54.7214V34.936ZM51.1374 30.392C51.4894 30.392 51.7828 30.28 52.0174 30.056C52.2628 29.8213 52.3854 29.5493 52.3854 29.24V27.352C52.3854 27.0533 52.2681 26.808 52.0334 26.616C51.7988 26.4133 51.5001 26.312 51.1374 26.312C50.6894 26.312 50.3428 26.4507 50.0974 26.728C49.8628 26.9947 49.7454 27.3467 49.7454 27.784V28.92C49.7454 29.368 49.8628 29.7253 50.0974 29.992C50.3428 30.2587 50.6894 30.392 51.1374 30.392Z" fill="black"/>
<path d="M35.0591 33V24.6479H37.1071V26.3759H37.1871C37.2404 26.1519 37.3204 25.9386 37.4271 25.736C37.5444 25.5226 37.6938 25.3359 37.8751 25.1759C38.0564 25.0159 38.2697 24.888 38.5151 24.792C38.7711 24.696 39.0644 24.6479 39.3951 24.6479H39.8431V26.584H39.2031C38.5097 26.584 37.9871 26.6853 37.6351 26.888C37.2831 27.0906 37.1071 27.4213 37.1071 27.88V33H35.0591Z" fill="black"/>
<path d="M29.5131 33.1921C28.8945 33.1921 28.3398 33.0907 27.8491 32.8881C27.3691 32.6747 26.9585 32.3814 26.6171 32.0081C26.2865 31.6241 26.0305 31.1654 25.8491 30.6321C25.6678 30.0881 25.5771 29.4801 25.5771 28.8081C25.5771 28.1467 25.6625 27.5494 25.8331 27.0161C26.0145 26.4827 26.2705 26.0294 26.6011 25.6561C26.9318 25.2721 27.3371 24.9787 27.8171 24.7761C28.2971 24.5627 28.8411 24.4561 29.4491 24.4561C30.0998 24.4561 30.6651 24.5681 31.1451 24.7921C31.6251 25.0161 32.0198 25.3201 32.3291 25.7041C32.6385 26.0881 32.8678 26.5361 33.0171 27.0481C33.1771 27.5494 33.2571 28.0881 33.2571 28.6641V29.3361H27.7051V29.5441C27.7051 30.1521 27.8758 30.6427 28.2171 31.0161C28.5585 31.3787 29.0651 31.5601 29.7371 31.5601C30.2491 31.5601 30.6651 31.4534 30.9851 31.2401C31.3158 31.0267 31.6091 30.7547 31.8651 30.4241L32.9691 31.6561C32.6278 32.1361 32.1585 32.5147 31.5611 32.7921C30.9745 33.0587 30.2918 33.1921 29.5131 33.1921ZM29.4811 25.9921C28.9371 25.9921 28.5051 26.1734 28.1851 26.5361C27.8651 26.8987 27.7051 27.3681 27.7051 27.9441V28.0721H31.1291V27.9281C31.1291 27.3521 30.9851 26.8881 30.6971 26.5361C30.4198 26.1734 30.0145 25.9921 29.4811 25.9921Z" fill="black"/>
<path d="M16.7883 33L19.6363 28.7599L16.8523 24.6479H19.1883L20.9163 27.416H20.9803L22.6923 24.6479H24.8683L22.0363 28.792L24.8843 33H22.5483L20.7883 30.1199H20.7243L18.9643 33H16.7883Z" fill="black"/>
<path d="M14.2706 23.432C13.8439 23.432 13.5346 23.336 13.3426 23.144C13.1612 22.952 13.0706 22.7066 13.0706 22.408V22.088C13.0706 21.7893 13.1612 21.544 13.3426 21.352C13.5346 21.16 13.8439 21.064 14.2706 21.064C14.6866 21.064 14.9906 21.16 15.1826 21.352C15.3746 21.544 15.4706 21.7893 15.4706 22.088V22.408C15.4706 22.7066 15.3746 22.952 15.1826 23.144C14.9906 23.336 14.6866 23.432 14.2706 23.432ZM13.2466 24.648H15.2946V33H13.2466V24.648Z" fill="black"/>
<path d="M8.74401 24.984H8.68001L7.81601 26.76L5.52801 30.984L3.24001 26.76L2.37601 24.984H2.31201V33H0.312012V21.832H2.69601L5.56001 27.288H5.62401L8.45601 21.832H10.744V33H8.74401V24.984Z" fill="black"/>
<path d="M246.732 12C246.028 12 245.511 11.824 245.18 11.472C244.849 11.12 244.684 10.624 244.684 9.98403V0.160034H246.732V10.368H247.836V12H246.732Z" fill="black"/>
<path d="M241.891 12.0001C241.443 12.0001 241.085 11.8721 240.819 11.6161C240.563 11.3494 240.403 10.9974 240.339 10.5601H240.243C240.104 11.1041 239.821 11.5147 239.395 11.7921C238.968 12.0587 238.44 12.1921 237.811 12.1921C236.957 12.1921 236.301 11.9681 235.843 11.5201C235.384 11.0721 235.155 10.4747 235.155 9.72806C235.155 8.86406 235.464 8.22406 236.083 7.80805C236.701 7.38139 237.581 7.16805 238.723 7.16805H240.147V6.56005C240.147 6.09072 240.024 5.72806 239.779 5.47206C239.533 5.21606 239.139 5.08805 238.595 5.08805C238.115 5.08805 237.725 5.19472 237.427 5.40805C237.139 5.61072 236.893 5.85605 236.691 6.14405L235.475 5.05606C235.784 4.57605 236.195 4.19205 236.707 3.90405C237.219 3.60539 237.896 3.45605 238.739 3.45605C239.869 3.45605 240.728 3.71205 241.315 4.22405C241.901 4.73605 242.195 5.47205 242.195 6.43205V10.3681H243.027V12.0001H241.891ZM238.499 10.7041C238.957 10.7041 239.347 10.6027 239.667 10.4001C239.987 10.1974 240.147 9.89872 240.147 9.50406V8.40005H238.835C237.768 8.40005 237.235 8.74139 237.235 9.42406V9.69606C237.235 10.0374 237.341 10.2934 237.555 10.4641C237.779 10.6241 238.093 10.7041 238.499 10.7041Z" fill="black"/>
<path d="M232.349 2.43196C231.922 2.43196 231.613 2.33596 231.421 2.14396C231.239 1.95197 231.149 1.70663 231.149 1.40796V1.08797C231.149 0.789298 231.239 0.543965 231.421 0.351965C231.613 0.159965 231.922 0.0639648 232.349 0.0639648C232.765 0.0639648 233.069 0.159965 233.261 0.351965C233.453 0.543965 233.549 0.789298 233.549 1.08797V1.40796C233.549 1.70663 233.453 1.95197 233.261 2.14396C233.069 2.33596 232.765 2.43196 232.349 2.43196ZM231.325 3.64797H233.373V12H231.325V3.64797Z" fill="black"/>
<path d="M226.418 12.1921C225.799 12.1921 225.25 12.0907 224.77 11.8881C224.29 11.6854 223.884 11.3921 223.554 11.0081C223.234 10.6241 222.988 10.1654 222.818 9.63206C222.647 9.08806 222.562 8.48005 222.562 7.80805C222.562 7.13605 222.647 6.53339 222.818 6.00006C222.988 5.46672 223.234 5.01339 223.554 4.64005C223.884 4.25605 224.29 3.96272 224.77 3.76005C225.25 3.55739 225.799 3.45605 226.418 3.45605C227.26 3.45605 227.954 3.64272 228.498 4.01606C229.052 4.38939 229.452 4.90672 229.698 5.56806L228.018 6.32006C227.922 5.96806 227.74 5.68005 227.474 5.45605C227.218 5.22139 226.866 5.10406 226.418 5.10406C225.842 5.10406 225.41 5.28539 225.122 5.64806C224.844 6.01072 224.706 6.48539 224.706 7.07205V8.59206C224.706 9.17872 224.844 9.65339 225.122 10.0161C225.41 10.3681 225.842 10.5441 226.418 10.5441C226.908 10.5441 227.287 10.4214 227.554 10.1761C227.82 9.92005 228.028 9.60539 228.178 9.23206L229.746 9.98406C229.468 10.7201 229.047 11.2747 228.482 11.6481C227.916 12.0107 227.228 12.1921 226.418 12.1921Z" fill="black"/>
<path d="M217.418 12.1921C216.821 12.1921 216.282 12.0907 215.802 11.8881C215.333 11.6854 214.927 11.3921 214.586 11.0081C214.255 10.6241 213.999 10.1654 213.818 9.63206C213.637 9.08806 213.546 8.48005 213.546 7.80805C213.546 7.13605 213.637 6.53339 213.818 6.00006C213.999 5.46672 214.255 5.01339 214.586 4.64005C214.927 4.25605 215.333 3.96272 215.802 3.76005C216.282 3.55739 216.821 3.45605 217.418 3.45605C218.015 3.45605 218.554 3.55739 219.034 3.76005C219.514 3.96272 219.919 4.25605 220.25 4.64005C220.591 5.01339 220.853 5.46672 221.034 6.00006C221.215 6.53339 221.306 7.13605 221.306 7.80805C221.306 8.48005 221.215 9.08806 221.034 9.63206C220.853 10.1654 220.591 10.6241 220.25 11.0081C219.919 11.3921 219.514 11.6854 219.034 11.8881C218.554 12.0907 218.015 12.1921 217.418 12.1921ZM217.418 10.5441C217.962 10.5441 218.389 10.3787 218.698 10.0481C219.007 9.71739 219.162 9.23206 219.162 8.59206V7.04006C219.162 6.41072 219.007 5.93072 218.698 5.60006C218.389 5.26939 217.962 5.10406 217.418 5.10406C216.885 5.10406 216.463 5.26939 216.154 5.60006C215.845 5.93072 215.69 6.41072 215.69 7.04006V8.59206C215.69 9.23206 215.845 9.71739 216.154 10.0481C216.463 10.3787 216.885 10.5441 217.418 10.5441Z" fill="black"/>
<path d="M207.925 12.192C206.965 12.192 206.149 12.0213 205.477 11.68C204.815 11.3387 204.245 10.8907 203.765 10.336L205.189 8.96002C205.573 9.40802 205.999 9.74935 206.469 9.98402C206.949 10.2187 207.477 10.336 208.053 10.336C208.703 10.336 209.194 10.1973 209.525 9.92002C209.855 9.63202 210.021 9.24801 210.021 8.76801C210.021 8.39468 209.914 8.09068 209.701 7.85602C209.487 7.62135 209.087 7.45068 208.501 7.34402L207.445 7.18402C205.215 6.83202 204.101 5.74935 204.101 3.93602C204.101 3.43468 204.191 2.98135 204.373 2.57601C204.565 2.17068 204.837 1.82401 205.189 1.53601C205.541 1.24801 205.962 1.02935 206.453 0.880014C206.954 0.720015 207.519 0.640015 208.149 0.640015C208.991 0.640015 209.727 0.778681 210.357 1.05602C210.986 1.33335 211.525 1.74401 211.973 2.28801L210.533 3.64802C210.255 3.30668 209.919 3.02935 209.525 2.81602C209.13 2.60268 208.634 2.49601 208.037 2.49601C207.429 2.49601 206.97 2.61335 206.661 2.84801C206.362 3.07202 206.213 3.39202 206.213 3.80801C206.213 4.23468 206.335 4.54935 206.581 4.75202C206.826 4.95468 207.221 5.10401 207.765 5.20002L208.805 5.39202C209.935 5.59468 210.767 5.95735 211.301 6.48001C211.845 6.99201 212.117 7.71201 212.117 8.64001C212.117 9.17335 212.021 9.65868 211.829 10.096C211.647 10.5227 211.375 10.896 211.013 11.216C210.661 11.5253 210.223 11.7653 209.701 11.936C209.189 12.1067 208.597 12.192 207.925 12.192Z" fill="black"/>
<path d="M194.998 12.1921C194.379 12.1921 193.824 12.0907 193.334 11.8881C192.854 11.6747 192.443 11.3814 192.102 11.0081C191.771 10.6241 191.515 10.1654 191.334 9.63206C191.152 9.08806 191.062 8.48005 191.062 7.80805C191.062 7.14672 191.147 6.54939 191.318 6.01606C191.499 5.48272 191.755 5.02939 192.086 4.65606C192.416 4.27206 192.822 3.97872 193.302 3.77606C193.782 3.56272 194.326 3.45605 194.934 3.45605C195.584 3.45605 196.15 3.56805 196.63 3.79206C197.11 4.01606 197.504 4.32006 197.814 4.70405C198.123 5.08806 198.352 5.53606 198.502 6.04806C198.662 6.54939 198.742 7.08805 198.742 7.66405V8.33605H193.19V8.54405C193.19 9.15205 193.36 9.64272 193.702 10.0161C194.043 10.3787 194.55 10.5601 195.222 10.5601C195.734 10.5601 196.15 10.4534 196.47 10.2401C196.8 10.0267 197.094 9.75472 197.35 9.42406L198.454 10.6561C198.112 11.1361 197.643 11.5147 197.046 11.7921C196.459 12.0587 195.776 12.1921 194.998 12.1921ZM194.966 4.99205C194.422 4.99205 193.99 5.17339 193.67 5.53605C193.35 5.89872 193.19 6.36806 193.19 6.94406V7.07205H196.614V6.92805C196.614 6.35205 196.47 5.88805 196.182 5.53605C195.904 5.17339 195.499 4.99205 194.966 4.99205Z" fill="black"/>
<path d="M188.308 12C187.604 12 187.065 11.8187 186.692 11.456C186.329 11.0827 186.148 10.5547 186.148 9.87199V5.27999H184.916V3.64799H185.556C185.865 3.64799 186.073 3.57865 186.18 3.43999C186.297 3.29065 186.356 3.07199 186.356 2.78399V1.35999H188.196V3.64799H189.908V5.27999H188.196V10.368H189.78V12H188.308Z" fill="black"/>
<path d="M182.302 2.43196C181.875 2.43196 181.566 2.33596 181.374 2.14396C181.192 1.95197 181.102 1.70663 181.102 1.40796V1.08797C181.102 0.789298 181.192 0.543965 181.374 0.351965C181.566 0.159965 181.875 0.0639648 182.302 0.0639648C182.718 0.0639648 183.022 0.159965 183.214 0.351965C183.406 0.543965 183.502 0.789298 183.502 1.08797V1.40796C183.502 1.70663 183.406 1.95197 183.214 2.14396C183.022 2.33596 182.718 2.43196 182.302 2.43196ZM181.278 3.64797H183.326V12H181.278V3.64797Z" fill="black"/>
<path d="M178.623 12C177.919 12 177.401 11.824 177.071 11.472C176.74 11.12 176.575 10.624 176.575 9.98403V0.160034H178.623V10.368H179.727V12H178.623Z" fill="black"/>
<path d="M167.109 12V0.832031H174.469V2.70403H169.221V5.40803H173.861V7.28003H169.221V10.128H174.469V12H167.109Z" fill="black"/>
<path d="M159.823 12C159.119 12 158.58 11.8187 158.207 11.456C157.844 11.0827 157.663 10.5547 157.663 9.87199V5.27999H156.431V3.64799H157.071C157.38 3.64799 157.588 3.57865 157.695 3.43999C157.812 3.29065 157.871 3.07199 157.871 2.78399V1.35999H159.711V3.64799H161.423V5.27999H159.711V10.368H161.295V12H159.823Z" fill="black"/>
<path d="M147.809 12.0001V3.64806H149.857V5.04005H149.937C150.108 4.59205 150.374 4.21872 150.737 3.92006C151.11 3.61072 151.622 3.45605 152.273 3.45605C153.137 3.45605 153.798 3.73872 154.257 4.30405C154.716 4.86939 154.945 5.67472 154.945 6.72005V12.0001H152.897V6.92805C152.897 6.33072 152.79 5.88272 152.577 5.58405C152.364 5.28539 152.012 5.13605 151.521 5.13605C151.308 5.13605 151.1 5.16806 150.897 5.23206C150.705 5.28539 150.529 5.37072 150.369 5.48806C150.22 5.59472 150.097 5.73339 150.001 5.90405C149.905 6.06405 149.857 6.25605 149.857 6.48005V12.0001H147.809Z" fill="black"/>
<path d="M142.263 12.1921C141.644 12.1921 141.09 12.0907 140.599 11.8881C140.119 11.6747 139.708 11.3814 139.367 11.0081C139.036 10.6241 138.78 10.1654 138.599 9.63206C138.418 9.08806 138.327 8.48005 138.327 7.80805C138.327 7.14672 138.412 6.54939 138.583 6.01606C138.764 5.48272 139.02 5.02939 139.351 4.65606C139.682 4.27206 140.087 3.97872 140.567 3.77606C141.047 3.56272 141.591 3.45605 142.199 3.45605C142.85 3.45605 143.415 3.56805 143.895 3.79206C144.375 4.01606 144.77 4.32006 145.079 4.70405C145.388 5.08806 145.618 5.53606 145.767 6.04806C145.927 6.54939 146.007 7.08805 146.007 7.66405V8.33605H140.455V8.54405C140.455 9.15205 140.626 9.64272 140.967 10.0161C141.308 10.3787 141.815 10.5601 142.487 10.5601C142.999 10.5601 143.415 10.4534 143.735 10.2401C144.066 10.0267 144.359 9.75472 144.615 9.42406L145.719 10.6561C145.378 11.1361 144.908 11.5147 144.311 11.7921C143.724 12.0587 143.042 12.1921 142.263 12.1921ZM142.231 4.99205C141.687 4.99205 141.255 5.17339 140.935 5.53605C140.615 5.89872 140.455 6.36806 140.455 6.94406V7.07205H143.879V6.92805C143.879 6.35205 143.735 5.88805 143.447 5.53605C143.17 5.17339 142.764 4.99205 142.231 4.99205Z" fill="black"/>
<path d="M124.684 12.0001V3.64806H126.732V5.04005H126.812C126.972 4.60272 127.228 4.22939 127.58 3.92006C127.932 3.61072 128.423 3.45605 129.052 3.45605C129.628 3.45605 130.124 3.59472 130.54 3.87206C130.956 4.14939 131.265 4.57072 131.468 5.13605H131.5C131.649 4.66672 131.943 4.27206 132.38 3.95205C132.828 3.62139 133.388 3.45605 134.06 3.45605C134.881 3.45605 135.511 3.73872 135.948 4.30405C136.396 4.86939 136.62 5.67472 136.62 6.72005V12.0001H134.572V6.92805C134.572 5.73339 134.124 5.13605 133.228 5.13605C133.025 5.13605 132.828 5.16806 132.636 5.23206C132.455 5.28539 132.289 5.37072 132.14 5.48806C132.001 5.59472 131.889 5.73339 131.804 5.90405C131.719 6.06405 131.676 6.25605 131.676 6.48005V12.0001H129.628V6.92805C129.628 5.73339 129.18 5.13605 128.284 5.13605C128.092 5.13605 127.9 5.16806 127.708 5.23206C127.527 5.28539 127.361 5.37072 127.212 5.48806C127.073 5.59472 126.956 5.73339 126.86 5.90405C126.775 6.06405 126.732 6.25605 126.732 6.48005V12.0001H124.684Z" fill="black"/>
<path d="M121.308 12C120.604 12 120.065 11.8187 119.692 11.456C119.329 11.0827 119.148 10.5547 119.148 9.87199V5.27999H117.916V3.64799H118.556C118.865 3.64799 119.073 3.57865 119.18 3.43999C119.297 3.29065 119.356 3.07199 119.356 2.78399V1.35999H121.196V3.64799H122.908V5.27999H121.196V10.368H122.78V12H121.308Z" fill="black"/>
<path d="M113.576 12.1921C112.776 12.1921 112.104 12.0587 111.56 11.7921C111.016 11.5147 110.536 11.1361 110.12 10.6561L111.368 9.44005C111.678 9.79206 112.014 10.0694 112.376 10.2721C112.75 10.4747 113.176 10.5761 113.656 10.5761C114.147 10.5761 114.499 10.4907 114.712 10.3201C114.936 10.1494 115.048 9.91472 115.048 9.61606C115.048 9.37072 114.968 9.17872 114.808 9.04006C114.659 8.89072 114.398 8.78939 114.024 8.73606L113.192 8.62405C112.286 8.50672 111.592 8.25072 111.112 7.85606C110.643 7.45072 110.408 6.86405 110.408 6.09606C110.408 5.69072 110.483 5.32805 110.632 5.00805C110.782 4.67739 110.995 4.40005 111.272 4.17605C111.55 3.94139 111.88 3.76539 112.264 3.64806C112.659 3.52005 113.096 3.45605 113.576 3.45605C113.982 3.45605 114.339 3.48805 114.648 3.55206C114.968 3.60539 115.256 3.69072 115.512 3.80805C115.768 3.91472 116.003 4.05339 116.216 4.22405C116.43 4.38405 116.638 4.56539 116.84 4.76805L115.64 5.96806C115.395 5.71206 115.102 5.49872 114.76 5.32805C114.419 5.15739 114.046 5.07205 113.64 5.07205C113.192 5.07205 112.867 5.15206 112.664 5.31206C112.472 5.47206 112.376 5.68005 112.376 5.93606C112.376 6.21339 112.456 6.42672 112.616 6.57606C112.787 6.71472 113.07 6.81605 113.464 6.88005L114.312 6.99205C116.115 7.24806 117.016 8.06939 117.016 9.45605C117.016 9.86139 116.931 10.2347 116.76 10.5761C116.6 10.9067 116.371 11.1947 116.072 11.4401C115.774 11.6747 115.411 11.8614 114.984 12.0001C114.568 12.1281 114.099 12.1921 113.576 12.1921Z" fill="black"/>
<path d="M105.294 12.1921C104.676 12.1921 104.121 12.0907 103.63 11.8881C103.15 11.6747 102.74 11.3814 102.398 11.0081C102.068 10.6241 101.812 10.1654 101.63 9.63206C101.449 9.08806 101.358 8.48005 101.358 7.80805C101.358 7.14672 101.444 6.54939 101.614 6.01606C101.796 5.48272 102.052 5.02939 102.382 4.65606C102.713 4.27206 103.118 3.97872 103.598 3.77606C104.078 3.56272 104.622 3.45605 105.23 3.45605C105.881 3.45605 106.446 3.56805 106.926 3.79206C107.406 4.01606 107.801 4.32006 108.11 4.70405C108.42 5.08806 108.649 5.53606 108.798 6.04806C108.958 6.54939 109.038 7.08805 109.038 7.66405V8.33605H103.486V8.54405C103.486 9.15205 103.657 9.64272 103.998 10.0161C104.34 10.3787 104.846 10.5601 105.518 10.5601C106.03 10.5601 106.446 10.4534 106.766 10.2401C107.097 10.0267 107.39 9.75472 107.646 9.42406L108.75 10.6561C108.409 11.1361 107.94 11.5147 107.342 11.7921C106.756 12.0587 106.073 12.1921 105.294 12.1921ZM105.262 4.99205C104.718 4.99205 104.286 5.17339 103.966 5.53605C103.646 5.89872 103.486 6.36806 103.486 6.94406V7.07205H106.91V6.92805C106.91 6.35205 106.766 5.88805 106.478 5.53605C106.201 5.17339 105.796 4.99205 105.262 4.99205Z" fill="black"/>
<path d="M95.4446 11.9999L92.6606 3.64795H94.6766L95.8446 7.24795L96.6606 10.2239H96.7726L97.5886 7.24795L98.7246 3.64795H100.677L97.8766 11.9999H95.4446Z" fill="black"/>
<path d="M84.3716 12.0001V3.64806H86.4196V5.04005H86.4996C86.6702 4.59205 86.9369 4.21872 87.2996 3.92006C87.6729 3.61072 88.1849 3.45605 88.8356 3.45605C89.6996 3.45605 90.3609 3.73872 90.8196 4.30405C91.2783 4.86939 91.5076 5.67472 91.5076 6.72005V12.0001H89.4596V6.92805C89.4596 6.33072 89.3529 5.88272 89.1396 5.58405C88.9263 5.28539 88.5743 5.13605 88.0836 5.13605C87.8703 5.13605 87.6623 5.16806 87.4596 5.23206C87.2676 5.28539 87.0916 5.37072 86.9316 5.48806C86.7823 5.59472 86.6596 5.73339 86.5636 5.90405C86.4676 6.06405 86.4196 6.25605 86.4196 6.48005V12.0001H84.3716Z" fill="black"/>
<path d="M77.2698 12V10.304H78.7418V2.52803H77.2698V0.832031H82.3418V2.52803H80.8538V10.304H82.3418V12H77.2698Z" fill="black"/>
<path d="M69.0424 10.976C68.8824 11.1147 68.701 11.2587 68.4984 11.408C68.2957 11.5467 68.061 11.6747 67.7944 11.792C67.5384 11.9093 67.245 12.0053 66.9144 12.08C66.5944 12.1547 66.2317 12.192 65.8264 12.192C65.229 12.192 64.6957 12.112 64.2264 11.952C63.7677 11.792 63.3837 11.5733 63.0744 11.296C62.765 11.0187 62.5304 10.6933 62.3704 10.32C62.2104 9.93602 62.1304 9.52535 62.1304 9.08801C62.1304 8.69335 62.189 8.34668 62.3064 8.04802C62.4237 7.73868 62.5837 7.46135 62.7864 7.21601C62.989 6.96001 63.229 6.73601 63.5064 6.54401C63.7837 6.34135 64.077 6.14935 64.3864 5.96802C64.0557 5.59468 63.7624 5.18935 63.5064 4.75202C63.261 4.30401 63.1384 3.82401 63.1384 3.31201C63.1384 2.94935 63.213 2.60801 63.3624 2.28801C63.5117 1.95735 63.725 1.66935 64.0024 1.42402C64.2904 1.17868 64.6317 0.986682 65.0264 0.848015C65.421 0.709348 65.8637 0.640015 66.3544 0.640015C66.7917 0.640015 67.197 0.698681 67.5704 0.816014C67.9437 0.933348 68.2637 1.09868 68.5304 1.31201C68.8077 1.52535 69.021 1.78668 69.1704 2.09601C69.3304 2.40535 69.4104 2.75735 69.4104 3.15201C69.4104 3.50401 69.3464 3.82935 69.2184 4.12802C69.101 4.41602 68.9357 4.68268 68.7224 4.92801C68.509 5.16268 68.2637 5.38668 67.9864 5.60002C67.709 5.80268 67.4104 5.99468 67.0904 6.17601L69.0424 8.28802C69.1917 7.92535 69.3037 7.54135 69.3784 7.13601C69.4637 6.73068 69.517 6.32535 69.5384 5.92002H72.0504V7.63202H71.0104C70.8504 8.35735 70.605 9.01868 70.2744 9.61602L72.4824 12H69.9704L69.0424 10.976ZM66.2904 2.22402C65.949 2.22402 65.6664 2.32535 65.4424 2.52802C65.2184 2.72002 65.1064 2.98135 65.1064 3.31201V3.42402C65.1064 3.66935 65.181 3.91468 65.3304 4.16002C65.4904 4.39468 65.7357 4.69868 66.0664 5.07201C66.4717 4.82668 66.8024 4.57068 67.0584 4.30401C67.325 4.03735 67.4584 3.72801 67.4584 3.37601V3.28001C67.4584 2.93868 67.341 2.67735 67.1064 2.49601C66.8824 2.31468 66.6104 2.22402 66.2904 2.22402ZM66.0984 10.48C66.4824 10.48 66.829 10.4213 67.1384 10.304C67.4477 10.1867 67.7197 10.0267 67.9544 9.82401L65.4104 7.07201C65.037 7.29602 64.7437 7.53602 64.5304 7.79202C64.3277 8.03735 64.2264 8.35202 64.2264 8.73602V8.91201C64.2264 9.38135 64.3864 9.76002 64.7064 10.048C65.0264 10.336 65.4904 10.48 66.0984 10.48Z" fill="black"/>
<path d="M53.0913 12.1921C52.4726 12.1921 51.9179 12.0907 51.4273 11.8881C50.9473 11.6747 50.5366 11.3814 50.1953 11.0081C49.8646 10.6241 49.6086 10.1654 49.4273 9.63206C49.2459 9.08806 49.1553 8.48005 49.1553 7.80805C49.1553 7.14672 49.2406 6.54939 49.4113 6.01606C49.5926 5.48272 49.8486 5.02939 50.1793 4.65606C50.5099 4.27206 50.9153 3.97872 51.3953 3.77606C51.8753 3.56272 52.4193 3.45605 53.0273 3.45605C53.6779 3.45605 54.2433 3.56805 54.7233 3.79206C55.2033 4.01606 55.5979 4.32006 55.9073 4.70405C56.2166 5.08806 56.4459 5.53606 56.5953 6.04806C56.7553 6.54939 56.8353 7.08805 56.8353 7.66405V8.33605H51.2833V8.54405C51.2833 9.15205 51.4539 9.64272 51.7953 10.0161C52.1366 10.3787 52.6433 10.5601 53.3153 10.5601C53.8273 10.5601 54.2433 10.4534 54.5633 10.2401C54.8939 10.0267 55.1873 9.75472 55.4433 9.42406L56.5473 10.6561C56.2059 11.1361 55.7366 11.5147 55.1393 11.7921C54.5526 12.0587 53.8699 12.1921 53.0913 12.1921ZM53.0593 4.99205C52.5153 4.99205 52.0833 5.17339 51.7633 5.53605C51.4433 5.89872 51.2833 6.36806 51.2833 6.94406V7.07205H54.7073V6.92805C54.7073 6.35205 54.5633 5.88805 54.2753 5.53605C53.9979 5.17339 53.5926 4.99205 53.0593 4.99205Z" fill="black"/>
<path d="M44.8863 12.1921C44.2676 12.1921 43.7183 12.0907 43.2383 11.8881C42.7583 11.6854 42.3529 11.3921 42.0223 11.0081C41.7023 10.6241 41.4569 10.1654 41.2863 9.63206C41.1156 9.08806 41.0303 8.48005 41.0303 7.80805C41.0303 7.13605 41.1156 6.53339 41.2863 6.00006C41.4569 5.46672 41.7023 5.01339 42.0223 4.64005C42.3529 4.25605 42.7583 3.96272 43.2383 3.76005C43.7183 3.55739 44.2676 3.45605 44.8863 3.45605C45.7289 3.45605 46.4223 3.64272 46.9663 4.01606C47.5209 4.38939 47.9209 4.90672 48.1663 5.56806L46.4863 6.32006C46.3903 5.96806 46.2089 5.68005 45.9423 5.45605C45.6863 5.22139 45.3343 5.10406 44.8863 5.10406C44.3103 5.10406 43.8783 5.28539 43.5903 5.64806C43.3129 6.01072 43.1743 6.48539 43.1743 7.07205V8.59206C43.1743 9.17872 43.3129 9.65339 43.5903 10.0161C43.8783 10.3681 44.3103 10.5441 44.8863 10.5441C45.3769 10.5441 45.7556 10.4214 46.0223 10.1761C46.2889 9.92005 46.4969 9.60539 46.6463 9.23206L48.2143 9.98406C47.9369 10.7201 47.5156 11.2747 46.9503 11.6481C46.3849 12.0107 45.6969 12.1921 44.8863 12.1921Z" fill="black"/>
<path d="M32.1841 12.0001V3.64806H34.2321V5.04005H34.3121C34.4828 4.59205 34.7494 4.21872 35.1121 3.92006C35.4854 3.61072 35.9974 3.45605 36.6481 3.45605C37.5121 3.45605 38.1734 3.73872 38.6321 4.30405C39.0908 4.86939 39.3201 5.67472 39.3201 6.72005V12.0001H37.2721V6.92805C37.2721 6.33072 37.1654 5.88272 36.9521 5.58405C36.7388 5.28539 36.3868 5.13605 35.8961 5.13605C35.6828 5.13605 35.4747 5.16806 35.2721 5.23206C35.0801 5.28539 34.9041 5.37072 34.7441 5.48806C34.5948 5.59472 34.4721 5.73339 34.3761 5.90405C34.2801 6.06405 34.2321 6.25605 34.2321 6.48005V12.0001H32.1841Z" fill="black"/>
<path d="M29.3905 12.0001C28.9425 12.0001 28.5852 11.8721 28.3185 11.6161C28.0625 11.3494 27.9025 10.9974 27.8385 10.5601H27.7425C27.6039 11.1041 27.3212 11.5147 26.8945 11.7921C26.4679 12.0587 25.9399 12.1921 25.3105 12.1921C24.4572 12.1921 23.8012 11.9681 23.3425 11.5201C22.8839 11.0721 22.6545 10.4747 22.6545 9.72806C22.6545 8.86406 22.9639 8.22406 23.5825 7.80805C24.2012 7.38139 25.0812 7.16805 26.2225 7.16805H27.6465V6.56005C27.6465 6.09072 27.5239 5.72806 27.2785 5.47206C27.0332 5.21606 26.6385 5.08805 26.0945 5.08805C25.6145 5.08805 25.2252 5.19472 24.9265 5.40805C24.6385 5.61072 24.3932 5.85605 24.1905 6.14405L22.9745 5.05606C23.2839 4.57605 23.6945 4.19205 24.2065 3.90405C24.7185 3.60539 25.3959 3.45605 26.2385 3.45605C27.3692 3.45605 28.2279 3.71205 28.8145 4.22405C29.4012 4.73605 29.6945 5.47205 29.6945 6.43205V10.3681H30.5265V12.0001H29.3905ZM25.9985 10.7041C26.4572 10.7041 26.8465 10.6027 27.1665 10.4001C27.4865 10.1974 27.6465 9.89872 27.6465 9.50406V8.40005H26.3345C25.2679 8.40005 24.7345 8.74139 24.7345 9.42406V9.69606C24.7345 10.0374 24.8412 10.2934 25.0545 10.4641C25.2785 10.6241 25.5932 10.7041 25.9985 10.7041Z" fill="black"/>
<path d="M13.8403 12.0001V3.64806H15.8883V5.04005H15.9683C16.139 4.59205 16.4057 4.21872 16.7683 3.92006C17.1417 3.61072 17.6537 3.45605 18.3043 3.45605C19.1683 3.45605 19.8297 3.73872 20.2883 4.30405C20.747 4.86939 20.9763 5.67472 20.9763 6.72005V12.0001H18.9283V6.92805C18.9283 6.33072 18.8217 5.88272 18.6083 5.58405C18.395 5.28539 18.043 5.13605 17.5523 5.13605C17.339 5.13605 17.131 5.16806 16.9283 5.23206C16.7363 5.28539 16.5603 5.37072 16.4003 5.48806C16.251 5.59472 16.1283 5.73339 16.0323 5.90405C15.9363 6.06405 15.8883 6.25605 15.8883 6.48005V12.0001H13.8403Z" fill="black"/>
<path d="M10.4424 2.43196C10.0158 2.43196 9.70643 2.33596 9.51443 2.14396C9.3331 1.95197 9.24243 1.70663 9.24243 1.40796V1.08797C9.24243 0.789298 9.3331 0.543965 9.51443 0.351965C9.70643 0.159965 10.0158 0.0639648 10.4424 0.0639648C10.8584 0.0639648 11.1624 0.159965 11.3544 0.351965C11.5464 0.543965 11.6424 0.789298 11.6424 1.08797V1.40796C11.6424 1.70663 11.5464 1.95197 11.3544 2.14396C11.1624 2.33596 10.8584 2.43196 10.4424 2.43196ZM9.41843 3.64797H11.4664V12H9.41843V3.64797Z" fill="black"/>
<path d="M0.312012 12V0.832031H7.49601V2.70403H2.42401V5.40803H6.84001V7.28003H2.42401V12H0.312012Z" fill="black"/>
</svg>
