<svg width="246" height="16" viewBox="0 0 246 16" fill="none" xmlns="http://www.w3.org/2000/svg">
<path d="M170 1.33334C167.42 1.33334 165.333 3.42 165.333 6C165.333 9.5 170 14.6667 170 14.6667C170 14.6667 174.667 9.5 174.667 6C174.667 3.42 172.58 1.33334 170 1.33334ZM166.667 6C166.667 4.16 168.16 2.66667 170 2.66667C171.84 2.66667 173.333 4.16 173.333 6C173.333 7.92 171.413 10.7933 170 12.5867C168.613 10.8067 166.667 7.9 166.667 6Z" fill="#495057"/>
<path d="M170 7.66667C170.92 7.66667 171.667 6.92048 171.667 6C171.667 5.07953 170.92 4.33334 170 4.33334C169.079 4.33334 168.333 5.07953 168.333 6C168.333 6.92048 169.079 7.66667 170 7.66667Z" fill="#495057"/>
<path d="M245.055 12C244.711 12 244.447 11.904 244.263 11.712C244.079 11.512 243.967 11.26 243.927 10.956H243.867C243.747 11.348 243.527 11.644 243.207 11.844C242.887 12.044 242.499 12.144 242.043 12.144C241.395 12.144 240.895 11.976 240.543 11.64C240.199 11.304 240.027 10.852 240.027 10.284C240.027 9.66 240.251 9.192 240.699 8.88C241.155 8.568 241.819 8.412 242.691 8.412H243.819V7.884C243.819 7.5 243.715 7.204 243.507 6.996C243.299 6.788 242.975 6.684 242.535 6.684C242.167 6.684 241.867 6.764 241.635 6.924C241.403 7.084 241.207 7.288 241.047 7.536L240.267 6.828C240.475 6.476 240.767 6.188 241.143 5.964C241.519 5.732 242.011 5.616 242.619 5.616C243.427 5.616 244.047 5.804 244.479 6.18C244.911 6.556 245.127 7.096 245.127 7.8V10.932H245.787V12H245.055ZM242.415 11.148C242.823 11.148 243.159 11.06 243.423 10.884C243.687 10.7 243.819 10.456 243.819 10.152V9.252H242.715C241.811 9.252 241.359 9.532 241.359 10.092V10.308C241.359 10.588 241.451 10.8 241.635 10.944C241.827 11.08 242.087 11.148 242.415 11.148Z" fill="#212529"/>
<path d="M238.087 4.644C237.815 4.644 237.615 4.58 237.487 4.452C237.367 4.324 237.307 4.16 237.307 3.96V3.756C237.307 3.556 237.367 3.392 237.487 3.264C237.615 3.136 237.815 3.072 238.087 3.072C238.359 3.072 238.555 3.136 238.675 3.264C238.795 3.392 238.855 3.556 238.855 3.756V3.96C238.855 4.16 238.795 4.324 238.675 4.452C238.555 4.58 238.359 4.644 238.087 4.644ZM237.427 5.76H238.735V12H237.427V5.76Z" fill="#212529"/>
<path d="M234.37 10.968H234.31C234.174 11.336 233.95 11.624 233.638 11.832C233.334 12.04 232.974 12.144 232.558 12.144C231.766 12.144 231.154 11.86 230.722 11.292C230.29 10.716 230.074 9.912 230.074 8.88C230.074 7.848 230.29 7.048 230.722 6.48C231.154 5.904 231.766 5.616 232.558 5.616C232.974 5.616 233.334 5.72 233.638 5.928C233.95 6.128 234.174 6.416 234.31 6.792H234.37V3.12H235.678V12H234.37V10.968ZM232.954 11.016C233.354 11.016 233.69 10.92 233.962 10.728C234.234 10.528 234.37 10.268 234.37 9.948V7.812C234.37 7.492 234.234 7.236 233.962 7.044C233.69 6.844 233.354 6.744 232.954 6.744C232.498 6.744 232.134 6.892 231.862 7.188C231.59 7.476 231.454 7.86 231.454 8.34V9.42C231.454 9.9 231.59 10.288 231.862 10.584C232.134 10.872 232.498 11.016 232.954 11.016Z" fill="#212529"/>
<path d="M223.605 12V5.76H224.913V6.792H224.973C225.109 6.456 225.313 6.176 225.585 5.952C225.865 5.728 226.245 5.616 226.725 5.616C227.365 5.616 227.861 5.828 228.213 6.252C228.573 6.668 228.753 7.264 228.753 8.04V12H227.445V8.208C227.445 7.232 227.053 6.744 226.269 6.744C226.101 6.744 225.933 6.768 225.765 6.816C225.605 6.856 225.461 6.92 225.333 7.008C225.205 7.096 225.101 7.208 225.021 7.344C224.949 7.48 224.913 7.64 224.913 7.824V12H223.605Z" fill="#212529"/>
<path d="M218.469 12V10.896H219.609V4.728H218.469V3.624H222.117V4.728H220.965V10.896H222.117V12H218.469Z" fill="#212529"/>
<path d="M213.46 10.332C213.756 10.332 213.976 10.408 214.12 10.56C214.264 10.712 214.336 10.908 214.336 11.148V11.34C214.336 11.732 214.228 12.14 214.012 12.564C213.804 12.996 213.52 13.36 213.16 13.656H212.188C212.444 13.4 212.656 13.152 212.824 12.912C212.992 12.672 213.12 12.404 213.208 12.108C213 12.068 212.844 11.98 212.74 11.844C212.636 11.7 212.584 11.532 212.584 11.34V11.148C212.584 10.908 212.656 10.712 212.8 10.56C212.944 10.408 213.164 10.332 213.46 10.332Z" fill="#212529"/>
<path d="M210.645 12C210.301 12 210.037 11.904 209.853 11.712C209.669 11.512 209.557 11.26 209.517 10.956H209.457C209.337 11.348 209.117 11.644 208.797 11.844C208.477 12.044 208.089 12.144 207.633 12.144C206.985 12.144 206.485 11.976 206.133 11.64C205.789 11.304 205.617 10.852 205.617 10.284C205.617 9.66 205.841 9.192 206.289 8.88C206.745 8.568 207.409 8.412 208.281 8.412H209.409V7.884C209.409 7.5 209.305 7.204 209.097 6.996C208.889 6.788 208.565 6.684 208.125 6.684C207.757 6.684 207.457 6.764 207.225 6.924C206.993 7.084 206.797 7.288 206.637 7.536L205.857 6.828C206.065 6.476 206.357 6.188 206.733 5.964C207.109 5.732 207.601 5.616 208.209 5.616C209.017 5.616 209.637 5.804 210.069 6.18C210.501 6.556 210.717 7.096 210.717 7.8V10.932H211.377V12H210.645ZM208.005 11.148C208.413 11.148 208.749 11.06 209.013 10.884C209.277 10.7 209.409 10.456 209.409 10.152V9.252H208.305C207.401 9.252 206.949 9.532 206.949 10.092V10.308C206.949 10.588 207.041 10.8 207.225 10.944C207.417 11.08 207.677 11.148 208.005 11.148Z" fill="#212529"/>
<path d="M203.016 10.968H202.956C202.82 11.336 202.596 11.624 202.284 11.832C201.98 12.04 201.62 12.144 201.204 12.144C200.412 12.144 199.8 11.86 199.368 11.292C198.936 10.716 198.72 9.912 198.72 8.88C198.72 7.848 198.936 7.048 199.368 6.48C199.8 5.904 200.412 5.616 201.204 5.616C201.62 5.616 201.98 5.72 202.284 5.928C202.596 6.128 202.82 6.416 202.956 6.792H203.016V3.12H204.324V12H203.016V10.968ZM201.6 11.016C202 11.016 202.336 10.92 202.608 10.728C202.88 10.528 203.016 10.268 203.016 9.948V7.812C203.016 7.492 202.88 7.236 202.608 7.044C202.336 6.844 202 6.744 201.6 6.744C201.144 6.744 200.78 6.892 200.508 7.188C200.236 7.476 200.1 7.86 200.1 8.34V9.42C200.1 9.9 200.236 10.288 200.508 10.584C200.78 10.872 201.144 11.016 201.6 11.016Z" fill="#212529"/>
<path d="M196.696 4.644C196.424 4.644 196.224 4.58 196.096 4.452C195.976 4.324 195.916 4.16 195.916 3.96V3.756C195.916 3.556 195.976 3.392 196.096 3.264C196.224 3.136 196.424 3.072 196.696 3.072C196.968 3.072 197.164 3.136 197.284 3.264C197.404 3.392 197.464 3.556 197.464 3.756V3.96C197.464 4.16 197.404 4.324 197.284 4.452C197.164 4.58 196.968 4.644 196.696 4.644ZM196.036 5.76H197.344V12H196.036V5.76Z" fill="#212529"/>
<path d="M191.83 12.144C191.398 12.144 191.002 12.068 190.642 11.916C190.29 11.764 189.99 11.548 189.742 11.268C189.494 10.98 189.302 10.636 189.166 10.236C189.03 9.828 188.962 9.376 188.962 8.88C188.962 8.384 189.03 7.936 189.166 7.536C189.302 7.128 189.494 6.784 189.742 6.504C189.99 6.216 190.29 5.996 190.642 5.844C191.002 5.692 191.398 5.616 191.83 5.616C192.262 5.616 192.654 5.692 193.006 5.844C193.366 5.996 193.67 6.216 193.918 6.504C194.166 6.784 194.358 7.128 194.494 7.536C194.63 7.936 194.698 8.384 194.698 8.88C194.698 9.376 194.63 9.828 194.494 10.236C194.358 10.636 194.166 10.98 193.918 11.268C193.67 11.548 193.366 11.764 193.006 11.916C192.654 12.068 192.262 12.144 191.83 12.144ZM191.83 11.064C192.278 11.064 192.638 10.928 192.91 10.656C193.182 10.376 193.318 9.96 193.318 9.408V8.352C193.318 7.8 193.182 7.388 192.91 7.116C192.638 6.836 192.278 6.696 191.83 6.696C191.382 6.696 191.022 6.836 190.75 7.116C190.478 7.388 190.342 7.8 190.342 8.352V9.408C190.342 9.96 190.478 10.376 190.75 10.656C191.022 10.928 191.382 11.064 191.83 11.064Z" fill="#212529"/>
<path d="M183.288 7.368L182.364 5.592H182.328V12H181.032V3.624H182.544L185.28 8.256L186.204 10.032H186.24V3.624H187.536V12H186.024L183.288 7.368Z" fill="#212529"/>
<path d="M133.248 12.144C132.952 12.144 132.732 12.068 132.588 11.916C132.444 11.756 132.372 11.56 132.372 11.328V11.148C132.372 10.916 132.444 10.724 132.588 10.572C132.732 10.412 132.952 10.332 133.248 10.332C133.544 10.332 133.764 10.412 133.908 10.572C134.052 10.724 134.124 10.916 134.124 11.148V11.328C134.124 11.56 134.052 11.756 133.908 11.916C133.764 12.068 133.544 12.144 133.248 12.144Z" fill="#212529"/>
<path d="M129.887 12.144C129.591 12.144 129.371 12.068 129.227 11.916C129.083 11.756 129.011 11.56 129.011 11.328V11.148C129.011 10.916 129.083 10.724 129.227 10.572C129.371 10.412 129.591 10.332 129.887 10.332C130.183 10.332 130.403 10.412 130.547 10.572C130.691 10.724 130.763 10.916 130.763 11.148V11.328C130.763 11.56 130.691 11.756 130.547 11.916C130.403 12.068 130.183 12.144 129.887 12.144Z" fill="#212529"/>
<path d="M126.527 12.144C126.231 12.144 126.011 12.068 125.867 11.916C125.723 11.756 125.651 11.56 125.651 11.328V11.148C125.651 10.916 125.723 10.724 125.867 10.572C126.011 10.412 126.231 10.332 126.527 10.332C126.823 10.332 127.043 10.412 127.187 10.572C127.331 10.724 127.403 10.916 127.403 11.148V11.328C127.403 11.56 127.331 11.756 127.187 11.916C127.043 12.068 126.823 12.144 126.527 12.144Z" fill="#212529"/>
<path d="M122.137 12.144C121.689 12.144 121.289 12.068 120.937 11.916C120.585 11.764 120.289 11.548 120.049 11.268C119.809 10.98 119.625 10.636 119.497 10.236C119.369 9.828 119.305 9.376 119.305 8.88C119.305 8.384 119.369 7.936 119.497 7.536C119.625 7.128 119.809 6.784 120.049 6.504C120.289 6.216 120.585 5.996 120.937 5.844C121.289 5.692 121.689 5.616 122.137 5.616C122.761 5.616 123.273 5.756 123.673 6.036C124.073 6.316 124.365 6.688 124.549 7.152L123.469 7.656C123.381 7.368 123.225 7.14 123.001 6.972C122.785 6.796 122.497 6.708 122.137 6.708C121.657 6.708 121.293 6.86 121.045 7.164C120.805 7.46 120.685 7.848 120.685 8.328V9.444C120.685 9.924 120.805 10.316 121.045 10.62C121.293 10.916 121.657 11.064 122.137 11.064C122.521 11.064 122.825 10.972 123.049 10.788C123.281 10.596 123.465 10.344 123.601 10.032L124.597 10.56C124.389 11.072 124.077 11.464 123.661 11.736C123.245 12.008 122.737 12.144 122.137 12.144Z" fill="#212529"/>
<path d="M117.33 4.644C117.058 4.644 116.858 4.58 116.73 4.452C116.61 4.324 116.55 4.16 116.55 3.96V3.756C116.55 3.556 116.61 3.392 116.73 3.264C116.858 3.136 117.058 3.072 117.33 3.072C117.602 3.072 117.798 3.136 117.918 3.264C118.038 3.392 118.098 3.556 118.098 3.756V3.96C118.098 4.16 118.038 4.324 117.918 4.452C117.798 4.58 117.602 4.644 117.33 4.644ZM116.67 5.76H117.978V12H116.67V5.76Z" fill="#212529"/>
<path d="M114.135 12C113.679 12 113.335 11.884 113.103 11.652C112.871 11.412 112.755 11.076 112.755 10.644V6.828H111.783V5.76H112.311C112.527 5.76 112.675 5.712 112.755 5.616C112.843 5.52 112.887 5.364 112.887 5.148V4.056H114.063V5.76H115.371V6.828H114.063V10.932H115.275V12H114.135Z" fill="#212529"/>
<path d="M110.191 5.76H111.451L108.823 13.236C108.751 13.444 108.667 13.62 108.571 13.764C108.483 13.916 108.375 14.036 108.247 14.124C108.127 14.22 107.979 14.288 107.803 14.328C107.627 14.376 107.419 14.4 107.179 14.4H106.423V13.332H107.479L107.839 12.276L105.571 5.76H106.879L108.127 9.432L108.487 10.788H108.547L108.943 9.432L110.191 5.76Z" fill="#212529"/>
<path d="M104.487 12C104.039 12 103.703 11.888 103.479 11.664C103.263 11.432 103.155 11.112 103.155 10.704V3.12H104.463V10.932H105.327V12H104.487Z" fill="#212529"/>
<path d="M101.261 12C100.917 12 100.653 11.904 100.469 11.712C100.285 11.512 100.173 11.26 100.133 10.956H100.073C99.9527 11.348 99.7327 11.644 99.4127 11.844C99.0927 12.044 98.7047 12.144 98.2487 12.144C97.6007 12.144 97.1007 11.976 96.7487 11.64C96.4047 11.304 96.2327 10.852 96.2327 10.284C96.2327 9.66 96.4567 9.192 96.9047 8.88C97.3607 8.568 98.0247 8.412 98.8967 8.412H100.025V7.884C100.025 7.5 99.9207 7.204 99.7127 6.996C99.5047 6.788 99.1807 6.684 98.7407 6.684C98.3727 6.684 98.0727 6.764 97.8407 6.924C97.6087 7.084 97.4127 7.288 97.2527 7.536L96.4727 6.828C96.6807 6.476 96.9727 6.188 97.3487 5.964C97.7247 5.732 98.2167 5.616 98.8247 5.616C99.6327 5.616 100.253 5.804 100.685 6.18C101.117 6.556 101.333 7.096 101.333 7.8V10.932H101.993V12H101.261ZM98.6207 11.148C99.0287 11.148 99.3647 11.06 99.6287 10.884C99.8927 10.7 100.025 10.456 100.025 10.152V9.252H98.9207C98.0167 9.252 97.5647 9.532 97.5647 10.092V10.308C97.5647 10.588 97.6567 10.8 97.8407 10.944C98.0327 11.08 98.2927 11.148 98.6207 11.148Z" fill="#212529"/>
<path d="M89.8477 12V5.76H91.1557V6.792H91.2157C91.3517 6.456 91.5557 6.176 91.8277 5.952C92.1077 5.728 92.4877 5.616 92.9677 5.616C93.6077 5.616 94.1037 5.828 94.4557 6.252C94.8157 6.668 94.9957 7.264 94.9957 8.04V12H93.6877V8.208C93.6877 7.232 93.2957 6.744 92.5117 6.744C92.3437 6.744 92.1757 6.768 92.0077 6.816C91.8477 6.856 91.7037 6.92 91.5757 7.008C91.4477 7.096 91.3437 7.208 91.2637 7.344C91.1917 7.48 91.1557 7.64 91.1557 7.824V12H89.8477Z" fill="#212529"/>
<path d="M87.3503 12L86.5943 9.732H83.4623L82.7303 12H81.3503L84.2063 3.624H85.9103L88.7663 12H87.3503ZM85.0583 4.872H84.9983L83.7863 8.568H86.2583L85.0583 4.872Z" fill="#212529"/>
<path d="M74.8328 12V5.76H76.1408V6.96H76.2008C76.2888 6.64 76.4728 6.36 76.7528 6.12C77.0328 5.88 77.4208 5.76 77.9168 5.76H78.2648V7.02H77.7488C77.2288 7.02 76.8288 7.104 76.5488 7.272C76.2768 7.44 76.1408 7.688 76.1408 8.016V12H74.8328Z" fill="#212529"/>
<path d="M70.7327 12.144C70.2847 12.144 69.8847 12.068 69.5327 11.916C69.1807 11.764 68.8807 11.548 68.6327 11.268C68.3847 10.98 68.1927 10.636 68.0567 10.236C67.9287 9.828 67.8647 9.376 67.8647 8.88C67.8647 8.384 67.9287 7.936 68.0567 7.536C68.1927 7.128 68.3847 6.784 68.6327 6.504C68.8807 6.216 69.1807 5.996 69.5327 5.844C69.8847 5.692 70.2847 5.616 70.7327 5.616C71.1887 5.616 71.5887 5.696 71.9327 5.856C72.2847 6.016 72.5767 6.24 72.8087 6.528C73.0407 6.808 73.2127 7.136 73.3247 7.512C73.4447 7.888 73.5047 8.292 73.5047 8.724V9.216H69.2207V9.42C69.2207 9.9 69.3607 10.296 69.6407 10.608C69.9287 10.912 70.3367 11.064 70.8647 11.064C71.2487 11.064 71.5727 10.98 71.8367 10.812C72.1007 10.644 72.3247 10.416 72.5087 10.128L73.2767 10.884C73.0447 11.268 72.7087 11.576 72.2687 11.808C71.8287 12.032 71.3167 12.144 70.7327 12.144ZM70.7327 6.636C70.5087 6.636 70.3007 6.676 70.1087 6.756C69.9247 6.836 69.7647 6.948 69.6287 7.092C69.5007 7.236 69.4007 7.408 69.3287 7.608C69.2567 7.808 69.2207 8.028 69.2207 8.268V8.352H72.1247V8.232C72.1247 7.752 72.0007 7.368 71.7527 7.08C71.5047 6.784 71.1647 6.636 70.7327 6.636Z" fill="#212529"/>
<path d="M64.7697 12.144C64.3217 12.144 63.9217 12.068 63.5697 11.916C63.2177 11.764 62.9217 11.548 62.6817 11.268C62.4417 10.98 62.2577 10.636 62.1297 10.236C62.0017 9.828 61.9377 9.376 61.9377 8.88C61.9377 8.384 62.0017 7.936 62.1297 7.536C62.2577 7.128 62.4417 6.784 62.6817 6.504C62.9217 6.216 63.2177 5.996 63.5697 5.844C63.9217 5.692 64.3217 5.616 64.7697 5.616C65.3937 5.616 65.9057 5.756 66.3057 6.036C66.7057 6.316 66.9977 6.688 67.1817 7.152L66.1017 7.656C66.0137 7.368 65.8577 7.14 65.6337 6.972C65.4177 6.796 65.1297 6.708 64.7697 6.708C64.2897 6.708 63.9257 6.86 63.6777 7.164C63.4377 7.46 63.3177 7.848 63.3177 8.328V9.444C63.3177 9.924 63.4377 10.316 63.6777 10.62C63.9257 10.916 64.2897 11.064 64.7697 11.064C65.1537 11.064 65.4577 10.972 65.6817 10.788C65.9137 10.596 66.0977 10.344 66.2337 10.032L67.2297 10.56C67.0217 11.072 66.7097 11.464 66.2937 11.736C65.8777 12.008 65.3697 12.144 64.7697 12.144Z" fill="#212529"/>
<path d="M58.843 12.144C58.395 12.144 57.995 12.068 57.643 11.916C57.291 11.764 56.995 11.548 56.755 11.268C56.515 10.98 56.331 10.636 56.203 10.236C56.075 9.828 56.011 9.376 56.011 8.88C56.011 8.384 56.075 7.936 56.203 7.536C56.331 7.128 56.515 6.784 56.755 6.504C56.995 6.216 57.291 5.996 57.643 5.844C57.995 5.692 58.395 5.616 58.843 5.616C59.467 5.616 59.979 5.756 60.379 6.036C60.779 6.316 61.071 6.688 61.255 7.152L60.175 7.656C60.087 7.368 59.931 7.14 59.707 6.972C59.491 6.796 59.203 6.708 58.843 6.708C58.363 6.708 57.999 6.86 57.751 7.164C57.511 7.46 57.391 7.848 57.391 8.328V9.444C57.391 9.924 57.511 10.316 57.751 10.62C57.999 10.916 58.363 11.064 58.843 11.064C59.227 11.064 59.531 10.972 59.755 10.788C59.987 10.596 60.171 10.344 60.307 10.032L61.303 10.56C61.095 11.072 60.783 11.464 60.367 11.736C59.951 12.008 59.443 12.144 58.843 12.144Z" fill="#212529"/>
<path d="M54.537 12C54.193 12 53.929 11.904 53.745 11.712C53.561 11.512 53.449 11.26 53.409 10.956H53.349C53.229 11.348 53.009 11.644 52.689 11.844C52.369 12.044 51.981 12.144 51.525 12.144C50.877 12.144 50.377 11.976 50.025 11.64C49.681 11.304 49.509 10.852 49.509 10.284C49.509 9.66 49.733 9.192 50.181 8.88C50.637 8.568 51.301 8.412 52.173 8.412H53.301V7.884C53.301 7.5 53.197 7.204 52.989 6.996C52.781 6.788 52.457 6.684 52.017 6.684C51.649 6.684 51.349 6.764 51.117 6.924C50.885 7.084 50.689 7.288 50.529 7.536L49.749 6.828C49.957 6.476 50.249 6.188 50.625 5.964C51.001 5.732 51.493 5.616 52.101 5.616C52.909 5.616 53.529 5.804 53.961 6.18C54.393 6.556 54.609 7.096 54.609 7.8V10.932H55.269V12H54.537ZM51.897 11.148C52.305 11.148 52.641 11.06 52.905 10.884C53.169 10.7 53.301 10.456 53.301 10.152V9.252H52.197C51.293 9.252 50.841 9.532 50.841 10.092V10.308C50.841 10.588 50.933 10.8 51.117 10.944C51.309 11.08 51.569 11.148 51.897 11.148Z" fill="#212529"/>
<path d="M45.406 12L43.282 5.76H44.578L45.526 8.604L46.162 10.788H46.234L46.87 8.604L47.842 5.76H49.09L46.942 12H45.406Z" fill="#212529"/>
<path d="M39.9381 12.144C39.5061 12.144 39.1101 12.068 38.7501 11.916C38.3981 11.764 38.0981 11.548 37.8501 11.268C37.6021 10.98 37.4101 10.636 37.2741 10.236C37.1381 9.828 37.0701 9.376 37.0701 8.88C37.0701 8.384 37.1381 7.936 37.2741 7.536C37.4101 7.128 37.6021 6.784 37.8501 6.504C38.0981 6.216 38.3981 5.996 38.7501 5.844C39.1101 5.692 39.5061 5.616 39.9381 5.616C40.3701 5.616 40.7621 5.692 41.1141 5.844C41.4741 5.996 41.7781 6.216 42.0261 6.504C42.2741 6.784 42.4661 7.128 42.6021 7.536C42.7381 7.936 42.8061 8.384 42.8061 8.88C42.8061 9.376 42.7381 9.828 42.6021 10.236C42.4661 10.636 42.2741 10.98 42.0261 11.268C41.7781 11.548 41.4741 11.764 41.1141 11.916C40.7621 12.068 40.3701 12.144 39.9381 12.144ZM39.9381 11.064C40.3861 11.064 40.7461 10.928 41.0181 10.656C41.2901 10.376 41.4261 9.96 41.4261 9.408V8.352C41.4261 7.8 41.2901 7.388 41.0181 7.116C40.7461 6.836 40.3861 6.696 39.9381 6.696C39.4901 6.696 39.1301 6.836 38.8581 7.116C38.5861 7.388 38.4501 7.8 38.4501 8.352V9.408C38.4501 9.96 38.5861 10.376 38.8581 10.656C39.1301 10.928 39.4901 11.064 39.9381 11.064Z" fill="#212529"/>
<path d="M30.6492 12V5.76H31.9572V6.792H32.0172C32.1532 6.456 32.3572 6.176 32.6292 5.952C32.9092 5.728 33.2892 5.616 33.7692 5.616C34.4092 5.616 34.9052 5.828 35.2572 6.252C35.6172 6.668 35.7972 7.264 35.7972 8.04V12H34.4892V8.208C34.4892 7.232 34.0972 6.744 33.3132 6.744C33.1452 6.744 32.9772 6.768 32.8092 6.816C32.6492 6.856 32.5052 6.92 32.3772 7.008C32.2492 7.096 32.1452 7.208 32.0652 7.344C31.9932 7.48 31.9572 7.64 31.9572 7.824V12H30.6492Z" fill="#212529"/>
<path d="M23.8083 12V5.76H25.1163V6.792H25.1763C25.3123 6.456 25.5164 6.176 25.7884 5.952C26.0684 5.728 26.4484 5.616 26.9284 5.616C27.5684 5.616 28.0643 5.828 28.4163 6.252C28.7763 6.668 28.9564 7.264 28.9564 8.04V12H27.6483V8.208C27.6483 7.232 27.2564 6.744 26.4724 6.744C26.3044 6.744 26.1363 6.768 25.9683 6.816C25.8083 6.856 25.6643 6.92 25.5363 7.008C25.4083 7.096 25.3044 7.208 25.2243 7.344C25.1523 7.48 25.1163 7.64 25.1163 7.824V12H23.8083Z" fill="#212529"/>
<path d="M18.6721 12V10.896H19.8121V4.728H18.6721V3.624H22.3201V4.728H21.1681V10.896H22.3201V12H18.6721Z" fill="#212529"/>
<path d="M9.33325 4.00002V2.66668H6.66659V4.00002H9.33325ZM2.66659 5.33335V12.6667H13.3333V5.33335H2.66659ZM13.3333 4.00002C14.0733 4.00002 14.6666 4.59335 14.6666 5.33335V12.6667C14.6666 13.4067 14.0733 14 13.3333 14H2.66659C1.92659 14 1.33325 13.4067 1.33325 12.6667L1.33992 5.33335C1.33992 4.59335 1.92659 4.00002 2.66659 4.00002H5.33325V2.66668C5.33325 1.92668 5.92659 1.33335 6.66659 1.33335H9.33325C10.0733 1.33335 10.6666 1.92668 10.6666 2.66668V4.00002H13.3333Z" fill="#495057"/>
</svg>
