<svg width="70" height="36" viewBox="0 0 70 36" fill="none" xmlns="http://www.w3.org/2000/svg">
<path d="M0 4C0 1.79086 1.79086 0 4 0H66C68.2091 0 70 1.79086 70 4V32C70 34.2091 68.2091 36 66 36H4C1.79086 36 0 34.2091 0 32V4Z" fill="#F1F3F5"/>
<path d="M21.5 21.06C20.93 21.06 20.42 21.285 20.03 21.6375L14.6825 18.525C14.72 18.3525 14.75 18.18 14.75 18C14.75 17.82 14.72 17.6475 14.6825 17.475L19.97 14.3925C20.375 14.7675 20.9075 15 21.5 15C22.745 15 23.75 13.995 23.75 12.75C23.75 11.505 22.745 10.5 21.5 10.5C20.255 10.5 19.25 11.505 19.25 12.75C19.25 12.93 19.28 13.1025 19.3175 13.275L14.03 16.3575C13.625 15.9825 13.0925 15.75 12.5 15.75C11.255 15.75 10.25 16.755 10.25 18C10.25 19.245 11.255 20.25 12.5 20.25C13.0925 20.25 13.625 20.0175 14.03 19.6425L19.37 22.7625C19.3325 22.92 19.31 23.085 19.31 23.25C19.31 24.4575 20.2925 25.44 21.5 25.44C22.7075 25.44 23.69 24.4575 23.69 23.25C23.69 22.0425 22.7075 21.06 21.5 21.06Z" fill="#212529"/>
<path d="M57.8987 23.144C57.4747 23.144 57.0907 23.068 56.7467 22.916C56.4107 22.764 56.1187 22.548 55.8707 22.268C55.6307 21.98 55.4427 21.64 55.3067 21.248C55.1787 20.848 55.1147 20.4 55.1147 19.904C55.1147 19.416 55.1787 18.972 55.3067 18.572C55.4427 18.172 55.6307 17.832 55.8707 17.552C56.1187 17.264 56.4107 17.044 56.7467 16.892C57.0907 16.74 57.4747 16.664 57.8987 16.664C58.3147 16.664 58.6867 16.74 59.0147 16.892C59.3427 17.044 59.6227 17.256 59.8547 17.528C60.0867 17.792 60.2627 18.108 60.3827 18.476C60.5107 18.844 60.5747 19.248 60.5747 19.688V20.144H56.1227V20.432C56.1227 20.696 56.1627 20.944 56.2427 21.176C56.3307 21.4 56.4507 21.596 56.6027 21.764C56.7627 21.932 56.9547 22.064 57.1787 22.16C57.4107 22.256 57.6707 22.304 57.9587 22.304C58.3507 22.304 58.6907 22.212 58.9787 22.028C59.2747 21.844 59.5027 21.58 59.6627 21.236L60.3467 21.728C60.1467 22.152 59.8347 22.496 59.4107 22.76C58.9867 23.016 58.4827 23.144 57.8987 23.144ZM57.8987 17.468C57.6347 17.468 57.3947 17.516 57.1787 17.612C56.9627 17.7 56.7747 17.828 56.6147 17.996C56.4627 18.164 56.3427 18.364 56.2547 18.596C56.1667 18.82 56.1227 19.068 56.1227 19.34V19.424H59.5427V19.292C59.5427 18.74 59.3907 18.3 59.0867 17.972C58.7907 17.636 58.3947 17.468 57.8987 17.468Z" fill="#212529"/>
<path d="M51.2231 23V16.808H52.1831V17.948H52.2431C52.3551 17.652 52.5551 17.388 52.8431 17.156C53.1311 16.924 53.5271 16.808 54.0311 16.808H54.4031V17.768H53.8391C53.3191 17.768 52.9111 17.868 52.6151 18.068C52.3271 18.26 52.1831 18.504 52.1831 18.8V23H51.2231Z" fill="#212529"/>
<path d="M49.3128 23C48.9528 23 48.6928 22.904 48.5328 22.712C48.3808 22.52 48.2848 22.28 48.2448 21.992H48.1848C48.0488 22.376 47.8248 22.664 47.5128 22.856C47.2008 23.048 46.8288 23.144 46.3968 23.144C45.7408 23.144 45.2288 22.976 44.8608 22.64C44.5008 22.304 44.3208 21.848 44.3208 21.272C44.3208 20.688 44.5328 20.24 44.9568 19.928C45.3888 19.616 46.0568 19.46 46.9608 19.46H48.1848V18.848C48.1848 18.408 48.0648 18.072 47.8248 17.84C47.5848 17.608 47.2168 17.492 46.7208 17.492C46.3448 17.492 46.0288 17.576 45.7728 17.744C45.5248 17.912 45.3168 18.136 45.1488 18.416L44.5728 17.876C44.7408 17.54 45.0088 17.256 45.3768 17.024C45.7448 16.784 46.2088 16.664 46.7688 16.664C47.5208 16.664 48.1048 16.848 48.5208 17.216C48.9368 17.584 49.1448 18.096 49.1448 18.752V22.16H49.8528V23H49.3128ZM46.5528 22.328C46.7928 22.328 47.0128 22.3 47.2128 22.244C47.4128 22.188 47.5848 22.108 47.7288 22.004C47.8728 21.9 47.9848 21.78 48.0648 21.644C48.1448 21.508 48.1848 21.36 48.1848 21.2V20.18H46.9128C46.3608 20.18 45.9568 20.26 45.7008 20.42C45.4528 20.58 45.3288 20.812 45.3288 21.116V21.368C45.3288 21.672 45.4368 21.908 45.6528 22.076C45.8768 22.244 46.1768 22.328 46.5528 22.328Z" fill="#212529"/>
<path d="M37.9927 14.12H38.9527V17.816H39.0007C39.1527 17.464 39.3647 17.184 39.6367 16.976C39.9167 16.768 40.2887 16.664 40.7527 16.664C41.3927 16.664 41.8967 16.872 42.2647 17.288C42.6407 17.696 42.8287 18.276 42.8287 19.028V23H41.8687V19.196C41.8687 18.084 41.4007 17.528 40.4647 17.528C40.2727 17.528 40.0847 17.552 39.9007 17.6C39.7247 17.648 39.5647 17.72 39.4207 17.816C39.2767 17.912 39.1607 18.036 39.0727 18.188C38.9927 18.332 38.9527 18.504 38.9527 18.704V23H37.9927V14.12Z" fill="#212529"/>
<path d="M33.4679 23.144C32.7879 23.144 32.2079 23.016 31.7279 22.76C31.2479 22.496 30.8399 22.136 30.5039 21.68L31.2479 21.056C31.5439 21.448 31.8719 21.748 32.2319 21.956C32.5919 22.156 33.0159 22.256 33.5039 22.256C34.1039 22.256 34.5599 22.112 34.8719 21.824C35.1919 21.536 35.3519 21.152 35.3519 20.672C35.3519 20.272 35.2319 19.964 34.9919 19.748C34.7519 19.532 34.3559 19.36 33.8039 19.232L33.1199 19.076C32.3519 18.9 31.7639 18.636 31.3559 18.284C30.9559 17.924 30.7559 17.42 30.7559 16.772C30.7559 16.404 30.8239 16.076 30.9599 15.788C31.0959 15.5 31.2839 15.26 31.5239 15.068C31.7719 14.876 32.0639 14.732 32.3999 14.636C32.7439 14.532 33.1199 14.48 33.5279 14.48C34.1599 14.48 34.6999 14.596 35.1479 14.828C35.6039 15.06 35.9879 15.4 36.2999 15.848L35.5439 16.4C35.3119 16.08 35.0319 15.828 34.7039 15.644C34.3759 15.46 33.9679 15.368 33.4799 15.368C32.9439 15.368 32.5199 15.484 32.2079 15.716C31.9039 15.94 31.7519 16.28 31.7519 16.736C31.7519 17.136 31.8799 17.44 32.1359 17.648C32.3999 17.848 32.7959 18.008 33.3239 18.128L34.0079 18.284C34.8319 18.468 35.4279 18.748 35.7959 19.124C36.1639 19.5 36.3479 20 36.3479 20.624C36.3479 21.008 36.2799 21.356 36.1439 21.668C36.0159 21.98 35.8279 22.244 35.5799 22.46C35.3319 22.676 35.0279 22.844 34.6679 22.964C34.3159 23.084 33.9159 23.144 33.4679 23.144Z" fill="#212529"/>
</svg>
