<svg width="28" height="28" viewBox="0 0 28 28" fill="none" xmlns="http://www.w3.org/2000/svg">
<path d="M18.6666 14C18.6666 15.2834 19.7166 16.3334 20.9999 16.3334C22.2833 16.3334 23.3333 15.2834 23.3333 14C23.3333 12.7167 22.2833 11.6667 20.9999 11.6667C19.7166 11.6667 18.6666 12.7167 18.6666 14ZM16.3333 14C16.3333 12.7167 15.2833 11.6667 13.9999 11.6667C12.7166 11.6667 11.6666 12.7167 11.6666 14C11.6666 15.2834 12.7166 16.3334 13.9999 16.3334C15.2833 16.3334 16.3333 15.2834 16.3333 14ZM9.33325 14C9.33325 12.7167 8.28325 11.6667 6.99992 11.6667C5.71659 11.6667 4.66659 12.7167 4.66659 14C4.66659 15.2834 5.71658 16.3334 6.99992 16.3334C8.28325 16.3334 9.33325 15.2834 9.33325 14Z" fill="#212529"/>
</svg>
