<svg width="106" height="32" viewBox="0 0 106 32" fill="none" xmlns="http://www.w3.org/2000/svg">
<path d="M0 4C0 1.79086 1.79086 0 4 0H102C104.209 0 106 1.79086 106 4V28C106 30.2091 104.209 32 102 32H4C1.79086 32 0 30.2091 0 28V4Z" fill="#F1F3F5"/>
<path d="M63.1874 21C62.7021 21 62.3381 20.8787 62.0954 20.636C61.8614 20.3847 61.7444 20.038 61.7444 19.596V11.38H63.1614V19.843H64.0974V21H63.1874Z" fill="#212529"/>
<path d="M59.5565 21C59.0712 21 58.7072 20.8787 58.4645 20.636C58.2305 20.3847 58.1135 20.038 58.1135 19.596V11.38H59.5305V19.843H60.4665V21H59.5565Z" fill="#212529"/>
<path d="M55.2781 21L54.4591 18.543H51.0661L50.2731 21H48.7781L51.8721 11.926H53.7181L56.8121 21H55.2781ZM52.7951 13.278H52.7301L51.4171 17.282H54.0951L52.7951 13.278Z" fill="#212529"/>
<path d="M43.4104 21.156C43.0898 21.156 42.8514 21.0737 42.6954 20.909C42.5394 20.7357 42.4614 20.5233 42.4614 20.272V20.077C42.4614 19.8257 42.5394 19.6177 42.6954 19.453C42.8514 19.2797 43.0898 19.193 43.4104 19.193C43.7311 19.193 43.9694 19.2797 44.1254 19.453C44.2814 19.6177 44.3594 19.8257 44.3594 20.077V20.272C44.3594 20.5233 44.2814 20.7357 44.1254 20.909C43.9694 21.0737 43.7311 21.156 43.4104 21.156ZM43.4104 16.047C43.0898 16.047 42.8514 15.9647 42.6954 15.8C42.5394 15.6267 42.4614 15.4143 42.4614 15.163V14.968C42.4614 14.7167 42.5394 14.5087 42.6954 14.344C42.8514 14.1707 43.0898 14.084 43.4104 14.084C43.7311 14.084 43.9694 14.1707 44.1254 14.344C44.2814 14.5087 44.3594 14.7167 44.3594 14.968V15.163C44.3594 15.4143 44.2814 15.6267 44.1254 15.8C43.9694 15.9647 43.7311 16.047 43.4104 16.047Z" fill="#212529"/>
<path d="M37.4329 21V14.24H38.8499V15.54H38.9149C39.0102 15.1933 39.2095 14.89 39.5129 14.63C39.8162 14.37 40.2365 14.24 40.7739 14.24H41.1509V15.605H40.5919C40.0285 15.605 39.5952 15.696 39.2919 15.878C38.9972 16.06 38.8499 16.3287 38.8499 16.684V21H37.4329Z" fill="#212529"/>
<path d="M32.8612 21.156C32.3758 21.156 31.9425 21.0737 31.5611 20.909C31.1798 20.7443 30.8548 20.5103 30.5862 20.207C30.3175 19.895 30.1095 19.5223 29.9622 19.089C29.8235 18.647 29.7542 18.1573 29.7542 17.62C29.7542 17.0827 29.8235 16.5973 29.9622 16.164C30.1095 15.722 30.3175 15.3493 30.5862 15.046C30.8548 14.734 31.1798 14.4957 31.5611 14.331C31.9425 14.1663 32.3758 14.084 32.8612 14.084C33.3552 14.084 33.7885 14.1707 34.1611 14.344C34.5425 14.5173 34.8588 14.76 35.1102 15.072C35.3615 15.3753 35.5478 15.7307 35.6692 16.138C35.7992 16.5453 35.8642 16.983 35.8642 17.451V17.984H31.2232V18.205C31.2232 18.725 31.3748 19.154 31.6782 19.492C31.9902 19.8213 32.4322 19.986 33.0042 19.986C33.4202 19.986 33.7712 19.895 34.0571 19.713C34.3431 19.531 34.5858 19.284 34.7852 18.972L35.6172 19.791C35.3658 20.207 35.0018 20.5407 34.5252 20.792C34.0485 21.0347 33.4938 21.156 32.8612 21.156ZM32.8612 15.189C32.6185 15.189 32.3932 15.2323 32.1852 15.319C31.9858 15.4057 31.8125 15.527 31.6651 15.683C31.5265 15.839 31.4182 16.0253 31.3402 16.242C31.2622 16.4587 31.2232 16.697 31.2232 16.957V17.048H34.3692V16.918C34.3692 16.398 34.2348 15.982 33.9662 15.67C33.6975 15.3493 33.3292 15.189 32.8612 15.189Z" fill="#212529"/>
<path d="M27.3839 21C26.8899 21 26.5173 20.8744 26.2659 20.623C26.0146 20.363 25.8889 19.999 25.8889 19.531V15.397H24.8359V14.24H25.4079C25.6419 14.24 25.8023 14.188 25.8889 14.084C25.9843 13.98 26.0319 13.811 26.0319 13.577V12.394H27.3059V14.24H28.7229V15.397H27.3059V19.843H28.6189V21H27.3839Z" fill="#212529"/>
<path d="M23.3114 21C22.8261 21 22.4621 20.8787 22.2194 20.636C21.9854 20.3847 21.8684 20.038 21.8684 19.596V11.38H23.2854V19.843H24.2214V21H23.3114Z" fill="#212529"/>
<path d="M19.1431 13.031C18.8484 13.031 18.6318 12.9617 18.4931 12.823C18.3631 12.6843 18.2981 12.5067 18.2981 12.29V12.069C18.2981 11.8523 18.3631 11.6747 18.4931 11.536C18.6318 11.3973 18.8484 11.328 19.1431 11.328C19.4378 11.328 19.6501 11.3973 19.7801 11.536C19.9101 11.6747 19.9751 11.8523 19.9751 12.069V12.29C19.9751 12.5067 19.9101 12.6843 19.7801 12.823C19.6501 12.9617 19.4378 13.031 19.1431 13.031ZM18.4281 14.24H19.8451V21H18.4281V14.24Z" fill="#212529"/>
<path d="M11.1179 21V11.926H16.7859V13.226H12.5869V15.748H16.3179V17.048H12.5869V21H11.1179Z" fill="#212529"/>
<path d="M81.8333 14.3334L85.9999 18.5L90.1666 14.3334H81.8333Z" fill="#212529"/>
</svg>
