<svg width="280" height="16" viewBox="0 0 280 16" fill="none" xmlns="http://www.w3.org/2000/svg">
<path d="M170 1.33333C167.42 1.33333 165.333 3.42 165.333 6C165.333 9.5 170 14.6667 170 14.6667C170 14.6667 174.667 9.5 174.667 6C174.667 3.42 172.58 1.33333 170 1.33333ZM166.667 6C166.667 4.16 168.16 2.66666 170 2.66666C171.84 2.66666 173.333 4.16 173.333 6C173.333 7.92 171.413 10.7933 170 12.5867C168.613 10.8067 166.667 7.9 166.667 6Z" fill="#495057"/>
<path d="M170 7.66666C170.92 7.66666 171.667 6.92047 171.667 5.99999C171.667 5.07952 170.92 4.33333 170 4.33333C169.079 4.33333 168.333 5.07952 168.333 5.99999C168.333 6.92047 169.079 7.66666 170 7.66666Z" fill="#495057"/>
<path d="M278.888 12C278.544 12 278.28 11.904 278.096 11.712C277.912 11.512 277.8 11.26 277.76 10.956H277.7C277.58 11.348 277.36 11.644 277.04 11.844C276.72 12.044 276.332 12.144 275.876 12.144C275.228 12.144 274.728 11.976 274.376 11.64C274.032 11.304 273.86 10.852 273.86 10.284C273.86 9.66001 274.084 9.19201 274.532 8.88001C274.988 8.56801 275.652 8.41201 276.524 8.41201H277.652V7.88401C277.652 7.50001 277.548 7.20401 277.34 6.99601C277.132 6.78801 276.808 6.68401 276.368 6.68401C276 6.68401 275.7 6.76401 275.468 6.92401C275.236 7.08401 275.04 7.28801 274.88 7.53601L274.1 6.82801C274.308 6.47601 274.6 6.18801 274.976 5.96401C275.352 5.73201 275.844 5.61601 276.452 5.61601C277.26 5.61601 277.88 5.80401 278.312 6.18001C278.744 6.55601 278.96 7.09601 278.96 7.80001V10.932H279.62V12H278.888ZM276.248 11.148C276.656 11.148 276.992 11.06 277.256 10.884C277.52 10.7 277.652 10.456 277.652 10.152V9.25201H276.548C275.644 9.25201 275.192 9.53201 275.192 10.092V10.308C275.192 10.588 275.284 10.8 275.468 10.944C275.66 11.08 275.92 11.148 276.248 11.148Z" fill="#212529"/>
<path d="M271.92 4.64401C271.648 4.64401 271.448 4.58001 271.32 4.45201C271.2 4.32401 271.14 4.16001 271.14 3.96001V3.75601C271.14 3.55601 271.2 3.39201 271.32 3.26401C271.448 3.13601 271.648 3.07201 271.92 3.07201C272.192 3.07201 272.388 3.13601 272.508 3.26401C272.628 3.39201 272.688 3.55601 272.688 3.75601V3.96001C272.688 4.16001 272.628 4.32401 272.508 4.45201C272.388 4.58001 272.192 4.64401 271.92 4.64401ZM271.26 5.76001H272.568V12H271.26V5.76001Z" fill="#212529"/>
<path d="M268.202 10.968H268.142C268.006 11.336 267.782 11.624 267.47 11.832C267.166 12.04 266.806 12.144 266.39 12.144C265.598 12.144 264.986 11.86 264.554 11.292C264.122 10.716 263.906 9.91201 263.906 8.88001C263.906 7.84801 264.122 7.04801 264.554 6.48001C264.986 5.90401 265.598 5.61601 266.39 5.61601C266.806 5.61601 267.166 5.72001 267.47 5.92801C267.782 6.12801 268.006 6.41601 268.142 6.79201H268.202V3.12001H269.51V12H268.202V10.968ZM266.786 11.016C267.186 11.016 267.522 10.92 267.794 10.728C268.066 10.528 268.202 10.268 268.202 9.94801V7.81201C268.202 7.49201 268.066 7.23601 267.794 7.04401C267.522 6.84401 267.186 6.74401 266.786 6.74401C266.33 6.74401 265.966 6.89201 265.694 7.18801C265.422 7.47601 265.286 7.86001 265.286 8.34001V9.42001C265.286 9.90001 265.422 10.288 265.694 10.584C265.966 10.872 266.33 11.016 266.786 11.016Z" fill="#212529"/>
<path d="M257.437 12V5.76001H258.745V6.79201H258.805C258.941 6.45601 259.145 6.17601 259.417 5.95201C259.697 5.72801 260.077 5.61601 260.557 5.61601C261.197 5.61601 261.693 5.82801 262.045 6.25201C262.405 6.66801 262.585 7.26401 262.585 8.04001V12H261.277V8.20801C261.277 7.23201 260.885 6.74401 260.101 6.74401C259.933 6.74401 259.765 6.76801 259.597 6.81601C259.437 6.85601 259.293 6.92001 259.165 7.00801C259.037 7.09601 258.933 7.20801 258.853 7.34401C258.781 7.48001 258.745 7.64001 258.745 7.82401V12H257.437Z" fill="#212529"/>
<path d="M252.301 12V10.896H253.441V4.72801H252.301V3.62401H255.949V4.72801H254.797V10.896H255.949V12H252.301Z" fill="#212529"/>
<path d="M247.293 10.332C247.589 10.332 247.809 10.408 247.953 10.56C248.097 10.712 248.169 10.908 248.169 11.148V11.34C248.169 11.732 248.061 12.14 247.845 12.564C247.637 12.996 247.353 13.36 246.993 13.656H246.021C246.277 13.4 246.489 13.152 246.657 12.912C246.825 12.672 246.953 12.404 247.041 12.108C246.833 12.068 246.677 11.98 246.573 11.844C246.469 11.7 246.417 11.532 246.417 11.34V11.148C246.417 10.908 246.489 10.712 246.633 10.56C246.777 10.408 246.997 10.332 247.293 10.332Z" fill="#212529"/>
<path d="M243.431 10.968H243.371C243.235 11.336 243.011 11.624 242.699 11.832C242.395 12.04 242.035 12.144 241.619 12.144C240.827 12.144 240.215 11.86 239.783 11.292C239.351 10.716 239.135 9.91201 239.135 8.88001C239.135 7.84801 239.351 7.04801 239.783 6.48001C240.215 5.90401 240.827 5.61601 241.619 5.61601C242.035 5.61601 242.395 5.72001 242.699 5.92801C243.011 6.12801 243.235 6.41601 243.371 6.79201H243.431V3.12001H244.739V12H243.431V10.968ZM242.015 11.016C242.415 11.016 242.751 10.92 243.023 10.728C243.295 10.528 243.431 10.268 243.431 9.94801V7.81201C243.431 7.49201 243.295 7.23601 243.023 7.04401C242.751 6.84401 242.415 6.74401 242.015 6.74401C241.559 6.74401 241.195 6.89201 240.923 7.18801C240.651 7.47601 240.515 7.86001 240.515 8.34001V9.42001C240.515 9.90001 240.651 10.288 240.923 10.584C241.195 10.872 241.559 11.016 242.015 11.016Z" fill="#212529"/>
<path d="M237.613 12C237.269 12 237.005 11.904 236.821 11.712C236.637 11.512 236.525 11.26 236.485 10.956H236.425C236.305 11.348 236.085 11.644 235.765 11.844C235.445 12.044 235.057 12.144 234.601 12.144C233.953 12.144 233.453 11.976 233.101 11.64C232.757 11.304 232.585 10.852 232.585 10.284C232.585 9.66001 232.809 9.19201 233.257 8.88001C233.713 8.56801 234.377 8.41201 235.249 8.41201H236.377V7.88401C236.377 7.50001 236.273 7.20401 236.065 6.99601C235.857 6.78801 235.533 6.68401 235.093 6.68401C234.725 6.68401 234.425 6.76401 234.193 6.92401C233.961 7.08401 233.765 7.28801 233.605 7.53601L232.825 6.82801C233.033 6.47601 233.325 6.18801 233.701 5.96401C234.077 5.73201 234.569 5.61601 235.177 5.61601C235.985 5.61601 236.605 5.80401 237.037 6.18001C237.469 6.55601 237.685 7.09601 237.685 7.80001V10.932H238.345V12H237.613ZM234.973 11.148C235.381 11.148 235.717 11.06 235.981 10.884C236.245 10.7 236.377 10.456 236.377 10.152V9.25201H235.273C234.369 9.25201 233.917 9.53201 233.917 10.092V10.308C233.917 10.588 234.009 10.8 234.193 10.944C234.385 11.08 234.645 11.148 234.973 11.148Z" fill="#212529"/>
<path d="M226.06 3.12001H227.368V6.79201H227.428C227.564 6.41601 227.784 6.12801 228.088 5.92801C228.4 5.72001 228.764 5.61601 229.18 5.61601C229.972 5.61601 230.584 5.90401 231.016 6.48001C231.448 7.04801 231.664 7.84801 231.664 8.88001C231.664 9.91201 231.448 10.716 231.016 11.292C230.584 11.86 229.972 12.144 229.18 12.144C228.764 12.144 228.4 12.04 228.088 11.832C227.784 11.624 227.564 11.336 227.428 10.968H227.368V12H226.06V3.12001ZM228.784 11.016C229.24 11.016 229.604 10.872 229.876 10.584C230.148 10.288 230.284 9.90001 230.284 9.42001V8.34001C230.284 7.86001 230.148 7.47601 229.876 7.18801C229.604 6.89201 229.24 6.74401 228.784 6.74401C228.384 6.74401 228.048 6.84401 227.776 7.04401C227.504 7.23601 227.368 7.49201 227.368 7.81201V9.94801C227.368 10.268 227.504 10.528 227.776 10.728C228.048 10.92 228.384 11.016 228.784 11.016Z" fill="#212529"/>
<path d="M224.166 12C223.822 12 223.558 11.904 223.374 11.712C223.19 11.512 223.078 11.26 223.038 10.956H222.978C222.858 11.348 222.638 11.644 222.318 11.844C221.998 12.044 221.61 12.144 221.154 12.144C220.506 12.144 220.006 11.976 219.654 11.64C219.31 11.304 219.138 10.852 219.138 10.284C219.138 9.66001 219.362 9.19201 219.81 8.88001C220.266 8.56801 220.93 8.41201 221.802 8.41201H222.93V7.88401C222.93 7.50001 222.826 7.20401 222.618 6.99601C222.41 6.78801 222.086 6.68401 221.646 6.68401C221.278 6.68401 220.978 6.76401 220.746 6.92401C220.514 7.08401 220.318 7.28801 220.158 7.53601L219.378 6.82801C219.586 6.47601 219.878 6.18801 220.254 5.96401C220.63 5.73201 221.122 5.61601 221.73 5.61601C222.538 5.61601 223.158 5.80401 223.59 6.18001C224.022 6.55601 224.238 7.09601 224.238 7.80001V10.932H224.898V12H224.166ZM221.526 11.148C221.934 11.148 222.27 11.06 222.534 10.884C222.798 10.7 222.93 10.456 222.93 10.152V9.25201H221.826C220.922 9.25201 220.47 9.53201 220.47 10.092V10.308C220.47 10.588 220.562 10.8 220.746 10.944C220.938 11.08 221.198 11.148 221.526 11.148Z" fill="#212529"/>
<path d="M216.536 10.968H216.476C216.34 11.336 216.116 11.624 215.804 11.832C215.5 12.04 215.14 12.144 214.724 12.144C213.932 12.144 213.32 11.86 212.888 11.292C212.456 10.716 212.24 9.91201 212.24 8.88001C212.24 7.84801 212.456 7.04801 212.888 6.48001C213.32 5.90401 213.932 5.61601 214.724 5.61601C215.14 5.61601 215.5 5.72001 215.804 5.92801C216.116 6.12801 216.34 6.41601 216.476 6.79201H216.536V3.12001H217.844V12H216.536V10.968ZM215.12 11.016C215.52 11.016 215.856 10.92 216.128 10.728C216.4 10.528 216.536 10.268 216.536 9.94801V7.81201C216.536 7.49201 216.4 7.23601 216.128 7.04401C215.856 6.84401 215.52 6.74401 215.12 6.74401C214.664 6.74401 214.3 6.89201 214.028 7.18801C213.756 7.47601 213.62 7.86001 213.62 8.34001V9.42001C213.62 9.90001 213.756 10.288 214.028 10.584C214.3 10.872 214.664 11.016 215.12 11.016Z" fill="#212529"/>
<path d="M208.512 12.144C208.064 12.144 207.664 12.068 207.312 11.916C206.96 11.764 206.66 11.548 206.412 11.268C206.164 10.98 205.972 10.636 205.836 10.236C205.708 9.82801 205.644 9.37601 205.644 8.88001C205.644 8.38401 205.708 7.93601 205.836 7.53601C205.972 7.12801 206.164 6.78401 206.412 6.50401C206.66 6.21601 206.96 5.99601 207.312 5.84401C207.664 5.69201 208.064 5.61601 208.512 5.61601C208.968 5.61601 209.368 5.69601 209.712 5.85601C210.064 6.01601 210.356 6.24001 210.588 6.52801C210.82 6.80801 210.992 7.13601 211.104 7.51201C211.224 7.88801 211.284 8.29201 211.284 8.72401V9.21601H207V9.42001C207 9.90001 207.14 10.296 207.42 10.608C207.708 10.912 208.116 11.064 208.644 11.064C209.028 11.064 209.352 10.98 209.616 10.812C209.88 10.644 210.104 10.416 210.288 10.128L211.056 10.884C210.824 11.268 210.488 11.576 210.048 11.808C209.608 12.032 209.096 12.144 208.512 12.144ZM208.512 6.63601C208.288 6.63601 208.08 6.67601 207.888 6.75601C207.704 6.83601 207.544 6.94801 207.408 7.09201C207.28 7.23601 207.18 7.40801 207.108 7.60801C207.036 7.80801 207 8.02801 207 8.26801V8.35201H209.904V8.23201C209.904 7.75201 209.78 7.36801 209.532 7.08001C209.284 6.78401 208.944 6.63601 208.512 6.63601Z" fill="#212529"/>
<path d="M195.602 12V5.76001H196.91V6.79201H196.97C197.034 6.63201 197.11 6.48001 197.198 6.33601C197.294 6.19201 197.406 6.06801 197.534 5.96401C197.67 5.85201 197.826 5.76801 198.002 5.71201C198.186 5.64801 198.398 5.61601 198.638 5.61601C199.062 5.61601 199.438 5.72001 199.766 5.92801C200.094 6.13601 200.334 6.45601 200.486 6.88801H200.522C200.634 6.53601 200.85 6.23601 201.17 5.98801C201.49 5.74001 201.902 5.61601 202.406 5.61601C203.03 5.61601 203.514 5.82801 203.858 6.25201C204.202 6.66801 204.374 7.26401 204.374 8.04001V12H203.066V8.19601C203.066 7.71601 202.974 7.35601 202.79 7.11601C202.606 6.86801 202.314 6.74401 201.914 6.74401C201.746 6.74401 201.586 6.76801 201.434 6.81601C201.282 6.85601 201.146 6.92001 201.026 7.00801C200.914 7.09601 200.822 7.20801 200.75 7.34401C200.678 7.48001 200.642 7.63601 200.642 7.81201V12H199.334V8.19601C199.334 7.22801 198.954 6.74401 198.194 6.74401C198.034 6.74401 197.874 6.76801 197.714 6.81601C197.562 6.85601 197.426 6.92001 197.306 7.00801C197.186 7.09601 197.09 7.20801 197.018 7.34401C196.946 7.48001 196.91 7.63601 196.91 7.81201V12H195.602Z" fill="#212529"/>
<path d="M188.761 3.12001H190.069V6.79201H190.129C190.265 6.45601 190.469 6.17601 190.741 5.95201C191.021 5.72801 191.401 5.61601 191.881 5.61601C192.521 5.61601 193.017 5.82801 193.369 6.25201C193.729 6.66801 193.909 7.26401 193.909 8.04001V12H192.601V8.19601C192.601 7.22801 192.209 6.74401 191.425 6.74401C191.257 6.74401 191.089 6.76801 190.921 6.81601C190.761 6.85601 190.617 6.92001 190.489 7.00801C190.361 7.09601 190.257 7.20801 190.177 7.34401C190.105 7.48001 190.069 7.63601 190.069 7.81201V12H188.761V3.12001Z" fill="#212529"/>
<path d="M186.264 12L185.508 9.73201H182.376L181.644 12H180.264L183.12 3.62401H184.824L187.68 12H186.264ZM183.972 4.87201H183.912L182.7 8.56801H185.172L183.972 4.87201Z" fill="#212529"/>
<path d="M104.489 12.144C104.001 12.144 103.569 12.084 103.193 11.964C102.825 11.836 102.513 11.664 102.257 11.448C102.009 11.232 101.817 10.976 101.681 10.68C101.553 10.384 101.489 10.064 101.489 9.72001C101.489 9.16001 101.641 8.71201 101.945 8.37601C102.257 8.03201 102.665 7.79201 103.169 7.65601V7.56001C102.737 7.40801 102.389 7.16801 102.125 6.84001C101.869 6.51201 101.741 6.10801 101.741 5.62801C101.741 5.30801 101.801 5.01601 101.921 4.75201C102.049 4.48801 102.229 4.26401 102.461 4.08001C102.693 3.88801 102.981 3.74001 103.325 3.63601C103.669 3.53201 104.057 3.48001 104.489 3.48001C104.921 3.48001 105.309 3.53201 105.653 3.63601C105.997 3.74001 106.285 3.88801 106.517 4.08001C106.749 4.26401 106.925 4.48801 107.045 4.75201C107.173 5.01601 107.237 5.30801 107.237 5.62801C107.237 6.10801 107.105 6.51201 106.841 6.84001C106.585 7.16801 106.241 7.40801 105.809 7.56001V7.65601C106.313 7.79201 106.717 8.03201 107.021 8.37601C107.333 8.71201 107.489 9.16001 107.489 9.72001C107.489 10.064 107.421 10.384 107.285 10.68C107.157 10.976 106.965 11.232 106.709 11.448C106.461 11.664 106.149 11.836 105.773 11.964C105.405 12.084 104.977 12.144 104.489 12.144ZM104.489 11.052C104.993 11.052 105.381 10.936 105.653 10.704C105.933 10.472 106.073 10.148 106.073 9.73201V9.49201C106.073 9.07601 105.933 8.75201 105.653 8.52001C105.381 8.28801 104.993 8.17201 104.489 8.17201C103.985 8.17201 103.593 8.28801 103.313 8.52001C103.041 8.75201 102.905 9.07601 102.905 9.49201V9.73201C102.905 10.148 103.041 10.472 103.313 10.704C103.593 10.936 103.985 11.052 104.489 11.052ZM104.489 7.12801C104.953 7.12801 105.305 7.02801 105.545 6.82801C105.793 6.62801 105.917 6.33601 105.917 5.95201V5.74801C105.917 5.36401 105.793 5.07201 105.545 4.87201C105.305 4.67201 104.953 4.57201 104.489 4.57201C104.025 4.57201 103.669 4.67201 103.421 4.87201C103.181 5.07201 103.061 5.36401 103.061 5.74801V5.95201C103.061 6.33601 103.181 6.62801 103.421 6.82801C103.669 7.02801 104.025 7.12801 104.489 7.12801Z" fill="#212529"/>
<path d="M94.8693 12V10.872H97.2213V4.60801H97.1253L95.1813 6.68401L94.3533 5.94001L96.4893 3.62401H98.5533V10.872H100.593V12H94.8693Z" fill="#212529"/>
<path d="M90.338 12.144C89.818 12.144 89.366 12.048 88.982 11.856C88.598 11.656 88.282 11.372 88.034 11.004C87.786 10.636 87.602 10.184 87.482 9.64801C87.362 9.11201 87.302 8.50001 87.302 7.81201C87.302 7.13201 87.362 6.52401 87.482 5.98801C87.602 5.44401 87.786 4.98801 88.034 4.62001C88.282 4.25201 88.598 3.97201 88.982 3.78001C89.366 3.58001 89.818 3.48001 90.338 3.48001C91.378 3.48001 92.142 3.86001 92.63 4.62001C93.126 5.38001 93.374 6.44401 93.374 7.81201C93.374 9.18001 93.126 10.244 92.63 11.004C92.142 11.764 91.378 12.144 90.338 12.144ZM90.338 10.992C90.626 10.992 90.87 10.936 91.07 10.824C91.278 10.704 91.446 10.536 91.574 10.32C91.702 10.104 91.794 9.84801 91.85 9.55201C91.906 9.24801 91.934 8.91201 91.934 8.54401V7.08001C91.934 6.71201 91.906 6.38001 91.85 6.08401C91.794 5.78001 91.702 5.52001 91.574 5.30401C91.446 5.08801 91.278 4.92401 91.07 4.81201C90.87 4.69201 90.626 4.63201 90.338 4.63201C90.05 4.63201 89.802 4.69201 89.594 4.81201C89.394 4.92401 89.23 5.08801 89.102 5.30401C88.974 5.52001 88.882 5.78001 88.826 6.08401C88.77 6.38001 88.742 6.71201 88.742 7.08001V8.54401C88.742 8.91201 88.77 9.24801 88.826 9.55201C88.882 9.84801 88.974 10.104 89.102 10.32C89.23 10.536 89.394 10.704 89.594 10.824C89.802 10.936 90.05 10.992 90.338 10.992Z" fill="#212529"/>
<path d="M86.1547 12H80.4667V10.704L83.1427 8.31601C83.5667 7.93201 83.8907 7.56801 84.1147 7.22401C84.3467 6.87201 84.4627 6.50401 84.4627 6.12001V5.96401C84.4627 5.55601 84.3387 5.23601 84.0907 5.00401C83.8507 4.77201 83.5227 4.65601 83.1067 4.65601C82.8747 4.65601 82.6707 4.69201 82.4947 4.76401C82.3267 4.82801 82.1787 4.92001 82.0507 5.04001C81.9227 5.16001 81.8147 5.30001 81.7267 5.46001C81.6467 5.62001 81.5827 5.79201 81.5347 5.97601L80.3467 5.52001C80.4347 5.25601 80.5547 5.00401 80.7067 4.76401C80.8587 4.51601 81.0507 4.29601 81.2827 4.10401C81.5147 3.91201 81.7867 3.76001 82.0987 3.64801C82.4187 3.53601 82.7907 3.48001 83.2147 3.48001C83.6387 3.48001 84.0187 3.54401 84.3547 3.67201C84.6907 3.79201 84.9707 3.96401 85.1947 4.18801C85.4267 4.40401 85.6027 4.66401 85.7227 4.96801C85.8427 5.27201 85.9027 5.60401 85.9027 5.96401C85.9027 6.30001 85.8507 6.61201 85.7467 6.90001C85.6427 7.18801 85.4987 7.46001 85.3147 7.71601C85.1307 7.97201 84.9147 8.21601 84.6667 8.44801C84.4267 8.68001 84.1707 8.91601 83.8987 9.15601L81.9307 10.848H86.1547V12Z" fill="#212529"/>
<path d="M75.3262 10.332C75.6222 10.332 75.8422 10.408 75.9862 10.56C76.1302 10.712 76.2022 10.908 76.2022 11.148V11.34C76.2022 11.732 76.0942 12.14 75.8782 12.564C75.6702 12.996 75.3862 13.36 75.0262 13.656H74.0542C74.3102 13.4 74.5222 13.152 74.6902 12.912C74.8582 12.672 74.9862 12.404 75.0742 12.108C74.8662 12.068 74.7102 11.98 74.6062 11.844C74.5022 11.7 74.4502 11.532 74.4502 11.34V11.148C74.4502 10.908 74.5222 10.712 74.6662 10.56C74.8102 10.408 75.0302 10.332 75.3262 10.332Z" fill="#212529"/>
<path d="M71.9875 12C71.5315 12 71.1875 11.884 70.9555 11.652C70.7235 11.412 70.6075 11.076 70.6075 10.644V6.828H69.6355V5.76H70.1635C70.3795 5.76 70.5275 5.712 70.6075 5.616C70.6955 5.52 70.7395 5.364 70.7395 5.148V4.056H71.9155V5.76H73.2235V6.828H71.9155V10.932H73.1275V12H71.9875Z" fill="#212529"/>
<path d="M66.6743 12.144C66.2263 12.144 65.8263 12.068 65.4743 11.916C65.1223 11.764 64.8263 11.548 64.5863 11.268C64.3463 10.98 64.1623 10.636 64.0343 10.236C63.9063 9.82801 63.8423 9.37601 63.8423 8.88001C63.8423 8.38401 63.9063 7.93601 64.0343 7.53601C64.1623 7.12801 64.3463 6.78401 64.5863 6.50401C64.8263 6.21601 65.1223 5.99601 65.4743 5.84401C65.8263 5.69201 66.2263 5.61601 66.6743 5.61601C67.2983 5.61601 67.8103 5.75601 68.2103 6.03601C68.6103 6.31601 68.9023 6.68801 69.0863 7.15201L68.0063 7.65601C67.9183 7.36801 67.7623 7.14001 67.5383 6.97201C67.3223 6.79601 67.0343 6.70801 66.6743 6.70801C66.1943 6.70801 65.8303 6.86001 65.5823 7.16401C65.3423 7.46001 65.2223 7.84801 65.2223 8.32801V9.44401C65.2223 9.92401 65.3423 10.316 65.5823 10.62C65.8303 10.916 66.1943 11.064 66.6743 11.064C67.0583 11.064 67.3623 10.972 67.5863 10.788C67.8183 10.596 68.0023 10.344 68.1383 10.032L69.1343 10.56C68.9263 11.072 68.6143 11.464 68.1983 11.736C67.7823 12.008 67.2743 12.144 66.6743 12.144Z" fill="#212529"/>
<path d="M59.1752 12.144C58.6312 12.144 58.1352 12.052 57.6872 11.868C57.2472 11.676 56.8672 11.4 56.5472 11.04C56.2352 10.672 55.9912 10.22 55.8152 9.68401C55.6472 9.14001 55.5632 8.51601 55.5632 7.81201C55.5632 7.10801 55.6472 6.48801 55.8152 5.95201C55.9912 5.40801 56.2352 4.95601 56.5472 4.59601C56.8672 4.22801 57.2472 3.95201 57.6872 3.76801C58.1352 3.57601 58.6312 3.48001 59.1752 3.48001C59.7192 3.48001 60.2112 3.57601 60.6512 3.76801C61.0992 3.95201 61.4792 4.22801 61.7912 4.59601C62.1112 4.95601 62.3552 5.40801 62.5232 5.95201C62.6992 6.48801 62.7872 7.10801 62.7872 7.81201C62.7872 8.51601 62.6992 9.14001 62.5232 9.68401C62.3552 10.22 62.1112 10.672 61.7912 11.04C61.4792 11.4 61.0992 11.676 60.6512 11.868C60.2112 12.052 59.7192 12.144 59.1752 12.144ZM59.1752 10.932C59.4952 10.932 59.7872 10.876 60.0512 10.764C60.3232 10.652 60.5512 10.492 60.7352 10.284C60.9272 10.068 61.0752 9.80801 61.1792 9.50401C61.2832 9.20001 61.3352 8.85601 61.3352 8.47201V7.15201C61.3352 6.76801 61.2832 6.42401 61.1792 6.12001C61.0752 5.81601 60.9272 5.56001 60.7352 5.35201C60.5512 5.13601 60.3232 4.97201 60.0512 4.86001C59.7872 4.74801 59.4952 4.69201 59.1752 4.69201C58.8472 4.69201 58.5512 4.74801 58.2872 4.86001C58.0232 4.97201 57.7952 5.13601 57.6032 5.35201C57.4192 5.56001 57.2752 5.81601 57.1712 6.12001C57.0672 6.42401 57.0152 6.76801 57.0152 7.15201V8.47201C57.0152 8.85601 57.0672 9.20001 57.1712 9.50401C57.2752 9.80801 57.4192 10.068 57.6032 10.284C57.7952 10.492 58.0232 10.652 58.2872 10.764C58.5512 10.876 58.8472 10.932 59.1752 10.932Z" fill="#212529"/>
<path d="M51.6039 12H45.9159V10.704L48.5919 8.31601C49.0159 7.93201 49.3399 7.56801 49.5639 7.22401C49.7959 6.87201 49.9119 6.50401 49.9119 6.12001V5.96401C49.9119 5.55601 49.7879 5.23601 49.5399 5.00401C49.2999 4.77201 48.9719 4.65601 48.5559 4.65601C48.3239 4.65601 48.1199 4.69201 47.9439 4.76401C47.7759 4.82801 47.6279 4.92001 47.4999 5.04001C47.3719 5.16001 47.2639 5.30001 47.1759 5.46001C47.0959 5.62001 47.0319 5.79201 46.9839 5.97601L45.7959 5.52001C45.8839 5.25601 46.0039 5.00401 46.1559 4.76401C46.3079 4.51601 46.4999 4.29601 46.7319 4.10401C46.9639 3.91201 47.2359 3.76001 47.5479 3.64801C47.8679 3.53601 48.2399 3.48001 48.6639 3.48001C49.0879 3.48001 49.4679 3.54401 49.8039 3.67201C50.1399 3.79201 50.4199 3.96401 50.6439 4.18801C50.8759 4.40401 51.0519 4.66401 51.1719 4.96801C51.2919 5.27201 51.3519 5.60401 51.3519 5.96401C51.3519 6.30001 51.2999 6.61201 51.1959 6.90001C51.0919 7.18801 50.9479 7.46001 50.7639 7.71601C50.5799 7.97201 50.3639 8.21601 50.1159 8.44801C49.8759 8.68001 49.6199 8.91601 49.3479 9.15601L47.3799 10.848H51.6039V12Z" fill="#212529"/>
<path d="M39.0927 12V10.872H41.4447V4.60801H41.3487L39.4047 6.68401L38.5767 5.94001L40.7127 3.62401H42.7767V10.872H44.8167V12H39.0927Z" fill="#212529"/>
<path d="M33.7002 10.332C33.9962 10.332 34.2162 10.408 34.3602 10.56C34.5042 10.712 34.5762 10.908 34.5762 11.148V11.34C34.5762 11.732 34.4682 12.14 34.2522 12.564C34.0442 12.996 33.7602 13.36 33.4002 13.656H32.4282C32.6842 13.4 32.8962 13.152 33.0642 12.912C33.2322 12.672 33.3602 12.404 33.4482 12.108C33.2402 12.068 33.0842 11.98 32.9802 11.844C32.8762 11.7 32.8242 11.532 32.8242 11.34V11.148C32.8242 10.908 32.8962 10.712 33.0402 10.56C33.1842 10.408 33.4042 10.332 33.7002 10.332Z" fill="#212529"/>
<path d="M30.5005 4.64401C30.2285 4.64401 30.0285 4.58001 29.9005 4.45201C29.7805 4.32401 29.7205 4.16001 29.7205 3.96001V3.75601C29.7205 3.55601 29.7805 3.39201 29.9005 3.26401C30.0285 3.13601 30.2285 3.07201 30.5005 3.07201C30.7725 3.07201 30.9685 3.13601 31.0885 3.26401C31.2085 3.39201 31.2685 3.55601 31.2685 3.75601V3.96001C31.2685 4.16001 31.2085 4.32401 31.0885 4.45201C30.9685 4.58001 30.7725 4.64401 30.5005 4.64401ZM29.8405 5.76001H31.1485V12H29.8405V5.76001Z" fill="#212529"/>
<path d="M25.3667 12V5.76001H26.6747V6.96001H26.7347C26.8227 6.64001 27.0067 6.36001 27.2867 6.12001C27.5667 5.88001 27.9547 5.76001 28.4507 5.76001H28.7987V7.02001H28.2827C27.7627 7.02001 27.3627 7.10401 27.0827 7.27201C26.8107 7.44001 26.6747 7.68801 26.6747 8.01601V12H25.3667Z" fill="#212529"/>
<path d="M19.032 12V3.62401H24.264V4.82401H20.388V7.15201H23.832V8.35201H20.388V12H19.032Z" fill="#212529"/>
<path d="M12.6667 2.00001H12V0.666672H10.6667V2.00001H5.33333V0.666672H4V2.00001H3.33333C2.59333 2.00001 2.00667 2.60001 2.00667 3.33334L2 12.6667C2 13.4 2.59333 14 3.33333 14H12.6667C13.4 14 14 13.4 14 12.6667V3.33334C14 2.60001 13.4 2.00001 12.6667 2.00001ZM12.6667 12.6667H3.33333V5.33334H12.6667V12.6667ZM4.66667 6.66667H8V10H4.66667V6.66667Z" fill="#495057"/>
</svg>
