<svg width="76" height="28" viewBox="0 0 76 28" fill="none" xmlns="http://www.w3.org/2000/svg">
<path fill-rule="evenodd" clip-rule="evenodd" d="M72 0.8H4C2.23269 0.8 0.8 2.23269 0.8 4V24C0.8 25.7673 2.23269 27.2 4 27.2H72C73.7673 27.2 75.2 25.7673 75.2 24V4C75.2 2.23269 73.7673 0.8 72 0.8ZM4 0C1.79086 0 0 1.79086 0 4V24C0 26.2091 1.79086 28 4 28H72C74.2091 28 76 26.2091 76 24V4C76 1.79086 74.2091 0 72 0H4Z" fill="white"/>
<path d="M61.7876 12.76H63.0956V13.792H63.1556C63.2916 13.416 63.5116 13.128 63.8156 12.928C64.1276 12.72 64.4916 12.616 64.9076 12.616C65.6996 12.616 66.3116 12.904 66.7436 13.48C67.1756 14.048 67.3916 14.848 67.3916 15.88C67.3916 16.912 67.1756 17.716 66.7436 18.292C66.3116 18.86 65.6996 19.144 64.9076 19.144C64.4916 19.144 64.1276 19.04 63.8156 18.832C63.5116 18.624 63.2916 18.336 63.1556 17.968H63.0956V21.4H61.7876V12.76ZM64.5116 18.016C64.9676 18.016 65.3316 17.872 65.6036 17.584C65.8756 17.288 66.0116 16.9 66.0116 16.42V15.34C66.0116 14.86 65.8756 14.476 65.6036 14.188C65.3316 13.892 64.9676 13.744 64.5116 13.744C64.1116 13.744 63.7756 13.844 63.5036 14.044C63.2316 14.236 63.0956 14.492 63.0956 14.812V16.948C63.0956 17.268 63.2316 17.528 63.5036 17.728C63.7756 17.92 64.1116 18.016 64.5116 18.016Z" fill="white"/>
<path d="M58.6066 17.968H58.5586C58.5026 18.12 58.4266 18.268 58.3306 18.412C58.2426 18.556 58.1266 18.684 57.9826 18.796C57.8466 18.9 57.6786 18.984 57.4786 19.048C57.2866 19.112 57.0626 19.144 56.8066 19.144C56.1586 19.144 55.6546 18.936 55.2946 18.52C54.9426 18.104 54.7666 17.508 54.7666 16.732V12.76H56.0746V16.564C56.0746 17.532 56.4746 18.016 57.2746 18.016C57.4426 18.016 57.6066 17.996 57.7666 17.956C57.9266 17.908 58.0666 17.84 58.1866 17.752C58.3146 17.664 58.4146 17.552 58.4866 17.416C58.5666 17.28 58.6066 17.12 58.6066 16.936V12.76H59.9146V19H58.6066V17.968Z" fill="white"/>
<path d="M50.5011 19.144C50.0691 19.144 49.6731 19.068 49.3131 18.916C48.9611 18.764 48.6611 18.548 48.4131 18.268C48.1651 17.98 47.9731 17.636 47.8371 17.236C47.7011 16.828 47.6331 16.376 47.6331 15.88C47.6331 15.384 47.7011 14.936 47.8371 14.536C47.9731 14.128 48.1651 13.784 48.4131 13.504C48.6611 13.216 48.9611 12.996 49.3131 12.844C49.6731 12.692 50.0691 12.616 50.5011 12.616C50.9331 12.616 51.3251 12.692 51.6771 12.844C52.0371 12.996 52.3411 13.216 52.5891 13.504C52.8371 13.784 53.0291 14.128 53.1651 14.536C53.3011 14.936 53.3691 15.384 53.3691 15.88C53.3691 16.376 53.3011 16.828 53.1651 17.236C53.0291 17.636 52.8371 17.98 52.5891 18.268C52.3411 18.548 52.0371 18.764 51.6771 18.916C51.3251 19.068 50.9331 19.144 50.5011 19.144ZM50.5011 18.064C50.9491 18.064 51.3091 17.928 51.5811 17.656C51.8531 17.376 51.9891 16.96 51.9891 16.408V15.352C51.9891 14.8 51.8531 14.388 51.5811 14.116C51.3091 13.836 50.9491 13.696 50.5011 13.696C50.0531 13.696 49.6931 13.836 49.4211 14.116C49.1491 14.388 49.0131 14.8 49.0131 15.352V16.408C49.0131 16.96 49.1491 17.376 49.4211 17.656C49.6931 17.928 50.0531 18.064 50.5011 18.064Z" fill="white"/>
<path d="M43.5181 19V12.76H44.8261V13.96H44.8861C44.9741 13.64 45.1581 13.36 45.4381 13.12C45.7181 12.88 46.1061 12.76 46.6021 12.76H46.9501V14.02H46.4341C45.9141 14.02 45.5141 14.104 45.2341 14.272C44.9621 14.44 44.8261 14.688 44.8261 15.016V19H43.5181Z" fill="white"/>
<path d="M40.541 17.728H40.493C40.405 18.136 40.165 18.476 39.773 18.748C39.389 19.012 38.877 19.144 38.237 19.144C37.741 19.144 37.281 19.052 36.857 18.868C36.433 18.676 36.065 18.4 35.753 18.04C35.449 17.672 35.209 17.22 35.033 16.684C34.865 16.14 34.781 15.516 34.781 14.812C34.781 14.116 34.869 13.5 35.045 12.964C35.221 12.42 35.469 11.964 35.789 11.596C36.109 11.228 36.493 10.952 36.941 10.768C37.389 10.576 37.889 10.48 38.441 10.48C39.193 10.48 39.829 10.648 40.349 10.984C40.869 11.312 41.273 11.772 41.561 12.364L40.457 13.012C40.297 12.62 40.049 12.304 39.713 12.064C39.377 11.816 38.953 11.692 38.441 11.692C37.777 11.692 37.241 11.904 36.833 12.328C36.433 12.752 36.233 13.352 36.233 14.128V15.496C36.233 16.272 36.433 16.872 36.833 17.296C37.241 17.72 37.777 17.932 38.441 17.932C38.705 17.932 38.957 17.9 39.197 17.836C39.437 17.764 39.645 17.664 39.821 17.536C40.005 17.4 40.149 17.236 40.253 17.044C40.365 16.844 40.421 16.612 40.421 16.348V15.7H38.693V14.536H41.729V19H40.541V17.728Z" fill="white"/>
<path d="M25.2603 19V12.76H26.5683V13.792H26.6283C26.7643 13.456 26.9683 13.176 27.2403 12.952C27.5203 12.728 27.9003 12.616 28.3803 12.616C29.0203 12.616 29.5163 12.828 29.8683 13.252C30.2283 13.668 30.4083 14.264 30.4083 15.04V19H29.1003V15.208C29.1003 14.232 28.7083 13.744 27.9243 13.744C27.7563 13.744 27.5883 13.768 27.4203 13.816C27.2603 13.856 27.1163 13.92 26.9883 14.008C26.8603 14.096 26.7563 14.208 26.6763 14.344C26.6043 14.48 26.5683 14.64 26.5683 14.824V19H25.2603Z" fill="white"/>
<path d="M22.7444 11.644C22.4724 11.644 22.2724 11.58 22.1444 11.452C22.0244 11.324 21.9644 11.16 21.9644 10.96V10.756C21.9644 10.556 22.0244 10.392 22.1444 10.264C22.2724 10.136 22.4724 10.072 22.7444 10.072C23.0164 10.072 23.2124 10.136 23.3324 10.264C23.4524 10.392 23.5124 10.556 23.5124 10.756V10.96C23.5124 11.16 23.4524 11.324 23.3324 11.452C23.2124 11.58 23.0164 11.644 22.7444 11.644ZM22.0844 12.76H23.3924V19H22.0844V12.76Z" fill="white"/>
<path d="M17.7589 19.144C17.3269 19.144 16.9309 19.068 16.5709 18.916C16.2189 18.764 15.9189 18.548 15.6709 18.268C15.4229 17.98 15.2309 17.636 15.0949 17.236C14.9589 16.828 14.8909 16.376 14.8909 15.88C14.8909 15.384 14.9589 14.936 15.0949 14.536C15.2309 14.128 15.4229 13.784 15.6709 13.504C15.9189 13.216 16.2189 12.996 16.5709 12.844C16.9309 12.692 17.3269 12.616 17.7589 12.616C18.1909 12.616 18.5829 12.692 18.9349 12.844C19.2949 12.996 19.5989 13.216 19.8469 13.504C20.0949 13.784 20.2869 14.128 20.4229 14.536C20.5589 14.936 20.6269 15.384 20.6269 15.88C20.6269 16.376 20.5589 16.828 20.4229 17.236C20.2869 17.636 20.0949 17.98 19.8469 18.268C19.5989 18.548 19.2949 18.764 18.9349 18.916C18.5829 19.068 18.1909 19.144 17.7589 19.144ZM17.7589 18.064C18.2069 18.064 18.5669 17.928 18.8389 17.656C19.1109 17.376 19.2469 16.96 19.2469 16.408V15.352C19.2469 14.8 19.1109 14.388 18.8389 14.116C18.5669 13.836 18.2069 13.696 17.7589 13.696C17.3109 13.696 16.9509 13.836 16.6789 14.116C16.4069 14.388 16.2709 14.8 16.2709 15.352V16.408C16.2709 16.96 16.4069 17.376 16.6789 17.656C16.9509 17.928 17.3109 18.064 17.7589 18.064Z" fill="white"/>
<path d="M13.388 10.624V16.72C13.388 17.088 13.328 17.42 13.208 17.716C13.088 18.012 12.916 18.268 12.692 18.484C12.476 18.692 12.208 18.856 11.888 18.976C11.576 19.088 11.228 19.144 10.844 19.144C10.116 19.144 9.53997 18.952 9.11597 18.568C8.69997 18.176 8.43597 17.668 8.32397 17.044L9.57197 16.768C9.64397 17.128 9.77997 17.412 9.97997 17.62C10.188 17.828 10.476 17.932 10.844 17.932C11.204 17.932 11.492 17.82 11.708 17.596C11.924 17.372 12.032 17.032 12.032 16.576V11.752H9.29597V10.624H13.388Z" fill="white"/>
</svg>
