<svg width="321" height="14" viewBox="0 0 321 14" fill="none" xmlns="http://www.w3.org/2000/svg">
<path d="M320.062 11.168C319.764 11.168 319.544 11.0933 319.404 10.944C319.274 10.7947 319.208 10.5987 319.208 10.356V10.174C319.208 9.93133 319.274 9.73533 319.404 9.586C319.544 9.43667 319.764 9.362 320.062 9.362C320.361 9.362 320.576 9.43667 320.706 9.586C320.846 9.73533 320.916 9.93133 320.916 10.174V10.356C320.916 10.5987 320.846 10.7947 320.706 10.944C320.576 11.0933 320.361 11.168 320.062 11.168Z" fill="#495057"/>
<path d="M316.248 11.168C315.949 11.168 315.73 11.0933 315.59 10.944C315.459 10.7947 315.394 10.5987 315.394 10.356V10.174C315.394 9.93133 315.459 9.73533 315.59 9.586C315.73 9.43667 315.949 9.362 316.248 9.362C316.546 9.362 316.761 9.43667 316.892 9.586C317.032 9.73533 317.102 9.93133 317.102 10.174V10.356C317.102 10.5987 317.032 10.7947 316.892 10.944C316.761 11.0933 316.546 11.168 316.248 11.168Z" fill="#495057"/>
<path d="M308.947 11V1.22803H314.771V2.26403H310.123V5.54003H314.365V6.57603H310.123V11H308.947Z" fill="#495057"/>
<path d="M302.426 11.168C302.127 11.168 301.908 11.0933 301.768 10.944C301.637 10.7947 301.572 10.5987 301.572 10.356V10.174C301.572 9.93133 301.637 9.73533 301.768 9.586C301.908 9.43667 302.127 9.362 302.426 9.362C302.724 9.362 302.939 9.43667 303.07 9.586C303.21 9.73533 303.28 9.93133 303.28 10.174V10.356C303.28 10.5987 303.21 10.7947 303.07 10.944C302.939 11.0933 302.724 11.168 302.426 11.168Z" fill="#495057"/>
<path d="M297.018 11.168C296.523 11.168 296.075 11.0793 295.674 10.902C295.282 10.7246 294.941 10.4726 294.652 10.146C294.372 9.80997 294.152 9.4133 293.994 8.95597C293.844 8.4893 293.77 7.96664 293.77 7.38797C293.77 6.81864 293.844 6.30064 293.994 5.83397C294.152 5.3673 294.372 4.97064 294.652 4.64397C294.941 4.30797 295.282 4.0513 295.674 3.87397C296.075 3.69664 296.523 3.60797 297.018 3.60797C297.503 3.60797 297.937 3.69664 298.32 3.87397C298.702 4.0513 299.029 4.29864 299.3 4.61597C299.57 4.92397 299.776 5.29264 299.916 5.72197C300.065 6.1513 300.14 6.62264 300.14 7.13597V7.66797H294.946V8.00397C294.946 8.31197 294.992 8.6013 295.086 8.87197C295.188 9.1333 295.328 9.36197 295.506 9.55797C295.692 9.75397 295.916 9.90797 296.178 10.02C296.448 10.132 296.752 10.188 297.088 10.188C297.545 10.188 297.942 10.0806 298.278 9.86597C298.623 9.6513 298.889 9.34331 299.076 8.94197L299.874 9.51597C299.64 10.0106 299.276 10.412 298.782 10.72C298.287 11.0186 297.699 11.168 297.018 11.168ZM297.018 4.54597C296.71 4.54597 296.43 4.60197 296.178 4.71397C295.926 4.81664 295.706 4.96597 295.52 5.16197C295.342 5.35797 295.202 5.5913 295.1 5.86197C294.997 6.1233 294.946 6.41264 294.946 6.72997V6.82797H298.936V6.67397C298.936 6.02997 298.758 5.51664 298.404 5.13397C298.058 4.74197 297.596 4.54597 297.018 4.54597Z" fill="#495057"/>
<path d="M290.8 9.82401H290.744C290.306 10.72 289.601 11.168 288.63 11.168C288.182 11.168 287.776 11.0793 287.412 10.902C287.048 10.7247 286.736 10.4727 286.474 10.146C286.222 9.81935 286.026 9.42268 285.886 8.95601C285.756 8.48935 285.69 7.96668 285.69 7.38801C285.69 6.80935 285.756 6.28668 285.886 5.82001C286.026 5.35335 286.222 4.95668 286.474 4.63001C286.736 4.30335 287.048 4.05135 287.412 3.87401C287.776 3.69668 288.182 3.60801 288.63 3.60801C289.134 3.60801 289.564 3.72001 289.918 3.94401C290.282 4.15868 290.558 4.49468 290.744 4.95201H290.8V0.640015H291.92V11H290.8V9.82401ZM288.938 10.16C289.19 10.16 289.428 10.1273 289.652 10.062C289.886 9.99668 290.086 9.90335 290.254 9.78201C290.422 9.65135 290.553 9.49735 290.646 9.32001C290.749 9.13335 290.8 8.92335 290.8 8.69001V6.00201C290.8 5.80601 290.749 5.62401 290.646 5.45601C290.553 5.27868 290.422 5.12935 290.254 5.00801C290.086 4.88668 289.886 4.79335 289.652 4.72801C289.428 4.65335 289.19 4.61601 288.938 4.61601C288.304 4.61601 287.804 4.81668 287.44 5.21801C287.076 5.61001 286.894 6.12801 286.894 6.77201V8.00401C286.894 8.64801 287.076 9.17068 287.44 9.57201C287.804 9.96401 288.304 10.16 288.938 10.16Z" fill="#495057"/>
<path d="M283.952 11C283.532 11 283.229 10.888 283.042 10.664C282.865 10.44 282.753 10.16 282.706 9.82397H282.636C282.477 10.272 282.216 10.608 281.852 10.832C281.488 11.056 281.054 11.168 280.55 11.168C279.785 11.168 279.187 10.972 278.758 10.58C278.338 10.188 278.128 9.65597 278.128 8.98397C278.128 8.30264 278.375 7.77997 278.87 7.41597C279.374 7.05197 280.153 6.86997 281.208 6.86997H282.636V6.15597C282.636 5.64264 282.496 5.25064 282.216 4.97997C281.936 4.7093 281.507 4.57397 280.928 4.57397C280.489 4.57397 280.121 4.67197 279.822 4.86797C279.533 5.06397 279.29 5.3253 279.094 5.65197L278.422 5.02197C278.618 4.62997 278.931 4.29864 279.36 4.02797C279.789 3.74797 280.331 3.60797 280.984 3.60797C281.861 3.60797 282.543 3.82264 283.028 4.25197C283.513 4.6813 283.756 5.27864 283.756 6.04397V10.02H284.582V11H283.952ZM280.732 10.216C281.012 10.216 281.269 10.1833 281.502 10.118C281.735 10.0526 281.936 9.95931 282.104 9.83797C282.272 9.71664 282.403 9.57664 282.496 9.41797C282.589 9.25931 282.636 9.08664 282.636 8.89997V7.70997H281.152C280.508 7.70997 280.037 7.8033 279.738 7.98997C279.449 8.17664 279.304 8.4473 279.304 8.80197V9.09597C279.304 9.45064 279.43 9.72597 279.682 9.92197C279.943 10.118 280.293 10.216 280.732 10.216Z" fill="#495057"/>
<path d="M274.349 11.168C273.845 11.168 273.392 11.0793 272.991 10.902C272.59 10.7246 272.249 10.4726 271.969 10.146C271.698 9.8193 271.488 9.42264 271.339 8.95597C271.199 8.4893 271.129 7.96664 271.129 7.38797C271.129 6.8093 271.199 6.28664 271.339 5.81997C271.488 5.3533 271.698 4.95664 271.969 4.62997C272.249 4.3033 272.59 4.0513 272.991 3.87397C273.392 3.69664 273.845 3.60797 274.349 3.60797C275.068 3.60797 275.642 3.76664 276.071 4.08397C276.51 4.39197 276.836 4.79797 277.051 5.30197L276.113 5.77797C275.982 5.40464 275.768 5.1153 275.469 4.90997C275.17 4.70464 274.797 4.60197 274.349 4.60197C274.013 4.60197 273.719 4.65797 273.467 4.76997C273.215 4.87264 273.005 5.02197 272.837 5.21797C272.669 5.40464 272.543 5.6333 272.459 5.90397C272.375 6.1653 272.333 6.45464 272.333 6.77197V8.00397C272.333 8.63864 272.501 9.1613 272.837 9.57197C273.182 9.9733 273.686 10.174 274.349 10.174C275.254 10.174 275.908 9.75397 276.309 8.91397L277.121 9.45997C276.888 9.98264 276.538 10.398 276.071 10.706C275.614 11.014 275.04 11.168 274.349 11.168Z" fill="#495057"/>
<path d="M266.693 11.168C266.199 11.168 265.751 11.0793 265.349 10.902C264.957 10.7246 264.617 10.4726 264.327 10.146C264.047 9.80997 263.828 9.4133 263.669 8.95597C263.52 8.4893 263.445 7.96664 263.445 7.38797C263.445 6.81864 263.52 6.30064 263.669 5.83397C263.828 5.3673 264.047 4.97064 264.327 4.64397C264.617 4.30797 264.957 4.0513 265.349 3.87397C265.751 3.69664 266.199 3.60797 266.693 3.60797C267.179 3.60797 267.613 3.69664 267.995 3.87397C268.378 4.0513 268.705 4.29864 268.975 4.61597C269.246 4.92397 269.451 5.29264 269.591 5.72197C269.741 6.1513 269.815 6.62264 269.815 7.13597V7.66797H264.621V8.00397C264.621 8.31197 264.668 8.6013 264.761 8.87197C264.864 9.1333 265.004 9.36197 265.181 9.55797C265.368 9.75397 265.592 9.90797 265.853 10.02C266.124 10.132 266.427 10.188 266.763 10.188C267.221 10.188 267.617 10.0806 267.953 9.86597C268.299 9.6513 268.565 9.34331 268.751 8.94197L269.549 9.51597C269.316 10.0106 268.952 10.412 268.457 10.72C267.963 11.0186 267.375 11.168 266.693 11.168ZM266.693 4.54597C266.385 4.54597 266.105 4.60197 265.853 4.71397C265.601 4.81664 265.382 4.96597 265.195 5.16197C265.018 5.35797 264.878 5.5913 264.775 5.86197C264.673 6.1233 264.621 6.41264 264.621 6.72997V6.82797H268.611V6.67397C268.611 6.02997 268.434 5.51664 268.079 5.13397C267.734 4.74197 267.272 4.54597 266.693 4.54597Z" fill="#495057"/>
<path d="M260.476 9.82401H260.42C259.982 10.72 259.277 11.168 258.306 11.168C257.858 11.168 257.452 11.0793 257.088 10.902C256.724 10.7247 256.412 10.4727 256.15 10.146C255.898 9.81935 255.702 9.42268 255.562 8.95601C255.432 8.48935 255.366 7.96668 255.366 7.38801C255.366 6.80935 255.432 6.28668 255.562 5.82001C255.702 5.35335 255.898 4.95668 256.15 4.63001C256.412 4.30335 256.724 4.05135 257.088 3.87401C257.452 3.69668 257.858 3.60801 258.306 3.60801C258.81 3.60801 259.24 3.72001 259.594 3.94401C259.958 4.15868 260.234 4.49468 260.42 4.95201H260.476V0.640015H261.596V11H260.476V9.82401ZM258.614 10.16C258.866 10.16 259.104 10.1273 259.328 10.062C259.562 9.99668 259.762 9.90335 259.93 9.78201C260.098 9.65135 260.229 9.49735 260.322 9.32001C260.425 9.13335 260.476 8.92335 260.476 8.69001V6.00201C260.476 5.80601 260.425 5.62401 260.322 5.45601C260.229 5.27868 260.098 5.12935 259.93 5.00801C259.762 4.88668 259.562 4.79335 259.328 4.72801C259.104 4.65335 258.866 4.61601 258.614 4.61601C257.98 4.61601 257.48 4.81668 257.116 5.21801C256.752 5.61001 256.57 6.12801 256.57 6.77201V8.00401C256.57 8.64801 256.752 9.17068 257.116 9.57201C257.48 9.96401 257.98 10.16 258.614 10.16Z" fill="#495057"/>
<path d="M250.319 11C249.899 11 249.596 10.888 249.409 10.664C249.232 10.44 249.12 10.16 249.073 9.82397H249.003C248.844 10.272 248.583 10.608 248.219 10.832C247.855 11.056 247.421 11.168 246.917 11.168C246.152 11.168 245.554 10.972 245.125 10.58C244.705 10.188 244.495 9.65597 244.495 8.98397C244.495 8.30264 244.742 7.77997 245.237 7.41597C245.741 7.05197 246.52 6.86997 247.575 6.86997H249.003V6.15597C249.003 5.64264 248.863 5.25064 248.583 4.97997C248.303 4.7093 247.874 4.57397 247.295 4.57397C246.856 4.57397 246.488 4.67197 246.189 4.86797C245.9 5.06397 245.657 5.3253 245.461 5.65197L244.789 5.02197C244.985 4.62997 245.298 4.29864 245.727 4.02797C246.156 3.74797 246.698 3.60797 247.351 3.60797C248.228 3.60797 248.91 3.82264 249.395 4.25197C249.88 4.6813 250.123 5.27864 250.123 6.04397V10.02H250.949V11H250.319ZM247.099 10.216C247.379 10.216 247.636 10.1833 247.869 10.118C248.102 10.0526 248.303 9.95931 248.471 9.83797C248.639 9.71664 248.77 9.57664 248.863 9.41797C248.956 9.25931 249.003 9.08664 249.003 8.89997V7.70997H247.519C246.875 7.70997 246.404 7.8033 246.105 7.98997C245.816 8.17664 245.671 8.4473 245.671 8.80197V9.09597C245.671 9.45064 245.797 9.72597 246.049 9.92197C246.31 10.118 246.66 10.216 247.099 10.216Z" fill="#495057"/>
<path d="M237.613 4.75601H236.437V3.77601H237.613V2.32001C237.613 1.81601 237.744 1.41001 238.005 1.10201C238.267 0.794015 238.663 0.640015 239.195 0.640015H240.287V1.62001H238.733V3.77601H240.287V4.75601H238.733V11H237.613V4.75601Z" fill="#495057"/>
<path d="M232.199 11.168C231.714 11.168 231.271 11.0793 230.869 10.902C230.468 10.7246 230.123 10.4726 229.833 10.146C229.553 9.80997 229.334 9.4133 229.175 8.95597C229.017 8.4893 228.938 7.96664 228.938 7.38797C228.938 6.81864 229.017 6.30064 229.175 5.83397C229.334 5.3673 229.553 4.97064 229.833 4.64397C230.123 4.30797 230.468 4.0513 230.869 3.87397C231.271 3.69664 231.714 3.60797 232.199 3.60797C232.685 3.60797 233.124 3.69664 233.516 3.87397C233.917 4.0513 234.262 4.30797 234.551 4.64397C234.841 4.97064 235.065 5.3673 235.223 5.83397C235.382 6.30064 235.462 6.81864 235.462 7.38797C235.462 7.96664 235.382 8.4893 235.223 8.95597C235.065 9.4133 234.841 9.80997 234.551 10.146C234.262 10.4726 233.917 10.7246 233.516 10.902C233.124 11.0793 232.685 11.168 232.199 11.168ZM232.199 10.174C232.806 10.174 233.301 9.98731 233.684 9.61397C234.066 9.24064 234.257 8.6713 234.257 7.90597V6.86997C234.257 6.10464 234.066 5.5353 233.684 5.16197C233.301 4.78864 232.806 4.60197 232.199 4.60197C231.593 4.60197 231.098 4.78864 230.715 5.16197C230.333 5.5353 230.141 6.10464 230.141 6.86997V7.90597C230.141 8.6713 230.333 9.24064 230.715 9.61397C231.098 9.98731 231.593 10.174 232.199 10.174Z" fill="#495057"/>
<path d="M222.848 11C222.456 11 222.158 10.8927 221.952 10.678C221.756 10.454 221.658 10.1647 221.658 9.80999V4.75599H220.469V3.77599H221.141C221.383 3.77599 221.546 3.72932 221.63 3.63599C221.724 3.53332 221.77 3.36065 221.77 3.11799V1.77399H222.779V3.77599H224.361V4.75599H222.779V10.02H224.249V11H222.848Z" fill="#495057"/>
<path d="M216.057 11V3.776H217.177V5.106H217.247C217.378 4.76067 217.611 4.45267 217.947 4.182C218.283 3.91133 218.745 3.776 219.333 3.776H219.767V4.896H219.109C218.503 4.896 218.027 5.01267 217.681 5.246C217.345 5.47 217.177 5.75467 217.177 6.1V11H216.057Z" fill="#495057"/>
<path d="M213.829 11C213.409 11 213.106 10.888 212.919 10.664C212.742 10.44 212.63 10.16 212.583 9.82397H212.513C212.354 10.272 212.093 10.608 211.729 10.832C211.365 11.056 210.931 11.168 210.427 11.168C209.662 11.168 209.064 10.972 208.635 10.58C208.215 10.188 208.005 9.65597 208.005 8.98397C208.005 8.30264 208.252 7.77997 208.747 7.41597C209.251 7.05197 210.03 6.86997 211.085 6.86997H212.513V6.15597C212.513 5.64264 212.373 5.25064 212.093 4.97997C211.813 4.7093 211.384 4.57397 210.805 4.57397C210.366 4.57397 209.998 4.67197 209.699 4.86797C209.41 5.06397 209.167 5.3253 208.971 5.65197L208.299 5.02197C208.495 4.62997 208.808 4.29864 209.237 4.02797C209.666 3.74797 210.208 3.60797 210.861 3.60797C211.738 3.60797 212.42 3.82264 212.905 4.25197C213.39 4.6813 213.633 5.27864 213.633 6.04397V10.02H214.459V11H213.829ZM210.609 10.216C210.889 10.216 211.146 10.1833 211.379 10.118C211.612 10.0526 211.813 9.95931 211.981 9.83797C212.149 9.71664 212.28 9.57664 212.373 9.41797C212.466 9.25931 212.513 9.08664 212.513 8.89997V7.70997H211.029C210.385 7.70997 209.914 7.8033 209.615 7.98997C209.326 8.17664 209.181 8.4473 209.181 8.80197V9.09597C209.181 9.45064 209.307 9.72597 209.559 9.92197C209.82 10.118 210.17 10.216 210.609 10.216Z" fill="#495057"/>
<path d="M200.458 3.77597H201.578V4.95197H201.634C201.82 4.49464 202.091 4.15864 202.446 3.94397C202.81 3.71997 203.244 3.60797 203.748 3.60797C204.196 3.60797 204.602 3.69664 204.966 3.87397C205.33 4.0513 205.638 4.3033 205.89 4.62997C206.151 4.95664 206.347 5.3533 206.478 5.81997C206.618 6.28664 206.688 6.8093 206.688 7.38797C206.688 7.96664 206.618 8.4893 206.478 8.95597C206.347 9.42264 206.151 9.8193 205.89 10.146C205.638 10.4726 205.33 10.7246 204.966 10.902C204.602 11.0793 204.196 11.168 203.748 11.168C202.768 11.168 202.063 10.72 201.634 9.82397H201.578V13.8H200.458V3.77597ZM203.44 10.16C204.074 10.16 204.574 9.96397 204.938 9.57197C205.302 9.17064 205.484 8.64797 205.484 8.00397V6.77197C205.484 6.12797 205.302 5.60997 204.938 5.21797C204.574 4.81664 204.074 4.61597 203.44 4.61597C203.188 4.61597 202.945 4.6533 202.712 4.72797C202.488 4.7933 202.292 4.88664 202.124 5.00797C201.956 5.1293 201.82 5.27864 201.718 5.45597C201.624 5.62397 201.578 5.80597 201.578 6.00197V8.68997C201.578 8.9233 201.624 9.1333 201.718 9.31997C201.82 9.4973 201.956 9.6513 202.124 9.78197C202.292 9.9033 202.488 9.99664 202.712 10.062C202.945 10.1273 203.188 10.16 203.44 10.16Z" fill="#495057"/>
<path d="M192.009 11V3.776H193.129V5.106H193.199C193.329 4.76067 193.563 4.45267 193.899 4.182C194.235 3.91133 194.697 3.776 195.285 3.776H195.719V4.896H195.061C194.454 4.896 193.978 5.01267 193.633 5.246C193.297 5.47 193.129 5.75467 193.129 6.1V11H192.009Z" fill="#495057"/>
<path d="M187.041 11.168C186.546 11.168 186.098 11.0793 185.697 10.902C185.305 10.7246 184.964 10.4726 184.675 10.146C184.395 9.80997 184.176 9.4133 184.017 8.95597C183.868 8.4893 183.793 7.96664 183.793 7.38797C183.793 6.81864 183.868 6.30064 184.017 5.83397C184.176 5.3673 184.395 4.97064 184.675 4.64397C184.964 4.30797 185.305 4.0513 185.697 3.87397C186.098 3.69664 186.546 3.60797 187.041 3.60797C187.526 3.60797 187.96 3.69664 188.343 3.87397C188.726 4.0513 189.052 4.29864 189.323 4.61597C189.594 4.92397 189.799 5.29264 189.939 5.72197C190.088 6.1513 190.163 6.62264 190.163 7.13597V7.66797H184.969V8.00397C184.969 8.31197 185.016 8.6013 185.109 8.87197C185.212 9.1333 185.352 9.36197 185.529 9.55797C185.716 9.75397 185.94 9.90797 186.201 10.02C186.472 10.132 186.775 10.188 187.111 10.188C187.568 10.188 187.965 10.0806 188.301 9.86597C188.646 9.6513 188.912 9.34331 189.099 8.94197L189.897 9.51597C189.664 10.0106 189.3 10.412 188.805 10.72C188.31 11.0186 187.722 11.168 187.041 11.168ZM187.041 4.54597C186.733 4.54597 186.453 4.60197 186.201 4.71397C185.949 4.81664 185.73 4.96597 185.543 5.16197C185.366 5.35797 185.226 5.5913 185.123 5.86197C185.02 6.1233 184.969 6.41264 184.969 6.72997V6.82797H188.959V6.67397C188.959 6.02997 188.782 5.51664 188.427 5.13397C188.082 4.74197 187.62 4.54597 187.041 4.54597Z" fill="#495057"/>
<path d="M181.067 11C180.675 11 180.377 10.8927 180.171 10.678C179.975 10.454 179.877 10.1647 179.877 9.80999V4.75599H178.687V3.77599H179.359C179.602 3.77599 179.765 3.72932 179.849 3.63599C179.943 3.53332 179.989 3.36065 179.989 3.11799V1.77399H180.997V3.77599H182.579V4.75599H180.997V10.02H182.467V11H181.067Z" fill="#495057"/>
<path d="M176.282 11C175.89 11 175.591 10.8927 175.386 10.678C175.19 10.454 175.092 10.1647 175.092 9.80999V4.75599H173.902V3.77599H174.574C174.817 3.77599 174.98 3.72932 175.064 3.63599C175.157 3.53332 175.204 3.36065 175.204 3.11799V1.77399H176.212V3.77599H177.794V4.75599H176.212V10.02H177.682V11H176.282Z" fill="#495057"/>
<path d="M169.719 11.168C169.224 11.168 168.776 11.0793 168.375 10.902C167.983 10.7246 167.642 10.4726 167.353 10.146C167.073 9.80997 166.853 9.4133 166.695 8.95597C166.545 8.4893 166.471 7.96664 166.471 7.38797C166.471 6.81864 166.545 6.30064 166.695 5.83397C166.853 5.3673 167.073 4.97064 167.353 4.64397C167.642 4.30797 167.983 4.0513 168.375 3.87397C168.776 3.69664 169.224 3.60797 169.719 3.60797C170.204 3.60797 170.638 3.69664 171.021 3.87397C171.403 4.0513 171.73 4.29864 172.001 4.61597C172.271 4.92397 172.477 5.29264 172.617 5.72197C172.766 6.1513 172.841 6.62264 172.841 7.13597V7.66797H167.647V8.00397C167.647 8.31197 167.693 8.6013 167.787 8.87197C167.889 9.1333 168.029 9.36197 168.207 9.55797C168.393 9.75397 168.617 9.90797 168.879 10.02C169.149 10.132 169.453 10.188 169.789 10.188C170.246 10.188 170.643 10.0806 170.979 9.86597C171.324 9.6513 171.59 9.34331 171.777 8.94197L172.575 9.51597C172.341 10.0106 171.977 10.412 171.483 10.72C170.988 11.0186 170.4 11.168 169.719 11.168ZM169.719 4.54597C169.411 4.54597 169.131 4.60197 168.879 4.71397C168.627 4.81664 168.407 4.96597 168.221 5.16197C168.043 5.35797 167.903 5.5913 167.801 5.86197C167.698 6.1233 167.647 6.41264 167.647 6.72997V6.82797H171.637V6.67397C171.637 6.02997 171.459 5.51664 171.105 5.13397C170.759 4.74197 170.297 4.54597 169.719 4.54597Z" fill="#495057"/>
<path d="M158.882 0.640015H160.002V4.95201H160.058C160.244 4.49468 160.515 4.15868 160.87 3.94401C161.234 3.72001 161.668 3.60801 162.172 3.60801C162.62 3.60801 163.026 3.69668 163.39 3.87401C163.754 4.05135 164.062 4.30335 164.314 4.63001C164.575 4.95668 164.771 5.35335 164.902 5.82001C165.042 6.28668 165.112 6.80935 165.112 7.38801C165.112 7.96668 165.042 8.48935 164.902 8.95601C164.771 9.42268 164.575 9.81935 164.314 10.146C164.062 10.4727 163.754 10.7247 163.39 10.902C163.026 11.0793 162.62 11.168 162.172 11.168C161.192 11.168 160.487 10.72 160.058 9.82401H160.002V11H158.882V0.640015ZM161.864 10.16C162.498 10.16 162.998 9.96401 163.362 9.57201C163.726 9.17068 163.908 8.64801 163.908 8.00401V6.77201C163.908 6.12801 163.726 5.61001 163.362 5.21801C162.998 4.81668 162.498 4.61601 161.864 4.61601C161.612 4.61601 161.369 4.65335 161.136 4.72801C160.912 4.79335 160.716 4.88668 160.548 5.00801C160.38 5.12935 160.244 5.27868 160.142 5.45601C160.048 5.62401 160.002 5.80601 160.002 6.00201V8.69001C160.002 8.92335 160.048 9.13335 160.142 9.32001C160.244 9.49735 160.38 9.65135 160.548 9.78201C160.716 9.90335 160.912 9.99668 161.136 10.062C161.369 10.1273 161.612 10.16 161.864 10.16Z" fill="#495057"/>
<path d="M150.605 11.168C150.111 11.168 149.663 11.0793 149.261 10.902C148.869 10.7246 148.529 10.4726 148.239 10.146C147.959 9.80997 147.74 9.4133 147.581 8.95597C147.432 8.4893 147.357 7.96664 147.357 7.38797C147.357 6.81864 147.432 6.30064 147.581 5.83397C147.74 5.3673 147.959 4.97064 148.239 4.64397C148.529 4.30797 148.869 4.0513 149.261 3.87397C149.663 3.69664 150.111 3.60797 150.605 3.60797C151.091 3.60797 151.525 3.69664 151.907 3.87397C152.29 4.0513 152.617 4.29864 152.887 4.61597C153.158 4.92397 153.363 5.29264 153.503 5.72197C153.653 6.1513 153.727 6.62264 153.727 7.13597V7.66797H148.533V8.00397C148.533 8.31197 148.58 8.6013 148.673 8.87197C148.776 9.1333 148.916 9.36197 149.093 9.55797C149.28 9.75397 149.504 9.90797 149.765 10.02C150.036 10.132 150.339 10.188 150.675 10.188C151.133 10.188 151.529 10.0806 151.865 9.86597C152.211 9.6513 152.477 9.34331 152.663 8.94197L153.461 9.51597C153.228 10.0106 152.864 10.412 152.369 10.72C151.875 11.0186 151.287 11.168 150.605 11.168ZM150.605 4.54597C150.297 4.54597 150.017 4.60197 149.765 4.71397C149.513 4.81664 149.294 4.96597 149.107 5.16197C148.93 5.35797 148.79 5.5913 148.687 5.86197C148.585 6.1233 148.533 6.41264 148.533 6.72997V6.82797H152.523V6.67397C152.523 6.02997 152.346 5.51664 151.991 5.13397C151.646 4.74197 151.184 4.54597 150.605 4.54597Z" fill="#495057"/>
<path d="M139.932 0.640015H141.052V4.95201H141.108C141.286 4.54135 141.533 4.21468 141.85 3.97201C142.177 3.72935 142.611 3.60801 143.152 3.60801C143.899 3.60801 144.487 3.85068 144.916 4.33601C145.355 4.81201 145.574 5.48868 145.574 6.36601V11H144.454V6.56202C144.454 5.26468 143.908 4.61601 142.816 4.61601C142.592 4.61601 142.373 4.64401 142.158 4.70001C141.953 4.75601 141.766 4.84001 141.598 4.95201C141.43 5.06401 141.295 5.20868 141.192 5.38601C141.099 5.55401 141.052 5.75468 141.052 5.98801V11H139.932V0.640015Z" fill="#495057"/>
<path d="M136.62 11C136.228 11 135.929 10.8927 135.724 10.678C135.528 10.454 135.43 10.1647 135.43 9.80999V4.75599H134.24V3.77599H134.912C135.155 3.77599 135.318 3.72932 135.402 3.63599C135.495 3.53332 135.542 3.36065 135.542 3.11799V1.77399H136.55V3.77599H138.132V4.75599H136.55V10.02H138.02V11H136.62Z" fill="#495057"/>
<path d="M126.575 11V3.776H127.695V5.106H127.765C127.896 4.76067 128.129 4.45267 128.465 4.182C128.801 3.91133 129.263 3.776 129.851 3.776H130.285V4.896H129.627C129.02 4.896 128.544 5.01267 128.199 5.246C127.863 5.47 127.695 5.75467 127.695 6.1V11H126.575Z" fill="#495057"/>
<path d="M121.471 11.168C120.986 11.168 120.542 11.0793 120.141 10.902C119.74 10.7246 119.394 10.4726 119.105 10.146C118.825 9.80997 118.606 9.4133 118.447 8.95597C118.288 8.4893 118.209 7.96664 118.209 7.38797C118.209 6.81864 118.288 6.30064 118.447 5.83397C118.606 5.3673 118.825 4.97064 119.105 4.64397C119.394 4.30797 119.74 4.0513 120.141 3.87397C120.542 3.69664 120.986 3.60797 121.471 3.60797C121.956 3.60797 122.395 3.69664 122.787 3.87397C123.188 4.0513 123.534 4.30797 123.823 4.64397C124.112 4.97064 124.336 5.3673 124.495 5.83397C124.654 6.30064 124.733 6.81864 124.733 7.38797C124.733 7.96664 124.654 8.4893 124.495 8.95597C124.336 9.4133 124.112 9.80997 123.823 10.146C123.534 10.4726 123.188 10.7246 122.787 10.902C122.395 11.0793 121.956 11.168 121.471 11.168ZM121.471 10.174C122.078 10.174 122.572 9.98731 122.955 9.61397C123.338 9.24064 123.529 8.6713 123.529 7.90597V6.86997C123.529 6.10464 123.338 5.5353 122.955 5.16197C122.572 4.78864 122.078 4.60197 121.471 4.60197C120.864 4.60197 120.37 4.78864 119.987 5.16197C119.604 5.5353 119.413 6.10464 119.413 6.86997V7.90597C119.413 8.6713 119.604 9.24064 119.987 9.61397C120.37 9.98731 120.864 10.174 121.471 10.174Z" fill="#495057"/>
<path d="M114.648 4.75601H113.472V3.77601H114.648V2.32001C114.648 1.81601 114.779 1.41001 115.04 1.10201C115.302 0.794015 115.698 0.640015 116.23 0.640015H117.322V1.62001H115.768V3.77601H117.322V4.75601H115.768V11H114.648V4.75601Z" fill="#495057"/>
<path d="M109.418 11H108.004L105.442 6.89803H105.414L102.852 11H101.508L104.7 6.03003L101.592 1.22803H103.006L105.456 5.12003H105.484L107.99 1.22803H109.334L106.198 5.98803L109.418 11Z" fill="#495057"/>
<path d="M94.0918 1.22803V7.27603C94.0918 8.20936 94.2644 8.91869 94.6098 9.40403C94.9551 9.88003 95.5618 10.118 96.4298 10.118C97.2978 10.118 97.9044 9.88003 98.2498 9.40403C98.5951 8.91869 98.7678 8.20936 98.7678 7.27603V1.22803H99.9438V6.99603C99.9438 7.70536 99.8784 8.32136 99.7478 8.84403C99.6264 9.36669 99.4258 9.80069 99.1458 10.146C98.8658 10.4914 98.4971 10.748 98.0398 10.916C97.5918 11.084 97.0411 11.168 96.3878 11.168C95.7344 11.168 95.1838 11.084 94.7358 10.916C94.2971 10.748 93.9424 10.4914 93.6718 10.146C93.4011 9.80069 93.2051 9.36669 93.0838 8.84403C92.9718 8.32136 92.9158 7.70536 92.9158 6.99603V1.22803H94.0918Z" fill="#495057"/>
<path d="M81.6082 11V3.77597H82.7281V4.95197H82.7841C82.9615 4.5413 83.2088 4.21464 83.5262 3.97197C83.8528 3.7293 84.2868 3.60797 84.8282 3.60797C85.5748 3.60797 86.1628 3.85064 86.5922 4.33597C87.0308 4.81197 87.2502 5.48864 87.2502 6.36597V11H86.1301V6.56197C86.1301 5.26464 85.5841 4.61597 84.4921 4.61597C84.2681 4.61597 84.0488 4.64397 83.8342 4.69997C83.6288 4.75597 83.4422 4.83997 83.2742 4.95197C83.1062 5.06397 82.9708 5.20864 82.8681 5.38597C82.7748 5.55397 82.7281 5.75464 82.7281 5.98797V11H81.6082Z" fill="#495057"/>
<path d="M78.6679 2.08201C78.4253 2.08201 78.2479 2.02601 78.1359 1.91401C78.0333 1.79268 77.9819 1.63868 77.9819 1.45201V1.27001C77.9819 1.08335 78.0333 0.934014 78.1359 0.822014C78.2479 0.700681 78.4253 0.640015 78.6679 0.640015C78.9106 0.640015 79.0833 0.700681 79.1859 0.822014C79.2979 0.934014 79.3539 1.08335 79.3539 1.27001V1.45201C79.3539 1.63868 79.2979 1.79268 79.1859 1.91401C79.0833 2.02601 78.9106 2.08201 78.6679 2.08201ZM78.1079 3.77601H79.2279V11H78.1079V3.77601Z" fill="#495057"/>
<path d="M71.2985 9.82401H71.2425C70.8038 10.72 70.0991 11.168 69.1285 11.168C68.6805 11.168 68.2745 11.0793 67.9105 10.902C67.5465 10.7247 67.2338 10.4727 66.9725 10.146C66.7205 9.81935 66.5245 9.42268 66.3845 8.95601C66.2538 8.48935 66.1885 7.96668 66.1885 7.38801C66.1885 6.80935 66.2538 6.28668 66.3845 5.82001C66.5245 5.35335 66.7205 4.95668 66.9725 4.63001C67.2338 4.30335 67.5465 4.05135 67.9105 3.87401C68.2745 3.69668 68.6805 3.60801 69.1285 3.60801C69.6325 3.60801 70.0618 3.72001 70.4165 3.94401C70.7805 4.15868 71.0558 4.49468 71.2425 4.95201H71.2985V0.640015H72.4185V11H71.2985V9.82401ZM69.4365 10.16C69.6885 10.16 69.9265 10.1273 70.1505 10.062C70.3838 9.99668 70.5845 9.90335 70.7525 9.78201C70.9205 9.65135 71.0511 9.49735 71.1445 9.32001C71.2471 9.13335 71.2985 8.92335 71.2985 8.69001V6.00201C71.2985 5.80601 71.2471 5.62401 71.1445 5.45601C71.0511 5.27868 70.9205 5.12935 70.7525 5.00801C70.5845 4.88668 70.3838 4.79335 70.1505 4.72801C69.9265 4.65335 69.6885 4.61601 69.4365 4.61601C68.8018 4.61601 68.3025 4.81668 67.9385 5.21801C67.5745 5.61001 67.3925 6.12801 67.3925 6.77201V8.00401C67.3925 8.64801 67.5745 9.17068 67.9385 9.57201C68.3025 9.96401 68.8018 10.16 69.4365 10.16Z" fill="#495057"/>
<path d="M61.7109 11.168C61.2162 11.168 60.7682 11.0793 60.3669 10.902C59.9749 10.7246 59.6342 10.4726 59.3449 10.146C59.0649 9.80997 58.8456 9.4133 58.6869 8.95597C58.5376 8.4893 58.4629 7.96664 58.4629 7.38797C58.4629 6.81864 58.5376 6.30064 58.6869 5.83397C58.8456 5.3673 59.0649 4.97064 59.3449 4.64397C59.6342 4.30797 59.9749 4.0513 60.3669 3.87397C60.7682 3.69664 61.2162 3.60797 61.7109 3.60797C62.1962 3.60797 62.6302 3.69664 63.0129 3.87397C63.3956 4.0513 63.7222 4.29864 63.9929 4.61597C64.2636 4.92397 64.4689 5.29264 64.6089 5.72197C64.7582 6.1513 64.8329 6.62264 64.8329 7.13597V7.66797H59.6389V8.00397C59.6389 8.31197 59.6856 8.6013 59.7789 8.87197C59.8816 9.1333 60.0216 9.36197 60.1989 9.55797C60.3856 9.75397 60.6096 9.90797 60.8709 10.02C61.1416 10.132 61.4449 10.188 61.7809 10.188C62.2382 10.188 62.6349 10.0806 62.9709 9.86597C63.3162 9.6513 63.5822 9.34331 63.7689 8.94197L64.5669 9.51597C64.3336 10.0106 63.9696 10.412 63.4749 10.72C62.9802 11.0186 62.3922 11.168 61.7109 11.168ZM61.7109 4.54597C61.4029 4.54597 61.1229 4.60197 60.8709 4.71397C60.6189 4.81664 60.3996 4.96597 60.2129 5.16197C60.0356 5.35797 59.8956 5.5913 59.7929 5.86197C59.6902 6.1233 59.6389 6.41264 59.6389 6.72997V6.82797H63.6289V6.67397C63.6289 6.02997 63.4516 5.51664 63.0969 5.13397C62.7516 4.74197 62.2896 4.54597 61.7109 4.54597Z" fill="#495057"/>
<path d="M51.8445 0.640015H52.9645V7.20601H53.0205L54.1265 5.97401L56.1705 3.77601H57.5285L54.8545 6.63201L57.7945 11H56.4365L54.0425 7.31801L52.9645 8.42401V11H51.8445V0.640015Z" fill="#495057"/>
<path d="M46.7039 11V3.776H47.8239V5.106H47.8939C48.0245 4.76067 48.2579 4.45267 48.5939 4.182C48.9299 3.91133 49.3919 3.776 49.9799 3.776H50.4139V4.896H49.7559C49.1492 4.896 48.6732 5.01267 48.3279 5.246C47.9919 5.47 47.8239 5.75467 47.8239 6.1V11H46.7039Z" fill="#495057"/>
<path d="M41.5999 11.168C41.1146 11.168 40.6712 11.0793 40.2699 10.902C39.8686 10.7246 39.5232 10.4726 39.2339 10.146C38.9539 9.80997 38.7346 9.4133 38.5759 8.95597C38.4172 8.4893 38.3379 7.96664 38.3379 7.38797C38.3379 6.81864 38.4172 6.30064 38.5759 5.83397C38.7346 5.3673 38.9539 4.97064 39.2339 4.64397C39.5232 4.30797 39.8686 4.0513 40.2699 3.87397C40.6712 3.69664 41.1146 3.60797 41.5999 3.60797C42.0852 3.60797 42.5239 3.69664 42.9159 3.87397C43.3172 4.0513 43.6626 4.30797 43.9519 4.64397C44.2412 4.97064 44.4652 5.3673 44.6239 5.83397C44.7826 6.30064 44.8619 6.81864 44.8619 7.38797C44.8619 7.96664 44.7826 8.4893 44.6239 8.95597C44.4652 9.4133 44.2412 9.80997 43.9519 10.146C43.6626 10.4726 43.3172 10.7246 42.9159 10.902C42.5239 11.0793 42.0852 11.168 41.5999 11.168ZM41.5999 10.174C42.2066 10.174 42.7012 9.98731 43.0839 9.61397C43.4666 9.24064 43.6579 8.6713 43.6579 7.90597V6.86997C43.6579 6.10464 43.4666 5.5353 43.0839 5.16197C42.7012 4.78864 42.2066 4.60197 41.5999 4.60197C40.9932 4.60197 40.4986 4.78864 40.1159 5.16197C39.7332 5.5353 39.5419 6.10464 39.5419 6.86997V7.90597C39.5419 8.6713 39.7332 9.24064 40.1159 9.61397C40.4986 9.98731 40.9932 10.174 41.5999 10.174Z" fill="#495057"/>
<path d="M27.436 3.776H28.528L29.298 6.898L30.068 10.062H30.096L30.978 6.898L31.888 3.776H32.882L33.82 6.898L34.716 10.062H34.744L35.486 6.898L36.27 3.776H37.32L35.402 11H34.016L33.008 7.528L32.378 5.33H32.35L31.734 7.528L30.726 11H29.368L27.436 3.776Z" fill="#495057"/>
<path d="M19.916 11.168C19.4213 11.168 18.9733 11.0793 18.572 10.902C18.18 10.7246 17.8393 10.4726 17.55 10.146C17.27 9.80997 17.0506 9.4133 16.892 8.95597C16.7426 8.4893 16.668 7.96664 16.668 7.38797C16.668 6.81864 16.7426 6.30064 16.892 5.83397C17.0506 5.3673 17.27 4.97064 17.55 4.64397C17.8393 4.30797 18.18 4.0513 18.572 3.87397C18.9733 3.69664 19.4213 3.60797 19.916 3.60797C20.4013 3.60797 20.8353 3.69664 21.218 3.87397C21.6006 4.0513 21.9273 4.29864 22.198 4.61597C22.4686 4.92397 22.674 5.29264 22.814 5.72197C22.9633 6.1513 23.038 6.62264 23.038 7.13597V7.66797H17.844V8.00397C17.844 8.31197 17.8906 8.6013 17.984 8.87197C18.0866 9.1333 18.2266 9.36197 18.404 9.55797C18.5906 9.75397 18.8146 9.90797 19.076 10.02C19.3466 10.132 19.65 10.188 19.986 10.188C20.4433 10.188 20.84 10.0806 21.176 9.86597C21.5213 9.6513 21.7873 9.34331 21.974 8.94197L22.772 9.51597C22.5386 10.0106 22.1746 10.412 21.68 10.72C21.1853 11.0186 20.5973 11.168 19.916 11.168ZM19.916 4.54597C19.608 4.54597 19.328 4.60197 19.076 4.71397C18.824 4.81664 18.6046 4.96597 18.418 5.16197C18.2406 5.35797 18.1006 5.5913 17.998 5.86197C17.8953 6.1233 17.844 6.41264 17.844 6.72997V6.82797H21.834V6.67397C21.834 6.02997 21.6566 5.51664 21.302 5.13397C20.9566 4.74197 20.4946 4.54597 19.916 4.54597Z" fill="#495057"/>
<path d="M12.0147 11L9.48071 3.776H10.6007L11.8607 7.36L12.6447 9.824H12.7147L13.4987 7.36L14.7867 3.776H15.8647L13.3167 11H12.0147Z" fill="#495057"/>
<path d="M7.57968 0.5C7.87835 0.5 8.09301 0.579334 8.22368 0.738C8.36368 0.887334 8.43368 1.08333 8.43368 1.326V1.522C8.43368 1.90467 8.32168 2.32933 8.09768 2.796C7.87368 3.25333 7.56101 3.65467 7.15968 4H6.22168C6.50168 3.70133 6.72568 3.42133 6.89368 3.16C7.07101 2.88933 7.19701 2.59067 7.27168 2.264C7.08501 2.21733 6.94501 2.12867 6.85168 1.998C6.76768 1.86733 6.72568 1.70867 6.72568 1.522V1.326C6.72568 1.08333 6.79101 0.887334 6.92168 0.738C7.06168 0.579334 7.28101 0.5 7.57968 0.5Z" fill="#495057"/>
<path d="M0.840088 11V10.02H2.21209V2.20803H0.840088V1.22803H4.76009V2.20803H3.38809V10.02H4.76009V11H0.840088Z" fill="#495057"/>
</svg>
