<svg width="75" height="13" viewBox="0 0 75 13" fill="none" xmlns="http://www.w3.org/2000/svg">
<path d="M73.1561 3.214H74.7161L71.9861 11.209C71.8995 11.4517 71.7998 11.6597 71.6871 11.833C71.5831 12.015 71.4575 12.1623 71.3101 12.275C71.1628 12.3877 70.9851 12.47 70.7771 12.522C70.5691 12.574 70.3265 12.6 70.0491 12.6H69.0481V11.274H70.2701L70.5821 10.325L68.1511 3.214H69.8021L70.9851 6.802L71.4271 8.518H71.5051L71.9731 6.802L73.1561 3.214Z" fill="#212529"/>
<path d="M66.828 10C66.464 10 66.1736 9.896 65.957 9.688C65.749 9.47133 65.619 9.18533 65.567 8.83H65.489C65.3763 9.272 65.1467 9.60567 64.8 9.831C64.4533 10.0477 64.0243 10.156 63.513 10.156C62.8196 10.156 62.2866 9.974 61.914 9.61C61.5413 9.246 61.355 8.76067 61.355 8.154C61.355 7.452 61.6063 6.932 62.109 6.594C62.6116 6.24733 63.3266 6.074 64.254 6.074H65.411V5.58C65.411 5.19867 65.3113 4.904 65.112 4.696C64.9126 4.488 64.592 4.384 64.15 4.384C63.76 4.384 63.4436 4.47067 63.201 4.644C62.967 4.80867 62.7676 5.008 62.603 5.242L61.615 4.358C61.8663 3.968 62.2 3.656 62.616 3.422C63.032 3.17933 63.5823 3.058 64.267 3.058C65.1856 3.058 65.8833 3.266 66.36 3.682C66.8366 4.098 67.075 4.696 67.075 5.476V8.674H67.751V10H66.828ZM64.072 8.947C64.4446 8.947 64.761 8.86467 65.021 8.7C65.281 8.53533 65.411 8.29267 65.411 7.972V7.075H64.345C63.4783 7.075 63.045 7.35233 63.045 7.907V8.128C63.045 8.40533 63.1316 8.61333 63.305 8.752C63.487 8.882 63.7426 8.947 64.072 8.947Z" fill="#212529"/>
<path d="M56.8721 10V3.214H58.5361V4.618H58.6011C58.6444 4.436 58.7094 4.26267 58.7961 4.098C58.8914 3.92467 59.0127 3.773 59.1601 3.643C59.3074 3.513 59.4807 3.409 59.6801 3.331C59.8881 3.253 60.1264 3.214 60.3951 3.214H60.7591V4.787H60.2391C59.6757 4.787 59.2511 4.86934 58.9651 5.034C58.6791 5.19867 58.5361 5.46734 58.5361 5.84V10H56.8721Z" fill="#212529"/>
<path d="M53.5061 8.596H53.4541C53.3761 9.038 53.1291 9.41067 52.7131 9.714C52.3057 10.0087 51.7597 10.156 51.0751 10.156C50.5377 10.156 50.0394 10.0563 49.5801 9.85701C49.1294 9.65767 48.7351 9.363 48.3971 8.973C48.0677 8.57434 47.8077 8.08467 47.6171 7.504C47.4264 6.92334 47.3311 6.25167 47.3311 5.48901C47.3311 4.72634 47.4264 4.05467 47.6171 3.474C47.8164 2.88467 48.0937 2.39067 48.4491 1.992C48.8044 1.59334 49.2291 1.29 49.7231 1.082C50.2171 0.874004 50.7674 0.770004 51.3741 0.770004C52.1887 0.770004 52.8821 0.947671 53.4541 1.303C54.0261 1.65834 54.4767 2.16967 54.8061 2.837L53.4151 3.656C53.2504 3.266 53.0034 2.941 52.6741 2.681C52.3534 2.421 51.9201 2.291 51.3741 2.291C50.6981 2.291 50.1564 2.499 49.7491 2.915C49.3504 3.32234 49.1511 3.929 49.1511 4.735V6.191C49.1511 6.98834 49.3547 7.595 49.7621 8.011C50.1694 8.427 50.7154 8.635 51.4001 8.635C51.6687 8.635 51.9201 8.60467 52.1541 8.544C52.3881 8.47467 52.5917 8.375 52.7651 8.245C52.9384 8.115 53.0771 7.95467 53.1811 7.764C53.2851 7.57334 53.3371 7.34801 53.3371 7.08801V6.503H51.5561V5.06H54.9881V10H53.5061V8.596Z" fill="#212529"/>
<path d="M36.9023 0.380005H38.5663V4.345H38.6313C38.77 3.981 38.9867 3.67767 39.2813 3.435C39.5847 3.18367 40.0007 3.058 40.5293 3.058C41.2313 3.058 41.7687 3.28767 42.1413 3.747C42.514 4.20634 42.7003 4.86067 42.7003 5.71V10H41.0363V5.879C41.0363 5.39367 40.9497 5.02967 40.7763 4.787C40.603 4.54434 40.317 4.42301 39.9183 4.42301C39.745 4.42301 39.576 4.44901 39.4113 4.50101C39.2553 4.54434 39.1123 4.61367 38.9823 4.70901C38.861 4.79567 38.7613 4.90834 38.6833 5.047C38.6053 5.177 38.5663 5.333 38.5663 5.515V10H36.9023V0.380005Z" fill="#212529"/>
<path d="M29.1074 3.214H30.7714V4.332H30.8234C30.9448 3.942 31.1744 3.63433 31.5124 3.409C31.8504 3.175 32.2448 3.058 32.6954 3.058C33.5621 3.058 34.2208 3.36567 34.6714 3.981C35.1308 4.58767 35.3604 5.45867 35.3604 6.594C35.3604 7.738 35.1308 8.61767 34.6714 9.233C34.2208 9.84833 33.5621 10.156 32.6954 10.156C32.2448 10.156 31.8504 10.039 31.5124 9.805C31.1831 9.571 30.9534 9.259 30.8234 8.869H30.7714V12.6H29.1074V3.214ZM32.1624 8.778C32.5958 8.778 32.9468 8.635 33.2154 8.349C33.4841 8.063 33.6184 7.67733 33.6184 7.192V6.022C33.6184 5.53667 33.4841 5.151 33.2154 4.865C32.9468 4.57033 32.5958 4.423 32.1624 4.423C31.7638 4.423 31.4301 4.52267 31.1614 4.722C30.9014 4.92133 30.7714 5.18567 30.7714 5.515V7.673C30.7714 8.02833 30.9014 8.30133 31.1614 8.492C31.4301 8.68267 31.7638 8.778 32.1624 8.778Z" fill="#212529"/>
<path d="M24.6013 10.156C24.0987 10.156 23.648 10.0737 23.2493 9.909C22.8593 9.73567 22.5257 9.49733 22.2483 9.194C21.9797 8.882 21.7717 8.50933 21.6243 8.076C21.477 7.634 21.4033 7.14 21.4033 6.594C21.4033 6.05667 21.4727 5.57133 21.6113 5.138C21.7587 4.70467 21.9667 4.33633 22.2353 4.033C22.504 3.721 22.8333 3.48267 23.2233 3.318C23.6133 3.14467 24.0553 3.058 24.5493 3.058C25.078 3.058 25.5373 3.149 25.9273 3.331C26.3173 3.513 26.638 3.76 26.8893 4.072C27.1407 4.384 27.327 4.748 27.4483 5.164C27.5783 5.57133 27.6433 6.009 27.6433 6.477V7.023H23.1323V7.192C23.1323 7.686 23.271 8.08467 23.5483 8.388C23.8257 8.68267 24.2373 8.83 24.7833 8.83C25.1993 8.83 25.5373 8.74333 25.7973 8.57C26.066 8.39667 26.3043 8.17567 26.5123 7.907L27.4093 8.908C27.132 9.298 26.7507 9.60567 26.2653 9.831C25.7887 10.0477 25.234 10.156 24.6013 10.156ZM24.5753 4.306C24.1333 4.306 23.7823 4.45333 23.5223 4.748C23.2623 5.04267 23.1323 5.424 23.1323 5.892V5.996H25.9143V5.879C25.9143 5.411 25.7973 5.034 25.5633 4.748C25.338 4.45333 25.0087 4.306 24.5753 4.306Z" fill="#212529"/>
<path d="M17.5941 10.156C16.9441 10.156 16.3981 10.0477 15.9561 9.831C15.5141 9.60567 15.1241 9.298 14.7861 8.908L15.8001 7.92C16.0515 8.206 16.3245 8.43133 16.6191 8.596C16.9225 8.76067 17.2691 8.843 17.6591 8.843C18.0578 8.843 18.3438 8.77367 18.5171 8.635C18.6991 8.49633 18.7901 8.30567 18.7901 8.063C18.7901 7.86367 18.7251 7.70767 18.5951 7.595C18.4738 7.47367 18.2615 7.39133 17.9581 7.348L17.2821 7.257C16.5455 7.16167 15.9821 6.95367 15.5921 6.633C15.2108 6.30367 15.0201 5.827 15.0201 5.203C15.0201 4.87367 15.0808 4.579 15.2021 4.319C15.3235 4.05033 15.4968 3.825 15.7221 3.643C15.9475 3.45233 16.2161 3.30933 16.5281 3.214C16.8488 3.11 17.2041 3.058 17.5941 3.058C17.9235 3.058 18.2138 3.084 18.4651 3.136C18.7251 3.17933 18.9591 3.24867 19.1671 3.344C19.3751 3.43067 19.5658 3.54333 19.7391 3.682C19.9125 3.812 20.0815 3.95933 20.2461 4.124L19.2711 5.099C19.0718 4.891 18.8335 4.71767 18.5561 4.579C18.2788 4.44033 17.9755 4.371 17.6461 4.371C17.2821 4.371 17.0178 4.436 16.8531 4.566C16.6971 4.696 16.6191 4.865 16.6191 5.073C16.6191 5.29833 16.6841 5.47167 16.8141 5.593C16.9528 5.70567 17.1825 5.788 17.5031 5.84L18.1921 5.931C19.6568 6.139 20.3891 6.80633 20.3891 7.933C20.3891 8.26233 20.3198 8.56567 20.1811 8.843C20.0511 9.11167 19.8648 9.34567 19.6221 9.545C19.3795 9.73567 19.0848 9.88733 18.7381 10C18.4001 10.104 18.0188 10.156 17.5941 10.156Z" fill="#212529"/>
<path d="M10.7368 10.156C10.2515 10.156 9.81382 10.0737 9.42382 9.909C9.04249 9.74433 8.71315 9.506 8.43582 9.194C8.16715 8.882 7.95915 8.50933 7.81182 8.076C7.66449 7.634 7.59082 7.14 7.59082 6.594C7.59082 6.048 7.66449 5.55833 7.81182 5.125C7.95915 4.69167 8.16715 4.32333 8.43582 4.02C8.71315 3.708 9.04249 3.46967 9.42382 3.305C9.81382 3.14033 10.2515 3.058 10.7368 3.058C11.2222 3.058 11.6598 3.14033 12.0498 3.305C12.4398 3.46967 12.7692 3.708 13.0378 4.02C13.3152 4.32333 13.5275 4.69167 13.6748 5.125C13.8222 5.55833 13.8958 6.048 13.8958 6.594C13.8958 7.14 13.8222 7.634 13.6748 8.076C13.5275 8.50933 13.3152 8.882 13.0378 9.194C12.7692 9.506 12.4398 9.74433 12.0498 9.909C11.6598 10.0737 11.2222 10.156 10.7368 10.156ZM10.7368 8.817C11.1788 8.817 11.5255 8.68267 11.7768 8.414C12.0282 8.14533 12.1538 7.751 12.1538 7.231V5.97C12.1538 5.45867 12.0282 5.06867 11.7768 4.8C11.5255 4.53133 11.1788 4.397 10.7368 4.397C10.3035 4.397 9.96115 4.53133 9.70982 4.8C9.45849 5.06867 9.33282 5.45867 9.33282 5.97V7.231C9.33282 7.751 9.45849 8.14533 9.70982 8.414C9.96115 8.68267 10.3035 8.817 10.7368 8.817Z" fill="#212529"/>
<path d="M6.07089 0.926003V7.452C6.07089 7.85934 6.00156 8.22767 5.86289 8.557C5.73289 8.88634 5.54222 9.168 5.29089 9.402C5.04822 9.636 4.74922 9.818 4.39389 9.948C4.03856 10.078 3.63989 10.143 3.19789 10.143C2.35722 10.143 1.70289 9.92634 1.23489 9.493C0.766891 9.051 0.467891 8.466 0.337891 7.738L1.92389 7.413C2.00189 7.803 2.14056 8.10634 2.33989 8.323C2.54789 8.531 2.82956 8.635 3.18489 8.635C3.52289 8.635 3.80022 8.531 4.01689 8.323C4.24222 8.10634 4.35489 7.777 4.35489 7.335V2.33H1.49489V0.926003H6.07089Z" fill="#212529"/>
</svg>
