<svg width="21" height="21" viewBox="0 0 21 21" fill="none" xmlns="http://www.w3.org/2000/svg">
<g opacity="0.7" clip-path="url(#clip0_1_1640)">
<path d="M10.5 7C8.56625 7 7 8.56625 7 10.5C7 12.4338 8.56625 14 10.5 14C12.4338 14 14 12.4338 14 10.5C14 8.56625 12.4338 7 10.5 7ZM18.3225 9.625C17.92 5.97625 15.0238 3.08 11.375 2.6775V0.875H9.625V2.6775C5.97625 3.08 3.08 5.97625 2.6775 9.625H0.875V11.375H2.6775C3.08 15.0238 5.97625 17.92 9.625 18.3225V20.125H11.375V18.3225C15.0238 17.92 17.92 15.0238 18.3225 11.375H20.125V9.625H18.3225ZM10.5 16.625C7.11375 16.625 4.375 13.8862 4.375 10.5C4.375 7.11375 7.11375 4.375 10.5 4.375C13.8862 4.375 16.625 7.11375 16.625 10.5C16.625 13.8862 13.8862 16.625 10.5 16.625Z" fill="black"/>
</g>
<defs>
<clipPath id="clip0_1_1640">
<rect width="21" height="21" fill="white"/>
</clipPath>
</defs>
</svg>
