<svg width="16" height="16" viewBox="0 0 16 16" fill="none" xmlns="http://www.w3.org/2000/svg">
<g clip-path="url(#clip0_1_193)">
<path d="M8.00004 1.33333C5.42004 1.33333 3.33337 3.42 3.33337 6C3.33337 9.5 8.00004 14.6667 8.00004 14.6667C8.00004 14.6667 12.6667 9.5 12.6667 6C12.6667 3.42 10.58 1.33333 8.00004 1.33333ZM4.66671 6C4.66671 4.16 6.16004 2.66666 8.00004 2.66666C9.84004 2.66666 11.3334 4.16 11.3334 6C11.3334 7.92 9.41338 10.7933 8.00004 12.5867C6.61337 10.8067 4.66671 7.9 4.66671 6Z" fill="#495057"/>
<path d="M8.00004 7.66666C8.92052 7.66666 9.66671 6.92047 9.66671 5.99999C9.66671 5.07952 8.92052 4.33333 8.00004 4.33333C7.07957 4.33333 6.33337 5.07952 6.33337 5.99999C6.33337 6.92047 7.07957 7.66666 8.00004 7.66666Z" fill="#495057"/>
</g>
<defs>
<clipPath id="clip0_1_193">
<rect width="16" height="16" fill="white"/>
</clipPath>
</defs>
</svg>
