<svg width="71" height="13" viewBox="0 0 71 13" fill="none" xmlns="http://www.w3.org/2000/svg">
<path d="M70.5637 6.63199C70.5637 7.31332 70.4984 7.97132 70.3677 8.60599C70.2464 9.23132 70.0737 9.81932 69.8497 10.37C69.6351 10.9113 69.3784 11.4013 69.0797 11.84C68.7811 12.2787 68.4637 12.6427 68.1277 12.932H66.1677C66.9144 12.2507 67.5071 11.4247 67.9457 10.454C68.3844 9.48332 68.6037 8.37732 68.6037 7.13599V6.15599C68.6037 4.96132 68.3844 3.87399 67.9457 2.89399C67.5164 1.90465 66.9237 1.05999 66.1677 0.359985H68.1137C68.4684 0.667985 68.7951 1.04132 69.0937 1.47999C69.3924 1.91865 69.6491 2.40865 69.8637 2.94999C70.0784 3.48199 70.2464 4.06065 70.3677 4.68599C70.4984 5.31132 70.5637 5.95999 70.5637 6.63199Z" fill="#212529"/>
<path d="M62.0152 11.1681C61.4366 11.1681 60.9186 11.0981 60.4612 10.9581C60.0132 10.8087 59.6352 10.6081 59.3272 10.3561C59.0192 10.1041 58.7812 9.80539 58.6132 9.46006C58.4546 9.11473 58.3752 8.73673 58.3752 8.32606C58.3752 7.70073 58.5479 7.19206 58.8932 6.80006C59.2386 6.39873 59.7052 6.11873 60.2932 5.96006V5.84806C59.8172 5.67073 59.4252 5.40006 59.1172 5.03606C58.8186 4.67206 58.6692 4.20539 58.6692 3.63606C58.6692 3.26273 58.7392 2.91739 58.8792 2.60006C59.0286 2.28273 59.2432 2.01206 59.5232 1.78806C59.8126 1.55473 60.1626 1.37739 60.5732 1.25606C60.9932 1.12539 61.4739 1.06006 62.0152 1.06006C62.5566 1.06006 63.0326 1.12539 63.4432 1.25606C63.8632 1.37739 64.2132 1.55473 64.4932 1.78806C64.7826 2.01206 64.9972 2.28273 65.1372 2.60006C65.2866 2.91739 65.3612 3.26273 65.3612 3.63606C65.3612 4.20539 65.2072 4.67206 64.8992 5.03606C64.6006 5.40006 64.2132 5.67073 63.7372 5.84806V5.96006C64.3252 6.11873 64.7919 6.39873 65.1372 6.80006C65.4826 7.19206 65.6552 7.70073 65.6552 8.32606C65.6552 8.73673 65.5712 9.11473 65.4032 9.46006C65.2446 9.80539 65.0112 10.1041 64.7032 10.3561C64.3952 10.6081 64.0126 10.8087 63.5552 10.9581C63.1072 11.0981 62.5939 11.1681 62.0152 11.1681ZM62.0152 9.55806C62.4819 9.55806 62.8366 9.45073 63.0792 9.23606C63.3312 9.01206 63.4572 8.70406 63.4572 8.31206V8.03206C63.4572 7.64006 63.3312 7.33673 63.0792 7.12206C62.8366 6.89806 62.4819 6.78606 62.0152 6.78606C61.5486 6.78606 61.1892 6.89806 60.9372 7.12206C60.6946 7.33673 60.5732 7.64006 60.5732 8.03206V8.31206C60.5732 8.70406 60.6946 9.01206 60.9372 9.23606C61.1892 9.45073 61.5486 9.55806 62.0152 9.55806ZM62.0152 5.24606C62.4632 5.24606 62.8039 5.14339 63.0372 4.93806C63.2706 4.72339 63.3872 4.43406 63.3872 4.07006V3.84606C63.3872 3.48206 63.2706 3.19739 63.0372 2.99206C62.8039 2.77739 62.4632 2.67006 62.0152 2.67006C61.5672 2.67006 61.2266 2.77739 60.9932 2.99206C60.7599 3.19739 60.6432 3.48206 60.6432 3.84606V4.07006C60.6432 4.43406 60.7599 4.72339 60.9932 4.93806C61.2266 5.14339 61.5672 5.24606 62.0152 5.24606Z" fill="#212529"/>
<path d="M53.5367 11.168C52.958 11.168 52.44 11.0794 51.9827 10.902C51.5253 10.7154 51.138 10.454 50.8207 10.118C50.5127 9.77269 50.2747 9.36203 50.1067 8.88603C49.948 8.41003 49.8687 7.87803 49.8687 7.29003C49.8687 6.60869 49.9713 5.96469 50.1767 5.35803C50.3913 4.74203 50.662 4.17736 50.9887 3.66403C51.3247 3.14136 51.698 2.67469 52.1087 2.26403C52.5287 1.85336 52.9487 1.50803 53.3687 1.22803H56.2667C55.6693 1.65736 55.1327 2.06803 54.6567 2.46003C54.1807 2.84269 53.7653 3.23003 53.4107 3.62203C53.0653 4.01403 52.776 4.41536 52.5427 4.82603C52.3187 5.22736 52.16 5.66136 52.0667 6.12803L52.1926 6.17003C52.2766 5.98336 52.3747 5.80136 52.4867 5.62403C52.608 5.44669 52.7527 5.29269 52.9207 5.16203C53.098 5.02203 53.3033 4.91003 53.5367 4.82603C53.77 4.74203 54.0407 4.70003 54.3487 4.70003C54.75 4.70003 55.1233 4.77469 55.4687 4.92403C55.8233 5.06403 56.1267 5.26469 56.3787 5.52603C56.64 5.78736 56.8407 6.10936 56.9807 6.49203C57.13 6.86536 57.2047 7.28069 57.2047 7.73803C57.2047 8.24203 57.116 8.70403 56.9387 9.12403C56.7707 9.54403 56.5233 9.90803 56.1967 10.216C55.8793 10.5147 55.4967 10.748 55.0487 10.916C54.6007 11.084 54.0967 11.168 53.5367 11.168ZM53.5367 9.53003C54.0033 9.53003 54.3673 9.40403 54.6287 9.15203C54.89 8.89069 55.0207 8.52203 55.0207 8.04603V7.79403C55.0207 7.31803 54.89 6.95403 54.6287 6.70203C54.3673 6.44069 54.0033 6.31003 53.5367 6.31003C53.07 6.31003 52.706 6.44069 52.4447 6.70203C52.1833 6.95403 52.0527 7.31803 52.0527 7.79403V8.04603C52.0527 8.52203 52.1833 8.89069 52.4447 9.15203C52.706 9.40403 53.07 9.53003 53.5367 9.53003Z" fill="#212529"/>
<path d="M44.4142 5.09206C44.9369 5.09206 45.3149 4.99406 45.5482 4.79806C45.7909 4.59273 45.9122 4.34073 45.9122 4.04206V3.94406C45.9122 3.58939 45.7956 3.30473 45.5622 3.09006C45.3382 2.87539 45.0162 2.76806 44.5962 2.76806C44.2042 2.76806 43.8355 2.87073 43.4902 3.07606C43.1449 3.27206 42.8509 3.55673 42.6082 3.93006L41.2922 2.69806C41.4789 2.45539 41.6795 2.23606 41.8942 2.04006C42.1089 1.83473 42.3515 1.66206 42.6222 1.52206C42.8929 1.37273 43.1962 1.26073 43.5322 1.18606C43.8682 1.10206 44.2462 1.06006 44.6662 1.06006C45.1889 1.06006 45.6602 1.12073 46.0802 1.24206C46.5095 1.36339 46.8735 1.54073 47.1722 1.77406C47.4802 1.99806 47.7135 2.26873 47.8722 2.58606C48.0402 2.90339 48.1242 3.25806 48.1242 3.65006C48.1242 3.95806 48.0729 4.23806 47.9702 4.49006C47.8769 4.74206 47.7415 4.96139 47.5642 5.14806C47.3962 5.33473 47.2002 5.48873 46.9762 5.61006C46.7522 5.72206 46.5142 5.80139 46.2622 5.84806V5.93206C46.5515 5.98806 46.8175 6.08139 47.0602 6.21206C47.3122 6.33339 47.5269 6.49206 47.7042 6.68806C47.8909 6.88406 48.0355 7.11739 48.1382 7.38806C48.2409 7.64939 48.2922 7.94806 48.2922 8.28406C48.2922 8.72273 48.2035 9.11939 48.0262 9.47406C47.8489 9.82873 47.5969 10.1321 47.2702 10.3841C46.9436 10.6361 46.5515 10.8321 46.0942 10.9721C45.6369 11.1027 45.1329 11.1681 44.5822 11.1681C44.0875 11.1681 43.6489 11.1167 43.2662 11.0141C42.8835 10.9114 42.5476 10.7761 42.2582 10.6081C41.9782 10.4307 41.7309 10.2301 41.5162 10.0061C41.3109 9.78206 41.1289 9.54406 40.9702 9.29206L42.5242 8.08806C42.7389 8.48939 43.0002 8.82073 43.3082 9.08206C43.6255 9.33406 44.0502 9.46006 44.5822 9.46006C45.0582 9.46006 45.4269 9.34339 45.6882 9.11006C45.9589 8.86739 46.0942 8.54073 46.0942 8.13006V8.04606C46.0942 7.64473 45.9402 7.34606 45.6322 7.15006C45.3336 6.94473 44.9182 6.84206 44.3862 6.84206H43.5042V5.09206H44.4142Z" fill="#212529"/>
<path d="M36.3936 6.63199C36.3936 5.95999 36.4542 5.31132 36.5756 4.68599C36.7062 4.06065 36.8789 3.48199 37.0936 2.94999C37.3082 2.40865 37.5649 1.91865 37.8636 1.47999C38.1622 1.04132 38.4889 0.667985 38.8436 0.359985H40.7896C40.0336 1.05999 39.4362 1.90465 38.9976 2.89399C38.5682 3.87399 38.3536 4.96132 38.3536 6.15599V7.13599C38.3536 8.37732 38.5729 9.48332 39.0116 10.454C39.4502 11.4247 40.0429 12.2507 40.7896 12.932H38.8296C38.4936 12.6427 38.1762 12.2787 37.8776 11.84C37.5789 11.4013 37.3176 10.9113 37.0936 10.37C36.8789 9.81932 36.7062 9.23132 36.5756 8.60599C36.4542 7.97132 36.3936 7.31332 36.3936 6.63199Z" fill="#212529"/>
<path d="M32.1389 11.1679C31.4296 11.1679 30.8323 11.0559 30.3469 10.8319C29.8616 10.5986 29.4276 10.2719 29.0449 9.85193L30.2629 8.61993C30.5243 8.90927 30.8136 9.13793 31.1309 9.30593C31.4483 9.47393 31.8076 9.55793 32.2089 9.55793C32.6196 9.55793 32.9043 9.49727 33.0629 9.37593C33.2216 9.24527 33.3009 9.0726 33.3009 8.85793C33.3009 8.5126 33.0536 8.30727 32.5589 8.24193L31.7609 8.14393C30.1089 7.9386 29.2829 7.1826 29.2829 5.87593C29.2829 5.52127 29.3483 5.19927 29.4789 4.90993C29.6189 4.61127 29.8103 4.35927 30.0529 4.15393C30.3049 3.93927 30.6036 3.77593 30.9489 3.66393C31.3036 3.5426 31.7003 3.48193 32.1389 3.48193C32.5216 3.48193 32.8576 3.50993 33.1469 3.56593C33.4456 3.6126 33.7069 3.68727 33.9309 3.78993C34.1643 3.88327 34.3743 4.0046 34.5609 4.15393C34.7569 4.29393 34.9483 4.4526 35.1349 4.62993L33.9449 5.84793C33.7116 5.6146 33.4456 5.4326 33.1469 5.30193C32.8576 5.16193 32.5589 5.09193 32.2509 5.09193C31.8963 5.09193 31.6443 5.14793 31.4949 5.25993C31.3456 5.37193 31.2709 5.52127 31.2709 5.70793C31.2709 5.90393 31.3223 6.05793 31.4249 6.16993C31.5369 6.2726 31.7423 6.34727 32.0409 6.39393L32.8669 6.50593C34.4816 6.7206 35.2889 7.45793 35.2889 8.71793C35.2889 9.0726 35.2143 9.39927 35.0649 9.69793C34.9156 9.9966 34.7009 10.2579 34.4209 10.4819C34.1503 10.6966 33.8189 10.8646 33.4269 10.9859C33.0443 11.1073 32.6149 11.1679 32.1389 11.1679Z" fill="#212529"/>
<path d="M26.7237 11C26.005 11 25.459 10.818 25.0857 10.454C24.7217 10.09 24.5397 9.55799 24.5397 8.85799V5.25999H23.5037V3.64999H24.0217C24.3017 3.64999 24.493 3.58465 24.5957 3.45399C24.6983 3.31399 24.7497 3.11799 24.7497 2.86599V1.66199H26.6117V3.64999H28.0677V5.25999H26.6117V9.38999H27.9557V11H26.7237Z" fill="#212529"/>
<path d="M19.5542 11.1679C18.8449 11.1679 18.2475 11.0559 17.7622 10.8319C17.2769 10.5986 16.8429 10.2719 16.4602 9.85193L17.6782 8.61993C17.9395 8.90927 18.2289 9.13793 18.5462 9.30593C18.8635 9.47393 19.2229 9.55793 19.6242 9.55793C20.0349 9.55793 20.3195 9.49727 20.4782 9.37593C20.6369 9.24527 20.7162 9.0726 20.7162 8.85793C20.7162 8.5126 20.4689 8.30727 19.9742 8.24193L19.1762 8.14393C17.5242 7.9386 16.6982 7.1826 16.6982 5.87593C16.6982 5.52127 16.7635 5.19927 16.8942 4.90993C17.0342 4.61127 17.2255 4.35927 17.4682 4.15393C17.7202 3.93927 18.0189 3.77593 18.3642 3.66393C18.7189 3.5426 19.1155 3.48193 19.5542 3.48193C19.9369 3.48193 20.2729 3.50993 20.5622 3.56593C20.8609 3.6126 21.1222 3.68727 21.3462 3.78993C21.5795 3.88327 21.7895 4.0046 21.9762 4.15393C22.1722 4.29393 22.3635 4.4526 22.5502 4.62993L21.3602 5.84793C21.1269 5.6146 20.8609 5.4326 20.5622 5.30193C20.2729 5.16193 19.9742 5.09193 19.6662 5.09193C19.3115 5.09193 19.0595 5.14793 18.9102 5.25993C18.7609 5.37193 18.6862 5.52127 18.6862 5.70793C18.6862 5.90393 18.7375 6.05793 18.8402 6.16993C18.9522 6.2726 19.1575 6.34727 19.4562 6.39393L20.2822 6.50593C21.8969 6.7206 22.7042 7.45793 22.7042 8.71793C22.7042 9.0726 22.6295 9.39927 22.4802 9.69793C22.3309 9.9966 22.1162 10.2579 21.8362 10.4819C21.5655 10.6966 21.2342 10.8646 20.8422 10.9859C20.4595 11.1073 20.0302 11.1679 19.5542 11.1679Z" fill="#212529"/>
<path d="M12.0019 11.1679C11.4605 11.1679 10.9752 11.0793 10.5459 10.9019C10.1259 10.7246 9.76653 10.4679 9.46786 10.1319C9.17853 9.79593 8.95453 9.38993 8.79586 8.91393C8.63719 8.43793 8.55786 7.90593 8.55786 7.31793C8.55786 6.72993 8.63719 6.19793 8.79586 5.72193C8.95453 5.24593 9.17853 4.8446 9.46786 4.51793C9.76653 4.18193 10.1259 3.92527 10.5459 3.74793C10.9752 3.5706 11.4605 3.48193 12.0019 3.48193C12.5432 3.48193 13.0239 3.5706 13.4439 3.74793C13.8732 3.92527 14.2325 4.18193 14.5219 4.51793C14.8205 4.8446 15.0492 5.24593 15.2079 5.72193C15.3665 6.19793 15.4459 6.72993 15.4459 7.31793C15.4459 7.90593 15.3665 8.43793 15.2079 8.91393C15.0492 9.38993 14.8205 9.79593 14.5219 10.1319C14.2325 10.4679 13.8732 10.7246 13.4439 10.9019C13.0239 11.0793 12.5432 11.1679 12.0019 11.1679ZM12.0019 9.52993C12.4125 9.52993 12.7299 9.40393 12.9539 9.15193C13.1779 8.89993 13.2899 8.5406 13.2899 8.07393V6.57593C13.2899 6.10927 13.1779 5.74993 12.9539 5.49793C12.7299 5.24593 12.4125 5.11993 12.0019 5.11993C11.5912 5.11993 11.2739 5.24593 11.0499 5.49793C10.8259 5.74993 10.7139 6.10927 10.7139 6.57593V8.07393C10.7139 8.5406 10.8259 8.89993 11.0499 9.15193C11.2739 9.40393 11.5912 9.52993 12.0019 9.52993Z" fill="#212529"/>
<path d="M0.0778809 11V1.22803H4.69788C5.15521 1.22803 5.56588 1.30736 5.92988 1.46603C6.29388 1.61536 6.60188 1.82536 6.85388 2.09603C7.11521 2.36669 7.31588 2.69803 7.45588 3.09003C7.59588 3.47269 7.66588 3.89269 7.66588 4.35003C7.66588 4.81669 7.59588 5.24136 7.45588 5.62403C7.31588 6.00669 7.11521 6.33336 6.85388 6.60403C6.60188 6.87469 6.29388 7.08936 5.92988 7.24803C5.56588 7.39736 5.15521 7.47203 4.69788 7.47203H2.20588V11H0.0778809ZM2.20588 5.62403H4.44588C4.76321 5.62403 5.01055 5.54469 5.18788 5.38603C5.37455 5.21803 5.46788 4.97536 5.46788 4.65803V4.04203C5.46788 3.72469 5.37455 3.48669 5.18788 3.32803C5.01055 3.16003 4.76321 3.07603 4.44588 3.07603H2.20588V5.62403Z" fill="#212529"/>
</svg>
