<svg width="72" height="11" viewBox="0 0 72 11" fill="none" xmlns="http://www.w3.org/2000/svg">
<path d="M69.0514 10.156C68.4014 10.156 67.8554 10.0477 67.4134 9.83101C66.9714 9.60567 66.5814 9.29801 66.2434 8.90801L67.2574 7.92001C67.5087 8.20601 67.7817 8.43134 68.0764 8.59601C68.3797 8.76067 68.7264 8.84301 69.1164 8.84301C69.5151 8.84301 69.8011 8.77367 69.9744 8.63501C70.1564 8.49634 70.2474 8.30567 70.2474 8.06301C70.2474 7.86367 70.1824 7.70767 70.0524 7.59501C69.9311 7.47367 69.7187 7.39134 69.4154 7.34801L68.7394 7.25701C68.0027 7.16167 67.4394 6.95367 67.0494 6.63301C66.6681 6.30367 66.4774 5.82701 66.4774 5.20301C66.4774 4.87367 66.5381 4.57901 66.6594 4.31901C66.7807 4.05034 66.9541 3.82501 67.1794 3.64301C67.4047 3.45234 67.6734 3.30934 67.9854 3.21401C68.3061 3.11001 68.6614 3.05801 69.0514 3.05801C69.3807 3.05801 69.6711 3.08401 69.9224 3.13601C70.1824 3.17934 70.4164 3.24867 70.6244 3.34401C70.8324 3.43067 71.0231 3.54334 71.1964 3.68201C71.3697 3.81201 71.5387 3.95934 71.7034 4.12401L70.7284 5.09901C70.5291 4.89101 70.2907 4.71767 70.0134 4.57901C69.7361 4.44034 69.4327 4.37101 69.1034 4.37101C68.7394 4.37101 68.4751 4.43601 68.3104 4.56601C68.1544 4.69601 68.0764 4.86501 68.0764 5.07301C68.0764 5.29834 68.1414 5.47167 68.2714 5.59301C68.4101 5.70567 68.6397 5.78801 68.9604 5.84001L69.6494 5.93101C71.1141 6.13901 71.8464 6.80634 71.8464 7.93301C71.8464 8.26234 71.7771 8.56567 71.6384 8.84301C71.5084 9.11167 71.3221 9.34567 71.0794 9.54501C70.8367 9.73567 70.5421 9.88734 70.1954 10C69.8574 10.104 69.4761 10.156 69.0514 10.156Z" fill="#212529"/>
<path d="M62.3223 10.156C61.8196 10.156 61.3689 10.0737 60.9703 9.90901C60.5803 9.73567 60.2466 9.49734 59.9693 9.19401C59.7006 8.88201 59.4926 8.50934 59.3453 8.07601C59.1979 7.63401 59.1243 7.14001 59.1243 6.59401C59.1243 6.05667 59.1936 5.57134 59.3323 5.13801C59.4796 4.70467 59.6876 4.33634 59.9563 4.03301C60.2249 3.72101 60.5543 3.48267 60.9443 3.31801C61.3343 3.14467 61.7763 3.05801 62.2703 3.05801C62.7989 3.05801 63.2583 3.14901 63.6483 3.33101C64.0383 3.51301 64.3589 3.76001 64.6103 4.07201C64.8616 4.38401 65.0479 4.74801 65.1693 5.16401C65.2993 5.57134 65.3643 6.00901 65.3643 6.47701V7.02301H60.8533V7.19201C60.8533 7.68601 60.9919 8.08467 61.2693 8.38801C61.5466 8.68267 61.9583 8.83001 62.5043 8.83001C62.9203 8.83001 63.2583 8.74334 63.5183 8.57001C63.7869 8.39667 64.0253 8.17567 64.2333 7.90701L65.1303 8.90801C64.8529 9.29801 64.4716 9.60567 63.9863 9.83101C63.5096 10.0477 62.9549 10.156 62.3223 10.156ZM62.2963 4.30601C61.8543 4.30601 61.5033 4.45334 61.2433 4.74801C60.9833 5.04267 60.8533 5.42401 60.8533 5.89201V5.99601H63.6353V5.87901C63.6353 5.41101 63.5183 5.03401 63.2843 4.74801C63.0589 4.45334 62.7296 4.30601 62.2963 4.30601Z" fill="#212529"/>
<path d="M51.9368 10V3.21401H53.6008V4.34501H53.6658C53.8044 3.98101 54.0211 3.67767 54.3158 3.43501C54.6191 3.18367 55.0351 3.05801 55.5638 3.05801C56.2658 3.05801 56.8031 3.28767 57.1758 3.74701C57.5484 4.20634 57.7348 4.86067 57.7348 5.71001V10H56.0708V5.87901C56.0708 5.39367 55.9841 5.02967 55.8108 4.78701C55.6374 4.54434 55.3514 4.42301 54.9528 4.42301C54.7794 4.42301 54.6104 4.44901 54.4458 4.50101C54.2898 4.54434 54.1468 4.61367 54.0168 4.70901C53.8954 4.79567 53.7958 4.90834 53.7178 5.04701C53.6398 5.17701 53.6008 5.33301 53.6008 5.51501V10H51.9368Z" fill="#212529"/>
<path d="M47.3025 10.156C46.8172 10.156 46.3795 10.0737 45.9895 9.90901C45.6082 9.74434 45.2788 9.50601 45.0015 9.19401C44.7328 8.88201 44.5248 8.50934 44.3775 8.07601C44.2302 7.63401 44.1565 7.14001 44.1565 6.59401C44.1565 6.04801 44.2302 5.55834 44.3775 5.12501C44.5248 4.69167 44.7328 4.32334 45.0015 4.02001C45.2788 3.70801 45.6082 3.46967 45.9895 3.30501C46.3795 3.14034 46.8172 3.05801 47.3025 3.05801C47.7878 3.05801 48.2255 3.14034 48.6155 3.30501C49.0055 3.46967 49.3348 3.70801 49.6035 4.02001C49.8808 4.32334 50.0932 4.69167 50.2405 5.12501C50.3878 5.55834 50.4615 6.04801 50.4615 6.59401C50.4615 7.14001 50.3878 7.63401 50.2405 8.07601C50.0932 8.50934 49.8808 8.88201 49.6035 9.19401C49.3348 9.50601 49.0055 9.74434 48.6155 9.90901C48.2255 10.0737 47.7878 10.156 47.3025 10.156ZM47.3025 8.81701C47.7445 8.81701 48.0912 8.68267 48.3425 8.41401C48.5938 8.14534 48.7195 7.75101 48.7195 7.23101V5.97001C48.7195 5.45867 48.5938 5.06867 48.3425 4.80001C48.0912 4.53134 47.7445 4.39701 47.3025 4.39701C46.8692 4.39701 46.5268 4.53134 46.2755 4.80001C46.0242 5.06867 45.8985 5.45867 45.8985 5.97001V7.23101C45.8985 7.75101 46.0242 8.14534 46.2755 8.41401C46.5268 8.68267 46.8692 8.81701 47.3025 8.81701Z" fill="#212529"/>
<path d="M42.6366 0.926003V7.452C42.6366 7.85934 42.5672 8.22767 42.4286 8.557C42.2986 8.88634 42.1079 9.168 41.8566 9.402C41.6139 9.636 41.3149 9.818 40.9596 9.948C40.6042 10.078 40.2056 10.143 39.7636 10.143C38.9229 10.143 38.2686 9.92634 37.8006 9.493C37.3326 9.051 37.0336 8.466 36.9036 7.738L38.4896 7.413C38.5676 7.803 38.7062 8.10634 38.9056 8.323C39.1136 8.531 39.3952 8.635 39.7506 8.635C40.0886 8.635 40.3659 8.531 40.5826 8.323C40.8079 8.10634 40.9206 7.777 40.9206 7.335V2.33H38.0606V0.926003H42.6366Z" fill="#212529"/>
<path d="M32.298 10C31.726 10 31.3057 9.85701 31.037 9.571C30.7684 9.285 30.634 8.882 30.634 8.362V0.380005H32.298V8.674H33.195V10H32.298Z" fill="#212529"/>
<path d="M28.3644 10C28.0004 10 27.71 9.89601 27.4934 9.68801C27.2854 9.47134 27.1554 9.18534 27.1034 8.83001H27.0254C26.9127 9.27201 26.683 9.60567 26.3364 9.83101C25.9897 10.0477 25.5607 10.156 25.0494 10.156C24.356 10.156 23.823 9.97401 23.4504 9.61001C23.0777 9.24601 22.8914 8.76067 22.8914 8.15401C22.8914 7.45201 23.1427 6.93201 23.6454 6.59401C24.148 6.24734 24.863 6.07401 25.7904 6.07401H26.9474V5.58001C26.9474 5.19867 26.8477 4.90401 26.6484 4.69601C26.449 4.48801 26.1284 4.38401 25.6864 4.38401C25.2964 4.38401 24.98 4.47067 24.7374 4.64401C24.5034 4.80867 24.304 5.00801 24.1394 5.24201L23.1514 4.35801C23.4027 3.96801 23.7364 3.65601 24.1524 3.42201C24.5684 3.17934 25.1187 3.05801 25.8034 3.05801C26.722 3.05801 27.4197 3.26601 27.8964 3.68201C28.373 4.09801 28.6114 4.69601 28.6114 5.47601V8.67401H29.2874V10H28.3644ZM25.6084 8.94701C25.981 8.94701 26.2974 8.86467 26.5574 8.70001C26.8174 8.53534 26.9474 8.29267 26.9474 7.97201V7.07501H25.8814C25.0147 7.07501 24.5814 7.35234 24.5814 7.90701V8.12801C24.5814 8.40534 24.668 8.61334 24.8414 8.75201C25.0234 8.88201 25.279 8.94701 25.6084 8.94701Z" fill="#212529"/>
<path d="M15.7297 10V3.21401H17.3937V4.34501H17.4587C17.5974 3.98101 17.8141 3.67767 18.1087 3.43501C18.4121 3.18367 18.8281 3.05801 19.3567 3.05801C20.0587 3.05801 20.5961 3.28767 20.9687 3.74701C21.3414 4.20634 21.5277 4.86067 21.5277 5.71001V10H19.8637V5.87901C19.8637 5.39367 19.7771 5.02967 19.6037 4.78701C19.4304 4.54434 19.1444 4.42301 18.7457 4.42301C18.5724 4.42301 18.4034 4.44901 18.2387 4.50101C18.0827 4.54434 17.9397 4.61367 17.8097 4.70901C17.6884 4.79567 17.5887 4.90834 17.5107 5.04701C17.4327 5.17701 17.3937 5.33301 17.3937 5.51501V10H15.7297Z" fill="#212529"/>
<path d="M11.0955 10.156C10.6101 10.156 10.1725 10.0737 9.78246 9.90901C9.40113 9.74434 9.0718 9.50601 8.79446 9.19401C8.5258 8.88201 8.3178 8.50934 8.17046 8.07601C8.02313 7.63401 7.94946 7.14001 7.94946 6.59401C7.94946 6.04801 8.02313 5.55834 8.17046 5.12501C8.3178 4.69167 8.5258 4.32334 8.79446 4.02001C9.0718 3.70801 9.40113 3.46967 9.78246 3.30501C10.1725 3.14034 10.6101 3.05801 11.0955 3.05801C11.5808 3.05801 12.0185 3.14034 12.4085 3.30501C12.7985 3.46967 13.1278 3.70801 13.3965 4.02001C13.6738 4.32334 13.8861 4.69167 14.0335 5.12501C14.1808 5.55834 14.2545 6.04801 14.2545 6.59401C14.2545 7.14001 14.1808 7.63401 14.0335 8.07601C13.8861 8.50934 13.6738 8.88201 13.3965 9.19401C13.1278 9.50601 12.7985 9.74434 12.4085 9.90901C12.0185 10.0737 11.5808 10.156 11.0955 10.156ZM11.0955 8.81701C11.5375 8.81701 11.8841 8.68267 12.1355 8.41401C12.3868 8.14534 12.5125 7.75101 12.5125 7.23101V5.97001C12.5125 5.45867 12.3868 5.06867 12.1355 4.80001C11.8841 4.53134 11.5375 4.39701 11.0955 4.39701C10.6621 4.39701 10.3198 4.53134 10.0685 4.80001C9.81713 5.06867 9.69146 5.45867 9.69146 5.97001V7.23101C9.69146 7.75101 9.81713 8.14534 10.0685 8.41401C10.3198 8.68267 10.6621 8.81701 11.0955 8.81701Z" fill="#212529"/>
<path d="M1.78216 10H0.0661621V0.926003H4.16116C4.57716 0.926003 4.94983 0.991003 5.27916 1.121C5.6085 1.251 5.88583 1.44167 6.11116 1.693C6.34516 1.93567 6.52283 2.23034 6.64416 2.577C6.77416 2.92367 6.83916 3.30934 6.83916 3.734C6.83916 4.358 6.69616 4.89534 6.41016 5.346C6.13283 5.79667 5.7125 6.11734 5.14916 6.308L7.00816 10H5.09716L3.40716 6.503H1.78216V10ZM3.99216 5.06C4.3215 5.06 4.5815 4.97334 4.77216 4.8C4.96283 4.618 5.05816 4.36234 5.05816 4.033V3.435C5.05816 3.10567 4.96283 2.85434 4.77216 2.681C4.5815 2.50767 4.3215 2.421 3.99216 2.421H1.78216V5.06H3.99216Z" fill="#212529"/>
</svg>
