<svg width="69" height="11" viewBox="0 0 69 11" fill="none" xmlns="http://www.w3.org/2000/svg">
<path d="M66.913 10C66.341 10 65.9033 9.85268 65.6 9.55801C65.3053 9.25468 65.158 8.82568 65.158 8.27101V4.54001H64.157V3.21401H64.677C64.9283 3.21401 65.0973 3.15768 65.184 3.04501C65.2793 2.92368 65.327 2.74601 65.327 2.51201V1.35501H66.822V3.21401H68.213V4.54001H66.822V8.67401H68.109V10H66.913Z" fill="#212529"/>
<path d="M60.6312 10.156C59.9812 10.156 59.4352 10.0477 58.9932 9.83101C58.5512 9.60568 58.1612 9.29801 57.8232 8.90801L58.8372 7.92001C59.0886 8.20601 59.3616 8.43135 59.6562 8.59601C59.9596 8.76068 60.3062 8.84301 60.6962 8.84301C61.0949 8.84301 61.3809 8.77368 61.5542 8.63501C61.7362 8.49635 61.8272 8.30568 61.8272 8.06301C61.8272 7.86368 61.7622 7.70768 61.6322 7.59501C61.5109 7.47368 61.2986 7.39135 60.9952 7.34801L60.3192 7.25701C59.5826 7.16168 59.0192 6.95368 58.6292 6.63301C58.2479 6.30368 58.0572 5.82701 58.0572 5.20301C58.0572 4.87368 58.1179 4.57901 58.2392 4.31901C58.3606 4.05035 58.5339 3.82501 58.7592 3.64301C58.9846 3.45235 59.2532 3.30935 59.5652 3.21401C59.8859 3.11001 60.2412 3.05801 60.6312 3.05801C60.9606 3.05801 61.2509 3.08401 61.5022 3.13601C61.7622 3.17935 61.9962 3.24868 62.2042 3.34401C62.4122 3.43068 62.6029 3.54335 62.7762 3.68201C62.9496 3.81201 63.1186 3.95935 63.2832 4.12401L62.3082 5.09901C62.1089 4.89101 61.8706 4.71768 61.5932 4.57901C61.3159 4.44035 61.0126 4.37101 60.6832 4.37101C60.3192 4.37101 60.0549 4.43601 59.8902 4.56601C59.7342 4.69601 59.6562 4.86501 59.6562 5.07301C59.6562 5.29835 59.7212 5.47168 59.8512 5.59301C59.9899 5.70568 60.2196 5.78801 60.5402 5.84001L61.2292 5.93101C62.6939 6.13901 63.4262 6.80635 63.4262 7.93301C63.4262 8.26235 63.3569 8.56568 63.2182 8.84301C63.0882 9.11168 62.9019 9.34568 62.6592 9.54501C62.4166 9.73568 62.1219 9.88735 61.7752 10C61.4372 10.104 61.0559 10.156 60.6312 10.156Z" fill="#212529"/>
<path d="M53.9021 10.156C53.3994 10.156 52.9488 10.0737 52.5501 9.90901C52.1601 9.73568 51.8264 9.49735 51.5491 9.19401C51.2804 8.88201 51.0724 8.50935 50.9251 8.07601C50.7778 7.63401 50.7041 7.14001 50.7041 6.59401C50.7041 6.05668 50.7734 5.57135 50.9121 5.13801C51.0594 4.70468 51.2674 4.33635 51.5361 4.03301C51.8048 3.72101 52.1341 3.48268 52.5241 3.31801C52.9141 3.14468 53.3561 3.05801 53.8501 3.05801C54.3788 3.05801 54.8381 3.14901 55.2281 3.33101C55.6181 3.51301 55.9388 3.76001 56.1901 4.07201C56.4414 4.38401 56.6278 4.74801 56.7491 5.16401C56.8791 5.57135 56.9441 6.00901 56.9441 6.47701V7.02301H52.4331V7.19201C52.4331 7.68601 52.5718 8.08468 52.8491 8.38801C53.1264 8.68268 53.5381 8.83001 54.0841 8.83001C54.5001 8.83001 54.8381 8.74335 55.0981 8.57001C55.3668 8.39668 55.6051 8.17568 55.8131 7.90701L56.7101 8.90801C56.4328 9.29801 56.0514 9.60568 55.5661 9.83101C55.0894 10.0477 54.5348 10.156 53.9021 10.156ZM53.8761 4.30601C53.4341 4.30601 53.0831 4.45335 52.8231 4.74801C52.5631 5.04268 52.4331 5.42401 52.4331 5.89201V5.99601H55.2151V5.87901C55.2151 5.41101 55.0981 5.03401 54.8641 4.74801C54.6388 4.45335 54.3094 4.30601 53.8761 4.30601Z" fill="#212529"/>
<path d="M40.5933 10L38.4873 0.925995H40.2033L41.1003 5.281L41.6593 8.06299H41.6983L42.3483 5.281L43.3883 0.925995H45.2863L46.3263 5.281L46.9633 8.06299H47.0023L47.5743 5.281L48.4973 0.925995H50.1353L47.9643 10H46.0273L44.8703 5.203L44.3113 2.81099H44.2853L43.7003 5.203L42.5433 10H40.5933Z" fill="#212529"/>
<path d="M28.3965 0.380005H30.0605V4.345H30.1255C30.2642 3.981 30.4808 3.67767 30.7755 3.435C31.0788 3.18367 31.4948 3.058 32.0235 3.058C32.7255 3.058 33.2628 3.28767 33.6355 3.747C34.0082 4.20634 34.1945 4.86067 34.1945 5.71V10H32.5305V5.879C32.5305 5.39367 32.4438 5.02967 32.2705 4.787C32.0971 4.54434 31.8112 4.42301 31.4125 4.42301C31.2392 4.42301 31.0702 4.44901 30.9055 4.50101C30.7495 4.54434 30.6065 4.61367 30.4765 4.70901C30.3552 4.79567 30.2555 4.90834 30.1775 5.047C30.0995 5.177 30.0605 5.333 30.0605 5.515V10H28.3965V0.380005Z" fill="#212529"/>
<path d="M26.1268 10C25.7628 10 25.4725 9.89601 25.2558 9.68801C25.0478 9.47135 24.9178 9.18535 24.8658 8.83001H24.7878C24.6751 9.27201 24.4455 9.60568 24.0988 9.83101C23.7521 10.0477 23.3231 10.156 22.8118 10.156C22.1185 10.156 21.5855 9.97401 21.2128 9.61001C20.8401 9.24601 20.6538 8.76068 20.6538 8.15401C20.6538 7.45201 20.9051 6.93201 21.4078 6.59401C21.9105 6.24735 22.6255 6.07401 23.5528 6.07401H24.7098V5.58001C24.7098 5.19868 24.6101 4.90401 24.4108 4.69601C24.2115 4.48801 23.8908 4.38401 23.4488 4.38401C23.0588 4.38401 22.7425 4.47068 22.4998 4.64401C22.2658 4.80868 22.0665 5.00801 21.9018 5.24201L20.9138 4.35801C21.1651 3.96801 21.4988 3.65601 21.9148 3.42201C22.3308 3.17935 22.8811 3.05801 23.5658 3.05801C24.4845 3.05801 25.1821 3.26601 25.6588 3.68201C26.1355 4.09801 26.3738 4.69601 26.3738 5.47601V8.67401H27.0498V10H26.1268ZM23.3708 8.94701C23.7435 8.94701 24.0598 8.86468 24.3198 8.70001C24.5798 8.53535 24.7098 8.29268 24.7098 7.97201V7.07501H23.6438C22.7771 7.07501 22.3438 7.35235 22.3438 7.90701V8.12801C22.3438 8.40535 22.4305 8.61335 22.6038 8.75201C22.7858 8.88201 23.0415 8.94701 23.3708 8.94701Z" fill="#212529"/>
<path d="M16.1709 10V3.21402H17.8349V4.61802H17.8999C17.9432 4.43602 18.0082 4.26269 18.0949 4.09802C18.1902 3.92469 18.3116 3.77302 18.4589 3.64302C18.6062 3.51302 18.7796 3.40902 18.9789 3.33102C19.1869 3.25302 19.4252 3.21402 19.6939 3.21402H20.0579V4.78702H19.5379C18.9746 4.78702 18.5499 4.86935 18.2639 5.03402C17.9779 5.19869 17.8349 5.46735 17.8349 5.84002V10H16.1709Z" fill="#212529"/>
<path d="M13.9012 10C13.5372 10 13.2469 9.89601 13.0302 9.68801C12.8222 9.47135 12.6922 9.18535 12.6402 8.83001H12.5622C12.4496 9.27201 12.2199 9.60568 11.8732 9.83101C11.5266 10.0477 11.0976 10.156 10.5862 10.156C9.89289 10.156 9.35989 9.97401 8.98722 9.61001C8.61456 9.24601 8.42822 8.76068 8.42822 8.15401C8.42822 7.45201 8.67956 6.93201 9.18222 6.59401C9.68489 6.24735 10.3999 6.07401 11.3272 6.07401H12.4842V5.58001C12.4842 5.19868 12.3846 4.90401 12.1852 4.69601C11.9859 4.48801 11.6652 4.38401 11.2232 4.38401C10.8332 4.38401 10.5169 4.47068 10.2742 4.64401C10.0402 4.80868 9.84089 5.00801 9.67622 5.24201L8.68822 4.35801C8.93956 3.96801 9.27322 3.65601 9.68922 3.42201C10.1052 3.17935 10.6556 3.05801 11.3402 3.05801C12.2589 3.05801 12.9566 3.26601 13.4332 3.68201C13.9099 4.09801 14.1482 4.69601 14.1482 5.47601V8.67401H14.8242V10H13.9012ZM11.1452 8.94701C11.5179 8.94701 11.8342 8.86468 12.0942 8.70001C12.3542 8.53535 12.4842 8.29268 12.4842 7.97201V7.07501H11.4182C10.5516 7.07501 10.1182 7.35235 10.1182 7.90701V8.12801C10.1182 8.40535 10.2049 8.61335 10.3782 8.75201C10.5602 8.88201 10.8159 8.94701 11.1452 8.94701Z" fill="#212529"/>
<path d="M3.88684 10.156C3.10684 10.156 2.44384 10.0174 1.89784 9.74002C1.3605 9.46269 0.896836 9.09869 0.506836 8.64802L1.66384 7.53002C1.97584 7.89402 2.3225 8.17135 2.70384 8.36202C3.09384 8.55269 3.52284 8.64802 3.99084 8.64802C4.5195 8.64802 4.91817 8.53535 5.18684 8.31002C5.4555 8.07602 5.58984 7.76402 5.58984 7.37402C5.58984 7.07069 5.50317 6.82369 5.32984 6.63302C5.1565 6.44235 4.8315 6.30369 4.35484 6.21702L3.49684 6.08702C1.6855 5.80102 0.779836 4.92135 0.779836 3.44802C0.779836 3.04069 0.853503 2.67235 1.00084 2.34302C1.15684 2.01369 1.37784 1.73202 1.66384 1.49802C1.94984 1.26402 2.29217 1.08635 2.69084 0.965019C3.09817 0.835019 3.5575 0.77002 4.06884 0.77002C4.7535 0.77002 5.3515 0.882686 5.86284 1.10802C6.37417 1.33335 6.81184 1.66702 7.17584 2.10902L6.00584 3.21402C5.7805 2.93669 5.5075 2.71135 5.18684 2.53802C4.86617 2.36469 4.46317 2.27802 3.97784 2.27802C3.48384 2.27802 3.11117 2.37335 2.85984 2.56402C2.61717 2.74602 2.49584 3.00602 2.49584 3.34402C2.49584 3.69069 2.5955 3.94635 2.79484 4.11102C2.99417 4.27569 3.31484 4.39702 3.75684 4.47502L4.60184 4.63102C5.5205 4.79569 6.1965 5.09035 6.62984 5.51502C7.07184 5.93102 7.29284 6.51602 7.29284 7.27002C7.29284 7.70335 7.21484 8.09769 7.05884 8.45302C6.9115 8.79969 6.6905 9.10302 6.39584 9.36302C6.10984 9.61435 5.7545 9.80935 5.32984 9.94802C4.91384 10.0867 4.43284 10.156 3.88684 10.156Z" fill="#212529"/>
</svg>
