<svg width="90" height="11" viewBox="0 0 90 11" fill="none" xmlns="http://www.w3.org/2000/svg">
<path d="M88.8924 9.99998C88.5284 9.99998 88.2381 9.89598 88.0214 9.68798C87.8134 9.47132 87.6834 9.18532 87.6314 8.82998H87.5534C87.4408 9.27198 87.2111 9.60565 86.8644 9.83098C86.5178 10.0477 86.0888 10.156 85.5774 10.156C84.8841 10.156 84.3511 9.97398 83.9784 9.60998C83.6058 9.24598 83.4194 8.76065 83.4194 8.15398C83.4194 7.45198 83.6708 6.93198 84.1734 6.59398C84.6761 6.24732 85.3911 6.07398 86.3184 6.07398H87.4754V5.57998C87.4754 5.19865 87.3758 4.90398 87.1764 4.69598C86.9771 4.48798 86.6564 4.38398 86.2144 4.38398C85.8244 4.38398 85.5081 4.47065 85.2654 4.64398C85.0314 4.80865 84.8321 5.00798 84.6674 5.24198L83.6794 4.35798C83.9308 3.96798 84.2644 3.65598 84.6804 3.42198C85.0964 3.17932 85.6468 3.05798 86.3314 3.05798C87.2501 3.05798 87.9478 3.26598 88.4244 3.68198C88.9011 4.09798 89.1394 4.69598 89.1394 5.47598V8.67398H89.8154V9.99998H88.8924ZM86.1364 8.94698C86.5091 8.94698 86.8254 8.86465 87.0854 8.69998C87.3454 8.53532 87.4754 8.29265 87.4754 7.97198V7.07498H86.4094C85.5428 7.07498 85.1094 7.35232 85.1094 7.90698V8.12798C85.1094 8.40532 85.1961 8.61332 85.3694 8.75198C85.5514 8.88198 85.8071 8.94698 86.1364 8.94698Z" fill="#212529"/>
<path d="M78.9368 9.99999V3.21399H80.6008V4.61799H80.6658C80.7091 4.43599 80.7741 4.26266 80.8608 4.09799C80.9561 3.92466 81.0774 3.77299 81.2248 3.64299C81.3721 3.51299 81.5454 3.40899 81.7448 3.33099C81.9528 3.25299 82.1911 3.21399 82.4598 3.21399H82.8238V4.78699H82.3038C81.7404 4.78699 81.3158 4.86932 81.0298 5.03399C80.7438 5.19866 80.6008 5.46732 80.6008 5.83999V9.99999H78.9368Z" fill="#212529"/>
<path d="M67.3967 9.99998V3.21398H69.0607V4.34498H69.1257C69.2557 3.98965 69.4637 3.68632 69.7497 3.43498C70.0357 3.18365 70.4344 3.05798 70.9457 3.05798C71.4137 3.05798 71.8167 3.17065 72.1547 3.39598C72.4927 3.62132 72.7441 3.96365 72.9087 4.42298H72.9347C73.0561 4.04165 73.2944 3.72098 73.6497 3.46098C74.0137 3.19232 74.4687 3.05798 75.0147 3.05798C75.6821 3.05798 76.1934 3.28765 76.5487 3.74698C76.9127 4.20632 77.0947 4.86065 77.0947 5.70998V9.99998H75.4307V5.87898C75.4307 4.90832 75.0667 4.42298 74.3387 4.42298C74.1741 4.42298 74.0137 4.44898 73.8577 4.50098C73.7104 4.54432 73.5761 4.61365 73.4547 4.70898C73.3421 4.79565 73.2511 4.90832 73.1817 5.04698C73.1124 5.17698 73.0777 5.33298 73.0777 5.51498V9.99998H71.4137V5.87898C71.4137 4.90832 71.0497 4.42298 70.3217 4.42298C70.1657 4.42298 70.0097 4.44898 69.8537 4.50098C69.7064 4.54432 69.5721 4.61365 69.4507 4.70898C69.3381 4.79565 69.2427 4.90832 69.1647 5.04698C69.0954 5.17698 69.0607 5.33298 69.0607 5.51498V9.99998H67.3967Z" fill="#212529"/>
<path d="M65.1268 9.99998C64.7628 9.99998 64.4725 9.89598 64.2558 9.68798C64.0478 9.47132 63.9178 9.18532 63.8658 8.82998H63.7878C63.6751 9.27198 63.4455 9.60565 63.0988 9.83098C62.7521 10.0477 62.3231 10.156 61.8118 10.156C61.1185 10.156 60.5855 9.97398 60.2128 9.60998C59.8401 9.24598 59.6538 8.76065 59.6538 8.15398C59.6538 7.45198 59.9051 6.93198 60.4078 6.59398C60.9105 6.24732 61.6255 6.07398 62.5528 6.07398H63.7098V5.57998C63.7098 5.19865 63.6101 4.90398 63.4108 4.69598C63.2115 4.48798 62.8908 4.38398 62.4488 4.38398C62.0588 4.38398 61.7425 4.47065 61.4998 4.64398C61.2658 4.80865 61.0665 5.00798 60.9018 5.24198L59.9138 4.35798C60.1651 3.96798 60.4988 3.65598 60.9148 3.42198C61.3308 3.17932 61.8811 3.05798 62.5658 3.05798C63.4845 3.05798 64.1821 3.26598 64.6588 3.68198C65.1355 4.09798 65.3738 4.69598 65.3738 5.47598V8.67398H66.0498V9.99998H65.1268ZM62.3708 8.94698C62.7435 8.94698 63.0598 8.86465 63.3198 8.69998C63.5798 8.53532 63.7098 8.29265 63.7098 7.97198V7.07498H62.6438C61.7771 7.07498 61.3438 7.35232 61.3438 7.90698V8.12798C61.3438 8.40532 61.4305 8.61332 61.6038 8.75198C61.7858 8.88198 62.0415 8.94698 62.3708 8.94698Z" fill="#212529"/>
<path d="M54.4931 5.89203L53.2841 7.32203V10H51.5681V0.926025H53.2841V5.39803H53.3491L54.6361 3.69503L56.8851 0.926025H58.8611L55.7021 4.70903L59.1211 10H57.0801L54.4931 5.89203Z" fill="#212529"/>
<path d="M41.092 0.380005H42.756V6.17801H42.821L43.718 4.95601L45.239 3.214H47.124L44.784 5.84L47.371 10H45.395L43.653 6.958L42.756 7.933V10H41.092V0.380005Z" fill="#212529"/>
<path d="M38.8221 9.99998C38.4581 9.99998 38.1678 9.89598 37.9511 9.68798C37.7431 9.47132 37.6131 9.18532 37.5611 8.82998H37.4831C37.3705 9.27198 37.1408 9.60565 36.7941 9.83098C36.4475 10.0477 36.0185 10.156 35.5071 10.156C34.8138 10.156 34.2808 9.97398 33.9081 9.60998C33.5355 9.24598 33.3491 8.76065 33.3491 8.15398C33.3491 7.45198 33.6005 6.93198 34.1031 6.59398C34.6058 6.24732 35.3208 6.07398 36.2481 6.07398H37.4051V5.57998C37.4051 5.19865 37.3055 4.90398 37.1061 4.69598C36.9068 4.48798 36.5861 4.38398 36.1441 4.38398C35.7541 4.38398 35.4378 4.47065 35.1951 4.64398C34.9611 4.80865 34.7618 5.00798 34.5971 5.24198L33.6091 4.35798C33.8605 3.96798 34.1941 3.65598 34.6101 3.42198C35.0261 3.17932 35.5765 3.05798 36.2611 3.05798C37.1798 3.05798 37.8775 3.26598 38.3541 3.68198C38.8308 4.09798 39.0691 4.69598 39.0691 5.47598V8.67398H39.7451V9.99998H38.8221ZM36.0661 8.94698C36.4388 8.94698 36.7551 8.86465 37.0151 8.69998C37.2751 8.53532 37.4051 8.29265 37.4051 7.97198V7.07498H36.3391C35.4725 7.07498 35.0391 7.35232 35.0391 7.90698V8.12798C35.0391 8.40532 35.1258 8.61332 35.2991 8.75198C35.4811 8.88198 35.7368 8.94698 36.0661 8.94698Z" fill="#212529"/>
<path d="M26.1877 0.380005H27.8517V4.345H27.9167C28.0554 3.981 28.2721 3.67767 28.5667 3.435C28.8701 3.18367 29.2861 3.058 29.8147 3.058C30.5167 3.058 31.0541 3.28767 31.4267 3.747C31.7994 4.20634 31.9857 4.86067 31.9857 5.71V10H30.3217V5.879C30.3217 5.39367 30.2351 5.02967 30.0617 4.787C29.8884 4.54434 29.6024 4.42301 29.2037 4.42301C29.0304 4.42301 28.8614 4.44901 28.6967 4.50101C28.5407 4.54434 28.3977 4.61367 28.2677 4.70901C28.1464 4.79567 28.0467 4.90834 27.9687 5.047C27.8907 5.177 27.8517 5.333 27.8517 5.515V10H26.1877V0.380005Z" fill="#212529"/>
<path d="M23.4445 9.99998C22.8725 9.99998 22.4348 9.85265 22.1315 9.55798C21.8368 9.25465 21.6895 8.82565 21.6895 8.27098V4.53998H20.6885V3.21398H21.2085C21.4598 3.21398 21.6288 3.15765 21.7155 3.04498C21.8108 2.92365 21.8585 2.74598 21.8585 2.51198V1.35498H23.3535V3.21398H24.7445V4.53998H23.3535V8.67398H24.6405V9.99998H23.4445Z" fill="#212529"/>
<path d="M16.1711 9.99999V3.21399H17.8351V4.61799H17.9001C17.9435 4.43599 18.0085 4.26266 18.0951 4.09799C18.1905 3.92466 18.3118 3.77299 18.4591 3.64299C18.6065 3.51299 18.7798 3.40899 18.9791 3.33099C19.1871 3.25299 19.4255 3.21399 19.6941 3.21399H20.0581V4.78699H19.5381C18.9748 4.78699 18.5501 4.86932 18.2641 5.03399C17.9781 5.19866 17.8351 5.46732 17.8351 5.83999V9.99999H16.1711Z" fill="#212529"/>
<path d="M13.9015 9.99998C13.5375 9.99998 13.2471 9.89598 13.0305 9.68798C12.8225 9.47132 12.6925 9.18532 12.6405 8.82998H12.5625C12.4498 9.27198 12.2201 9.60565 11.8735 9.83098C11.5268 10.0477 11.0978 10.156 10.5865 10.156C9.89313 10.156 9.36013 9.97398 8.98747 9.60998C8.6148 9.24598 8.42847 8.76065 8.42847 8.15398C8.42847 7.45198 8.6798 6.93198 9.18247 6.59398C9.68513 6.24732 10.4001 6.07398 11.3275 6.07398H12.4845V5.57998C12.4845 5.19865 12.3848 4.90398 12.1855 4.69598C11.9861 4.48798 11.6655 4.38398 11.2235 4.38398C10.8335 4.38398 10.5171 4.47065 10.2745 4.64398C10.0405 4.80865 9.84113 5.00798 9.67647 5.24198L8.68847 4.35798C8.9398 3.96798 9.27347 3.65598 9.68947 3.42198C10.1055 3.17932 10.6558 3.05798 11.3405 3.05798C12.2591 3.05798 12.9568 3.26598 13.4335 3.68198C13.9101 4.09798 14.1485 4.69598 14.1485 5.47598V8.67398H14.8245V9.99998H13.9015ZM11.1455 8.94698C11.5181 8.94698 11.8345 8.86465 12.0945 8.69998C12.3545 8.53532 12.4845 8.29265 12.4845 7.97198V7.07498H11.4185C10.5518 7.07498 10.1185 7.35232 10.1185 7.90698V8.12798C10.1185 8.40532 10.2051 8.61332 10.3785 8.75198C10.5605 8.88198 10.8161 8.94698 11.1455 8.94698Z" fill="#212529"/>
<path d="M3.88708 10.156C3.10708 10.156 2.44408 10.0174 1.89808 9.74002C1.36075 9.46269 0.89708 9.09869 0.50708 8.64802L1.66408 7.53002C1.97608 7.89402 2.32275 8.17135 2.70408 8.36202C3.09408 8.55269 3.52308 8.64802 3.99108 8.64802C4.51975 8.64802 4.91841 8.53535 5.18708 8.31002C5.45575 8.07602 5.59008 7.76402 5.59008 7.37402C5.59008 7.07069 5.50341 6.82369 5.33008 6.63302C5.15675 6.44235 4.83175 6.30369 4.35508 6.21702L3.49708 6.08702C1.68575 5.80102 0.78008 4.92135 0.78008 3.44802C0.78008 3.04069 0.853747 2.67235 1.00108 2.34302C1.15708 2.01369 1.37808 1.73202 1.66408 1.49802C1.95008 1.26402 2.29241 1.08635 2.69108 0.965019C3.09841 0.835019 3.55775 0.77002 4.06908 0.77002C4.75375 0.77002 5.35175 0.882686 5.86308 1.10802C6.37441 1.33335 6.81208 1.66702 7.17608 2.10902L6.00608 3.21402C5.78075 2.93669 5.50775 2.71135 5.18708 2.53802C4.86641 2.36469 4.46341 2.27802 3.97808 2.27802C3.48408 2.27802 3.11141 2.37335 2.86008 2.56402C2.61741 2.74602 2.49608 3.00602 2.49608 3.34402C2.49608 3.69069 2.59575 3.94635 2.79508 4.11102C2.99441 4.27569 3.31508 4.39702 3.75708 4.47502L4.60208 4.63102C5.52075 4.79569 6.19675 5.09035 6.63008 5.51502C7.07208 5.93102 7.29308 6.51602 7.29308 7.27002C7.29308 7.70335 7.21508 8.09769 7.05908 8.45302C6.91175 8.79969 6.69075 9.10302 6.39608 9.36302C6.11008 9.61435 5.75475 9.80935 5.33008 9.94802C4.91408 10.0867 4.43308 10.156 3.88708 10.156Z" fill="#212529"/>
</svg>
