<svg width="16" height="16" viewBox="0 0 16 16" fill="none" xmlns="http://www.w3.org/2000/svg">
<g clip-path="url(#clip0_1_559)">
<path d="M3.54594 9.66899L2.989 11.7481L0.953406 11.7912C0.345063 10.6628 0 9.37186 0 7.99999C0 6.67339 0.322625 5.42239 0.8945 4.32086H0.894938L2.70719 4.65311L3.50106 6.45449C3.33491 6.93889 3.24434 7.45889 3.24434 7.99999C3.24441 8.58724 3.35078 9.14989 3.54594 9.66899Z" fill="#FBBB00"/>
<path d="M15.8602 6.50562C15.9521 6.98955 16 7.48933 16 8.00012C16 8.57287 15.9398 9.13155 15.8251 9.67046C15.4357 11.5043 14.4181 13.1056 13.0084 14.2388L13.008 14.2384L10.7253 14.1219L10.4023 12.1052C11.3377 11.5566 12.0687 10.6981 12.4537 9.67046H8.1759V6.50562H12.5161H15.8602Z" fill="#518EF8"/>
<path d="M13.0081 14.2381L13.0086 14.2385C11.6376 15.3405 9.89602 15.9999 8.00021 15.9999C4.95361 15.9999 2.30483 14.297 0.953613 11.7911L3.54614 9.66888C4.22174 11.4719 5.96108 12.7555 8.00021 12.7555C8.87668 12.7555 9.6978 12.5185 10.4024 12.1049L13.0081 14.2381Z" fill="#28B446"/>
<path d="M13.1064 1.84175L10.5148 3.9635C9.78553 3.50769 8.92353 3.24438 8.00003 3.24438C5.91475 3.24438 4.14288 4.58678 3.50113 6.4545L0.894969 4.32088H0.894531C2.22597 1.75384 4.90816 0 8.00003 0C9.94112 0 11.7209 0.691438 13.1064 1.84175Z" fill="#F14336"/>
</g>
<defs>
<clipPath id="clip0_1_559">
<rect width="16" height="16" fill="white"/>
</clipPath>
</defs>
</svg>
