<svg width="174" height="16" viewBox="0 0 174 16" fill="none" xmlns="http://www.w3.org/2000/svg">
<path d="M168.161 12V10.304H169.633V2.52803H168.161V0.832031H173.233V2.52803H171.745V10.304H173.233V12H168.161Z" fill="black"/>
<path d="M161.395 12V10.304H162.867V2.52803H161.395V0.832031H166.467V2.52803H164.979V10.304H166.467V12H161.395Z" fill="black"/>
<path d="M151.256 8.14406V6.11206H155.832V8.14406H151.256Z" fill="black"/>
<path d="M141.45 11.9999V3.64795H143.498V5.37595H143.578C143.631 5.15195 143.711 4.93862 143.818 4.73595C143.935 4.52262 144.084 4.33595 144.266 4.17595C144.447 4.01595 144.66 3.88795 144.906 3.79195C145.162 3.69595 145.455 3.64795 145.786 3.64795H146.234V5.58395H145.594C144.9 5.58395 144.378 5.68528 144.026 5.88795C143.674 6.09062 143.498 6.42128 143.498 6.87995V11.9999H141.45Z" fill="black"/>
<path d="M135.904 12.1921C135.285 12.1921 134.73 12.0907 134.24 11.8881C133.76 11.6747 133.349 11.3814 133.008 11.0081C132.677 10.6241 132.421 10.1654 132.24 9.63206C132.058 9.08806 131.968 8.48005 131.968 7.80805C131.968 7.14672 132.053 6.54939 132.224 6.01606C132.405 5.48272 132.661 5.02939 132.992 4.65606C133.322 4.27206 133.728 3.97872 134.208 3.77606C134.688 3.56272 135.232 3.45605 135.84 3.45605C136.49 3.45605 137.056 3.56805 137.536 3.79206C138.016 4.01606 138.41 4.32006 138.72 4.70405C139.029 5.08806 139.258 5.53606 139.408 6.04806C139.568 6.54939 139.648 7.08805 139.648 7.66405V8.33605H134.096V8.54405C134.096 9.15205 134.266 9.64272 134.608 10.0161C134.949 10.3787 135.456 10.5601 136.128 10.5601C136.64 10.5601 137.056 10.4534 137.376 10.2401C137.706 10.0267 138 9.75472 138.256 9.42406L139.36 10.6561C139.018 11.1361 138.549 11.5147 137.952 11.7921C137.365 12.0587 136.682 12.1921 135.904 12.1921ZM135.872 4.99205C135.328 4.99205 134.896 5.17339 134.576 5.53605C134.256 5.89872 134.096 6.36806 134.096 6.94406V7.07205H137.52V6.92805C137.52 6.35205 137.376 5.88805 137.088 5.53605C136.81 5.17339 136.405 4.99205 135.872 4.99205Z" fill="black"/>
<path d="M122.934 3.64806H124.982V5.02406H125.046C125.195 4.54406 125.478 4.16539 125.894 3.88805C126.31 3.60005 126.795 3.45605 127.35 3.45605C128.417 3.45605 129.227 3.83472 129.782 4.59205C130.347 5.33872 130.63 6.41072 130.63 7.80805C130.63 9.21605 130.347 10.2987 129.782 11.0561C129.227 11.8134 128.417 12.1921 127.35 12.1921C126.795 12.1921 126.31 12.0481 125.894 11.7601C125.489 11.4721 125.206 11.0881 125.046 10.6081H124.982V15.2001H122.934V3.64806ZM126.694 10.4961C127.227 10.4961 127.659 10.3201 127.99 9.96806C128.321 9.61606 128.486 9.14139 128.486 8.54405V7.10406C128.486 6.50672 128.321 6.03206 127.99 5.68006C127.659 5.31739 127.227 5.13605 126.694 5.13605C126.203 5.13605 125.793 5.25872 125.462 5.50406C125.142 5.74939 124.982 6.07472 124.982 6.48005V9.13605C124.982 9.57339 125.142 9.90939 125.462 10.1441C125.793 10.3787 126.203 10.4961 126.694 10.4961Z" fill="black"/>
<path d="M117.23 12.1921C116.633 12.1921 116.094 12.0907 115.614 11.8881C115.145 11.6854 114.74 11.3921 114.398 11.0081C114.068 10.6241 113.812 10.1654 113.63 9.63206C113.449 9.08806 113.358 8.48005 113.358 7.80805C113.358 7.13605 113.449 6.53339 113.63 6.00006C113.812 5.46672 114.068 5.01339 114.398 4.64005C114.74 4.25605 115.145 3.96272 115.614 3.76005C116.094 3.55739 116.633 3.45605 117.23 3.45605C117.828 3.45605 118.366 3.55739 118.846 3.76005C119.326 3.96272 119.732 4.25605 120.062 4.64005C120.404 5.01339 120.665 5.46672 120.846 6.00006C121.028 6.53339 121.118 7.13605 121.118 7.80805C121.118 8.48005 121.028 9.08806 120.846 9.63206C120.665 10.1654 120.404 10.6241 120.062 11.0081C119.732 11.3921 119.326 11.6854 118.846 11.8881C118.366 12.0907 117.828 12.1921 117.23 12.1921ZM117.23 10.5441C117.774 10.5441 118.201 10.3787 118.51 10.0481C118.82 9.71739 118.974 9.23206 118.974 8.59206V7.04006C118.974 6.41072 118.82 5.93072 118.51 5.60006C118.201 5.26939 117.774 5.10406 117.23 5.10406C116.697 5.10406 116.276 5.26939 115.966 5.60006C115.657 5.93072 115.502 6.41072 115.502 7.04006V8.59206C115.502 9.23206 115.657 9.71739 115.966 10.0481C116.276 10.3787 116.697 10.5441 117.23 10.5441Z" fill="black"/>
<path d="M111.263 12C110.559 12 110.042 11.824 109.711 11.472C109.381 11.12 109.215 10.624 109.215 9.98403V0.160034H111.263V10.368H112.367V12H111.263Z" fill="black"/>
<path d="M103.669 12.1921C103.051 12.1921 102.496 12.0907 102.005 11.8881C101.525 11.6747 101.115 11.3814 100.773 11.0081C100.443 10.6241 100.187 10.1654 100.005 9.63206C99.8241 9.08806 99.7334 8.48005 99.7334 7.80805C99.7334 7.14672 99.8187 6.54939 99.9894 6.01606C100.171 5.48272 100.427 5.02939 100.757 4.65606C101.088 4.27206 101.493 3.97872 101.973 3.77606C102.453 3.56272 102.997 3.45605 103.605 3.45605C104.256 3.45605 104.821 3.56805 105.301 3.79206C105.781 4.01606 106.176 4.32006 106.485 4.70405C106.795 5.08806 107.024 5.53606 107.173 6.04806C107.333 6.54939 107.413 7.08805 107.413 7.66405V8.33605H101.861V8.54405C101.861 9.15205 102.032 9.64272 102.373 10.0161C102.715 10.3787 103.221 10.5601 103.893 10.5601C104.405 10.5601 104.821 10.4534 105.141 10.2401C105.472 10.0267 105.765 9.75472 106.021 9.42406L107.125 10.6561C106.784 11.1361 106.315 11.5147 105.717 11.7921C105.131 12.0587 104.448 12.1921 103.669 12.1921ZM103.637 4.99205C103.093 4.99205 102.661 5.17339 102.341 5.53605C102.021 5.89872 101.861 6.36806 101.861 6.94406V7.07205H105.285V6.92805C105.285 6.35205 105.141 5.88805 104.853 5.53605C104.576 5.17339 104.171 4.99205 103.637 4.99205Z" fill="black"/>
<path d="M93.8199 11.9999L91.0359 3.64795H93.0519L94.2199 7.24795L95.0359 10.2239H95.1479L95.9639 7.24795L97.0999 3.64795H99.0519L96.2519 11.9999H93.8199Z" fill="black"/>
<path d="M86.6225 12.1921C86.0039 12.1921 85.4492 12.0907 84.9585 11.8881C84.4785 11.6747 84.0679 11.3814 83.7265 11.0081C83.3959 10.6241 83.1399 10.1654 82.9585 9.63206C82.7772 9.08806 82.6865 8.48005 82.6865 7.80805C82.6865 7.14672 82.7719 6.54939 82.9425 6.01606C83.1239 5.48272 83.3799 5.02939 83.7105 4.65606C84.0412 4.27206 84.4465 3.97872 84.9265 3.77606C85.4065 3.56272 85.9505 3.45605 86.5585 3.45605C87.2092 3.45605 87.7745 3.56805 88.2545 3.79206C88.7345 4.01606 89.1292 4.32006 89.4385 4.70405C89.7479 5.08806 89.9772 5.53606 90.1265 6.04806C90.2865 6.54939 90.3665 7.08805 90.3665 7.66405V8.33605H84.8145V8.54405C84.8145 9.15205 84.9852 9.64272 85.3265 10.0161C85.6679 10.3787 86.1745 10.5601 86.8465 10.5601C87.3585 10.5601 87.7745 10.4534 88.0945 10.2401C88.4252 10.0267 88.7185 9.75472 88.9745 9.42406L90.0785 10.6561C89.7372 11.1361 89.2679 11.5147 88.6705 11.7921C88.0839 12.0587 87.4012 12.1921 86.6225 12.1921ZM86.5905 4.99205C86.0465 4.99205 85.6145 5.17339 85.2945 5.53605C84.9745 5.89872 84.8145 6.36806 84.8145 6.94406V7.07205H88.2385V6.92805C88.2385 6.35205 88.0945 5.88805 87.8065 5.53605C87.5292 5.17339 87.1239 4.99205 86.5905 4.99205Z" fill="black"/>
<path d="M72.3433 0.832031H76.4073C77.1326 0.832031 77.7886 0.949364 78.3753 1.18403C78.9726 1.4187 79.4793 1.7707 79.8953 2.24003C80.3219 2.6987 80.6473 3.28003 80.8713 3.98403C81.1059 4.67736 81.2233 5.48803 81.2233 6.41603C81.2233 7.34403 81.1059 8.16003 80.8713 8.86403C80.6473 9.55737 80.3219 10.1387 79.8953 10.608C79.4793 11.0667 78.9726 11.4134 78.3753 11.648C77.7886 11.8827 77.1326 12 76.4073 12H72.3433V0.832031ZM76.4073 10.128C77.1966 10.128 77.8206 9.8987 78.2793 9.44003C78.7486 8.9707 78.9833 8.25603 78.9833 7.29603V5.53603C78.9833 4.57603 78.7486 3.8667 78.2793 3.40803C77.8206 2.9387 77.1966 2.70403 76.4073 2.70403H74.4553V10.128H76.4073Z" fill="black"/>
<path d="M62.8881 12.1921C62.2695 12.1921 61.7148 12.0907 61.2241 11.8881C60.7441 11.6747 60.3335 11.3814 59.9921 11.0081C59.6615 10.6241 59.4055 10.1654 59.2241 9.63206C59.0428 9.08806 58.9521 8.48005 58.9521 7.80805C58.9521 7.14672 59.0375 6.54939 59.2081 6.01606C59.3895 5.48272 59.6455 5.02939 59.9761 4.65606C60.3068 4.27206 60.7121 3.97872 61.1921 3.77606C61.6721 3.56272 62.2162 3.45605 62.8242 3.45605C63.4748 3.45605 64.0401 3.56805 64.5201 3.79206C65.0001 4.01606 65.3948 4.32006 65.7041 4.70405C66.0135 5.08806 66.2428 5.53606 66.3922 6.04806C66.5522 6.54939 66.6321 7.08805 66.6321 7.66405V8.33605H61.0801V8.54405C61.0801 9.15205 61.2508 9.64272 61.5921 10.0161C61.9335 10.3787 62.4401 10.5601 63.1121 10.5601C63.6241 10.5601 64.0401 10.4534 64.3601 10.2401C64.6908 10.0267 64.9842 9.75472 65.2402 9.42406L66.3441 10.6561C66.0028 11.1361 65.5335 11.5147 64.9361 11.7921C64.3495 12.0587 63.6668 12.1921 62.8881 12.1921ZM62.8561 4.99205C62.3121 4.99205 61.8801 5.17339 61.5601 5.53605C61.2401 5.89872 61.0801 6.36806 61.0801 6.94406V7.07205H64.5042V6.92805C64.5042 6.35205 64.3602 5.88805 64.0722 5.53605C63.7948 5.17339 63.3895 4.99205 62.8561 4.99205Z" fill="black"/>
<path d="M53.3091 11.9999V3.64795H55.3571V5.37595H55.4371C55.4904 5.15195 55.5704 4.93862 55.6771 4.73595C55.7944 4.52262 55.9438 4.33595 56.1251 4.17595C56.3064 4.01595 56.5197 3.88795 56.7651 3.79195C57.0211 3.69595 57.3144 3.64795 57.6451 3.64795H58.0931V5.58395H57.4531C56.7597 5.58395 56.2371 5.68528 55.8851 5.88795C55.5331 6.09062 55.3571 6.42128 55.3571 6.87995V11.9999H53.3091Z" fill="black"/>
<path d="M50.5155 12.0001C50.0675 12.0001 49.7102 11.8721 49.4435 11.6161C49.1875 11.3494 49.0275 10.9974 48.9635 10.5601H48.8675C48.7289 11.1041 48.4462 11.5147 48.0195 11.7921C47.5929 12.0587 47.0649 12.1921 46.4355 12.1921C45.5822 12.1921 44.9262 11.9681 44.4675 11.5201C44.0089 11.0721 43.7795 10.4747 43.7795 9.72806C43.7795 8.86406 44.0889 8.22406 44.7075 7.80805C45.3262 7.38139 46.2062 7.16805 47.3475 7.16805H48.7715V6.56005C48.7715 6.09072 48.6489 5.72806 48.4035 5.47206C48.1582 5.21606 47.7635 5.08805 47.2195 5.08805C46.7395 5.08805 46.3502 5.19472 46.0515 5.40805C45.7635 5.61072 45.5182 5.85605 45.3155 6.14405L44.0995 5.05606C44.4089 4.57605 44.8195 4.19205 45.3315 3.90405C45.8435 3.60539 46.5209 3.45605 47.3635 3.45605C48.4942 3.45605 49.3529 3.71205 49.9395 4.22405C50.5262 4.73605 50.8195 5.47205 50.8195 6.43205V10.3681H51.6515V12.0001H50.5155ZM47.1235 10.7041C47.5822 10.7041 47.9715 10.6027 48.2915 10.4001C48.6115 10.1974 48.7715 9.89872 48.7715 9.50406V8.40005H47.4595C46.3929 8.40005 45.8595 8.74139 45.8595 9.42406V9.69606C45.8595 10.0374 45.9662 10.2934 46.1795 10.4641C46.4035 10.6241 46.7182 10.7041 47.1235 10.7041Z" fill="black"/>
<path d="M30.6492 3.64795H32.6172L33.4652 7.08795L34.1212 9.95195H34.1852L34.9532 7.08795L35.9292 3.64795H37.7852L38.7932 7.08795L39.5772 9.95195H39.6412L40.2972 7.08795L41.1292 3.64795H43.0332L40.7452 11.9999H38.5372L37.4652 8.31995L36.8412 6.04795H36.7932L36.1852 8.31995L35.1292 11.9999H32.9532L30.6492 3.64795Z" fill="black"/>
<path d="M28.0888 12C27.3848 12 26.8461 11.8187 26.4728 11.456C26.1101 11.0827 25.9288 10.5547 25.9288 9.87199V5.27999H24.6968V3.64799H25.3368C25.6461 3.64799 25.8541 3.57865 25.9608 3.43999C26.0781 3.29065 26.1368 3.07199 26.1368 2.78399V1.35999H27.9768V3.64799H29.6888V5.27999H27.9768V10.368H29.5608V12H28.0888Z" fill="black"/>
<path d="M20.303 5.26403H19.071V3.64803H20.303V2.44803C20.303 1.71203 20.495 1.1467 20.879 0.752034C21.2737 0.357368 21.8497 0.160034 22.607 0.160034H24.063V1.79203H22.351V3.64803H24.063V5.26403H22.351V12H20.303V5.26403Z" fill="black"/>
<path d="M14.2773 12.1921C13.6799 12.1921 13.1413 12.0907 12.6613 11.8881C12.1919 11.6854 11.7866 11.3921 11.4453 11.0081C11.1146 10.6241 10.8586 10.1654 10.6773 9.63206C10.4959 9.08806 10.4053 8.48005 10.4053 7.80805C10.4053 7.13605 10.4959 6.53339 10.6773 6.00006C10.8586 5.46672 11.1146 5.01339 11.4453 4.64005C11.7866 4.25605 12.1919 3.96272 12.6613 3.76005C13.1413 3.55739 13.6799 3.45605 14.2773 3.45605C14.8746 3.45605 15.4133 3.55739 15.8933 3.76005C16.3733 3.96272 16.7786 4.25605 17.1093 4.64005C17.4506 5.01339 17.7119 5.46672 17.8933 6.00006C18.0746 6.53339 18.1653 7.13605 18.1653 7.80805C18.1653 8.48005 18.0746 9.08806 17.8933 9.63206C17.7119 10.1654 17.4506 10.6241 17.1093 11.0081C16.7786 11.3921 16.3733 11.6854 15.8933 11.8881C15.4133 12.0907 14.8746 12.1921 14.2773 12.1921ZM14.2773 10.5441C14.8213 10.5441 15.2479 10.3787 15.5573 10.0481C15.8666 9.71739 16.0213 9.23206 16.0213 8.59206V7.04006C16.0213 6.41072 15.8666 5.93072 15.5573 5.60006C15.2479 5.26939 14.8213 5.10406 14.2773 5.10406C13.7439 5.10406 13.3226 5.26939 13.0133 5.60006C12.7039 5.93072 12.5493 6.41072 12.5493 7.04006V8.59206C12.5493 9.23206 12.7039 9.71739 13.0133 10.0481C13.3226 10.3787 13.7439 10.5441 14.2773 10.5441Z" fill="black"/>
<path d="M4.78402 12.192C3.82402 12.192 3.00802 12.0213 2.33602 11.68C1.67469 11.3387 1.10402 10.8907 0.624023 10.336L2.04802 8.96002C2.43202 9.40802 2.85869 9.74935 3.32802 9.98402C3.80802 10.2187 4.33602 10.336 4.91202 10.336C5.56269 10.336 6.05336 10.1973 6.38402 9.92002C6.71469 9.63202 6.88002 9.24801 6.88002 8.76801C6.88002 8.39468 6.77336 8.09068 6.56002 7.85602C6.34669 7.62135 5.94669 7.45068 5.36002 7.34402L4.30402 7.18402C2.07469 6.83202 0.960023 5.74935 0.960023 3.93602C0.960023 3.43468 1.05069 2.98135 1.23202 2.57601C1.42402 2.17068 1.69602 1.82401 2.04802 1.53601C2.40002 1.24801 2.82136 1.02935 3.31202 0.880014C3.81336 0.720015 4.37869 0.640015 5.00802 0.640015C5.85069 0.640015 6.58669 0.778681 7.21602 1.05602C7.84536 1.33335 8.38402 1.74401 8.83202 2.28801L7.39202 3.64802C7.11469 3.30668 6.77869 3.02935 6.38402 2.81602C5.98936 2.60268 5.49336 2.49601 4.89602 2.49601C4.28802 2.49601 3.82936 2.61335 3.52002 2.84801C3.22136 3.07202 3.07202 3.39202 3.07202 3.80801C3.07202 4.23468 3.19469 4.54935 3.44002 4.75202C3.68536 4.95468 4.08002 5.10401 4.62402 5.20002L5.66402 5.39202C6.79469 5.59468 7.62669 5.95735 8.16002 6.48001C8.70402 6.99201 8.97602 7.71201 8.97602 8.64001C8.97602 9.17335 8.88002 9.65868 8.68802 10.096C8.50669 10.5227 8.23469 10.896 7.87202 11.216C7.52002 11.5253 7.08269 11.7653 6.56002 11.936C6.04802 12.1067 5.45602 12.192 4.78402 12.192Z" fill="black"/>
</svg>
