<svg width="261" height="58" viewBox="0 0 261 58" fill="none" xmlns="http://www.w3.org/2000/svg">
<path d="M111.104 54C110.4 54 109.862 53.8187 109.488 53.456C109.126 53.0827 108.944 52.5547 108.944 51.872V47.28H107.712V45.648H108.352C108.662 45.648 108.87 45.5787 108.976 45.44C109.094 45.2907 109.152 45.072 109.152 44.784V43.36H110.992V45.648H112.704V47.28H110.992V52.368H112.576V54H111.104Z" fill="#212529"/>
<path d="M99.0903 54V45.648H101.138V47.04H101.218C101.389 46.592 101.656 46.2187 102.018 45.92C102.392 45.6107 102.904 45.456 103.554 45.456C104.418 45.456 105.08 45.7387 105.538 46.304C105.997 46.8693 106.226 47.6747 106.226 48.72V54H104.178V48.928C104.178 48.3307 104.072 47.8827 103.858 47.584C103.645 47.2853 103.293 47.136 102.802 47.136C102.589 47.136 102.381 47.168 102.178 47.232C101.986 47.2853 101.81 47.3707 101.65 47.488C101.501 47.5947 101.378 47.7333 101.282 47.904C101.186 48.064 101.138 48.256 101.138 48.48V54H99.0903Z" fill="#212529"/>
<path d="M93.5444 54.192C92.9257 54.192 92.3711 54.0907 91.8804 53.888C91.4004 53.6747 90.9897 53.3813 90.6484 53.008C90.3177 52.624 90.0617 52.1653 89.8804 51.632C89.6991 51.088 89.6084 50.48 89.6084 49.808C89.6084 49.1467 89.6937 48.5493 89.8644 48.016C90.0457 47.4827 90.3017 47.0293 90.6324 46.656C90.9631 46.272 91.3684 45.9787 91.8484 45.776C92.3284 45.5627 92.8724 45.456 93.4804 45.456C94.1311 45.456 94.6964 45.568 95.1764 45.792C95.6564 46.016 96.0511 46.32 96.3604 46.704C96.6697 47.088 96.8991 47.536 97.0484 48.048C97.2084 48.5493 97.2884 49.088 97.2884 49.664V50.336H91.7364V50.544C91.7364 51.152 91.9071 51.6427 92.2484 52.016C92.5897 52.3787 93.0964 52.56 93.7684 52.56C94.2804 52.56 94.6964 52.4533 95.0164 52.24C95.3471 52.0267 95.6404 51.7547 95.8964 51.424L97.0004 52.656C96.6591 53.136 96.1897 53.5147 95.5924 53.792C95.0057 54.0587 94.3231 54.192 93.5444 54.192ZM93.5124 46.992C92.9684 46.992 92.5364 47.1733 92.2164 47.536C91.8964 47.8987 91.7364 48.368 91.7364 48.944V49.072H95.1604V48.928C95.1604 48.352 95.0164 47.888 94.7284 47.536C94.4511 47.1733 94.0457 46.992 93.5124 46.992Z" fill="#212529"/>
<path d="M75.9653 54V45.648H78.0133V47.04H78.0933C78.2533 46.6027 78.5093 46.2293 78.8613 45.92C79.2133 45.6107 79.704 45.456 80.3333 45.456C80.9093 45.456 81.4053 45.5947 81.8213 45.872C82.2373 46.1493 82.5467 46.5707 82.7493 47.136H82.7813C82.9307 46.6667 83.224 46.272 83.6613 45.952C84.1093 45.6213 84.6693 45.456 85.3413 45.456C86.1627 45.456 86.792 45.7387 87.2293 46.304C87.6773 46.8693 87.9013 47.6747 87.9013 48.72V54H85.8533V48.928C85.8533 47.7333 85.4053 47.136 84.5093 47.136C84.3067 47.136 84.1093 47.168 83.9173 47.232C83.736 47.2853 83.5707 47.3707 83.4213 47.488C83.2827 47.5947 83.1707 47.7333 83.0853 47.904C83 48.064 82.9573 48.256 82.9573 48.48V54H80.9093V48.928C80.9093 47.7333 80.4613 47.136 79.5653 47.136C79.3733 47.136 79.1813 47.168 78.9893 47.232C78.808 47.2853 78.6427 47.3707 78.4933 47.488C78.3547 47.5947 78.2373 47.7333 78.1413 47.904C78.056 48.064 78.0133 48.256 78.0133 48.48V54H75.9653Z" fill="#212529"/>
<path d="M66.5591 54V45.648H68.6071V47.04H68.6871C68.8577 46.592 69.1244 46.2187 69.4871 45.92C69.8604 45.6107 70.3724 45.456 71.0231 45.456C71.8871 45.456 72.5484 45.7387 73.0071 46.304C73.4658 46.8693 73.6951 47.6747 73.6951 48.72V54H71.6471V48.928C71.6471 48.3307 71.5404 47.8827 71.3271 47.584C71.1138 47.2853 70.7618 47.136 70.2711 47.136C70.0578 47.136 69.8498 47.168 69.6471 47.232C69.4551 47.2853 69.2791 47.3707 69.1191 47.488C68.9698 47.5947 68.8471 47.7333 68.7511 47.904C68.6551 48.064 68.6071 48.256 68.6071 48.48V54H66.5591Z" fill="#212529"/>
<path d="M60.2778 54V45.648H62.3258V47.376H62.4058C62.4592 47.152 62.5392 46.9387 62.6458 46.736C62.7632 46.5227 62.9125 46.336 63.0938 46.176C63.2752 46.016 63.4885 45.888 63.7338 45.792C63.9898 45.696 64.2832 45.648 64.6138 45.648H65.0618V47.584H64.4218C63.7285 47.584 63.2058 47.6853 62.8538 47.888C62.5018 48.0907 62.3258 48.4213 62.3258 48.88V54H60.2778Z" fill="#212529"/>
<path d="M54.7319 54.192C54.1132 54.192 53.5586 54.0907 53.0679 53.888C52.5879 53.6747 52.1772 53.3813 51.8359 53.008C51.5052 52.624 51.2492 52.1653 51.0679 51.632C50.8866 51.088 50.7959 50.48 50.7959 49.808C50.7959 49.1467 50.8812 48.5493 51.0519 48.016C51.2332 47.4827 51.4892 47.0293 51.8199 46.656C52.1506 46.272 52.5559 45.9787 53.0359 45.776C53.5159 45.5627 54.0599 45.456 54.6679 45.456C55.3186 45.456 55.8839 45.568 56.3639 45.792C56.8439 46.016 57.2386 46.32 57.5479 46.704C57.8572 47.088 58.0866 47.536 58.2359 48.048C58.3959 48.5493 58.4759 49.088 58.4759 49.664V50.336H52.9239V50.544C52.9239 51.152 53.0946 51.6427 53.4359 52.016C53.7772 52.3787 54.2839 52.56 54.9559 52.56C55.4679 52.56 55.8839 52.4533 56.2039 52.24C56.5346 52.0267 56.8279 51.7547 57.0839 51.424L58.1879 52.656C57.8466 53.136 57.3772 53.5147 56.7799 53.792C56.1932 54.0587 55.5106 54.192 54.7319 54.192ZM54.6999 46.992C54.1559 46.992 53.7239 47.1733 53.4039 47.536C53.0839 47.8987 52.9239 48.368 52.9239 48.944V49.072H56.3479V48.928C56.3479 48.352 56.2039 47.888 55.9159 47.536C55.6386 47.1733 55.2332 46.992 54.6999 46.992Z" fill="#212529"/>
<path d="M44.8821 54L42.0981 45.648H44.1141L45.2821 49.248L46.0981 52.224H46.2101L47.0261 49.248L48.1621 45.648H50.1141L47.3141 54H44.8821Z" fill="#212529"/>
<path d="M37.5117 54.192C36.9143 54.192 36.3756 54.0907 35.8956 53.888C35.4263 53.6853 35.021 53.392 34.6796 53.008C34.349 52.624 34.093 52.1653 33.9116 51.632C33.7303 51.088 33.6396 50.48 33.6396 49.808C33.6396 49.136 33.7303 48.5333 33.9116 48C34.093 47.4667 34.349 47.0133 34.6796 46.64C35.021 46.256 35.4263 45.9627 35.8956 45.76C36.3756 45.5573 36.9143 45.456 37.5117 45.456C38.109 45.456 38.6476 45.5573 39.1276 45.76C39.6076 45.9627 40.013 46.256 40.3436 46.64C40.685 47.0133 40.9463 47.4667 41.1276 48C41.309 48.5333 41.3997 49.136 41.3997 49.808C41.3997 50.48 41.309 51.088 41.1276 51.632C40.9463 52.1653 40.685 52.624 40.3436 53.008C40.013 53.392 39.6076 53.6853 39.1276 53.888C38.6476 54.0907 38.109 54.192 37.5117 54.192ZM37.5117 52.544C38.0557 52.544 38.4823 52.3787 38.7916 52.048C39.101 51.7173 39.2556 51.232 39.2556 50.592V49.04C39.2556 48.4107 39.101 47.9307 38.7916 47.6C38.4823 47.2693 38.0557 47.104 37.5117 47.104C36.9783 47.104 36.557 47.2693 36.2476 47.6C35.9383 47.9307 35.7836 48.4107 35.7836 49.04V50.592C35.7836 51.232 35.9383 51.7173 36.2476 52.048C36.557 52.3787 36.9783 52.544 37.5117 52.544Z" fill="#212529"/>
<path d="M30.057 52.272H29.993C29.897 52.816 29.593 53.2747 29.081 53.648C28.5797 54.0107 27.9077 54.192 27.065 54.192C26.4037 54.192 25.7904 54.0694 25.225 53.824C24.6704 53.5787 24.185 53.216 23.769 52.736C23.3637 52.2453 23.0437 51.6427 22.809 50.928C22.5744 50.2133 22.457 49.3867 22.457 48.448C22.457 47.5093 22.5744 46.6827 22.809 45.968C23.0544 45.2427 23.3957 44.6347 23.833 44.144C24.2704 43.6533 24.793 43.28 25.401 43.024C26.009 42.768 26.6864 42.64 27.433 42.64C28.4357 42.64 29.289 42.8587 29.993 43.296C30.697 43.7333 31.2517 44.3627 31.657 45.184L29.945 46.192C29.7424 45.712 29.4384 45.312 29.033 44.992C28.6384 44.672 28.105 44.512 27.433 44.512C26.601 44.512 25.9344 44.768 25.433 45.28C24.9424 45.7813 24.697 46.528 24.697 47.52V49.312C24.697 50.2933 24.9477 51.04 25.449 51.552C25.9504 52.064 26.6224 52.32 27.465 52.32C27.7957 52.32 28.105 52.2827 28.393 52.208C28.681 52.1227 28.9317 52 29.145 51.84C29.3584 51.68 29.529 51.4827 29.657 51.248C29.785 51.0133 29.849 50.736 29.849 50.416V49.696H27.657V47.92H31.881V54H30.057V52.272Z" fill="#212529"/>
<path d="M15.7572 45.648H17.6772L14.3172 55.488C14.2105 55.7867 14.0878 56.0427 13.9492 56.256C13.8212 56.48 13.6665 56.6613 13.4852 56.8C13.3038 56.9387 13.0852 57.04 12.8292 57.104C12.5732 57.168 12.2745 57.2 11.9332 57.2H10.7012V55.568H12.2052L12.5892 54.4L9.59717 45.648H11.6292L13.0852 50.064L13.6292 52.176H13.7252L14.3012 50.064L15.7572 45.648Z" fill="#212529"/>
<path d="M1.18408 42.16H3.23208V47.024H3.29608C3.44542 46.544 3.72808 46.1653 4.14408 45.888C4.56008 45.6 5.04542 45.456 5.60008 45.456C6.66675 45.456 7.47742 45.8346 8.03208 46.592C8.59742 47.3386 8.88008 48.4106 8.88008 49.808C8.88008 51.216 8.59742 52.2986 8.03208 53.056C7.47742 53.8133 6.66675 54.192 5.60008 54.192C5.04542 54.192 4.56008 54.048 4.14408 53.76C3.73875 53.472 3.45608 53.088 3.29608 52.608H3.23208V54H1.18408V42.16ZM4.94408 52.496C5.47742 52.496 5.90942 52.32 6.24008 51.968C6.57075 51.616 6.73608 51.1413 6.73608 50.544V49.104C6.73608 48.5066 6.57075 48.032 6.24008 47.68C5.90942 47.3173 5.47742 47.136 4.94408 47.136C4.45342 47.136 4.04275 47.2586 3.71208 47.504C3.39208 47.7493 3.23208 48.0746 3.23208 48.48V51.136C3.23208 51.5733 3.39208 51.9093 3.71208 52.144C4.04275 52.3786 4.45342 52.496 4.94408 52.496Z" fill="#212529"/>
<path d="M258.071 31.608H257.991C257.842 32.088 257.559 32.472 257.143 32.76C256.727 33.048 256.242 33.192 255.687 33.192C254.631 33.192 253.82 32.8133 253.255 32.056C252.7 31.2986 252.423 30.216 252.423 28.808C252.423 27.4106 252.7 26.3386 253.255 25.592C253.82 24.8346 254.631 24.456 255.687 24.456C256.242 24.456 256.727 24.6 257.143 24.888C257.559 25.1653 257.842 25.544 257.991 26.024H258.071V21.16H260.119V33H258.071V31.608ZM256.343 31.496C256.834 31.496 257.244 31.3786 257.575 31.144C257.906 30.9093 258.071 30.5733 258.071 30.136V27.48C258.071 27.0746 257.906 26.7493 257.575 26.504C257.244 26.2586 256.834 26.136 256.343 26.136C255.81 26.136 255.378 26.3173 255.047 26.68C254.727 27.032 254.567 27.5066 254.567 28.104V29.544C254.567 30.1413 254.727 30.616 255.047 30.968C255.378 31.32 255.81 31.496 256.343 31.496Z" fill="#212529"/>
<path d="M247.341 33.192C246.723 33.192 246.168 33.0907 245.677 32.888C245.197 32.6747 244.787 32.3813 244.445 32.008C244.115 31.624 243.859 31.1653 243.677 30.632C243.496 30.088 243.405 29.48 243.405 28.808C243.405 28.1467 243.491 27.5493 243.661 27.016C243.843 26.4827 244.099 26.0293 244.429 25.656C244.76 25.272 245.165 24.9787 245.645 24.776C246.125 24.5627 246.669 24.456 247.277 24.456C247.928 24.456 248.493 24.568 248.973 24.792C249.453 25.016 249.848 25.32 250.157 25.704C250.467 26.088 250.696 26.536 250.845 27.048C251.005 27.5493 251.085 28.088 251.085 28.664V29.336H245.533V29.544C245.533 30.152 245.704 30.6427 246.045 31.016C246.387 31.3787 246.893 31.56 247.565 31.56C248.077 31.56 248.493 31.4533 248.813 31.24C249.144 31.0267 249.437 30.7547 249.693 30.424L250.797 31.656C250.456 32.136 249.987 32.5147 249.389 32.792C248.803 33.0587 248.12 33.192 247.341 33.192ZM247.309 25.992C246.765 25.992 246.333 26.1733 246.013 26.536C245.693 26.8987 245.533 27.368 245.533 27.944V28.072H248.957V27.928C248.957 27.352 248.813 26.888 248.525 26.536C248.248 26.1733 247.843 25.992 247.309 25.992Z" fill="#212529"/>
<path d="M234.559 21.16H236.607V26.04H236.687C236.858 25.592 237.124 25.2186 237.487 24.92C237.86 24.6106 238.372 24.456 239.023 24.456C239.887 24.456 240.548 24.7386 241.007 25.304C241.466 25.8693 241.695 26.6746 241.695 27.72V33H239.647V27.928C239.647 27.3306 239.54 26.8826 239.327 26.584C239.114 26.2853 238.762 26.136 238.271 26.136C238.058 26.136 237.85 26.168 237.647 26.232C237.455 26.2853 237.279 26.3706 237.119 26.488C236.97 26.5946 236.847 26.7333 236.751 26.904C236.655 27.064 236.607 27.256 236.607 27.48V33H234.559V21.16Z" fill="#212529"/>
<path d="M229.652 33.192C229.033 33.192 228.484 33.0907 228.004 32.888C227.524 32.6853 227.119 32.392 226.788 32.008C226.468 31.624 226.223 31.1653 226.052 30.632C225.881 30.088 225.796 29.48 225.796 28.808C225.796 28.136 225.881 27.5333 226.052 27C226.223 26.4667 226.468 26.0133 226.788 25.64C227.119 25.256 227.524 24.9627 228.004 24.76C228.484 24.5573 229.033 24.456 229.652 24.456C230.495 24.456 231.188 24.6427 231.732 25.016C232.287 25.3893 232.687 25.9067 232.932 26.568L231.252 27.32C231.156 26.968 230.975 26.68 230.708 26.456C230.452 26.2213 230.1 26.104 229.652 26.104C229.076 26.104 228.644 26.2853 228.356 26.648C228.079 27.0107 227.94 27.4853 227.94 28.072V29.592C227.94 30.1787 228.079 30.6533 228.356 31.016C228.644 31.368 229.076 31.544 229.652 31.544C230.143 31.544 230.521 31.4213 230.788 31.176C231.055 30.92 231.263 30.6053 231.412 30.232L232.98 30.984C232.703 31.72 232.281 32.2747 231.716 32.648C231.151 33.0107 230.463 33.192 229.652 33.192Z" fill="#212529"/>
<path d="M216.95 33V24.648H218.998V26.04H219.078C219.248 25.592 219.515 25.2187 219.878 24.92C220.251 24.6107 220.763 24.456 221.414 24.456C222.278 24.456 222.939 24.7387 223.398 25.304C223.856 25.8693 224.086 26.6747 224.086 27.72V33H222.038V27.928C222.038 27.3307 221.931 26.8827 221.718 26.584C221.504 26.2853 221.152 26.136 220.662 26.136C220.448 26.136 220.24 26.168 220.038 26.232C219.846 26.2853 219.67 26.3707 219.51 26.488C219.36 26.5947 219.238 26.7333 219.142 26.904C219.046 27.064 218.998 27.256 218.998 27.48V33H216.95Z" fill="#212529"/>
<path d="M212.535 31.608H212.455C212.381 31.8213 212.279 32.024 212.151 32.216C212.034 32.3973 211.879 32.5627 211.687 32.712C211.506 32.8613 211.282 32.9787 211.015 33.064C210.759 33.1493 210.461 33.192 210.119 33.192C209.255 33.192 208.594 32.9093 208.135 32.344C207.677 31.7787 207.447 30.9733 207.447 29.928V24.648H209.495V29.72C209.495 30.296 209.607 30.7387 209.831 31.048C210.055 31.3467 210.413 31.496 210.903 31.496C211.106 31.496 211.303 31.4693 211.495 31.416C211.698 31.3627 211.874 31.2827 212.023 31.176C212.173 31.0587 212.295 30.92 212.391 30.76C212.487 30.5893 212.535 30.392 212.535 30.168V24.648H214.583V33H212.535V31.608Z" fill="#212529"/>
<path d="M204.75 33C204.302 33 203.945 32.872 203.678 32.616C203.422 32.3493 203.262 31.9973 203.198 31.56H203.102C202.963 32.104 202.681 32.5147 202.254 32.792C201.827 33.0587 201.299 33.192 200.67 33.192C199.817 33.192 199.161 32.968 198.702 32.52C198.243 32.072 198.014 31.4747 198.014 30.728C198.014 29.864 198.323 29.224 198.942 28.808C199.561 28.3813 200.441 28.168 201.582 28.168H203.006V27.56C203.006 27.0907 202.883 26.728 202.638 26.472C202.393 26.216 201.998 26.088 201.454 26.088C200.974 26.088 200.585 26.1947 200.286 26.408C199.998 26.6107 199.753 26.856 199.55 27.144L198.334 26.056C198.643 25.576 199.054 25.192 199.566 24.904C200.078 24.6053 200.755 24.456 201.598 24.456C202.729 24.456 203.587 24.712 204.174 25.224C204.761 25.736 205.054 26.472 205.054 27.432V31.368H205.886V33H204.75ZM201.358 31.704C201.817 31.704 202.206 31.6027 202.526 31.4C202.846 31.1973 203.006 30.8987 203.006 30.504V29.4H201.694C200.627 29.4 200.094 29.7413 200.094 30.424V30.696C200.094 31.0373 200.201 31.2933 200.414 31.464C200.638 31.624 200.953 31.704 201.358 31.704Z" fill="#212529"/>
<path d="M195.951 33C195.247 33 194.729 32.824 194.399 32.472C194.068 32.12 193.903 31.624 193.903 30.984V21.16H195.951V31.368H197.055V33H195.951Z" fill="#212529"/>
<path d="M184.576 33.192C183.957 33.192 183.402 33.0907 182.912 32.888C182.432 32.6747 182.021 32.3813 181.68 32.008C181.349 31.624 181.093 31.1653 180.912 30.632C180.73 30.088 180.64 29.48 180.64 28.808C180.64 28.1467 180.725 27.5493 180.896 27.016C181.077 26.4827 181.333 26.0293 181.664 25.656C181.994 25.272 182.4 24.9787 182.88 24.776C183.36 24.5627 183.904 24.456 184.512 24.456C185.162 24.456 185.728 24.568 186.208 24.792C186.688 25.016 187.082 25.32 187.392 25.704C187.701 26.088 187.93 26.536 188.08 27.048C188.24 27.5493 188.32 28.088 188.32 28.664V29.336H182.768V29.544C182.768 30.152 182.938 30.6427 183.28 31.016C183.621 31.3787 184.128 31.56 184.8 31.56C185.312 31.56 185.728 31.4533 186.048 31.24C186.378 31.0267 186.672 30.7547 186.928 30.424L188.032 31.656C187.69 32.136 187.221 32.5147 186.624 32.792C186.037 33.0587 185.354 33.192 184.576 33.192ZM184.544 25.992C184 25.992 183.568 26.1733 183.248 26.536C182.928 26.8987 182.768 27.368 182.768 27.944V28.072H186.192V27.928C186.192 27.352 186.048 26.888 185.76 26.536C185.482 26.1733 185.077 25.992 184.544 25.992Z" fill="#212529"/>
<path d="M166.997 33V24.648H169.045V26.04H169.125C169.285 25.6027 169.541 25.2293 169.893 24.92C170.245 24.6107 170.735 24.456 171.365 24.456C171.941 24.456 172.437 24.5947 172.853 24.872C173.269 25.1493 173.578 25.5707 173.781 26.136H173.813C173.962 25.6667 174.255 25.272 174.693 24.952C175.141 24.6213 175.701 24.456 176.373 24.456C177.194 24.456 177.823 24.7387 178.261 25.304C178.709 25.8693 178.933 26.6747 178.933 27.72V33H176.885V27.928C176.885 26.7333 176.437 26.136 175.541 26.136C175.338 26.136 175.141 26.168 174.949 26.232C174.767 26.2853 174.602 26.3707 174.453 26.488C174.314 26.5947 174.202 26.7333 174.117 26.904C174.031 27.064 173.989 27.256 173.989 27.48V33H171.941V27.928C171.941 26.7333 171.493 26.136 170.597 26.136C170.405 26.136 170.213 26.168 170.021 26.232C169.839 26.2853 169.674 26.3707 169.525 26.488C169.386 26.5947 169.269 26.7333 169.173 26.904C169.087 27.064 169.045 27.256 169.045 27.48V33H166.997Z" fill="#212529"/>
<path d="M161.451 33.192C160.832 33.192 160.277 33.0907 159.787 32.888C159.307 32.6747 158.896 32.3813 158.555 32.008C158.224 31.624 157.968 31.1653 157.787 30.632C157.605 30.088 157.515 29.48 157.515 28.808C157.515 28.1467 157.6 27.5493 157.771 27.016C157.952 26.4827 158.208 26.0293 158.539 25.656C158.869 25.272 159.275 24.9787 159.755 24.776C160.235 24.5627 160.779 24.456 161.387 24.456C162.037 24.456 162.603 24.568 163.083 24.792C163.563 25.016 163.957 25.32 164.267 25.704C164.576 26.088 164.805 26.536 164.955 27.048C165.115 27.5493 165.195 28.088 165.195 28.664V29.336H159.643V29.544C159.643 30.152 159.813 30.6427 160.155 31.016C160.496 31.3787 161.003 31.56 161.675 31.56C162.187 31.56 162.603 31.4533 162.923 31.24C163.253 31.0267 163.547 30.7547 163.803 30.424L164.907 31.656C164.565 32.136 164.096 32.5147 163.499 32.792C162.912 33.0587 162.229 33.192 161.451 33.192ZM161.419 25.992C160.875 25.992 160.443 26.1733 160.123 26.536C159.803 26.8987 159.643 27.368 159.643 27.944V28.072H163.067V27.928C163.067 27.352 162.923 26.888 162.635 26.536C162.357 26.1733 161.952 25.992 161.419 25.992Z" fill="#212529"/>
<path d="M148.668 21.16H150.716V26.04H150.796C150.967 25.592 151.234 25.2186 151.596 24.92C151.97 24.6106 152.482 24.456 153.132 24.456C153.996 24.456 154.658 24.7386 155.116 25.304C155.575 25.8693 155.804 26.6746 155.804 27.72V33H153.756V27.928C153.756 27.3306 153.65 26.8826 153.436 26.584C153.223 26.2853 152.871 26.136 152.38 26.136C152.167 26.136 151.959 26.168 151.756 26.232C151.564 26.2853 151.388 26.3706 151.228 26.488C151.079 26.5946 150.956 26.7333 150.86 26.904C150.764 27.064 150.716 27.256 150.716 27.48V33H148.668V21.16Z" fill="#212529"/>
<path d="M143.761 33.192C143.143 33.192 142.593 33.0907 142.113 32.888C141.633 32.6853 141.228 32.392 140.897 32.008C140.577 31.624 140.332 31.1653 140.161 30.632C139.991 30.088 139.905 29.48 139.905 28.808C139.905 28.136 139.991 27.5333 140.161 27C140.332 26.4667 140.577 26.0133 140.897 25.64C141.228 25.256 141.633 24.9627 142.113 24.76C142.593 24.5573 143.143 24.456 143.761 24.456C144.604 24.456 145.297 24.6427 145.841 25.016C146.396 25.3893 146.796 25.9067 147.041 26.568L145.361 27.32C145.265 26.968 145.084 26.68 144.817 26.456C144.561 26.2213 144.209 26.104 143.761 26.104C143.185 26.104 142.753 26.2853 142.465 26.648C142.188 27.0107 142.049 27.4853 142.049 28.072V29.592C142.049 30.1787 142.188 30.6533 142.465 31.016C142.753 31.368 143.185 31.544 143.761 31.544C144.252 31.544 144.631 31.4213 144.897 31.176C145.164 30.92 145.372 30.6053 145.521 30.232L147.089 30.984C146.812 31.72 146.391 32.2747 145.825 32.648C145.26 33.0107 144.572 33.192 143.761 33.192Z" fill="#212529"/>
<path d="M134.284 33.192C133.324 33.192 132.508 33.0213 131.836 32.68C131.175 32.3387 130.604 31.8907 130.124 31.336L131.548 29.96C131.932 30.408 132.359 30.7493 132.828 30.984C133.308 31.2187 133.836 31.336 134.412 31.336C135.063 31.336 135.553 31.1973 135.884 30.92C136.215 30.632 136.38 30.248 136.38 29.768C136.38 29.3947 136.273 29.0907 136.06 28.856C135.847 28.6213 135.447 28.4507 134.86 28.344L133.804 28.184C131.575 27.832 130.46 26.7493 130.46 24.936C130.46 24.4347 130.551 23.9813 130.732 23.576C130.924 23.1707 131.196 22.824 131.548 22.536C131.9 22.248 132.321 22.0293 132.812 21.88C133.313 21.72 133.879 21.64 134.508 21.64C135.351 21.64 136.087 21.7787 136.716 22.056C137.345 22.3333 137.884 22.744 138.332 23.288L136.892 24.648C136.615 24.3067 136.279 24.0293 135.884 23.816C135.489 23.6027 134.993 23.496 134.396 23.496C133.788 23.496 133.329 23.6133 133.02 23.848C132.721 24.072 132.572 24.392 132.572 24.808C132.572 25.2347 132.695 25.5493 132.94 25.752C133.185 25.9547 133.58 26.104 134.124 26.2L135.164 26.392C136.295 26.5947 137.127 26.9573 137.66 27.48C138.204 27.992 138.476 28.712 138.476 29.64C138.476 30.1733 138.38 30.6587 138.188 31.096C138.007 31.5227 137.735 31.896 137.372 32.216C137.02 32.5253 136.583 32.7653 136.06 32.936C135.548 33.1067 134.956 33.192 134.284 33.192Z" fill="#212529"/>
<path d="M117.497 33V24.648H119.545V26.04H119.625C119.795 25.592 120.062 25.2187 120.425 24.92C120.798 24.6107 121.31 24.456 121.961 24.456C122.825 24.456 123.486 24.7387 123.945 25.304C124.403 25.8693 124.633 26.6747 124.633 27.72V33H122.585V27.928C122.585 27.3307 122.478 26.8827 122.265 26.584C122.051 26.2853 121.699 26.136 121.209 26.136C120.995 26.136 120.787 26.168 120.585 26.232C120.393 26.2853 120.217 26.3707 120.057 26.488C119.907 26.5947 119.785 26.7333 119.689 26.904C119.593 27.064 119.545 27.256 119.545 27.48V33H117.497Z" fill="#212529"/>
<path d="M111.793 33.192C111.196 33.192 110.657 33.0907 110.177 32.888C109.708 32.6853 109.302 32.392 108.961 32.008C108.63 31.624 108.374 31.1653 108.193 30.632C108.012 30.088 107.921 29.48 107.921 28.808C107.921 28.136 108.012 27.5333 108.193 27C108.374 26.4667 108.63 26.0133 108.961 25.64C109.302 25.256 109.708 24.9627 110.177 24.76C110.657 24.5573 111.196 24.456 111.793 24.456C112.39 24.456 112.929 24.5573 113.409 24.76C113.889 24.9627 114.294 25.256 114.625 25.64C114.966 26.0133 115.228 26.4667 115.409 27C115.59 27.5333 115.681 28.136 115.681 28.808C115.681 29.48 115.59 30.088 115.409 30.632C115.228 31.1653 114.966 31.624 114.625 32.008C114.294 32.392 113.889 32.6853 113.409 32.888C112.929 33.0907 112.39 33.192 111.793 33.192ZM111.793 31.544C112.337 31.544 112.764 31.3787 113.073 31.048C113.382 30.7173 113.537 30.232 113.537 29.592V28.04C113.537 27.4107 113.382 26.9307 113.073 26.6C112.764 26.2693 112.337 26.104 111.793 26.104C111.26 26.104 110.838 26.2693 110.529 26.6C110.22 26.9307 110.065 27.4107 110.065 28.04V29.592C110.065 30.232 110.22 30.7173 110.529 31.048C110.838 31.3787 111.26 31.544 111.793 31.544Z" fill="#212529"/>
<path d="M105.083 23.432C104.656 23.432 104.347 23.336 104.155 23.144C103.974 22.952 103.883 22.7067 103.883 22.408V22.088C103.883 21.7894 103.974 21.544 104.155 21.352C104.347 21.16 104.656 21.064 105.083 21.064C105.499 21.064 105.803 21.16 105.995 21.352C106.187 21.544 106.283 21.7894 106.283 22.088V22.408C106.283 22.7067 106.187 22.952 105.995 23.144C105.803 23.336 105.499 23.432 105.083 23.432ZM104.059 24.648H106.107V33H104.059V24.648Z" fill="#212529"/>
<path d="M98.8107 33.192C98.0107 33.192 97.3387 33.0587 96.7947 32.792C96.2507 32.5147 95.7707 32.136 95.3547 31.656L96.6027 30.44C96.9121 30.792 97.2481 31.0693 97.6107 31.272C97.9841 31.4747 98.4107 31.576 98.8907 31.576C99.3814 31.576 99.7334 31.4907 99.9467 31.32C100.171 31.1493 100.283 30.9147 100.283 30.616C100.283 30.3707 100.203 30.1787 100.043 30.04C99.8934 29.8907 99.6321 29.7893 99.2587 29.736L98.4267 29.624C97.5201 29.5067 96.8267 29.2507 96.3467 28.856C95.8774 28.4507 95.6427 27.864 95.6427 27.096C95.6427 26.6907 95.7174 26.328 95.8667 26.008C96.0161 25.6773 96.2294 25.4 96.5067 25.176C96.7841 24.9413 97.1147 24.7653 97.4987 24.648C97.8934 24.52 98.3307 24.456 98.8107 24.456C99.2161 24.456 99.5734 24.488 99.8827 24.552C100.203 24.6053 100.491 24.6907 100.747 24.808C101.003 24.9147 101.237 25.0533 101.451 25.224C101.664 25.384 101.872 25.5653 102.075 25.768L100.875 26.968C100.629 26.712 100.336 26.4987 99.9947 26.328C99.6534 26.1573 99.2801 26.072 98.8747 26.072C98.4267 26.072 98.1014 26.152 97.8987 26.312C97.7067 26.472 97.6107 26.68 97.6107 26.936C97.6107 27.2133 97.6907 27.4267 97.8507 27.576C98.0214 27.7147 98.3041 27.816 98.6987 27.88L99.5467 27.992C101.349 28.248 102.251 29.0693 102.251 30.456C102.251 30.8613 102.165 31.2347 101.995 31.576C101.835 31.9067 101.605 32.1947 101.307 32.44C101.008 32.6747 100.645 32.8613 100.219 33C99.8027 33.128 99.3334 33.192 98.8107 33.192Z" fill="#212529"/>
<path d="M86.6685 33V24.648H88.7165V26.04H88.7965C88.9671 25.592 89.2338 25.2187 89.5965 24.92C89.9698 24.6107 90.4818 24.456 91.1325 24.456C91.9965 24.456 92.6578 24.7387 93.1165 25.304C93.5751 25.8693 93.8045 26.6747 93.8045 27.72V33H91.7565V27.928C91.7565 27.3307 91.6498 26.8827 91.4365 26.584C91.2231 26.2853 90.8711 26.136 90.3805 26.136C90.1671 26.136 89.9591 26.168 89.7565 26.232C89.5645 26.2853 89.3885 26.3707 89.2285 26.488C89.0791 26.5947 88.9565 26.7333 88.8605 26.904C88.7645 27.064 88.7165 27.256 88.7165 27.48V33H86.6685Z" fill="#212529"/>
<path d="M81.1225 33.192C80.5039 33.192 79.9492 33.0907 79.4585 32.888C78.9785 32.6747 78.5679 32.3813 78.2265 32.008C77.8959 31.624 77.6399 31.1653 77.4585 30.632C77.2772 30.088 77.1865 29.48 77.1865 28.808C77.1865 28.1467 77.2719 27.5493 77.4425 27.016C77.6239 26.4827 77.8799 26.0293 78.2105 25.656C78.5412 25.272 78.9465 24.9787 79.4265 24.776C79.9065 24.5627 80.4505 24.456 81.0585 24.456C81.7092 24.456 82.2745 24.568 82.7545 24.792C83.2345 25.016 83.6292 25.32 83.9385 25.704C84.2479 26.088 84.4772 26.536 84.6265 27.048C84.7865 27.5493 84.8665 28.088 84.8665 28.664V29.336H79.3145V29.544C79.3145 30.152 79.4852 30.6427 79.8265 31.016C80.1679 31.3787 80.6745 31.56 81.3465 31.56C81.8585 31.56 82.2745 31.4533 82.5945 31.24C82.9252 31.0267 83.2185 30.7547 83.4745 30.424L84.5785 31.656C84.2372 32.136 83.7679 32.5147 83.1705 32.792C82.5839 33.0587 81.9012 33.192 81.1225 33.192ZM81.0905 25.992C80.5465 25.992 80.1145 26.1733 79.7945 26.536C79.4745 26.8987 79.3145 27.368 79.3145 27.944V28.072H82.7385V27.928C82.7385 27.352 82.5945 26.888 82.3065 26.536C82.0292 26.1733 81.6239 25.992 81.0905 25.992Z" fill="#212529"/>
<path d="M67.937 33V21.832H72.961C73.473 21.832 73.9317 21.9174 74.337 22.088C74.753 22.248 75.105 22.4827 75.393 22.792C75.681 23.0907 75.8997 23.4534 76.049 23.88C76.1984 24.3067 76.273 24.776 76.273 25.288C76.273 25.8107 76.1984 26.2854 76.049 26.712C75.8997 27.128 75.681 27.4907 75.393 27.8C75.105 28.0987 74.753 28.3334 74.337 28.504C73.9317 28.664 73.473 28.744 72.961 28.744H70.049V33H67.937ZM70.049 26.92H72.769C73.1743 26.92 73.4944 26.8134 73.729 26.6C73.9637 26.376 74.081 26.0614 74.081 25.656V24.92C74.081 24.5147 73.9637 24.2054 73.729 23.992C73.4944 23.7787 73.1743 23.672 72.769 23.672H70.049V26.92Z" fill="#212529"/>
<path d="M61.3727 33C60.6687 33 60.1514 32.824 59.8207 32.472C59.49 32.12 59.3247 31.624 59.3247 30.984V21.16H61.3727V31.368H62.4767V33H61.3727Z" fill="#212529"/>
<path d="M56.5312 33C56.0832 33 55.7258 32.872 55.4592 32.616C55.2032 32.3493 55.0432 31.9973 54.9792 31.56H54.8832C54.7445 32.104 54.4618 32.5147 54.0352 32.792C53.6085 33.0587 53.0805 33.192 52.4512 33.192C51.5978 33.192 50.9418 32.968 50.4832 32.52C50.0245 32.072 49.7952 31.4747 49.7952 30.728C49.7952 29.864 50.1045 29.224 50.7232 28.808C51.3418 28.3813 52.2218 28.168 53.3632 28.168H54.7872V27.56C54.7872 27.0907 54.6645 26.728 54.4192 26.472C54.1738 26.216 53.7792 26.088 53.2352 26.088C52.7552 26.088 52.3658 26.1947 52.0672 26.408C51.7792 26.6107 51.5338 26.856 51.3312 27.144L50.1152 26.056C50.4245 25.576 50.8352 25.192 51.3472 24.904C51.8592 24.6053 52.5365 24.456 53.3792 24.456C54.5098 24.456 55.3685 24.712 55.9552 25.224C56.5418 25.736 56.8352 26.472 56.8352 27.432V31.368H57.6672V33H56.5312ZM53.1392 31.704C53.5978 31.704 53.9872 31.6027 54.3072 31.4C54.6272 31.1973 54.7872 30.8987 54.7872 30.504V29.4H53.4752C52.4085 29.4 51.8752 29.7413 51.8752 30.424V30.696C51.8752 31.0373 51.9818 31.2933 52.1952 31.464C52.4192 31.624 52.7338 31.704 53.1392 31.704Z" fill="#212529"/>
<path d="M40.981 33V24.648H43.029V26.04H43.109C43.2796 25.592 43.5463 25.2187 43.909 24.92C44.2823 24.6107 44.7943 24.456 45.445 24.456C46.309 24.456 46.9703 24.7387 47.429 25.304C47.8876 25.8693 48.117 26.6747 48.117 27.72V33H46.069V27.928C46.069 27.3307 45.9623 26.8827 45.749 26.584C45.5356 26.2853 45.1836 26.136 44.693 26.136C44.4796 26.136 44.2716 26.168 44.069 26.232C43.877 26.2853 43.701 26.3707 43.541 26.488C43.3916 26.5947 43.269 26.7333 43.173 26.904C43.077 27.064 43.029 27.256 43.029 27.48V33H40.981Z" fill="#212529"/>
<path d="M35.2773 33.192C34.6799 33.192 34.1413 33.0907 33.6613 32.888C33.1919 32.6853 32.7866 32.392 32.4453 32.008C32.1146 31.624 31.8586 31.1653 31.6773 30.632C31.4959 30.088 31.4053 29.48 31.4053 28.808C31.4053 28.136 31.4959 27.5333 31.6773 27C31.8586 26.4667 32.1146 26.0133 32.4453 25.64C32.7866 25.256 33.1919 24.9627 33.6613 24.76C34.1413 24.5573 34.6799 24.456 35.2773 24.456C35.8746 24.456 36.4133 24.5573 36.8933 24.76C37.3733 24.9627 37.7786 25.256 38.1093 25.64C38.4506 26.0133 38.7119 26.4667 38.8933 27C39.0746 27.5333 39.1653 28.136 39.1653 28.808C39.1653 29.48 39.0746 30.088 38.8933 30.632C38.7119 31.1653 38.4506 31.624 38.1093 32.008C37.7786 32.392 37.3733 32.6853 36.8933 32.888C36.4133 33.0907 35.8746 33.192 35.2773 33.192ZM35.2773 31.544C35.8213 31.544 36.2479 31.3787 36.5573 31.048C36.8666 30.7173 37.0213 30.232 37.0213 29.592V28.04C37.0213 27.4107 36.8666 26.9307 36.5573 26.6C36.2479 26.2693 35.8213 26.104 35.2773 26.104C34.7439 26.104 34.3226 26.2693 34.0133 26.6C33.7039 26.9307 33.5493 27.4107 33.5493 28.04V29.592C33.5493 30.232 33.7039 30.7173 34.0133 31.048C34.3226 31.3787 34.7439 31.544 35.2773 31.544Z" fill="#212529"/>
<path d="M28.5674 23.432C28.1408 23.432 27.8314 23.336 27.6394 23.144C27.4581 22.952 27.3674 22.7067 27.3674 22.408V22.088C27.3674 21.7894 27.4581 21.544 27.6394 21.352C27.8314 21.16 28.1408 21.064 28.5674 21.064C28.9834 21.064 29.2874 21.16 29.4794 21.352C29.6714 21.544 29.7674 21.7894 29.7674 22.088V22.408C29.7674 22.7067 29.6714 22.952 29.4794 23.144C29.2874 23.336 28.9834 23.432 28.5674 23.432ZM27.5434 24.648H29.5914V33H27.5434V24.648Z" fill="#212529"/>
<path d="M24.1669 33C23.4629 33 22.9242 32.8187 22.5509 32.456C22.1882 32.0827 22.0069 31.5547 22.0069 30.872V26.28H20.7749V24.648H21.4149C21.7242 24.648 21.9322 24.5787 22.0389 24.44C22.1562 24.2907 22.2149 24.072 22.2149 23.784V22.36H24.0549V24.648H25.7669V26.28H24.0549V31.368H25.6389V33H24.1669Z" fill="#212529"/>
<path d="M18.828 33C18.38 33 18.0227 32.872 17.756 32.616C17.5 32.3493 17.34 31.9973 17.276 31.56H17.18C17.0414 32.104 16.7587 32.5147 16.332 32.792C15.9054 33.0587 15.3774 33.192 14.748 33.192C13.8947 33.192 13.2387 32.968 12.78 32.52C12.3214 32.072 12.092 31.4747 12.092 30.728C12.092 29.864 12.4014 29.224 13.02 28.808C13.6387 28.3813 14.5187 28.168 15.66 28.168H17.084V27.56C17.084 27.0907 16.9614 26.728 16.716 26.472C16.4707 26.216 16.076 26.088 15.532 26.088C15.052 26.088 14.6627 26.1947 14.364 26.408C14.076 26.6107 13.8307 26.856 13.628 27.144L12.412 26.056C12.7214 25.576 13.132 25.192 13.644 24.904C14.156 24.6053 14.8334 24.456 15.676 24.456C16.8067 24.456 17.6654 24.712 18.252 25.224C18.8387 25.736 19.132 26.472 19.132 27.432V31.368H19.964V33H18.828ZM15.436 31.704C15.8947 31.704 16.284 31.6027 16.604 31.4C16.924 31.1973 17.084 30.8987 17.084 30.504V29.4H15.772C14.7054 29.4 14.172 29.7413 14.172 30.424V30.696C14.172 31.0373 14.2787 31.2933 14.492 31.464C14.716 31.624 15.0307 31.704 15.436 31.704Z" fill="#212529"/>
<path d="M4.51201 27.272L3.36001 24.952H3.31201V33H1.31201V21.832H3.63201L6.99201 27.56L8.14401 29.88H8.19201V21.832H10.192V33H7.87201L4.51201 27.272Z" fill="#212529"/>
<path d="M247.668 12V3.64801H249.716V5.37601H249.796C249.85 5.15201 249.93 4.93868 250.036 4.73601C250.154 4.52268 250.303 4.33601 250.484 4.17601C250.666 4.01601 250.879 3.88801 251.124 3.79201C251.38 3.69601 251.674 3.64801 252.004 3.64801H252.452V5.58401H251.812C251.119 5.58401 250.596 5.68534 250.244 5.88801C249.892 6.09068 249.716 6.42134 249.716 6.88001V12H247.668Z" fill="#212529"/>
<path d="M242.123 12.192C241.504 12.192 240.949 12.0907 240.459 11.888C239.979 11.6747 239.568 11.3813 239.227 11.008C238.896 10.624 238.64 10.1653 238.459 9.63199C238.277 9.08799 238.187 8.47999 238.187 7.80799C238.187 7.14666 238.272 6.54933 238.443 6.01599C238.624 5.48266 238.88 5.02933 239.211 4.65599C239.541 4.27199 239.947 3.97866 240.427 3.77599C240.907 3.56266 241.451 3.45599 242.059 3.45599C242.709 3.45599 243.275 3.56799 243.755 3.79199C244.235 4.01599 244.629 4.31999 244.939 4.70399C245.248 5.08799 245.477 5.53599 245.627 6.04799C245.787 6.54933 245.867 7.08799 245.867 7.66399V8.33599H240.315V8.54399C240.315 9.15199 240.485 9.64266 240.827 10.016C241.168 10.3787 241.675 10.56 242.347 10.56C242.859 10.56 243.275 10.4533 243.595 10.24C243.925 10.0267 244.219 9.75466 244.475 9.42399L245.579 10.656C245.237 11.136 244.768 11.5147 244.171 11.792C243.584 12.0587 242.901 12.192 242.123 12.192ZM242.091 4.99199C241.547 4.99199 241.115 5.17333 240.795 5.53599C240.475 5.89866 240.315 6.36799 240.315 6.94399V7.07199H243.739V6.92799C243.739 6.35199 243.595 5.88799 243.307 5.53599C243.029 5.17333 242.624 4.99199 242.091 4.99199Z" fill="#212529"/>
<path d="M234.337 10.608H234.257C234.107 11.088 233.825 11.472 233.409 11.76C232.993 12.048 232.507 12.192 231.953 12.192C230.897 12.192 230.086 11.8133 229.521 11.056C228.966 10.2986 228.689 9.21597 228.689 7.80797C228.689 6.41064 228.966 5.33864 229.521 4.59197C230.086 3.83464 230.897 3.45597 231.953 3.45597C232.507 3.45597 232.993 3.59997 233.409 3.88797C233.825 4.16531 234.107 4.54397 234.257 5.02397H234.337V0.159973H236.385V12H234.337V10.608ZM232.609 10.496C233.099 10.496 233.51 10.3786 233.841 10.144C234.171 9.90931 234.337 9.57331 234.337 9.13597V6.47997C234.337 6.07464 234.171 5.74931 233.841 5.50397C233.51 5.25864 233.099 5.13597 232.609 5.13597C232.075 5.13597 231.643 5.31731 231.313 5.67997C230.993 6.03197 230.833 6.50664 230.833 7.10397V8.54397C230.833 9.14131 230.993 9.61597 231.313 9.96797C231.643 10.32 232.075 10.496 232.609 10.496Z" fill="#212529"/>
<path d="M219.747 12V3.64799H221.795V5.03999H221.875C222.045 4.59199 222.312 4.21866 222.675 3.91999C223.048 3.61066 223.56 3.45599 224.211 3.45599C225.075 3.45599 225.736 3.73866 226.195 4.30399C226.653 4.86933 226.883 5.67466 226.883 6.71999V12H224.835V6.92799C224.835 6.33066 224.728 5.88266 224.515 5.58399C224.301 5.28533 223.949 5.13599 223.459 5.13599C223.245 5.13599 223.037 5.16799 222.835 5.23199C222.643 5.28533 222.467 5.37066 222.307 5.48799C222.157 5.59466 222.035 5.73333 221.939 5.90399C221.843 6.06399 221.795 6.25599 221.795 6.47999V12H219.747Z" fill="#212529"/>
<path d="M215.332 10.608H215.252C215.177 10.8213 215.076 11.024 214.948 11.216C214.831 11.3973 214.676 11.5627 214.484 11.712C214.303 11.8613 214.079 11.9787 213.812 12.064C213.556 12.1493 213.257 12.192 212.916 12.192C212.052 12.192 211.391 11.9093 210.932 11.344C210.473 10.7787 210.244 9.97334 210.244 8.92801V3.64801H212.292V8.72001C212.292 9.29601 212.404 9.73868 212.628 10.048C212.852 10.3467 213.209 10.496 213.7 10.496C213.903 10.496 214.1 10.4693 214.292 10.416C214.495 10.3627 214.671 10.2827 214.82 10.176C214.969 10.0587 215.092 9.92001 215.188 9.76001C215.284 9.58934 215.332 9.39201 215.332 9.16801V3.64801H217.38V12H215.332V10.608Z" fill="#212529"/>
<path d="M203.183 12C202.479 12 201.94 11.8187 201.567 11.456C201.204 11.0827 201.023 10.5547 201.023 9.87199V5.27999H199.791V3.64799H200.431C200.74 3.64799 200.948 3.57865 201.055 3.43999C201.172 3.29065 201.231 3.07199 201.231 2.78399V1.35999H203.071V3.64799H204.783V5.27999H203.071V10.368H204.655V12H203.183Z" fill="#212529"/>
<path d="M191.168 12V3.64799H193.216V5.03999H193.296C193.467 4.59199 193.734 4.21866 194.096 3.91999C194.47 3.61066 194.982 3.45599 195.632 3.45599C196.496 3.45599 197.158 3.73866 197.616 4.30399C198.075 4.86933 198.304 5.67466 198.304 6.71999V12H196.256V6.92799C196.256 6.33066 196.15 5.88266 195.936 5.58399C195.723 5.28533 195.371 5.13599 194.88 5.13599C194.667 5.13599 194.459 5.16799 194.256 5.23199C194.064 5.28533 193.888 5.37066 193.728 5.48799C193.579 5.59466 193.456 5.73333 193.36 5.90399C193.264 6.06399 193.216 6.25599 193.216 6.47999V12H191.168Z" fill="#212529"/>
<path d="M185.623 12.192C185.004 12.192 184.449 12.0907 183.959 11.888C183.479 11.6747 183.068 11.3813 182.727 11.008C182.396 10.624 182.14 10.1653 181.959 9.63199C181.777 9.08799 181.687 8.47999 181.687 7.80799C181.687 7.14666 181.772 6.54933 181.943 6.01599C182.124 5.48266 182.38 5.02933 182.711 4.65599C183.041 4.27199 183.447 3.97866 183.927 3.77599C184.407 3.56266 184.951 3.45599 185.559 3.45599C186.209 3.45599 186.775 3.56799 187.255 3.79199C187.735 4.01599 188.129 4.31999 188.439 4.70399C188.748 5.08799 188.977 5.53599 189.127 6.04799C189.287 6.54933 189.367 7.08799 189.367 7.66399V8.33599H183.815V8.54399C183.815 9.15199 183.985 9.64266 184.327 10.016C184.668 10.3787 185.175 10.56 185.847 10.56C186.359 10.56 186.775 10.4533 187.095 10.24C187.425 10.0267 187.719 9.75466 187.975 9.42399L189.079 10.656C188.737 11.136 188.268 11.5147 187.671 11.792C187.084 12.0587 186.401 12.192 185.623 12.192ZM185.591 4.99199C185.047 4.99199 184.615 5.17333 184.295 5.53599C183.975 5.89866 183.815 6.36799 183.815 6.94399V7.07199H187.239V6.92799C187.239 6.35199 187.095 5.88799 186.807 5.53599C186.529 5.17333 186.124 4.99199 185.591 4.99199Z" fill="#212529"/>
<path d="M168.043 12V3.64799H170.091V5.03999H170.171C170.331 4.60266 170.587 4.22933 170.939 3.91999C171.291 3.61066 171.782 3.45599 172.411 3.45599C172.987 3.45599 173.483 3.59466 173.899 3.87199C174.315 4.14933 174.625 4.57066 174.827 5.13599H174.859C175.009 4.66666 175.302 4.27199 175.739 3.95199C176.187 3.62133 176.747 3.45599 177.419 3.45599C178.241 3.45599 178.87 3.73866 179.307 4.30399C179.755 4.86933 179.979 5.67466 179.979 6.71999V12H177.931V6.92799C177.931 5.73333 177.483 5.13599 176.587 5.13599C176.385 5.13599 176.187 5.16799 175.995 5.23199C175.814 5.28533 175.649 5.37066 175.499 5.48799C175.361 5.59466 175.249 5.73333 175.163 5.90399C175.078 6.06399 175.035 6.25599 175.035 6.47999V12H172.987V6.92799C172.987 5.73333 172.539 5.13599 171.643 5.13599C171.451 5.13599 171.259 5.16799 171.067 5.23199C170.886 5.28533 170.721 5.37066 170.571 5.48799C170.433 5.59466 170.315 5.73333 170.219 5.90399C170.134 6.06399 170.091 6.25599 170.091 6.47999V12H168.043Z" fill="#212529"/>
<path d="M164.667 12C163.963 12 163.424 11.8187 163.051 11.456C162.688 11.0827 162.507 10.5547 162.507 9.87199V5.27999H161.275V3.64799H161.915C162.224 3.64799 162.432 3.57865 162.539 3.43999C162.656 3.29065 162.715 3.07199 162.715 2.78399V1.35999H164.555V3.64799H166.267V5.27999H164.555V10.368H166.139V12H164.667Z" fill="#212529"/>
<path d="M156.936 12.192C156.136 12.192 155.464 12.0587 154.92 11.792C154.376 11.5147 153.896 11.136 153.48 10.656L154.728 9.43999C155.037 9.79199 155.373 10.0693 155.736 10.272C156.109 10.4747 156.536 10.576 157.016 10.576C157.506 10.576 157.858 10.4907 158.072 10.32C158.296 10.1493 158.408 9.91466 158.408 9.61599C158.408 9.37066 158.328 9.17866 158.168 9.03999C158.018 8.89066 157.757 8.78933 157.384 8.73599L156.552 8.62399C155.645 8.50666 154.952 8.25066 154.472 7.85599C154.002 7.45066 153.768 6.86399 153.768 6.09599C153.768 5.69066 153.842 5.32799 153.992 5.00799C154.141 4.67733 154.354 4.39999 154.632 4.17599C154.909 3.94133 155.24 3.76533 155.624 3.64799C156.018 3.51999 156.456 3.45599 156.936 3.45599C157.341 3.45599 157.698 3.48799 158.008 3.55199C158.328 3.60533 158.616 3.69066 158.872 3.80799C159.128 3.91466 159.362 4.05333 159.576 4.22399C159.789 4.38399 159.997 4.56533 160.2 4.76799L159 5.96799C158.754 5.71199 158.461 5.49866 158.12 5.32799C157.778 5.15733 157.405 5.07199 157 5.07199C156.552 5.07199 156.226 5.15199 156.024 5.31199C155.832 5.47199 155.736 5.67999 155.736 5.93599C155.736 6.21333 155.816 6.42666 155.976 6.57599C156.146 6.71466 156.429 6.81599 156.824 6.87999L157.672 6.99199C159.474 7.24799 160.376 8.06933 160.376 9.45599C160.376 9.86133 160.29 10.2347 160.12 10.576C159.96 10.9067 159.73 11.1947 159.432 11.44C159.133 11.6747 158.77 11.8613 158.344 12C157.928 12.128 157.458 12.192 156.936 12.192Z" fill="#212529"/>
<path d="M148.654 12.192C148.035 12.192 147.48 12.0907 146.99 11.888C146.51 11.6747 146.099 11.3813 145.758 11.008C145.427 10.624 145.171 10.1653 144.99 9.63199C144.808 9.08799 144.718 8.47999 144.718 7.80799C144.718 7.14666 144.803 6.54933 144.974 6.01599C145.155 5.48266 145.411 5.02933 145.742 4.65599C146.072 4.27199 146.478 3.97866 146.958 3.77599C147.438 3.56266 147.982 3.45599 148.59 3.45599C149.24 3.45599 149.806 3.56799 150.286 3.79199C150.766 4.01599 151.16 4.31999 151.47 4.70399C151.779 5.08799 152.008 5.53599 152.158 6.04799C152.318 6.54933 152.398 7.08799 152.398 7.66399V8.33599H146.846V8.54399C146.846 9.15199 147.016 9.64266 147.358 10.016C147.699 10.3787 148.206 10.56 148.878 10.56C149.39 10.56 149.806 10.4533 150.126 10.24C150.456 10.0267 150.75 9.75466 151.006 9.42399L152.11 10.656C151.768 11.136 151.299 11.5147 150.702 11.792C150.115 12.0587 149.432 12.192 148.654 12.192ZM148.622 4.99199C148.078 4.99199 147.646 5.17333 147.326 5.53599C147.006 5.89866 146.846 6.36799 146.846 6.94399V7.07199H150.27V6.92799C150.27 6.35199 150.126 5.88799 149.838 5.53599C149.56 5.17333 149.155 4.99199 148.622 4.99199Z" fill="#212529"/>
<path d="M138.804 12L136.02 3.64801H138.036L139.204 7.24801L140.02 10.224H140.132L140.948 7.24801L142.084 3.64801H144.036L141.236 12H138.804Z" fill="#212529"/>
<path d="M127.731 12V3.64799H129.779V5.03999H129.859C130.03 4.59199 130.296 4.21866 130.659 3.91999C131.032 3.61066 131.544 3.45599 132.195 3.45599C133.059 3.45599 133.72 3.73866 134.179 4.30399C134.638 4.86933 134.867 5.67466 134.867 6.71999V12H132.819V6.92799C132.819 6.33066 132.712 5.88266 132.499 5.58399C132.286 5.28533 131.934 5.13599 131.443 5.13599C131.23 5.13599 131.022 5.16799 130.819 5.23199C130.627 5.28533 130.451 5.37066 130.291 5.48799C130.142 5.59466 130.019 5.73333 129.923 5.90399C129.827 6.06399 129.779 6.25599 129.779 6.47999V12H127.731Z" fill="#212529"/>
<path d="M120.629 12V10.304H122.101V2.52797H120.629V0.83197H125.701V2.52797H124.213V10.304H125.701V12H120.629Z" fill="#212529"/>
<path d="M110.903 12V3.64801H112.951V5.37601H113.031C113.084 5.15201 113.164 4.93868 113.271 4.73601C113.388 4.52268 113.538 4.33601 113.719 4.17601C113.9 4.01601 114.113 3.88801 114.359 3.79201C114.615 3.69601 114.908 3.64801 115.239 3.64801H115.687V5.58401H115.047C114.354 5.58401 113.831 5.68534 113.479 5.88801C113.127 6.09068 112.951 6.42134 112.951 6.88001V12H110.903Z" fill="#212529"/>
<path d="M105.199 12.192C104.602 12.192 104.063 12.0907 103.583 11.888C103.114 11.6853 102.708 11.392 102.367 11.008C102.036 10.624 101.78 10.1653 101.599 9.63199C101.418 9.08799 101.327 8.47999 101.327 7.80799C101.327 7.13599 101.418 6.53333 101.599 5.99999C101.78 5.46666 102.036 5.01333 102.367 4.63999C102.708 4.25599 103.114 3.96266 103.583 3.75999C104.063 3.55733 104.602 3.45599 105.199 3.45599C105.796 3.45599 106.335 3.55733 106.815 3.75999C107.295 3.96266 107.7 4.25599 108.031 4.63999C108.372 5.01333 108.634 5.46666 108.815 5.99999C108.996 6.53333 109.087 7.13599 109.087 7.80799C109.087 8.47999 108.996 9.08799 108.815 9.63199C108.634 10.1653 108.372 10.624 108.031 11.008C107.7 11.392 107.295 11.6853 106.815 11.888C106.335 12.0907 105.796 12.192 105.199 12.192ZM105.199 10.544C105.743 10.544 106.17 10.3787 106.479 10.048C106.788 9.71733 106.943 9.23199 106.943 8.59199V7.03999C106.943 6.41066 106.788 5.93066 106.479 5.59999C106.17 5.26933 105.743 5.10399 105.199 5.10399C104.666 5.10399 104.244 5.26933 103.935 5.59999C103.626 5.93066 103.471 6.41066 103.471 7.03999V8.59199C103.471 9.23199 103.626 9.71733 103.935 10.048C104.244 10.3787 104.666 10.544 105.199 10.544Z" fill="#212529"/>
<path d="M96.7718 5.26397H95.5398V3.64797H96.7718V2.44797C96.7718 1.71197 96.9638 1.14664 97.3478 0.751973C97.7425 0.357306 98.3185 0.159973 99.0758 0.159973H100.532V1.79197H98.8198V3.64797H100.532V5.26397H98.8198V12H96.7718V5.26397Z" fill="#212529"/>
<path d="M87.3264 12.192C86.5264 12.192 85.8544 12.0587 85.3104 11.792C84.7664 11.5147 84.2864 11.136 83.8704 10.656L85.1184 9.43999C85.4277 9.79199 85.7637 10.0693 86.1264 10.272C86.4997 10.4747 86.9264 10.576 87.4064 10.576C87.897 10.576 88.249 10.4907 88.4624 10.32C88.6864 10.1493 88.7984 9.91466 88.7984 9.61599C88.7984 9.37066 88.7184 9.17866 88.5584 9.03999C88.409 8.89066 88.1477 8.78933 87.7744 8.73599L86.9424 8.62399C86.0357 8.50666 85.3424 8.25066 84.8624 7.85599C84.393 7.45066 84.1584 6.86399 84.1584 6.09599C84.1584 5.69066 84.233 5.32799 84.3824 5.00799C84.5317 4.67733 84.745 4.39999 85.0224 4.17599C85.2997 3.94133 85.6304 3.76533 86.0144 3.64799C86.409 3.51999 86.8464 3.45599 87.3264 3.45599C87.7317 3.45599 88.089 3.48799 88.3984 3.55199C88.7184 3.60533 89.0064 3.69066 89.2624 3.80799C89.5184 3.91466 89.753 4.05333 89.9664 4.22399C90.1797 4.38399 90.3877 4.56533 90.5904 4.76799L89.3904 5.96799C89.145 5.71199 88.8517 5.49866 88.5104 5.32799C88.169 5.15733 87.7957 5.07199 87.3904 5.07199C86.9424 5.07199 86.617 5.15199 86.4144 5.31199C86.2224 5.47199 86.1264 5.67999 86.1264 5.93599C86.1264 6.21333 86.2064 6.42666 86.3664 6.57599C86.537 6.71466 86.8197 6.81599 87.2144 6.87999L88.0624 6.99199C89.865 7.24799 90.7664 8.06933 90.7664 9.45599C90.7664 9.86133 90.681 10.2347 90.5104 10.576C90.3504 10.9067 90.121 11.1947 89.8224 11.44C89.5237 11.6747 89.161 11.8613 88.7344 12C88.3184 12.128 87.849 12.192 87.3264 12.192Z" fill="#212529"/>
<path d="M81.2138 12C80.5098 12 79.9711 11.8187 79.5978 11.456C79.2351 11.0827 79.0538 10.5547 79.0538 9.87199V5.27999H77.8218V3.64799H78.4618C78.7711 3.64799 78.9791 3.57865 79.0858 3.43999C79.2031 3.29065 79.2618 3.07199 79.2618 2.78399V1.35999H81.1018V3.64799H82.8138V5.27999H81.1018V10.368H82.6858V12H81.2138Z" fill="#212529"/>
<path d="M69.0374 5.26403H67.8054V3.64803H69.0374V2.44803C69.0374 1.71203 69.2294 1.14669 69.6134 0.752027C70.0081 0.35736 70.5841 0.160027 71.3414 0.160027H72.7974V1.79203H71.0854V3.64803H76.2374V12H74.1894V5.26403H71.0854V12H69.0374V5.26403ZM75.2134 2.43203C74.7868 2.43203 74.4774 2.33603 74.2854 2.14403C74.1041 1.95203 74.0134 1.70669 74.0134 1.40803V1.08803C74.0134 0.789359 74.1041 0.544026 74.2854 0.352026C74.4774 0.160026 74.7868 0.0640259 75.2134 0.0640259C75.6294 0.0640259 75.9334 0.160026 76.1254 0.352026C76.3174 0.544026 76.4134 0.789359 76.4134 1.08803V1.40803C76.4134 1.70669 76.3174 1.95203 76.1254 2.14403C75.9334 2.33603 75.6294 2.43203 75.2134 2.43203Z" fill="#212529"/>
<path d="M63.0756 12.192C62.457 12.192 61.9023 12.0907 61.4116 11.888C60.9316 11.6747 60.521 11.3813 60.1796 11.008C59.849 10.624 59.593 10.1653 59.4116 9.63199C59.2303 9.08799 59.1396 8.47999 59.1396 7.80799C59.1396 7.14666 59.225 6.54933 59.3956 6.01599C59.577 5.48266 59.833 5.02933 60.1636 4.65599C60.4943 4.27199 60.8996 3.97866 61.3796 3.77599C61.8596 3.56266 62.4037 3.45599 63.0117 3.45599C63.6623 3.45599 64.2276 3.56799 64.7076 3.79199C65.1876 4.01599 65.5823 4.31999 65.8916 4.70399C66.201 5.08799 66.4303 5.53599 66.5797 6.04799C66.7397 6.54933 66.8196 7.08799 66.8196 7.66399V8.33599H61.2676V8.54399C61.2676 9.15199 61.4383 9.64266 61.7796 10.016C62.121 10.3787 62.6276 10.56 63.2996 10.56C63.8116 10.56 64.2276 10.4533 64.5476 10.24C64.8783 10.0267 65.1717 9.75466 65.4277 9.42399L66.5316 10.656C66.1903 11.136 65.721 11.5147 65.1236 11.792C64.537 12.0587 63.8543 12.192 63.0756 12.192ZM63.0436 4.99199C62.4996 4.99199 62.0676 5.17333 61.7476 5.53599C61.4276 5.89866 61.2676 6.36799 61.2676 6.94399V7.07199H64.6917V6.92799C64.6917 6.35199 64.5477 5.88799 64.2597 5.53599C63.9823 5.17333 63.577 4.99199 63.0436 4.99199Z" fill="#212529"/>
<path d="M50.2935 12V3.64799H52.3415V5.03999H52.4215C52.5921 4.59199 52.8588 4.21866 53.2215 3.91999C53.5948 3.61066 54.1068 3.45599 54.7575 3.45599C55.6215 3.45599 56.2828 3.73866 56.7415 4.30399C57.2001 4.86933 57.4295 5.67466 57.4295 6.71999V12H55.3815V6.92799C55.3815 6.33066 55.2748 5.88266 55.0615 5.58399C54.8481 5.28533 54.4961 5.13599 54.0055 5.13599C53.7921 5.13599 53.5841 5.16799 53.3815 5.23199C53.1895 5.28533 53.0135 5.37066 52.8535 5.48799C52.7041 5.59466 52.5815 5.73333 52.4855 5.90399C52.3895 6.06399 52.3415 6.25599 52.3415 6.47999V12H50.2935Z" fill="#212529"/>
<path d="M44.7475 12.192C44.1289 12.192 43.5742 12.0907 43.0835 11.888C42.6035 11.6747 42.1929 11.3813 41.8515 11.008C41.5209 10.624 41.2649 10.1653 41.0835 9.63199C40.9022 9.08799 40.8115 8.47999 40.8115 7.80799C40.8115 7.14666 40.8969 6.54933 41.0675 6.01599C41.2489 5.48266 41.5049 5.02933 41.8355 4.65599C42.1662 4.27199 42.5715 3.97866 43.0515 3.77599C43.5315 3.56266 44.0755 3.45599 44.6835 3.45599C45.3342 3.45599 45.8995 3.56799 46.3795 3.79199C46.8595 4.01599 47.2542 4.31999 47.5635 4.70399C47.8729 5.08799 48.1022 5.53599 48.2515 6.04799C48.4115 6.54933 48.4915 7.08799 48.4915 7.66399V8.33599H42.9395V8.54399C42.9395 9.15199 43.1102 9.64266 43.4515 10.016C43.7929 10.3787 44.2995 10.56 44.9715 10.56C45.4835 10.56 45.8995 10.4533 46.2195 10.24C46.5502 10.0267 46.8435 9.75466 47.0995 9.42399L48.2035 10.656C47.8622 11.136 47.3929 11.5147 46.7955 11.792C46.2089 12.0587 45.5262 12.192 44.7475 12.192ZM44.7155 4.99199C44.1715 4.99199 43.7395 5.17333 43.4195 5.53599C43.0995 5.89866 42.9395 6.36799 42.9395 6.94399V7.07199H46.3635V6.92799C46.3635 6.35199 46.2195 5.88799 45.9315 5.53599C45.6542 5.17333 45.2489 4.99199 44.7155 4.99199Z" fill="#212529"/>
<path d="M30.8901 0.83197H36.0581C36.5168 0.83197 36.9275 0.901303 37.2901 1.03997C37.6635 1.17864 37.9781 1.37064 38.2341 1.61597C38.4901 1.8613 38.6821 2.1653 38.8101 2.52797C38.9488 2.87997 39.0181 3.2693 39.0181 3.69597C39.0181 4.12264 38.9595 4.4853 38.8421 4.78397C38.7355 5.07197 38.5861 5.31197 38.3941 5.50397C38.2128 5.69597 37.9995 5.83997 37.7541 5.93597C37.5195 6.03197 37.2741 6.0853 37.0181 6.09597V6.19197C37.2635 6.19197 37.5248 6.23997 37.8021 6.33597C38.0901 6.43197 38.3515 6.58664 38.5861 6.79997C38.8315 7.00264 39.0341 7.2693 39.1941 7.59997C39.3541 7.91997 39.4341 8.31997 39.4341 8.79997C39.4341 9.24797 39.3595 9.6693 39.2101 10.064C39.0715 10.448 38.8741 10.784 38.6181 11.072C38.3621 11.36 38.0581 11.5893 37.7061 11.76C37.3541 11.92 36.9701 12 36.5541 12H30.8901V0.83197ZM33.0021 10.208H35.9461C36.3515 10.208 36.6661 10.1066 36.8901 9.90397C37.1141 9.69064 37.2261 9.38664 37.2261 8.99197V8.44797C37.2261 8.0533 37.1141 7.7493 36.8901 7.53597C36.6661 7.32264 36.3515 7.21597 35.9461 7.21597H33.0021V10.208ZM33.0021 5.48797H35.6101C35.9941 5.48797 36.2928 5.38664 36.5061 5.18397C36.7195 4.97064 36.8261 4.6773 36.8261 4.30397V3.80797C36.8261 3.43464 36.7195 3.14664 36.5061 2.94397C36.2928 2.73064 35.9941 2.62397 35.6101 2.62397H33.0021V5.48797Z" fill="#212529"/>
<path d="M17.3977 12L20.2457 7.76001L17.4617 3.64801H19.7977L21.5257 6.41601H21.5897L23.3017 3.64801H25.4777L22.6457 7.79201L25.4937 12H23.1577L21.3977 9.12001H21.3337L19.5737 12H17.3977Z" fill="#212529"/>
<path d="M15.4843 12C15.0363 12 14.679 11.872 14.4123 11.616C14.1563 11.3493 13.9963 10.9973 13.9323 10.56H13.8363C13.6976 11.104 13.415 11.5147 12.9883 11.792C12.5616 12.0587 12.0336 12.192 11.4043 12.192C10.551 12.192 9.89496 11.968 9.43629 11.52C8.97762 11.072 8.74829 10.4747 8.74829 9.72799C8.74829 8.86399 9.05762 8.22399 9.67629 7.80799C10.295 7.38133 11.175 7.16799 12.3163 7.16799H13.7403V6.55999C13.7403 6.09066 13.6176 5.72799 13.3723 5.47199C13.127 5.21599 12.7323 5.08799 12.1883 5.08799C11.7083 5.08799 11.319 5.19466 11.0203 5.40799C10.7323 5.61066 10.487 5.85599 10.2843 6.14399L9.06829 5.05599C9.37762 4.57599 9.78829 4.19199 10.3003 3.90399C10.8123 3.60533 11.4896 3.45599 12.3323 3.45599C13.463 3.45599 14.3216 3.71199 14.9083 4.22399C15.495 4.73599 15.7883 5.47199 15.7883 6.43199V10.368H16.6203V12H15.4843ZM12.0923 10.704C12.551 10.704 12.9403 10.6027 13.2603 10.4C13.5803 10.1973 13.7403 9.89866 13.7403 9.50399V8.39999H12.4283C11.3616 8.39999 10.8283 8.74133 10.8283 9.42399V9.69599C10.8283 10.0373 10.935 10.2933 11.1483 10.464C11.3723 10.624 11.687 10.704 12.0923 10.704Z" fill="#212529"/>
<path d="M5.69602 2.70397V12H3.58402V2.70397H0.416016V0.83197H8.86402V2.70397H5.69602Z" fill="#212529"/>
</svg>
