<svg width="256" height="37" viewBox="0 0 256 37" fill="none" xmlns="http://www.w3.org/2000/svg">
<path d="M195.97 29.64L195.314 24.984V21.832H197.49V24.984L196.866 29.64H195.97ZM196.402 33.192C195.943 33.192 195.612 33.0853 195.41 32.872C195.207 32.6586 195.106 32.3866 195.106 32.056V31.736C195.106 31.4053 195.207 31.1333 195.41 30.92C195.612 30.7066 195.943 30.6 196.402 30.6C196.85 30.6 197.175 30.7066 197.378 30.92C197.58 31.1333 197.682 31.4053 197.682 31.736V32.056C197.682 32.3866 197.58 32.6586 197.378 32.872C197.175 33.0853 196.85 33.192 196.402 33.192Z" fill="#212529"/>
<path d="M189.857 33.1919C189.057 33.1919 188.385 33.0586 187.841 32.7919C187.297 32.5146 186.817 32.1359 186.401 31.6559L187.649 30.4399C187.959 30.7919 188.295 31.0693 188.657 31.2719C189.031 31.4746 189.457 31.5759 189.937 31.5759C190.428 31.5759 190.78 31.4906 190.993 31.3199C191.217 31.1493 191.329 30.9146 191.329 30.6159C191.329 30.3706 191.249 30.1786 191.089 30.0399C190.94 29.8906 190.679 29.7893 190.305 29.7359L189.473 29.6239C188.567 29.5066 187.873 29.2506 187.393 28.8559C186.924 28.4506 186.689 27.8639 186.689 27.0959C186.689 26.6906 186.764 26.3279 186.913 26.0079C187.063 25.6773 187.276 25.3999 187.553 25.1759C187.831 24.9413 188.161 24.7653 188.545 24.6479C188.94 24.5199 189.377 24.4559 189.857 24.4559C190.263 24.4559 190.62 24.4879 190.929 24.5519C191.249 24.6053 191.537 24.6906 191.793 24.8079C192.049 24.9146 192.284 25.0533 192.497 25.2239C192.711 25.3839 192.919 25.5653 193.121 25.7679L191.921 26.9679C191.676 26.7119 191.383 26.4986 191.041 26.3279C190.7 26.1573 190.327 26.0719 189.921 26.0719C189.473 26.0719 189.148 26.1519 188.945 26.3119C188.753 26.4719 188.657 26.6799 188.657 26.9359C188.657 27.2133 188.737 27.4266 188.897 27.5759C189.068 27.7146 189.351 27.8159 189.745 27.8799L190.593 27.9919C192.396 28.2479 193.297 29.0693 193.297 30.4559C193.297 30.8613 193.212 31.2346 193.041 31.5759C192.881 31.9066 192.652 32.1946 192.353 32.4399C192.055 32.6746 191.692 32.8613 191.265 32.9999C190.849 33.1279 190.38 33.1919 189.857 33.1919Z" fill="#212529"/>
<path d="M182.712 31.608H182.632C182.482 32.088 182.2 32.472 181.784 32.76C181.368 33.048 180.882 33.192 180.328 33.192C179.272 33.192 178.461 32.8133 177.896 32.056C177.341 31.2986 177.064 30.216 177.064 28.808C177.064 27.4106 177.341 26.3386 177.896 25.592C178.461 24.8346 179.272 24.456 180.328 24.456C180.882 24.456 181.368 24.6 181.784 24.888C182.2 25.1653 182.482 25.544 182.632 26.024H182.712V21.16H184.76V33H182.712V31.608ZM180.984 31.496C181.474 31.496 181.885 31.3786 182.216 31.144C182.546 30.9093 182.712 30.5733 182.712 30.136V27.48C182.712 27.0746 182.546 26.7493 182.216 26.504C181.885 26.2586 181.474 26.136 180.984 26.136C180.45 26.136 180.018 26.3173 179.688 26.68C179.368 27.032 179.208 27.5066 179.208 28.104V29.544C179.208 30.1413 179.368 30.616 179.688 30.968C180.018 31.32 180.45 31.496 180.984 31.496Z" fill="#212529"/>
<path d="M168.121 32.9999V24.6479H170.169V26.0399H170.249C170.42 25.5919 170.687 25.2186 171.049 24.9199C171.423 24.6106 171.935 24.4559 172.585 24.4559C173.449 24.4559 174.111 24.7386 174.569 25.3039C175.028 25.8693 175.257 26.6746 175.257 27.7199V32.9999H173.209V27.9279C173.209 27.3306 173.103 26.8826 172.889 26.5839C172.676 26.2853 172.324 26.1359 171.833 26.1359C171.62 26.1359 171.412 26.1679 171.209 26.2319C171.017 26.2853 170.841 26.3706 170.681 26.4879C170.532 26.5946 170.409 26.7333 170.313 26.9039C170.217 27.0639 170.169 27.2559 170.169 27.4799V32.9999H168.121Z" fill="#212529"/>
<path d="M165.328 32.9999C164.88 32.9999 164.522 32.8719 164.256 32.6159C164 32.3493 163.84 31.9973 163.776 31.5599H163.68C163.541 32.1039 163.258 32.5146 162.832 32.7919C162.405 33.0586 161.877 33.1919 161.248 33.1919C160.394 33.1919 159.738 32.9679 159.28 32.5199C158.821 32.0719 158.592 31.4746 158.592 30.7279C158.592 29.8639 158.901 29.2239 159.52 28.8079C160.138 28.3813 161.018 28.1679 162.16 28.1679H163.584V27.5599C163.584 27.0906 163.461 26.7279 163.216 26.4719C162.97 26.2159 162.576 26.0879 162.032 26.0879C161.552 26.0879 161.162 26.1946 160.864 26.4079C160.576 26.6106 160.33 26.8559 160.128 27.1439L158.912 26.0559C159.221 25.5759 159.632 25.1919 160.144 24.9039C160.656 24.6053 161.333 24.4559 162.176 24.4559C163.306 24.4559 164.165 24.7119 164.752 25.2239C165.338 25.7359 165.632 26.4719 165.632 27.4319V31.3679H166.464V32.9999H165.328ZM161.936 31.7039C162.394 31.7039 162.784 31.6026 163.104 31.3999C163.424 31.1973 163.584 30.8986 163.584 30.5039V29.3999H162.272C161.205 29.3999 160.672 29.7413 160.672 30.4239V30.6959C160.672 31.0373 160.778 31.2933 160.992 31.4639C161.216 31.6239 161.53 31.7039 161.936 31.7039Z" fill="#212529"/>
<path d="M153.074 33V24.6479H155.122V26.3759H155.202C155.256 26.1519 155.336 25.9386 155.442 25.736C155.56 25.5226 155.709 25.3359 155.89 25.1759C156.072 25.0159 156.285 24.888 156.53 24.792C156.786 24.696 157.08 24.6479 157.41 24.6479H157.858V26.584H157.218C156.525 26.584 156.002 26.6853 155.65 26.888C155.298 27.0906 155.122 27.4213 155.122 27.88V33H153.074Z" fill="#212529"/>
<path d="M142.593 21.832H147.761C148.22 21.832 148.631 21.9013 148.993 22.04C149.367 22.1786 149.681 22.3706 149.937 22.616C150.193 22.8613 150.385 23.1653 150.513 23.528C150.652 23.88 150.721 24.2693 150.721 24.696C150.721 25.1226 150.663 25.4853 150.545 25.784C150.439 26.072 150.289 26.312 150.097 26.504C149.916 26.696 149.703 26.84 149.457 26.936C149.223 27.032 148.977 27.0853 148.721 27.096V27.192C148.967 27.192 149.228 27.24 149.505 27.336C149.793 27.432 150.055 27.5866 150.289 27.8C150.535 28.0026 150.737 28.2693 150.897 28.6C151.057 28.92 151.137 29.32 151.137 29.8C151.137 30.248 151.063 30.6693 150.913 31.064C150.775 31.448 150.577 31.784 150.321 32.072C150.065 32.36 149.761 32.5893 149.409 32.76C149.057 32.92 148.673 33 148.257 33H142.593V21.832ZM144.705 31.208H147.649C148.055 31.208 148.369 31.1066 148.593 30.904C148.817 30.6906 148.929 30.3866 148.929 29.992V29.448C148.929 29.0533 148.817 28.7493 148.593 28.536C148.369 28.3226 148.055 28.216 147.649 28.216H144.705V31.208ZM144.705 26.488H147.313C147.697 26.488 147.996 26.3866 148.209 26.184C148.423 25.9706 148.529 25.6773 148.529 25.304V24.808C148.529 24.4346 148.423 24.1466 148.209 23.944C147.996 23.7306 147.697 23.624 147.313 23.624H144.705V26.488Z" fill="#212529"/>
<path d="M139.672 32.9999C139.224 32.9999 138.866 32.8719 138.6 32.6159C138.344 32.3493 138.184 31.9973 138.12 31.5599H138.024C137.885 32.1039 137.602 32.5146 137.176 32.7919C136.749 33.0586 136.221 33.1919 135.592 33.1919C134.738 33.1919 134.082 32.9679 133.624 32.5199C133.165 32.0719 132.936 31.4746 132.936 30.7279C132.936 29.8639 133.245 29.2239 133.864 28.8079C134.482 28.3813 135.362 28.1679 136.504 28.1679H137.928V27.5599C137.928 27.0906 137.805 26.7279 137.56 26.4719C137.314 26.2159 136.92 26.0879 136.376 26.0879C135.896 26.0879 135.506 26.1946 135.208 26.4079C134.92 26.6106 134.674 26.8559 134.472 27.1439L133.256 26.0559C133.565 25.5759 133.976 25.1919 134.488 24.9039C135 24.6053 135.677 24.4559 136.52 24.4559C137.65 24.4559 138.509 24.7119 139.096 25.2239C139.682 25.7359 139.976 26.4719 139.976 27.4319V31.3679H140.808V32.9999H139.672ZM136.28 31.7039C136.738 31.7039 137.128 31.6026 137.448 31.3999C137.768 31.1973 137.928 30.8986 137.928 30.5039V29.3999H136.616C135.549 29.3999 135.016 29.7413 135.016 30.4239V30.6959C135.016 31.0373 135.122 31.2933 135.336 31.4639C135.56 31.6239 135.874 31.7039 136.28 31.7039Z" fill="#212529"/>
<path d="M130.872 33C130.168 33 129.651 32.824 129.32 32.472C128.99 32.12 128.824 31.624 128.824 30.984V21.16H130.872V31.368H131.976V33H130.872Z" fill="#212529"/>
<path d="M124.41 31.608H124.33C124.256 31.8213 124.154 32.024 124.026 32.216C123.909 32.3973 123.754 32.5626 123.562 32.712C123.381 32.8613 123.157 32.9786 122.89 33.0639C122.634 33.1493 122.336 33.192 121.994 33.192C121.13 33.192 120.469 32.9093 120.01 32.344C119.552 31.7786 119.322 30.9733 119.322 29.928V24.6479H121.37V29.72C121.37 30.296 121.482 30.7386 121.706 31.048C121.93 31.3466 122.288 31.4959 122.778 31.4959C122.981 31.4959 123.178 31.4693 123.37 31.416C123.573 31.3626 123.749 31.2826 123.898 31.1759C124.048 31.0586 124.17 30.9199 124.266 30.7599C124.362 30.5893 124.41 30.3919 124.41 30.1679V24.6479H126.458V33H124.41V31.608Z" fill="#212529"/>
<path d="M118.298 33.704C118.298 34.1414 118.218 34.5254 118.058 34.856C117.909 35.1974 117.658 35.48 117.306 35.704C116.954 35.928 116.501 36.0987 115.946 36.216C115.391 36.3334 114.714 36.392 113.914 36.392C113.21 36.392 112.613 36.344 112.122 36.248C111.631 36.1627 111.226 36.0347 110.906 35.864C110.597 35.704 110.373 35.5014 110.234 35.256C110.095 35.0107 110.026 34.7334 110.026 34.424C110.026 33.9547 110.154 33.5867 110.41 33.32C110.677 33.064 111.045 32.8987 111.514 32.824V32.648C111.173 32.5627 110.906 32.3974 110.714 32.152C110.533 31.896 110.442 31.5974 110.442 31.256C110.442 31.0427 110.485 30.856 110.57 30.696C110.655 30.5254 110.767 30.3814 110.906 30.264C111.055 30.1467 111.221 30.0507 111.402 29.976C111.583 29.8907 111.775 29.8267 111.978 29.784V29.72C111.466 29.4854 111.082 29.16 110.826 28.744C110.581 28.328 110.458 27.8427 110.458 27.288C110.458 26.4347 110.751 25.752 111.338 25.24C111.925 24.7174 112.783 24.456 113.914 24.456C114.17 24.456 114.421 24.472 114.666 24.504C114.922 24.536 115.157 24.5894 115.37 24.664V24.392C115.37 23.5814 115.765 23.176 116.554 23.176H117.85V24.744H116.074V24.968C116.511 25.2134 116.837 25.5334 117.05 25.928C117.263 26.3227 117.37 26.776 117.37 27.288C117.37 28.1307 117.077 28.808 116.49 29.32C115.914 29.832 115.055 30.088 113.914 30.088C113.423 30.088 112.997 30.04 112.634 29.944C112.474 30.0187 112.335 30.12 112.218 30.248C112.101 30.3654 112.042 30.5147 112.042 30.696C112.042 31.112 112.405 31.32 113.13 31.32H115.37C116.394 31.32 117.135 31.5334 117.594 31.96C118.063 32.376 118.298 32.9574 118.298 33.704ZM116.378 33.944C116.378 33.6774 116.271 33.4694 116.058 33.32C115.845 33.1707 115.477 33.096 114.954 33.096H112.106C111.818 33.3094 111.674 33.5974 111.674 33.96C111.674 34.28 111.807 34.5307 112.074 34.712C112.341 34.8934 112.794 34.984 113.434 34.984H114.458C115.13 34.984 115.615 34.8987 115.914 34.728C116.223 34.5574 116.378 34.296 116.378 33.944ZM113.914 28.696C114.917 28.696 115.418 28.2694 115.418 27.416V27.144C115.418 26.2907 114.917 25.864 113.914 25.864C112.911 25.864 112.41 26.2907 112.41 27.144V27.416C112.41 28.2694 112.911 28.696 113.914 28.696Z" fill="#212529"/>
<path d="M105.216 33.1919C104.598 33.1919 104.043 33.0906 103.552 32.8879C103.072 32.6746 102.662 32.3813 102.32 32.0079C101.99 31.6239 101.734 31.1653 101.552 30.6319C101.371 30.0879 101.28 29.4799 101.28 28.8079C101.28 28.1466 101.366 27.5493 101.536 27.0159C101.718 26.4826 101.974 26.0293 102.304 25.6559C102.635 25.2719 103.04 24.9786 103.52 24.7759C104 24.5626 104.544 24.4559 105.152 24.4559C105.803 24.4559 106.368 24.5679 106.848 24.7919C107.328 25.0159 107.723 25.3199 108.032 25.7039C108.342 26.0879 108.571 26.5359 108.72 27.0479C108.88 27.5493 108.96 28.0879 108.96 28.6639V29.3359H103.408V29.5439C103.408 30.1519 103.579 30.6426 103.92 31.0159C104.262 31.3786 104.768 31.5599 105.44 31.5599C105.952 31.5599 106.368 31.4533 106.688 31.2399C107.019 31.0266 107.312 30.7546 107.568 30.4239L108.672 31.6559C108.331 32.1359 107.862 32.5146 107.264 32.7919C106.678 33.0586 105.995 33.1919 105.216 33.1919ZM105.184 25.9919C104.64 25.9919 104.208 26.1733 103.888 26.5359C103.568 26.8986 103.408 27.3679 103.408 27.9439V28.0719H106.832V27.9279C106.832 27.3519 106.688 26.8879 106.4 26.5359C106.123 26.1733 105.718 25.9919 105.184 25.9919Z" fill="#212529"/>
<path d="M93.6896 33H91.5776V21.832H96.6176C97.1296 21.832 97.5883 21.912 97.9936 22.072C98.399 22.232 98.7403 22.4666 99.0176 22.776C99.3056 23.0746 99.5243 23.4373 99.6736 23.864C99.8336 24.2906 99.9136 24.7653 99.9136 25.288C99.9136 26.056 99.7376 26.7173 99.3856 27.272C99.0443 27.8266 98.527 28.2213 97.8336 28.456L100.122 33H97.7696L95.6896 28.696H93.6896V33ZM96.4096 26.92C96.815 26.92 97.135 26.8133 97.3696 26.6C97.6043 26.376 97.7216 26.0613 97.7216 25.656V24.92C97.7216 24.5146 97.6043 24.2053 97.3696 23.992C97.135 23.7786 96.815 23.672 96.4096 23.672H93.6896V26.92H96.4096Z" fill="#212529"/>
<path d="M84.2919 33C83.5879 33 83.0492 32.8187 82.6759 32.456C82.3132 32.0827 82.1319 31.5547 82.1319 30.872V26.28H80.8999V24.648H81.5399C81.8492 24.648 82.0572 24.5787 82.1639 24.44C82.2812 24.2907 82.3399 24.072 82.3399 23.784V22.36H84.1799V24.648H85.8919V26.28H84.1799V31.368H85.7639V33H84.2919Z" fill="#212529"/>
<path d="M76.1381 33.1919C75.5195 33.1919 74.9648 33.0906 74.4742 32.8879C73.9942 32.6746 73.5835 32.3813 73.2421 32.0079C72.9115 31.6239 72.6555 31.1653 72.4742 30.6319C72.2928 30.0879 72.2021 29.4799 72.2021 28.8079C72.2021 28.1466 72.2875 27.5493 72.4581 27.0159C72.6395 26.4826 72.8955 26.0293 73.2262 25.6559C73.5568 25.2719 73.9621 24.9786 74.4421 24.7759C74.9221 24.5626 75.4662 24.4559 76.0742 24.4559C76.7248 24.4559 77.2901 24.5679 77.7701 24.7919C78.2501 25.0159 78.6448 25.3199 78.9541 25.7039C79.2635 26.0879 79.4928 26.5359 79.6422 27.0479C79.8022 27.5493 79.8821 28.0879 79.8821 28.6639V29.3359H74.3301V29.5439C74.3301 30.1519 74.5008 30.6426 74.8421 31.0159C75.1835 31.3786 75.6901 31.5599 76.3621 31.5599C76.8741 31.5599 77.2901 31.4533 77.6101 31.2399C77.9408 31.0266 78.2342 30.7546 78.4902 30.4239L79.5941 31.6559C79.2528 32.1359 78.7835 32.5146 78.1861 32.7919C77.5995 33.0586 76.9168 33.1919 76.1381 33.1919ZM76.1061 25.9919C75.5621 25.9919 75.1302 26.1733 74.8102 26.5359C74.4902 26.8986 74.3301 27.3679 74.3301 27.9439V28.0719H77.7542V27.9279C77.7542 27.3519 77.6102 26.8879 77.3222 26.5359C77.0448 26.1733 76.6395 25.9919 76.1061 25.9919Z" fill="#212529"/>
<path d="M67.2163 33.1919C66.5976 33.1919 66.0429 33.0906 65.5523 32.8879C65.0723 32.6746 64.6616 32.3813 64.3203 32.0079C63.9896 31.6239 63.7336 31.1653 63.5523 30.6319C63.3709 30.0879 63.2803 29.4799 63.2803 28.8079C63.2803 28.1466 63.3656 27.5493 63.5363 27.0159C63.7176 26.4826 63.9736 26.0293 64.3043 25.6559C64.6349 25.2719 65.0403 24.9786 65.5203 24.7759C66.0003 24.5626 66.5443 24.4559 67.1523 24.4559C67.8029 24.4559 68.3683 24.5679 68.8483 24.7919C69.3283 25.0159 69.7229 25.3199 70.0323 25.7039C70.3416 26.0879 70.5709 26.5359 70.7203 27.0479C70.8803 27.5493 70.9603 28.0879 70.9603 28.6639V29.3359H65.4083V29.5439C65.4083 30.1519 65.5789 30.6426 65.9203 31.0159C66.2616 31.3786 66.7683 31.5599 67.4403 31.5599C67.9523 31.5599 68.3683 31.4533 68.6883 31.2399C69.0189 31.0266 69.3123 30.7546 69.5683 30.4239L70.6723 31.6559C70.3309 32.1359 69.8616 32.5146 69.2643 32.7919C68.6776 33.0586 67.9949 33.1919 67.2163 33.1919ZM67.1843 25.9919C66.6403 25.9919 66.2083 26.1733 65.8883 26.5359C65.5683 26.8986 65.4083 27.3679 65.4083 27.9439V28.0719H68.8323V27.9279C68.8323 27.3519 68.6883 26.8879 68.4003 26.5359C68.1229 26.1733 67.7176 25.9919 67.1843 25.9919Z" fill="#212529"/>
<path d="M59.3378 24.984H59.2738L58.4098 26.76L56.1218 30.984L53.8338 26.76L52.9698 24.984H52.9058V33H50.9058V21.832H53.2898L56.1538 27.288H56.2178L59.0498 21.832H61.3378V33H59.3378V24.984Z" fill="#212529"/>
<path d="M40.5458 29.384V26.888C41.3992 26.856 42.0445 26.696 42.4818 26.408C42.9298 26.1093 43.1539 25.6507 43.1539 25.032V24.808C43.1539 24.36 43.0205 24.0133 42.7538 23.768C42.4872 23.5227 42.1299 23.4 41.6819 23.4C41.2019 23.4 40.8125 23.544 40.5138 23.832C40.2258 24.1093 40.0232 24.472 39.9058 24.92L38.1938 24.216C38.2898 23.8853 38.4285 23.5653 38.6098 23.256C38.7912 22.9467 39.0258 22.6747 39.3138 22.44C39.6018 22.1947 39.9485 22.0027 40.3538 21.864C40.7592 21.7147 41.2285 21.64 41.7618 21.64C42.3058 21.64 42.7965 21.72 43.2338 21.88C43.6712 22.0293 44.0445 22.248 44.3538 22.536C44.6632 22.8133 44.9032 23.1493 45.0738 23.544C45.2445 23.9387 45.3298 24.376 45.3298 24.856C45.3298 25.3253 45.2498 25.7467 45.0898 26.12C44.9405 26.4827 44.7325 26.8027 44.4658 27.08C44.1992 27.3467 43.8952 27.5653 43.5538 27.736C43.2125 27.896 42.8605 28.008 42.4978 28.072V29.384H40.5458ZM41.5378 33.192C41.0898 33.192 40.7645 33.0854 40.5618 32.872C40.3592 32.6587 40.2578 32.3867 40.2578 32.056V31.736C40.2578 31.4053 40.3592 31.1333 40.5618 30.92C40.7645 30.7067 41.0898 30.6 41.5378 30.6C41.9965 30.6 42.3272 30.7067 42.5299 30.92C42.7325 31.1333 42.8338 31.4053 42.8338 31.736V32.056C42.8338 32.3867 42.7325 32.6587 42.5299 32.872C42.3272 33.0854 41.9965 33.192 41.5378 33.192Z" fill="#212529"/>
<path d="M33.8574 33.1919C33.0574 33.1919 32.3854 33.0586 31.8414 32.7919C31.2974 32.5146 30.8174 32.1359 30.4014 31.6559L31.6494 30.4399C31.9587 30.7919 32.2947 31.0693 32.6574 31.2719C33.0307 31.4746 33.4574 31.5759 33.9374 31.5759C34.428 31.5759 34.78 31.4906 34.9934 31.3199C35.2174 31.1493 35.3294 30.9146 35.3294 30.6159C35.3294 30.3706 35.2494 30.1786 35.0894 30.0399C34.94 29.8906 34.6787 29.7893 34.3054 29.7359L33.4734 29.6239C32.5667 29.5066 31.8734 29.2506 31.3934 28.8559C30.924 28.4506 30.6894 27.8639 30.6894 27.0959C30.6894 26.6906 30.764 26.3279 30.9134 26.0079C31.0627 25.6773 31.276 25.3999 31.5534 25.1759C31.8307 24.9413 32.1614 24.7653 32.5454 24.6479C32.94 24.5199 33.3774 24.4559 33.8574 24.4559C34.2627 24.4559 34.62 24.4879 34.9294 24.5519C35.2494 24.6053 35.5374 24.6906 35.7934 24.8079C36.0494 24.9146 36.284 25.0533 36.4974 25.2239C36.7107 25.3839 36.9187 25.5653 37.1214 25.7679L35.9214 26.9679C35.676 26.7119 35.3827 26.4986 35.0414 26.3279C34.7 26.1573 34.3267 26.0719 33.9214 26.0719C33.4734 26.0719 33.148 26.1519 32.9454 26.3119C32.7534 26.4719 32.6574 26.6799 32.6574 26.9359C32.6574 27.2133 32.7374 27.4266 32.8974 27.5759C33.068 27.7146 33.3507 27.8159 33.7454 27.8799L34.5934 27.9919C36.396 28.2479 37.2974 29.0693 37.2974 30.4559C37.2974 30.8613 37.212 31.2346 37.0414 31.5759C36.8814 31.9066 36.652 32.1946 36.3534 32.4399C36.0547 32.6746 35.692 32.8613 35.2654 32.9999C34.8494 33.1279 34.38 33.1919 33.8574 33.1919Z" fill="#212529"/>
<path d="M27.745 33C27.041 33 26.5024 32.8187 26.129 32.456C25.7664 32.0827 25.585 31.5547 25.585 30.872V26.28H24.353V24.648H24.993C25.3024 24.648 25.5104 24.5787 25.617 24.44C25.7344 24.2907 25.793 24.072 25.793 23.784V22.36H27.633V24.648H29.345V26.28H27.633V31.368H29.217V33H27.745Z" fill="#212529"/>
<path d="M15.7307 32.9999V24.6479H17.7787V26.0399H17.8587C18.0294 25.5919 18.296 25.2186 18.6587 24.9199C19.032 24.6106 19.544 24.4559 20.1947 24.4559C21.0587 24.4559 21.72 24.7386 22.1787 25.3039C22.6374 25.8693 22.8667 26.6746 22.8667 27.7199V32.9999H20.8187V27.9279C20.8187 27.3306 20.712 26.8826 20.4987 26.5839C20.2854 26.2853 19.9334 26.1359 19.4427 26.1359C19.2294 26.1359 19.0214 26.1679 18.8187 26.2319C18.6267 26.2853 18.4507 26.3706 18.2907 26.4879C18.1414 26.5946 18.0187 26.7333 17.9227 26.9039C17.8267 27.0639 17.7787 27.2559 17.7787 27.4799V32.9999H15.7307Z" fill="#212529"/>
<path d="M10.0273 33.1919C9.42994 33.1919 8.89127 33.0906 8.41127 32.8879C7.94194 32.6853 7.53661 32.3919 7.19527 32.0079C6.86461 31.6239 6.60861 31.1653 6.42727 30.6319C6.24594 30.0879 6.15527 29.4799 6.15527 28.8079C6.15527 28.1359 6.24594 27.5333 6.42727 26.9999C6.60861 26.4666 6.86461 26.0133 7.19527 25.6399C7.53661 25.2559 7.94194 24.9626 8.41127 24.7599C8.89127 24.5573 9.42994 24.4559 10.0273 24.4559C10.6246 24.4559 11.1633 24.5573 11.6433 24.7599C12.1233 24.9626 12.5286 25.2559 12.8593 25.6399C13.2006 26.0133 13.4619 26.4666 13.6433 26.9999C13.8246 27.5333 13.9153 28.1359 13.9153 28.8079C13.9153 29.4799 13.8246 30.0879 13.6433 30.6319C13.4619 31.1653 13.2006 31.6239 12.8593 32.0079C12.5286 32.3919 12.1233 32.6853 11.6433 32.8879C11.1633 33.0906 10.6246 33.1919 10.0273 33.1919ZM10.0273 31.5439C10.5713 31.5439 10.9979 31.3786 11.3073 31.0479C11.6166 30.7173 11.7713 30.2319 11.7713 29.5919V28.0399C11.7713 27.4106 11.6166 26.9306 11.3073 26.5999C10.9979 26.2693 10.5713 26.1039 10.0273 26.1039C9.49394 26.1039 9.07261 26.2693 8.76327 26.5999C8.45394 26.9306 8.29927 27.4106 8.29927 28.0399V29.5919C8.29927 30.2319 8.45394 30.7173 8.76327 31.0479C9.07261 31.3786 9.49394 31.5439 10.0273 31.5439Z" fill="#212529"/>
<path d="M1.59992 26.264H0.36792V24.648H1.59992V23.448C1.59992 22.712 1.79192 22.1466 2.17592 21.752C2.57059 21.3573 3.14659 21.16 3.90392 21.16H5.35992V22.792H3.64792V24.648H5.35992V26.264H3.64792V33H1.59992V26.264Z" fill="#212529"/>
<path d="M251.09 11.9999V3.64795H253.138V5.37595H253.218C253.271 5.15195 253.351 4.93862 253.458 4.73595C253.575 4.52262 253.725 4.33595 253.906 4.17595C254.087 4.01595 254.301 3.88795 254.546 3.79195C254.802 3.69595 255.095 3.64795 255.426 3.64795H255.874V5.58395H255.234C254.541 5.58395 254.018 5.68528 253.666 5.88795C253.314 6.09062 253.138 6.42128 253.138 6.87995V11.9999H251.09Z" fill="#212529"/>
<path d="M248.297 11.9999C247.849 11.9999 247.491 11.8719 247.225 11.6159C246.969 11.3493 246.809 10.9973 246.745 10.5599H246.649C246.51 11.1039 246.227 11.5146 245.801 11.7919C245.374 12.0586 244.846 12.1919 244.217 12.1919C243.363 12.1919 242.707 11.9679 242.249 11.5199C241.79 11.0719 241.561 10.4746 241.561 9.72793C241.561 8.86393 241.87 8.22393 242.489 7.80793C243.107 7.38127 243.987 7.16793 245.129 7.16793H246.553V6.55993C246.553 6.0906 246.43 5.72793 246.185 5.47193C245.939 5.21593 245.545 5.08793 245.001 5.08793C244.521 5.08793 244.131 5.1946 243.833 5.40793C243.545 5.6106 243.299 5.85593 243.097 6.14393L241.881 5.05593C242.19 4.57593 242.601 4.19193 243.113 3.90393C243.625 3.60527 244.302 3.45593 245.145 3.45593C246.275 3.45593 247.134 3.71193 247.721 4.22393C248.307 4.73593 248.601 5.47193 248.601 6.43193V10.3679H249.433V11.9999H248.297ZM244.905 10.7039C245.363 10.7039 245.753 10.6026 246.073 10.3999C246.393 10.1973 246.553 9.8986 246.553 9.50393V8.39993H245.241C244.174 8.39993 243.641 8.74127 243.641 9.42393V9.69593C243.641 10.0373 243.747 10.2933 243.961 10.4639C244.185 10.6239 244.499 10.7039 244.905 10.7039Z" fill="#212529"/>
<path d="M239.497 12C238.793 12 238.276 11.824 237.945 11.472C237.615 11.12 237.449 10.624 237.449 9.98397V0.159973H239.497V10.368H240.601V12H239.497Z" fill="#212529"/>
<path d="M233.035 10.6079H232.955C232.881 10.8213 232.779 11.0239 232.651 11.2159C232.534 11.3973 232.379 11.5626 232.187 11.7119C232.006 11.8613 231.782 11.9786 231.515 12.0639C231.259 12.1493 230.961 12.1919 230.619 12.1919C229.755 12.1919 229.094 11.9093 228.635 11.3439C228.177 10.7786 227.947 9.97328 227.947 8.92795V3.64795H229.995V8.71995C229.995 9.29595 230.107 9.73862 230.331 10.0479C230.555 10.3466 230.913 10.4959 231.403 10.4959C231.606 10.4959 231.803 10.4693 231.995 10.4159C232.198 10.3626 232.374 10.2826 232.523 10.1759C232.673 10.0586 232.795 9.91995 232.891 9.75995C232.987 9.58928 233.035 9.39195 233.035 9.16795V3.64795H235.083V11.9999H233.035V10.6079Z" fill="#212529"/>
<path d="M226.923 12.704C226.923 13.1413 226.843 13.5253 226.683 13.856C226.534 14.1973 226.283 14.48 225.931 14.704C225.579 14.928 225.126 15.0986 224.571 15.216C224.016 15.3333 223.339 15.392 222.539 15.392C221.835 15.392 221.238 15.344 220.747 15.248C220.256 15.1626 219.851 15.0346 219.531 14.864C219.222 14.704 218.998 14.5013 218.859 14.256C218.72 14.0106 218.651 13.7333 218.651 13.424C218.651 12.9546 218.779 12.5866 219.035 12.32C219.302 12.064 219.67 11.8986 220.139 11.824V11.648C219.798 11.5626 219.531 11.3973 219.339 11.152C219.158 10.896 219.067 10.5973 219.067 10.256C219.067 10.0426 219.11 9.85596 219.195 9.69596C219.28 9.5253 219.392 9.3813 219.531 9.26396C219.68 9.14663 219.846 9.05063 220.027 8.97596C220.208 8.89063 220.4 8.82663 220.603 8.78397V8.71996C220.091 8.4853 219.707 8.15996 219.451 7.74396C219.206 7.32796 219.083 6.84263 219.083 6.28796C219.083 5.43463 219.376 4.75196 219.963 4.23996C220.55 3.7173 221.408 3.45596 222.539 3.45596C222.795 3.45596 223.046 3.47196 223.291 3.50396C223.547 3.53596 223.782 3.5893 223.995 3.66396V3.39196C223.995 2.5813 224.39 2.17596 225.179 2.17596H226.475V3.74396H224.699V3.96796C225.136 4.2133 225.462 4.5333 225.675 4.92796C225.888 5.32263 225.995 5.77596 225.995 6.28796C225.995 7.13063 225.702 7.80796 225.115 8.31996C224.539 8.83196 223.68 9.08796 222.539 9.08796C222.048 9.08796 221.622 9.03997 221.259 8.94396C221.099 9.01863 220.96 9.11996 220.843 9.24796C220.726 9.3653 220.667 9.51463 220.667 9.69596C220.667 10.112 221.03 10.32 221.755 10.32H223.995C225.019 10.32 225.76 10.5333 226.219 10.96C226.688 11.376 226.923 11.9573 226.923 12.704ZM225.003 12.944C225.003 12.6773 224.896 12.4693 224.683 12.32C224.47 12.1706 224.102 12.096 223.579 12.096H220.731C220.443 12.3093 220.299 12.5973 220.299 12.96C220.299 13.28 220.432 13.5306 220.699 13.712C220.966 13.8933 221.419 13.984 222.059 13.984H223.083C223.755 13.984 224.24 13.8986 224.539 13.728C224.848 13.5573 225.003 13.296 225.003 12.944ZM222.539 7.69596C223.542 7.69596 224.043 7.2693 224.043 6.41597V6.14396C224.043 5.29063 223.542 4.86397 222.539 4.86397C221.536 4.86397 221.035 5.29063 221.035 6.14396V6.41597C221.035 7.2693 221.536 7.69596 222.539 7.69596Z" fill="#212529"/>
<path d="M213.841 12.1919C213.223 12.1919 212.668 12.0906 212.177 11.8879C211.697 11.6746 211.287 11.3813 210.945 11.0079C210.615 10.6239 210.359 10.1653 210.177 9.63193C209.996 9.08793 209.905 8.47993 209.905 7.80793C209.905 7.1466 209.991 6.54927 210.161 6.01593C210.343 5.4826 210.599 5.02927 210.929 4.65593C211.26 4.27193 211.665 3.9786 212.145 3.77593C212.625 3.5626 213.169 3.45593 213.777 3.45593C214.428 3.45593 214.993 3.56793 215.473 3.79193C215.953 4.01593 216.348 4.31993 216.657 4.70393C216.967 5.08793 217.196 5.53593 217.345 6.04793C217.505 6.54927 217.585 7.08793 217.585 7.66393V8.33593H212.033V8.54393C212.033 9.15193 212.204 9.6426 212.545 10.0159C212.887 10.3786 213.393 10.5599 214.065 10.5599C214.577 10.5599 214.993 10.4533 215.313 10.2399C215.644 10.0266 215.937 9.7546 216.193 9.42393L217.297 10.6559C216.956 11.1359 216.487 11.5146 215.889 11.7919C215.303 12.0586 214.62 12.1919 213.841 12.1919ZM213.809 4.99193C213.265 4.99193 212.833 5.17327 212.513 5.53593C212.193 5.8986 212.033 6.36793 212.033 6.94393V7.07193H215.457V6.92793C215.457 6.35193 215.313 5.88793 215.025 5.53593C214.748 5.17327 214.343 4.99193 213.809 4.99193Z" fill="#212529"/>
<path d="M204.262 11.9999V3.64795H206.31V5.37595H206.39C206.443 5.15195 206.523 4.93862 206.63 4.73595C206.747 4.52262 206.897 4.33595 207.078 4.17595C207.259 4.01595 207.473 3.88795 207.718 3.79195C207.974 3.69595 208.267 3.64795 208.598 3.64795H209.046V5.58395H208.406C207.713 5.58395 207.19 5.68528 206.838 5.88795C206.486 6.09062 206.31 6.42128 206.31 6.87995V11.9999H204.262Z" fill="#212529"/>
<path d="M196.071 10.608H195.991C195.842 11.088 195.559 11.472 195.143 11.76C194.727 12.048 194.242 12.192 193.687 12.192C192.631 12.192 191.82 11.8133 191.255 11.056C190.7 10.2986 190.423 9.21597 190.423 7.80797C190.423 6.41064 190.7 5.33864 191.255 4.59197C191.82 3.83464 192.631 3.45597 193.687 3.45597C194.242 3.45597 194.727 3.59997 195.143 3.88797C195.559 4.16531 195.842 4.54397 195.991 5.02397H196.071V0.159973H198.119V12H196.071V10.608ZM194.343 10.496C194.834 10.496 195.244 10.3786 195.575 10.144C195.906 9.90931 196.071 9.57331 196.071 9.13597V6.47997C196.071 6.07464 195.906 5.74931 195.575 5.50397C195.244 5.25864 194.834 5.13597 194.343 5.13597C193.81 5.13597 193.378 5.31731 193.047 5.67997C192.727 6.03197 192.567 6.50664 192.567 7.10397V8.54397C192.567 9.14131 192.727 9.61597 193.047 9.96797C193.378 10.32 193.81 10.496 194.343 10.496Z" fill="#212529"/>
<path d="M188.093 11.9999C187.645 11.9999 187.288 11.8719 187.021 11.6159C186.765 11.3493 186.605 10.9973 186.541 10.5599H186.445C186.307 11.1039 186.024 11.5146 185.597 11.7919C185.171 12.0586 184.643 12.1919 184.013 12.1919C183.16 12.1919 182.504 11.9679 182.045 11.5199C181.587 11.0719 181.357 10.4746 181.357 9.72793C181.357 8.86393 181.667 8.22393 182.285 7.80793C182.904 7.38127 183.784 7.16793 184.925 7.16793H186.349V6.55993C186.349 6.0906 186.227 5.72793 185.981 5.47193C185.736 5.21593 185.341 5.08793 184.797 5.08793C184.317 5.08793 183.928 5.1946 183.629 5.40793C183.341 5.6106 183.096 5.85593 182.893 6.14393L181.677 5.05593C181.987 4.57593 182.397 4.19193 182.909 3.90393C183.421 3.60527 184.099 3.45593 184.941 3.45593C186.072 3.45593 186.931 3.71193 187.517 4.22393C188.104 4.73593 188.397 5.47193 188.397 6.43193V10.3679H189.229V11.9999H188.093ZM184.701 10.7039C185.16 10.7039 185.549 10.6026 185.869 10.3999C186.189 10.1973 186.349 9.8986 186.349 9.50393V8.39993H185.037C183.971 8.39993 183.437 8.74127 183.437 9.42393V9.69593C183.437 10.0373 183.544 10.2933 183.757 10.4639C183.981 10.6239 184.296 10.7039 184.701 10.7039Z" fill="#212529"/>
<path d="M172.543 0.159973H174.591V5.03997H174.671C174.842 4.59197 175.109 4.21864 175.471 3.91997C175.845 3.61064 176.357 3.45597 177.007 3.45597C177.871 3.45597 178.533 3.73864 178.991 4.30397C179.45 4.86931 179.679 5.67464 179.679 6.71997V12H177.631V6.92797C177.631 6.33064 177.525 5.88264 177.311 5.58397C177.098 5.28531 176.746 5.13597 176.255 5.13597C176.042 5.13597 175.834 5.16797 175.631 5.23197C175.439 5.28531 175.263 5.37064 175.103 5.48797C174.954 5.59464 174.831 5.73331 174.735 5.90397C174.639 6.06397 174.591 6.25597 174.591 6.47997V12H172.543V0.159973Z" fill="#212529"/>
<path d="M163.514 12.1919C162.714 12.1919 162.042 12.0586 161.498 11.7919C160.954 11.5146 160.474 11.1359 160.058 10.6559L161.306 9.43993C161.615 9.79193 161.951 10.0693 162.314 10.2719C162.687 10.4746 163.114 10.5759 163.594 10.5759C164.084 10.5759 164.436 10.4906 164.65 10.3199C164.874 10.1493 164.986 9.9146 164.986 9.61593C164.986 9.3706 164.906 9.1786 164.746 9.03993C164.596 8.8906 164.335 8.78927 163.962 8.73593L163.13 8.62393C162.223 8.5066 161.53 8.2506 161.05 7.85593C160.58 7.4506 160.346 6.86393 160.346 6.09593C160.346 5.6906 160.42 5.32793 160.57 5.00793C160.719 4.67727 160.932 4.39993 161.21 4.17593C161.487 3.94127 161.818 3.76527 162.202 3.64793C162.596 3.51993 163.034 3.45593 163.514 3.45593C163.919 3.45593 164.276 3.48793 164.586 3.55193C164.906 3.60527 165.194 3.6906 165.45 3.80793C165.706 3.9146 165.94 4.05327 166.154 4.22393C166.367 4.38393 166.575 4.56527 166.778 4.76793L165.578 5.96793C165.332 5.71193 165.039 5.4986 164.698 5.32793C164.356 5.15727 163.983 5.07193 163.578 5.07193C163.13 5.07193 162.804 5.15193 162.602 5.31193C162.41 5.47193 162.314 5.67993 162.314 5.93593C162.314 6.21327 162.394 6.4266 162.554 6.57593C162.724 6.7146 163.007 6.81593 163.402 6.87993L164.25 6.99193C166.052 7.24793 166.954 8.06927 166.954 9.45593C166.954 9.86127 166.868 10.2346 166.698 10.5759C166.538 10.9066 166.308 11.1946 166.01 11.4399C165.711 11.6746 165.348 11.8613 164.922 11.9999C164.506 12.1279 164.036 12.1919 163.514 12.1919Z" fill="#212529"/>
<path d="M156.368 10.608H156.288C156.139 11.088 155.856 11.472 155.44 11.76C155.024 12.048 154.539 12.192 153.984 12.192C152.928 12.192 152.117 11.8133 151.552 11.056C150.997 10.2986 150.72 9.21597 150.72 7.80797C150.72 6.41064 150.997 5.33864 151.552 4.59197C152.117 3.83464 152.928 3.45597 153.984 3.45597C154.539 3.45597 155.024 3.59997 155.44 3.88797C155.856 4.16531 156.139 4.54397 156.288 5.02397H156.368V0.159973H158.416V12H156.368V10.608ZM154.64 10.496C155.131 10.496 155.541 10.3786 155.872 10.144C156.203 9.90931 156.368 9.57331 156.368 9.13597V6.47997C156.368 6.07464 156.203 5.74931 155.872 5.50397C155.541 5.25864 155.131 5.13597 154.64 5.13597C154.107 5.13597 153.675 5.31731 153.344 5.67997C153.024 6.03197 152.864 6.50664 152.864 7.10397V8.54397C152.864 9.14131 153.024 9.61597 153.344 9.96797C153.675 10.32 154.107 10.496 154.64 10.496Z" fill="#212529"/>
<path d="M141.778 11.9999V3.64793H143.826V5.03993H143.906C144.076 4.59193 144.343 4.2186 144.706 3.91993C145.079 3.6106 145.591 3.45593 146.242 3.45593C147.106 3.45593 147.767 3.7386 148.226 4.30393C148.684 4.86927 148.914 5.6746 148.914 6.71993V11.9999H146.866V6.92793C146.866 6.3306 146.759 5.8826 146.546 5.58393C146.332 5.28527 145.98 5.13593 145.49 5.13593C145.276 5.13593 145.068 5.16793 144.866 5.23193C144.674 5.28527 144.498 5.3706 144.338 5.48793C144.188 5.5946 144.066 5.73327 143.97 5.90393C143.874 6.06393 143.826 6.25593 143.826 6.47993V11.9999H141.778Z" fill="#212529"/>
<path d="M138.984 11.9999C138.536 11.9999 138.179 11.8719 137.912 11.6159C137.656 11.3493 137.496 10.9973 137.432 10.5599H137.336C137.197 11.1039 136.915 11.5146 136.488 11.7919C136.061 12.0586 135.533 12.1919 134.904 12.1919C134.051 12.1919 133.395 11.9679 132.936 11.5199C132.477 11.0719 132.248 10.4746 132.248 9.72793C132.248 8.86393 132.557 8.22393 133.176 7.80793C133.795 7.38127 134.675 7.16793 135.816 7.16793H137.24V6.55993C137.24 6.0906 137.117 5.72793 136.872 5.47193C136.627 5.21593 136.232 5.08793 135.688 5.08793C135.208 5.08793 134.819 5.1946 134.52 5.40793C134.232 5.6106 133.987 5.85593 133.784 6.14393L132.568 5.05593C132.877 4.57593 133.288 4.19193 133.8 3.90393C134.312 3.60527 134.989 3.45593 135.832 3.45593C136.963 3.45593 137.821 3.71193 138.408 4.22393C138.995 4.73593 139.288 5.47193 139.288 6.43193V10.3679H140.12V11.9999H138.984ZM135.592 10.7039C136.051 10.7039 136.44 10.6026 136.76 10.3999C137.08 10.1973 137.24 9.8986 137.24 9.50393V8.39993H135.928C134.861 8.39993 134.328 8.74127 134.328 9.42393V9.69593C134.328 10.0373 134.435 10.2933 134.648 10.4639C134.872 10.6239 135.187 10.7039 135.592 10.7039Z" fill="#212529"/>
<path d="M126.731 11.9999V3.64795H128.779V5.37595H128.859C128.912 5.15195 128.992 4.93862 129.099 4.73595C129.216 4.52262 129.365 4.33595 129.547 4.17595C129.728 4.01595 129.941 3.88795 130.187 3.79195C130.443 3.69595 130.736 3.64795 131.067 3.64795H131.515V5.58395H130.875C130.181 5.58395 129.659 5.68528 129.307 5.88795C128.955 6.09062 128.779 6.42128 128.779 6.87995V11.9999H126.731Z" fill="#212529"/>
<path d="M117.137 0.159973H119.185V5.02397H119.249C119.398 4.54397 119.681 4.16531 120.097 3.88797C120.513 3.59997 120.998 3.45597 121.553 3.45597C122.62 3.45597 123.43 3.83464 123.985 4.59197C124.55 5.33864 124.833 6.41064 124.833 7.80797C124.833 9.21597 124.55 10.2986 123.985 11.056C123.43 11.8133 122.62 12.192 121.553 12.192C120.998 12.192 120.513 12.048 120.097 11.76C119.692 11.472 119.409 11.088 119.249 10.608H119.185V12H117.137V0.159973ZM120.897 10.496C121.43 10.496 121.862 10.32 122.193 9.96797C122.524 9.61597 122.689 9.14131 122.689 8.54397V7.10397C122.689 6.50664 122.524 6.03197 122.193 5.67997C121.862 5.31731 121.43 5.13597 120.897 5.13597C120.406 5.13597 119.996 5.25864 119.665 5.50397C119.345 5.74931 119.185 6.07464 119.185 6.47997V9.13597C119.185 9.57331 119.345 9.90931 119.665 10.144C119.996 10.3786 120.406 10.496 120.897 10.496Z" fill="#212529"/>
<path d="M108.107 12.1919C107.307 12.1919 106.635 12.0586 106.091 11.7919C105.547 11.5146 105.067 11.1359 104.651 10.6559L105.899 9.43993C106.209 9.79193 106.545 10.0693 106.907 10.2719C107.281 10.4746 107.707 10.5759 108.187 10.5759C108.678 10.5759 109.03 10.4906 109.243 10.3199C109.467 10.1493 109.579 9.9146 109.579 9.61593C109.579 9.3706 109.499 9.1786 109.339 9.03993C109.19 8.8906 108.929 8.78927 108.555 8.73593L107.723 8.62393C106.817 8.5066 106.123 8.2506 105.643 7.85593C105.174 7.4506 104.939 6.86393 104.939 6.09593C104.939 5.6906 105.014 5.32793 105.163 5.00793C105.313 4.67727 105.526 4.39993 105.803 4.17593C106.081 3.94127 106.411 3.76527 106.795 3.64793C107.19 3.51993 107.627 3.45593 108.107 3.45593C108.513 3.45593 108.87 3.48793 109.179 3.55193C109.499 3.60527 109.787 3.6906 110.043 3.80793C110.299 3.9146 110.534 4.05327 110.747 4.22393C110.961 4.38393 111.169 4.56527 111.371 4.76793L110.171 5.96793C109.926 5.71193 109.633 5.4986 109.291 5.32793C108.95 5.15727 108.577 5.07193 108.171 5.07193C107.723 5.07193 107.398 5.15193 107.195 5.31193C107.003 5.47193 106.907 5.67993 106.907 5.93593C106.907 6.21327 106.987 6.4266 107.147 6.57593C107.318 6.7146 107.601 6.81593 107.995 6.87993L108.843 6.99193C110.646 7.24793 111.547 8.06927 111.547 9.45593C111.547 9.86127 111.462 10.2346 111.291 10.5759C111.131 10.9066 110.902 11.1946 110.603 11.4399C110.305 11.6746 109.942 11.8613 109.515 11.9999C109.099 12.1279 108.63 12.1919 108.107 12.1919Z" fill="#212529"/>
<path d="M100.957 10.6079H100.877C100.802 10.8213 100.701 11.0239 100.573 11.2159C100.456 11.3973 100.301 11.5626 100.109 11.7119C99.9278 11.8613 99.7038 11.9786 99.4371 12.0639C99.1811 12.1493 98.8825 12.1919 98.5411 12.1919C97.6771 12.1919 97.0158 11.9093 96.5571 11.3439C96.0985 10.7786 95.8691 9.97328 95.8691 8.92795V3.64795H97.9171V8.71995C97.9171 9.29595 98.0291 9.73862 98.2531 10.0479C98.4771 10.3466 98.8345 10.4959 99.3251 10.4959C99.5278 10.4959 99.7251 10.4693 99.9171 10.4159C100.12 10.3626 100.296 10.2826 100.445 10.1759C100.594 10.0586 100.717 9.91995 100.813 9.75995C100.909 9.58928 100.957 9.39195 100.957 9.16795V3.64795H103.005V11.9999H100.957V10.6079Z" fill="#212529"/>
<path d="M90.2617 12.1919C89.6643 12.1919 89.1256 12.0906 88.6456 11.8879C88.1763 11.6853 87.771 11.3919 87.4296 11.0079C87.099 10.6239 86.843 10.1653 86.6617 9.63193C86.4803 9.08793 86.3896 8.47993 86.3896 7.80793C86.3896 7.13593 86.4803 6.53327 86.6617 5.99993C86.843 5.4666 87.099 5.01327 87.4296 4.63993C87.771 4.25593 88.1763 3.9626 88.6456 3.75993C89.1256 3.55727 89.6643 3.45593 90.2617 3.45593C90.859 3.45593 91.3976 3.55727 91.8776 3.75993C92.3576 3.9626 92.763 4.25593 93.0937 4.63993C93.435 5.01327 93.6963 5.4666 93.8776 5.99993C94.059 6.53327 94.1497 7.13593 94.1497 7.80793C94.1497 8.47993 94.059 9.08793 93.8776 9.63193C93.6963 10.1653 93.435 10.6239 93.0937 11.0079C92.763 11.3919 92.3576 11.6853 91.8776 11.8879C91.3976 12.0906 90.859 12.1919 90.2617 12.1919ZM90.2617 10.5439C90.8057 10.5439 91.2323 10.3786 91.5416 10.0479C91.851 9.71727 92.0056 9.23193 92.0056 8.59193V7.03993C92.0056 6.4106 91.851 5.9306 91.5416 5.59993C91.2323 5.26927 90.8057 5.10393 90.2617 5.10393C89.7283 5.10393 89.307 5.26927 88.9977 5.59993C88.6883 5.9306 88.5336 6.4106 88.5336 7.03993V8.59193C88.5336 9.23193 88.6883 9.71727 88.9977 10.0479C89.307 10.3786 89.7283 10.5439 90.2617 10.5439Z" fill="#212529"/>
<path d="M72.7463 11.9999V3.64793H74.7943V5.03993H74.8743C75.0343 4.6026 75.2903 4.22927 75.6423 3.91993C75.9943 3.6106 76.485 3.45593 77.1143 3.45593C77.6903 3.45593 78.1863 3.5946 78.6023 3.87193C79.0183 4.14927 79.3277 4.5706 79.5303 5.13593H79.5623C79.7117 4.6666 80.005 4.27193 80.4423 3.95193C80.8903 3.62127 81.4503 3.45593 82.1223 3.45593C82.9437 3.45593 83.573 3.7386 84.0103 4.30393C84.4583 4.86927 84.6823 5.6746 84.6823 6.71993V11.9999H82.6343V6.92793C82.6343 5.73327 82.1863 5.13593 81.2903 5.13593C81.0877 5.13593 80.8903 5.16793 80.6983 5.23193C80.517 5.28527 80.3517 5.3706 80.2023 5.48793C80.0637 5.5946 79.9517 5.73327 79.8663 5.90393C79.781 6.06393 79.7383 6.25593 79.7383 6.47993V11.9999H77.6903V6.92793C77.6903 5.73327 77.2423 5.13593 76.3463 5.13593C76.1543 5.13593 75.9623 5.16793 75.7703 5.23193C75.589 5.28527 75.4237 5.3706 75.2743 5.48793C75.1357 5.5946 75.0183 5.73327 74.9223 5.90393C74.837 6.06393 74.7943 6.25593 74.7943 6.47993V11.9999H72.7463Z" fill="#212529"/>
<path d="M69.9528 11.9999C69.5048 11.9999 69.1475 11.8719 68.8808 11.6159C68.6248 11.3493 68.4648 10.9973 68.4008 10.5599H68.3048C68.1661 11.1039 67.8835 11.5146 67.4568 11.7919C67.0301 12.0586 66.5021 12.1919 65.8728 12.1919C65.0195 12.1919 64.3635 11.9679 63.9048 11.5199C63.4461 11.0719 63.2168 10.4746 63.2168 9.72793C63.2168 8.86393 63.5261 8.22393 64.1448 7.80793C64.7635 7.38127 65.6435 7.16793 66.7848 7.16793H68.2088V6.55993C68.2088 6.0906 68.0861 5.72793 67.8408 5.47193C67.5955 5.21593 67.2008 5.08793 66.6568 5.08793C66.1768 5.08793 65.7875 5.1946 65.4888 5.40793C65.2008 5.6106 64.9555 5.85593 64.7528 6.14393L63.5368 5.05593C63.8461 4.57593 64.2568 4.19193 64.7688 3.90393C65.2808 3.60527 65.9581 3.45593 66.8008 3.45593C67.9315 3.45593 68.7901 3.71193 69.3768 4.22393C69.9635 4.73593 70.2568 5.47193 70.2568 6.43193V10.3679H71.0888V11.9999H69.9528ZM66.5608 10.7039C67.0195 10.7039 67.4088 10.6026 67.7288 10.3999C68.0488 10.1973 68.2088 9.8986 68.2088 9.50393V8.39993H66.8968C65.8301 8.39993 65.2968 8.74127 65.2968 9.42393V9.69593C65.2968 10.0373 65.4035 10.2933 65.6168 10.4639C65.8408 10.6239 66.1555 10.7039 66.5608 10.7039Z" fill="#212529"/>
<path d="M58.6312 5.26397H57.3992V3.64797H58.6312V2.44797C58.6312 1.71197 58.8232 1.14664 59.2072 0.751973C59.6018 0.357306 60.1778 0.159973 60.9352 0.159973H62.3912V1.79197H60.6792V3.64797H62.3912V5.26397H60.6792V12H58.6312V5.26397Z" fill="#212529"/>
<path d="M49.2562 5.26397H48.0242V3.64797H49.2562V2.44797C49.2562 1.71197 49.4482 1.14664 49.8322 0.751973C50.2268 0.357306 50.8028 0.159973 51.5602 0.159973H53.0162V1.79197H51.3042V3.64797H53.0162V5.26397H51.3042V12H49.2562V5.26397Z" fill="#212529"/>
<path d="M45.4422 2.43196C45.0155 2.43196 44.7062 2.33596 44.5142 2.14396C44.3329 1.95197 44.2422 1.70663 44.2422 1.40796V1.08797C44.2422 0.789298 44.3329 0.543965 44.5142 0.351965C44.7062 0.159965 45.0155 0.0639648 45.4422 0.0639648C45.8582 0.0639648 46.1622 0.159965 46.3542 0.351965C46.5462 0.543965 46.6422 0.789298 46.6422 1.08797V1.40796C46.6422 1.70663 46.5462 1.95197 46.3542 2.14396C46.1622 2.33596 45.8582 2.43196 45.4422 2.43196ZM44.4182 3.64797H46.4662V12H44.4182V3.64797Z" fill="#212529"/>
<path d="M37.2607 12C36.5567 12 36.018 11.8187 35.6446 11.456C35.282 11.0827 35.1007 10.5547 35.1007 9.87199V5.27999H33.8687V3.64799H34.5087C34.818 3.64799 35.026 3.57865 35.1327 3.43999C35.25 3.29065 35.3087 3.07199 35.3087 2.78399V1.35999H37.1487V3.64799H38.8606V5.27999H37.1487V10.368H38.7327V12H37.2607Z" fill="#212529"/>
<path d="M31.9215 11.9999C31.4735 11.9999 31.1162 11.8719 30.8495 11.6159C30.5935 11.3493 30.4335 10.9973 30.3695 10.5599H30.2735C30.1349 11.1039 29.8522 11.5146 29.4255 11.7919C28.9989 12.0586 28.4709 12.1919 27.8415 12.1919C26.9882 12.1919 26.3322 11.9679 25.8735 11.5199C25.4149 11.0719 25.1855 10.4746 25.1855 9.72793C25.1855 8.86393 25.4949 8.22393 26.1135 7.80793C26.7322 7.38127 27.6122 7.16793 28.7535 7.16793H30.1775V6.55993C30.1775 6.0906 30.0549 5.72793 29.8095 5.47193C29.5642 5.21593 29.1695 5.08793 28.6255 5.08793C28.1455 5.08793 27.7562 5.1946 27.4575 5.40793C27.1695 5.6106 26.9242 5.85593 26.7215 6.14393L25.5055 5.05593C25.8149 4.57593 26.2255 4.19193 26.7375 3.90393C27.2495 3.60527 27.9269 3.45593 28.7695 3.45593C29.9002 3.45593 30.7589 3.71193 31.3455 4.22393C31.9322 4.73593 32.2255 5.47193 32.2255 6.43193V10.3679H33.0575V11.9999H31.9215ZM28.5295 10.7039C28.9882 10.7039 29.3775 10.6026 29.6975 10.3999C30.0175 10.1973 30.1775 9.8986 30.1775 9.50393V8.39993H28.8655C27.7989 8.39993 27.2655 8.74127 27.2655 9.42393V9.69593C27.2655 10.0373 27.3722 10.2933 27.5855 10.4639C27.8095 10.6239 28.1242 10.7039 28.5295 10.7039Z" fill="#212529"/>
<path d="M16.3713 0.159973H18.4193V5.03997H18.4993C18.67 4.59197 18.9367 4.21864 19.2993 3.91997C19.6727 3.61064 20.1847 3.45597 20.8353 3.45597C21.6993 3.45597 22.3607 3.73864 22.8193 4.30397C23.278 4.86931 23.5073 5.67464 23.5073 6.71997V12H21.4593V6.92797C21.4593 6.33064 21.3527 5.88264 21.1393 5.58397C20.926 5.28531 20.574 5.13597 20.0833 5.13597C19.87 5.13597 19.662 5.16797 19.4593 5.23197C19.2673 5.28531 19.0913 5.37064 18.9313 5.48797C18.782 5.59464 18.6593 5.73331 18.5633 5.90397C18.4673 6.06397 18.4193 6.25597 18.4193 6.47997V12H16.3713V0.159973Z" fill="#212529"/>
<path d="M3.00802 12L0.416016 0.83197H2.52802L3.63202 6.19197L4.32002 9.61597H4.36802L5.16802 6.19197L6.44802 0.83197H8.78402L10.064 6.19197L10.848 9.61597H10.896L11.6 6.19197L12.736 0.83197H14.752L12.08 12H9.69602L8.27202 6.09597L7.58402 3.15197H7.55202L6.83202 6.09597L5.40802 12H3.00802Z" fill="#212529"/>
</svg>
